<?xml version="1.0" encoding="UTF-8"?>
<!DOCTYPE svg PUBLIC "-//W3C//DTD SVG 1.1//EN" "http://www.w3.org/Graphics/SVG/1.1/DTD/svg11.dtd">
<!-- Creator: CorelDRAW X6 -->
<svg xmlns="http://www.w3.org/2000/svg" xml:space="preserve" width="810px" height="810px" version="1.1" style="shape-rendering:geometricPrecision; text-rendering:geometricPrecision; image-rendering:optimizeQuality; fill-rule:evenodd; clip-rule:evenodd"
viewBox="0 0 810 810"
 xmlns:xlink="http://www.w3.org/1999/xlink">
 <defs>
  <style type="text/css">
   <![CDATA[
    .str0 {stroke:#5F3773;stroke-width:10.0004}
    .fil0 {fill:none}
    .fil1 {fill:#5F3773}
    .fil3 {fill:#C3BCC9}
    .fil2 {fill:white}
   ]]>
  </style>
 </defs>
 <g id="Capa_x0020_1">
  <metadata id="CorelCorpID_0Corel-Layer"/>
  <g id="_236879776">
   <rect class="fil0 str0" x="5" y="5" width="800" height="800" rx="118" ry="118"/>
   <path class="fil1" d="M685 443l0 129c-2,5 -3,3 -19,3 -34,0 -138,2 -155,-1l-1 -133 166 -1c10,0 7,1 9,3zm-174 156c-2,23 -3,41 22,42 21,1 45,0 66,0 71,0 92,11 86,-42l-173 0zm0 -183c43,0 136,2 174,0 0,-30 5,-40 -25,-45 -20,-3 -26,-18 -29,-41l-68 0c-6,63 -53,22 -53,64l0 22zm33 -143c0,0 1,-1 1,-1l13 -1c21,0 81,-1 93,1l1 28c-2,8 1,3 -4,5l-104 0 0 -32zm-59 238l0 33c-1,18 -2,74 1,89 7,33 39,33 60,33 30,0 60,0 90,0 35,0 56,2 68,-25 7,-15 7,-252 1,-267 -4,-10 -13,-20 -22,-24 -18,-8 -24,4 -28,-18 11,-9 19,-3 19,-25 2,-74 13,-60 -122,-60 -41,0 -35,4 -35,56 0,7 0,15 4,20 3,5 5,4 11,7l4 2 -2 12c-30,8 -50,8 -50,57 0,36 -1,73 0,109z"/>
   <path class="fil1" d="M486 544l0 -33c-8,-11 -9,-32 -42,-43 -25,-8 -50,3 -63,16 -13,13 -49,100 -49,120 -1,49 55,81 97,52 29,-20 42,-91 57,-111zm-105 -5l67 27c17,-28 20,-60 -9,-73 -33,-15 -52,20 -58,45zm57 51l-66 -28c-4,5 -15,33 -16,42 0,16 11,30 22,35 35,14 54,-22 59,-48z"/>
   <path class="fil2" d="M649 305c3,-9 2,-22 1,-32l-106 0 0 32 104 0z"/>
   <path class="fil3" d="M685 572l-173 1 0 -131 173 1c-2,-2 1,-3 -9,-3l-166 1 1 133c17,2 121,1 155,1 16,0 17,2 19,-3z"/>
   <path class="fil1" d="M102 376l25 0 0 -26c64,-2 233,-2 299,0l0 27 25 -1c3,-34 2,-95 1,-130 -1,-23 -25,-26 -26,2 0,22 1,45 0,66l-298 0 -1 -61c0,-13 5,-54 -8,-59 -24,-8 -18,30 -18,47 0,43 -2,93 0,135z"/>
   <path class="fil1" d="M229 302l161 0c29,0 27,-27 12,-33 -8,-3 -111,-2 -129,-2 -55,0 -43,3 -100,-30 -25,-15 -43,4 -31,21 2,3 71,44 86,44z"/>
   <path class="fil1" d="M446 430c-17,10 -24,-12 -13,-18 5,-3 12,-2 15,3 7,10 -2,15 -2,15zm-20 -40c-42,17 -16,81 27,63 39,-16 18,-81 -27,-63z"/>
   <path class="fil1" d="M104 415c11,-8 26,-5 20,11 -4,9 -25,13 -20,-11zm3 -27c-46,12 -28,77 17,66 41,-11 26,-77 -17,-66z"/>
  </g>
 </g>
</svg>
