<?xml version="1.0" encoding="UTF-8"?>
<!DOCTYPE svg PUBLIC "-//W3C//DTD SVG 1.1//EN" "http://www.w3.org/Graphics/SVG/1.1/DTD/svg11.dtd">
<!-- Creator: CorelDRAW X6 -->
<svg xmlns="http://www.w3.org/2000/svg" xml:space="preserve" width="810px" height="798px" version="1.1" style="shape-rendering:geometricPrecision; text-rendering:geometricPrecision; image-rendering:optimizeQuality; fill-rule:evenodd; clip-rule:evenodd"
viewBox="0 0 810 798"
 xmlns:xlink="http://www.w3.org/1999/xlink">
 <defs>
  <style type="text/css">
   <![CDATA[
    .str0 {stroke:#5F3773;stroke-width:10.0004}
    .fil0 {fill:none}
    .fil1 {fill:#5F3773}
    .fil3 {fill:#C3BCC9}
    .fil2 {fill:white}
   ]]>
  </style>
 </defs>
 <g id="Capa_x0020_1">
  <metadata id="CorelCorpID_0Corel-Layer"/>
  <g id="_237010320">
   <g>
    <rect class="fil0 str0" x="426" y="414" width="379" height="379" rx="56" ry="56"/>
    <path class="fil1" d="M748 622l0 61c-1,2 -2,1 -9,1 -16,0 -65,1 -73,0l0 -63 78 0c5,0 3,0 4,1zm-82 74c-1,11 -1,19 10,20 10,1 21,0 31,0 34,0 44,5 41,-20l-82 0zm0 -87c20,0 65,1 82,0 0,-14 2,-19 -12,-21 -10,-2 -13,-9 -14,-19l-32 0c-3,30 -25,10 -25,30l0 10zm16 -68c0,0 0,0 1,0l6 -1c10,0 39,-1 44,0l0 13c-1,4 1,2 -2,3l-49 0 0 -15zm-28 113l0 16c0,8 -1,35 1,42 3,16 18,16 28,16 14,0 29,0 43,0 17,0 26,1 32,-12 3,-7 3,-119 1,-126 -2,-5 -6,-9 -11,-11 -8,-4 -11,2 -13,-9 5,-4 9,-1 9,-12 1,-35 6,-28 -58,-29 -19,0 -16,2 -17,27 0,4 0,7 2,9 2,2 2,2 5,3l2 1 -1 6c-14,4 -24,4 -24,27 0,17 0,35 0,52z"/>
    <path class="fil1" d="M654 669l0 -16c-4,-5 -4,-15 -20,-20 -12,-4 -24,1 -30,8 -6,6 -23,47 -23,57 0,23 26,38 46,24 14,-10 20,-43 27,-53zm-49 -3l32 13c8,-13 9,-28 -4,-34 -16,-7 -25,9 -28,21zm27 24l-31 -13c-2,2 -7,15 -7,20 0,8 5,14 11,17 16,6 25,-10 28,-23z"/>
    <path class="fil2" d="M731 556c1,-4 1,-10 1,-15l-50 0 0 15 49 0z"/>
    <path class="fil3" d="M748 683l-82 0 0 -62 82 0c-1,-1 1,-1 -4,-1l-78 0 0 63c8,1 57,0 73,0 7,0 8,1 9,-1z"/>
    <path class="fil1" d="M472 590l12 0 0 -12c30,-1 110,-1 141,0l0 13 12 0c1,-16 1,-45 0,-61 0,-11 -12,-12 -12,1 0,10 1,21 0,31l-141 0 0 -29c0,-6 2,-26 -4,-28 -11,-4 -8,14 -8,22 0,20 -1,44 0,64z"/>
    <path class="fil1" d="M532 555l76 0c14,0 13,-13 6,-16 -4,-2 -53,-1 -61,-1 -26,0 -20,1 -47,-14 -12,-7 -20,2 -14,10 1,2 33,21 41,21z"/>
    <path class="fil1" d="M635 615c-8,5 -11,-6 -6,-9 3,-2 6,-1 7,1 3,5 -1,7 -1,7zm-10 -19c-20,8 -7,38 13,30 18,-8 8,-38 -13,-30z"/>
    <path class="fil1" d="M473 608c5,-4 13,-2 10,5 -2,4 -12,6 -10,-5zm1 -13c-22,5 -13,37 8,31 20,-5 12,-36 -8,-31z"/>
   </g>
   <g>
    <rect class="fil0 str0" x="262" y="5" width="379" height="379" rx="56" ry="56"/>
    <path class="fil1" d="M348 277c11,-2 19,5 21,13 2,11 -5,19 -13,21 -23,5 -31,-29 -8,-34zm214 0c11,-2 19,6 21,14 2,11 -6,19 -14,21 -23,4 -29,-30 -6,-35zm-107 0c10,-2 19,5 21,14 5,23 -30,30 -35,7 -2,-11 5,-19 14,-21zm-136 21c1,11 10,19 20,21 5,1 14,1 20,1l185 0c10,0 31,1 38,-2 22,-11 18,-43 -5,-48 -5,-1 -14,-1 -20,-1 -62,0 -124,0 -185,0 -11,0 -30,-1 -38,2 -8,4 -16,13 -14,26z"/>
    <path class="fil1" d="M347 343c1,5 8,3 12,3l197 0c4,0 12,1 12,-3 0,-1 0,-14 0,-15 -1,-4 -8,-3 -13,-3l-197 0c-4,0 -11,-1 -12,3 0,1 0,13 0,15z"/>
    <path class="fil1" d="M527 85c2,1 5,0 7,0 4,0 11,3 5,-9 -4,-8 -13,-14 -24,-14l-102 0c-6,0 -1,3 4,9 4,6 2,6 11,6l71 0c8,0 19,-2 24,3 2,2 2,3 4,5z"/>
    <path class="fil1" d="M527 177c-1,1 -1,5 -4,8 -7,8 -6,15 -6,28 0,4 0,7 0,11 0,13 -1,10 24,10 3,0 7,1 8,-3 1,-2 0,-30 0,-33 0,-5 -2,-9 -4,-12 -7,-8 0,-9 -8,-9 -2,0 -10,0 -11,0z"/>
    <path class="fil1" d="M430 207c-2,8 1,2 -5,10 -2,3 -4,7 -4,11l0 30c0,5 2,6 7,6 29,0 25,3 25,-14 0,-7 1,-20 0,-26 -1,-4 -2,-7 -4,-9 -4,-5 -2,-3 -4,-9 -2,-1 -15,-1 -16,0z"/>
    <path class="fil1" d="M360 229l0 31c0,6 7,5 17,5 12,0 16,2 16,-6l0 -29c0,-6 -2,-10 -5,-14 -3,-3 -2,-3 -3,-6 -1,-3 -6,-2 -8,-2 -14,0 -5,1 -11,8 -3,4 -5,6 -5,14z"/>
    <path class="fil1" d="M493 170l24 -28c4,-5 0,-6 -4,-10 -3,-3 -4,-8 -9,-2l-20 23c-2,2 -3,3 -4,5 -10,13 -11,11 5,32 2,3 5,7 7,10 8,9 20,0 16,-9 -2,-4 -13,-17 -14,-21z"/>
    <path class="fil1" d="M576 170c-1,2 -12,16 -14,20 -5,9 8,19 15,10l15 -20c2,-3 6,-7 5,-12 -1,-3 -8,-12 -11,-15l-16 -18c-11,-13 -7,-7 -18,1 -2,2 -2,4 0,6l24 28z"/>
    <path class="fil1" d="M533 102c7,-1 12,4 13,9 1,7 -4,12 -9,13 -15,3 -19,-20 -4,-23zm-3 -12c-12,2 -21,13 -19,28 2,11 14,21 27,18 11,-2 21,-13 18,-28 -2,-11 -13,-21 -27,-18z"/>
    <path class="fil1" d="M338 146c5,7 23,12 35,11 25,-2 45,-21 47,-46 1,-13 -4,-30 -11,-36l-53 53c-6,6 -13,12 -18,18z"/>
    <path class="fil1" d="M330 138l71 -71c-20,-18 -51,-12 -68,3 -18,17 -20,47 -4,67z"/>
    <path class="fil1" d="M350 282c16,-3 20,22 4,25 -16,3 -21,-22 -4,-25zm-2 -5c-23,5 -15,39 8,34 8,-2 16,-10 13,-21 -2,-8 -10,-16 -21,-13z"/>
    <path class="fil1" d="M446 298c-4,-16 20,-23 24,-7 5,16 -20,23 -24,7zm9 -21c-9,2 -16,10 -14,21 5,23 39,16 35,-7 -2,-8 -10,-16 -21,-14z"/>
    <path class="fil1" d="M553 297c-3,-17 22,-20 25,-4 3,17 -22,20 -25,4zm9 -19c-23,5 -17,38 6,35 9,-1 16,-10 14,-21 -2,-8 -10,-16 -21,-14z"/>
    <path class="fil1" d="M528 115c-3,-9 11,-13 13,-4 3,9 -10,13 -13,4zm5 -14c-15,3 -11,25 4,23 5,-1 10,-6 9,-13 -1,-5 -6,-10 -13,-9z"/>
    <path class="fil1" d="M426 192c-3,1 -3,3 -2,7 1,3 4,3 7,3 14,0 23,3 20,-7 -1,-3 -3,-3 -7,-3 -3,0 -17,0 -18,0z"/>
    <path class="fil1" d="M543 162l-18 0c-7,0 -4,8 -4,9 2,2 10,1 13,1 7,0 16,2 14,-7 -1,-2 -2,-3 -5,-3z"/>
    <path class="fil1" d="M364 192c-2,1 -2,5 -2,7 1,3 4,2 7,2 3,0 17,1 18,-1 2,-1 2,-5 1,-7 -1,-3 -4,-2 -7,-2 -2,0 -17,0 -18,0z"/>
   </g>
   <g>
    <rect class="fil0 str0" x="5" y="414" width="379" height="379" rx="56" ry="56"/>
    <path class="fil1" d="M128 488c0,15 0,30 0,45 0,3 -6,12 -7,15 -3,6 -3,7 -8,14l-33 57c-6,12 -12,17 -13,32 -1,13 5,25 16,31l11 3c2,0 3,1 5,1 7,0 15,0 23,0 28,-1 62,0 90,0 1,0 3,0 4,0 1,-5 3,-11 9,-20 10,-16 20,-31 30,-47l0 -1 -33 -57c-2,-3 -16,-26 -16,-29l0 -46c6,0 13,2 17,-6 2,-4 0,-11 -3,-13 -5,-4 -20,-2 -29,-2l-73 0c-9,1 -14,17 -2,21 3,1 8,0 11,1zm99 199c8,0 16,-1 21,-3 1,0 1,0 2,-1 2,-1 0,0 2,-1 1,-1 2,-1 3,-2l3 -3c0,0 1,-1 1,-1 -1,-1 -1,-1 -2,-2l9 -15 0 0c0,-2 0,-5 0,-7 0,-4 0,-6 -1,-10 -1,-5 -3,-9 -5,-13l-23 36c-3,5 -10,13 -11,21zm-78 -146c-2,1 -11,18 -13,21l-2 3c-2,5 -4,8 -7,12 -2,5 -5,7 -7,12 -2,4 -5,10 -7,13l-21 37c-6,14 5,22 16,15 4,-2 6,-6 8,-11l35 -62 58 0c-1,0 0,0 -1,-2l-22 -39c-1,-2 0,-47 0,-50l-37 0 0 50z"/>
    <path class="fil1" d="M331 627c1,-7 4,-15 1,-19l-18 -11c-3,2 -4,4 -5,8 4,4 12,10 18,12 -2,5 -13,23 -17,26l-19 -11 -5 8 18 13 -15 25c-8,-2 -13,-8 -20,-12l-5 8c5,4 12,8 18,12 -1,4 -9,17 -13,21 -7,9 -10,9 -22,12 -9,3 -18,33 -32,37 -12,3 -18,-6 -16,-17 2,-8 18,-28 20,-33 3,-10 -10,-11 8,-38 18,-27 35,-54 53,-82 13,-19 27,-49 59,-20 8,7 6,14 6,25 -1,1 -2,3 -3,4l0 0 0 0 0 0 0 0 0 0 0 0 0 0 0 0 0 0 0 0 0 0 0 0 0 0 0 0 0 0 0 0 0 0 0 0 0 0 0 0 0 0 0 0 0 0 0 0 0 0 0 0 0 0 0 0 0 0 0 0 0 0 0 0 0 0 0 0 0 0 0 0 0 0 0 0 0 0 0 0 0 0 0 0 0 0 0 0 0 0 0 0 0 0 0 0 0 0 0 0 0 0 0 0 0 0 0 0 0 0 0 0 0 0 0 0 0 0 0 0 0 0 0 0 0 0 0 0 0 0 0 0 0 0 0 0 0 0 0 0 0 0 0 0 0 0 0 0 0 0 0 0 0 0 0 0 0 0 -4 7 0 2 0 0 0 0 0 0 0 0 0 0 0 0 0 0 0 0 0 0 0 0 0 0 0 0 0 0 0 0 0 0 0 0 0 0 0 0 0 0 0 0 0 0 0 0 0 0 0 0 0 0 0 0 0 0 0 0 0 0 0 0 0 0 0 0 0 0 0 0 0 0 0 0 0 0 0 0 0 0 0 0 0 0 0 0 0 0 0 0 0 0 0 0 0 0 0 0 0 0 -3 3 3 -3 0 0 0 0 0 0 0 0 0 0 0 0 0 0 0 0 0 0 0 0 0 0 0 0 0 0 0 0 0 0 0 0 0 0 0 0 0 0 0 0 0 0 0 0 0 0 0 0 0 0 -2 21c6,-11 26,-38 23,-54 -2,-15 -11,-20 -22,-26 -12,-8 -25,-6 -37,1 -11,7 -14,15 -22,26l-55 85c-26,41 -4,33 -18,54 -8,12 -24,34 -8,50 10,10 25,5 33,-2 7,-6 16,-24 20,-28 5,-5 17,-3 28,-18 7,-9 55,-82 56,-87z"/>
    <path class="fil1" d="M240 707c11,0 15,1 20,-6 2,-3 9,-13 10,-16 -5,-4 -9,-5 -12,-10l9 -15c6,2 9,5 15,8l11 -17 -13 -9c2,-6 6,-12 10,-16 6,2 8,6 14,7 4,-4 7,-9 9,-14l-30 -19c-4,3 -13,17 -15,22l-29 45c-4,6 -13,17 -11,26 3,12 10,2 -4,23 -2,4 -14,21 -14,24 0,7 6,5 9,2 4,-5 16,-27 23,-34z"/>
   </g>
  </g>
 </g>
</svg>
