<?xml version="1.0" encoding="UTF-8"?>
<!DOCTYPE svg PUBLIC "-//W3C//DTD SVG 1.1//EN" "http://www.w3.org/Graphics/SVG/1.1/DTD/svg11.dtd">
<!-- Creator: CorelDRAW X6 -->
<svg xmlns="http://www.w3.org/2000/svg" xml:space="preserve" width="800px" height="792px" version="1.1" style="shape-rendering:geometricPrecision; text-rendering:geometricPrecision; image-rendering:optimizeQuality; fill-rule:evenodd; clip-rule:evenodd"
viewBox="0 0 800 792"
 xmlns:xlink="http://www.w3.org/1999/xlink">
 <defs>
  <style type="text/css">
   <![CDATA[
    .fil0 {fill:#5F3773}
   ]]>
  </style>
 </defs>
 <g id="Capa_x0020_1">
  <metadata id="CorelCorpID_0Corel-Layer"/>
  <g id="_236963640">
   <g>
    <path class="fil0" d="M468 402l275 0c31,0 57,26 57,57l0 275c0,31 -26,57 -57,57l-275 0c-31,0 -57,-26 -57,-57l0 -275c0,-31 26,-57 57,-57zm-7 190c6,-4 13,-2 10,5 -2,4 -12,6 -10,-5zm1 -13c-22,6 -14,38 8,32 20,-5 13,-37 -8,-32zm165 20c-8,5 -12,-6 -6,-9 3,-2 6,-1 7,1 3,5 -1,7 -1,8zm-10 -19c-20,8 -8,39 13,31 19,-8 9,-39 -13,-31zm-96 -43l79 0c14,0 13,-13 6,-16 -4,-2 -54,-1 -63,-1 -27,0 -21,1 -49,-15 -12,-7 -21,2 -15,10 1,2 34,21 42,21zm-62 36l12 0 0 -13c31,-1 113,-1 145,0l0 13 12 0c1,-16 1,-46 0,-63 0,-11 -12,-12 -13,1 0,11 1,22 0,32l-145 0 0 -30c0,-6 2,-27 -4,-29 -12,-4 -9,15 -9,23 0,21 -1,45 0,65zm164 104c-3,13 -12,30 -29,24 -6,-2 -11,-9 -11,-17 0,-4 6,-18 8,-20l32 14zm-28 -25c3,-12 12,-29 28,-22 14,6 12,22 4,35l-33 -13zm63 29l84 0c3,26 -7,21 -42,21 -10,0 -22,1 -32,0 -12,-1 -12,-9 -11,-20zm85 -76l0 63 -84 0 0 -64 84 0zm-85 -24c0,-20 23,0 26,-31l33 0c1,11 4,18 14,20 14,2 12,7 12,22 -18,1 -64,0 -85,0l0 -11zm67 -43l-51 0 0 -16 51 0c0,5 1,11 -1,15zm-79 116c0,9 -1,36 1,43 4,16 19,16 29,16 15,0 29,0 44,0 17,0 27,1 33,-12 4,-7 3,-123 1,-130 -2,-5 -6,-10 -11,-12 -9,-4 -11,2 -13,-9 5,-4 9,-1 9,-12 1,-36 6,-29 -59,-29 -20,0 -17,2 -17,27 0,4 0,7 2,10 2,2 2,2 5,3l2 1 -1 6c-14,4 -24,4 -24,28 0,18 0,36 0,53 -4,-5 -4,-15 -20,-21 -12,-4 -24,2 -30,8 -6,6 -24,49 -24,58 0,24 27,40 47,25 14,-10 20,-44 28,-54z"/>
    <path class="fil0" d="M57 402l275 0c32,0 57,26 57,57l0 275c0,31 -26,57 -57,57l-275 0c-32,0 -57,-26 -57,-57l0 -275c0,-32 26,-57 57,-57zm72 121l0 -51 38 0c0,4 -1,49 0,52l23 41c1,2 0,1 1,2l-59 0 -36 64c-3,5 -5,9 -9,11 -11,7 -23,-2 -17,-16l22 -38c2,-3 5,-9 7,-13 3,-5 5,-8 7,-13 3,-5 4,-8 7,-13l2 -3c2,-4 12,-21 13,-22zm-22 -55c0,15 0,31 0,46 0,4 -6,12 -8,15 -4,6 -4,8 -8,15l-34 59c-6,12 -12,18 -13,33 -1,13 5,26 17,32l11 3c2,0 3,1 5,1 8,0 16,0 23,0 27,-1 58,0 86,0 -2,11 5,12 -4,26 -8,12 -25,35 -8,51 10,10 26,5 34,-2 7,-6 16,-25 21,-29 5,-5 17,-3 29,-19 7,-9 56,-84 58,-90 2,-7 2,-16 -1,-21l-16 -10c-3,2 -4,4 -6,8 4,5 13,10 18,12 -2,5 -14,24 -17,27l-20 -11 -5 8 19 13 -16 26c-8,-2 -13,-8 -21,-12l-5 9c5,4 13,8 18,13 -1,4 -10,17 -13,22 -7,9 -10,9 -23,12 -10,3 -18,34 -33,38 -12,3 -18,-6 -16,-18 2,-8 19,-29 20,-34 2,-7 -3,-10 -1,-19 11,0 24,1 33,-3 1,0 1,0 2,-1 2,-1 0,0 2,-1 1,-1 2,-1 3,-2l3 -3c2,-2 4,-4 5,-7 2,-3 3,-5 3,-8 1,-3 1,-7 1,-11 0,-4 0,-7 -1,-10 -1,-8 -7,-16 -11,-24 8,-12 16,-24 24,-36 13,-20 28,-50 60,-21 8,8 6,15 6,26 -11,16 -16,20 -13,37 6,-11 26,-39 24,-55 -2,-15 -11,-20 -22,-27 -13,-8 -26,-6 -38,1 -11,7 -15,15 -23,27l-25 38 -28 -49c-2,-3 -16,-27 -16,-30l0 -47c6,0 14,2 18,-7 2,-4 0,-11 -3,-14 -5,-4 -20,-2 -30,-2l-75 0c-10,1 -14,17 -2,22 3,1 8,0 12,1z"/>
   </g>
   <path class="fil0" d="M263 0l275 0c31,0 57,26 57,57l0 275c0,31 -26,57 -57,57l-275 0c-31,0 -57,-26 -57,-57l0 -275c0,-31 26,-57 57,-57zm215 104c3,9 16,5 13,-4 -3,-9 -17,-5 -13,4zm-169 79c-2,1 -3,5 -2,8 1,3 5,2 8,2 3,0 17,1 19,-1 2,-1 2,-5 1,-7 -1,-3 -4,-2 -7,-2 -2,0 -18,0 -19,0zm185 -31l-19 0c-7,0 -4,8 -4,9 2,2 10,1 13,1 8,0 16,2 14,-8 -1,-2 -2,-3 -5,-3zm-120 31c-3,1 -3,3 -3,7 1,3 4,3 7,3 14,0 24,3 21,-7 -1,-3 -4,-3 -7,-3 -3,0 -17,0 -19,0zm-78 93c-17,3 -13,28 4,25 17,-3 13,-28 -4,-25zm209 15c3,16 28,13 25,-4 -3,-16 -28,-13 -25,4zm-109 1c4,16 30,10 25,-7 -5,-16 -29,-9 -25,7zm-120 -164l73 -73c-20,-19 -52,-13 -69,4 -18,17 -21,48 -4,69zm9 8c5,7 23,13 36,12 26,-2 46,-22 48,-48 1,-14 -4,-31 -12,-37l-54 54c-6,6 -13,13 -18,18zm200 -46c7,-1 12,4 13,10 1,7 -4,13 -10,14 -16,3 -19,-21 -4,-23zm-3 -12c-12,2 -22,14 -19,28 2,12 14,22 28,19 11,-2 22,-14 19,-28 -2,-11 -14,-22 -28,-19zm47 82c-1,2 -12,17 -15,20 -6,10 8,20 16,10l15 -21c2,-3 6,-7 5,-12 -1,-4 -9,-12 -11,-15l-16 -19c-11,-13 -8,-8 -19,1 -2,2 -2,4 0,6l25 29zm-85 0l25 -29c4,-5 0,-6 -4,-10 -3,-4 -4,-8 -10,-2l-21 24c-2,2 -3,3 -4,5 -11,13 -11,11 5,33 3,3 5,7 8,10 8,10 21,0 16,-9 -2,-4 -14,-18 -15,-21zm-138 61l0 32c0,7 7,5 17,5 13,0 16,2 16,-6l0 -30c0,-6 -2,-11 -5,-14 -3,-3 -2,-3 -3,-7 -1,-3 -6,-2 -8,-2 -14,0 -5,1 -11,8 -3,4 -5,7 -5,14zm72 -22c-2,8 1,2 -5,10 -2,3 -4,7 -4,11l0 31c0,6 2,6 7,6 30,0 26,3 26,-14 0,-7 1,-20 0,-26 -1,-4 -2,-7 -4,-9 -4,-5 -2,-3 -4,-9 -2,-1 -15,-1 -16,0zm101 -31c-2,1 -1,5 -4,8 -8,9 -6,15 -6,29 0,4 0,8 0,11 0,13 -1,10 24,10 4,0 8,1 9,-3 1,-2 0,-31 0,-34 0,-5 -2,-9 -5,-13 -7,-8 0,-9 -8,-9 -2,0 -10,-1 -11,0zm-1 -95c2,1 5,0 7,0 4,0 12,4 5,-9 -4,-8 -14,-14 -24,-14l-105 0c-6,0 -1,3 4,9 4,6 2,7 12,7l73 0c8,0 20,-2 25,3 2,2 2,3 4,5zm-186 265c1,5 9,3 13,3l203 0c4,0 12,1 13,-3 0,-1 0,-14 0,-16 -1,-5 -8,-3 -13,-3l-203 0c-4,0 -12,-2 -13,3 0,1 0,14 0,15zm2 -68c11,-2 20,5 22,14 2,11 -5,20 -14,22 -23,5 -32,-30 -8,-35zm220 0c11,-2 20,6 21,15 2,11 -6,20 -15,21 -23,4 -30,-31 -6,-36zm-110 0c11,-2 20,5 21,14 5,24 -31,30 -36,7 -2,-11 5,-20 14,-21zm-140 21c1,11 10,20 20,22 5,1 14,1 20,1l191 0c10,0 31,1 40,-2 23,-11 19,-44 -5,-49 -5,-1 -15,-1 -20,-1 -64,0 -127,0 -191,0 -11,0 -31,-2 -40,3 -8,4 -16,14 -15,27z"/>
  </g>
 </g>
</svg>
