<?xml version="1.0" encoding="UTF-8"?>
<!DOCTYPE svg PUBLIC "-//W3C//DTD SVG 1.1//EN" "http://www.w3.org/Graphics/SVG/1.1/DTD/svg11.dtd">
<!-- Creator: CorelDRAW X6 -->
<svg xmlns="http://www.w3.org/2000/svg" xml:space="preserve" width="800px" height="800px" version="1.1" style="shape-rendering:geometricPrecision; text-rendering:geometricPrecision; image-rendering:optimizeQuality; fill-rule:evenodd; clip-rule:evenodd"
viewBox="0 0 800 800"
 xmlns:xlink="http://www.w3.org/1999/xlink">
 <defs>
  <style type="text/css">
   <![CDATA[
    .fil0 {fill:#5F3773}
    .fil1 {fill:white}
   ]]>
  </style>
 </defs>
 <g id="Capa_x0020_1">
  <metadata id="CorelCorpID_0Corel-Layer"/>
  <path class="fil0" d="M118 0l565 0c65,0 118,53 118,118l0 565c0,65 -53,118 -118,118l-565 0c-65,0 -118,-53 -118,-118l0 -565c0,-65 53,-118 118,-118zm-15 390c11,-8 26,-5 20,11 -4,9 -25,13 -20,-11zm3 -27c-46,12 -28,77 17,66 41,-11 26,-77 -17,-66zm339 41c-17,10 -24,-12 -13,-18 5,-3 12,-2 15,3 7,10 -2,15 -2,15zm-20 -40c-42,17 -16,81 27,63 39,-16 18,-81 -27,-63zm-196 -88l161 0c29,0 27,-27 12,-33 -8,-3 -111,-2 -129,-2 -55,0 -43,3 -100,-30 -25,-15 -43,4 -31,21 2,3 71,44 86,44zm-127 74l25 0 0 -26c64,-2 233,-2 299,0l0 27 25 -1c3,-34 2,-95 1,-130 -1,-23 -25,-26 -26,2 0,22 1,45 0,66l-298 0 -1 -61c0,-13 5,-54 -8,-59 -24,-8 -18,30 -18,47 0,43 -2,93 0,135zm337 214c-6,27 -24,62 -59,48 -12,-4 -23,-19 -22,-35 0,-9 12,-37 16,-42l66 28zm-57 -51c6,-25 25,-60 58,-45 28,13 26,45 9,73l-67 -27zm130 60l173 0c6,53 -15,42 -86,42 -21,0 -45,1 -66,0 -25,-1 -24,-19 -22,-42zm174 -156l0 129 -173 1 0 -131 173 1zm-174 -49c0,-42 47,0 53,-64l68 0c2,22 9,37 29,41 30,5 25,15 25,45 -37,2 -131,0 -174,0l0 -22zm138 -89l-104 0 0 -32 106 0c1,10 2,22 -1,32zm-163 239c-1,18 -2,74 1,89 7,33 39,33 60,33 30,0 60,0 90,0 35,0 56,2 68,-25 7,-15 7,-252 1,-267 -4,-10 -13,-20 -22,-24 -18,-8 -24,4 -28,-18 11,-9 19,-3 19,-25 2,-74 13,-60 -122,-60 -41,0 -35,4 -35,56 0,7 0,15 4,20 3,5 5,4 11,7l4 2 -2 12c-30,8 -50,8 -50,57 0,36 -1,73 0,109 -8,-11 -9,-32 -42,-43 -25,-8 -50,3 -63,16 -13,13 -49,100 -49,120 -1,49 55,81 97,52 29,-20 42,-91 57,-111z"/>
  <path class="fil1" d="M684 547l-173 1 0 -131 173 1c-2,-2 1,-3 -9,-3l-166 1 1 133c17,2 121,1 155,1 16,0 17,2 19,-3z"/>
  <path class="fil1" d="M648 280c5,-2 2,3 4,-5l-1 -28c-12,-2 -72,-1 -93,-1l-13 1c0,0 -1,0 -1,1l106 0c1,10 2,22 -1,32z"/>
 </g>
</svg>
