<?xml version="1.0" encoding="UTF-8"?>
<!DOCTYPE svg PUBLIC "-//W3C//DTD SVG 1.1//EN" "http://www.w3.org/Graphics/SVG/1.1/DTD/svg11.dtd">
<!-- Creator: CorelDRAW X6 -->
<svg xmlns="http://www.w3.org/2000/svg" xml:space="preserve" width="800px" height="800px" version="1.1" style="shape-rendering:geometricPrecision; text-rendering:geometricPrecision; image-rendering:optimizeQuality; fill-rule:evenodd; clip-rule:evenodd"
viewBox="0 0 800 800"
 xmlns:xlink="http://www.w3.org/1999/xlink">
 <defs>
  <style type="text/css">
   <![CDATA[
    .fil0 {fill:#5F3773}
   ]]>
  </style>
 </defs>
 <g id="Capa_x0020_1">
  <metadata id="CorelCorpID_0Corel-Layer"/>
  <path class="fil0" d="M118 0l565 0c65,0 118,53 118,118l0 565c0,65 -53,118 -118,118l-565 0c-65,0 -118,-53 -118,-118l0 -565c0,-65 53,-118 118,-118zm148 249l-1 -106 78 0c0,8 -1,101 0,106l47 83c2,4 1,3 3,3l-122 1 -74 131c-5,10 -10,18 -18,23 -23,14 -46,-4 -34,-33l44 -78c4,-7 11,-19 15,-27 5,-10 10,-16 15,-26 5,-10 9,-17 14,-26l4 -6c5,-8 24,-43 27,-45zm-45 -113c0,31 1,64 0,95 0,7 -12,25 -16,31 -7,12 -7,16 -17,30l-69 121c-13,24 -25,37 -27,69 -1,28 11,53 35,66l23 7c4,1 6,1 10,1 15,0 32,0 48,0 55,-1 120,0 177,0 -4,23 10,25 -9,54 -16,25 -51,71 -16,105 21,20 53,10 71,-5 15,-13 33,-50 42,-59 11,-11 35,-6 60,-39 15,-19 116,-174 118,-185 3,-15 3,-33 -3,-43l-34 -21c-7,5 -8,8 -11,16 9,9 26,20 38,25 -3,10 -28,48 -35,56l-40 -24 -10 17 38 27 -33 53c-16,-4 -28,-16 -43,-24l-10 18c10,9 26,17 37,26 -2,8 -20,36 -27,45 -15,18 -21,18 -47,25 -20,5 -37,71 -68,77 -24,5 -38,-13 -33,-37 4,-17 38,-60 41,-69 5,-14 -6,-20 -3,-39 22,0 49,2 68,-6 1,0 3,-1 4,-2 4,-2 0,0 5,-3 2,-2 4,-2 7,-4l6 -6c4,-4 8,-8 11,-14 3,-6 6,-10 7,-16 1,-5 2,-15 2,-22 0,-8 0,-14 -2,-21 -3,-16 -14,-32 -23,-48 16,-25 32,-50 49,-75 26,-41 58,-103 124,-42 17,16 12,30 12,54 -23,33 -33,41 -26,77 12,-23 54,-80 49,-114 -5,-31 -23,-42 -46,-55 -26,-16 -53,-13 -77,2 -23,15 -30,31 -46,55l-51 78 -58 -101c-4,-7 -33,-55 -34,-61l0 -97c12,0 28,5 36,-14 4,-9 0,-23 -6,-28 -11,-9 -42,-4 -61,-5l-155 0c-20,2 -29,35 -5,45 7,3 17,0 24,2z"/>
 </g>
</svg>
