<?xml version="1.0" encoding="UTF-8"?>
<!DOCTYPE svg PUBLIC "-//W3C//DTD SVG 1.1//EN" "http://www.w3.org/Graphics/SVG/1.1/DTD/svg11.dtd">
<!-- Creator: CorelDRAW X6 -->
<svg xmlns="http://www.w3.org/2000/svg" xml:space="preserve" width="810px" height="810px" version="1.1" style="shape-rendering:geometricPrecision; text-rendering:geometricPrecision; image-rendering:optimizeQuality; fill-rule:evenodd; clip-rule:evenodd"
viewBox="0 0 810 810"
 xmlns:xlink="http://www.w3.org/1999/xlink">
 <defs>
  <style type="text/css">
   <![CDATA[
    .str0 {stroke:#5F3773;stroke-width:10.0004}
    .fil0 {fill:none}
    .fil1 {fill:#5F3773}
   ]]>
  </style>
 </defs>
 <g id="Capa_x0020_1">
  <metadata id="CorelCorpID_0Corel-Layer"/>
  <g id="_236878048">
   <rect class="fil0 str0" x="5" y="5" width="800" height="800" rx="118" ry="118"/>
   <path class="fil1" d="M265 161c0,31 1,64 0,95 0,7 -12,25 -16,31 -7,12 -7,16 -17,30l-69 121c-13,24 -25,37 -27,69 -1,28 11,53 35,66l23 7c4,1 6,1 10,1 15,0 32,0 48,0 59,-1 130,0 191,0 3,0 6,0 9,0 2,-10 7,-23 20,-42 22,-33 43,-66 64,-99l-1 -1 -69 -121c-4,-7 -33,-55 -34,-61l0 -97c12,0 28,5 36,-14 4,-9 0,-23 -6,-28 -11,-9 -42,-4 -61,-5l-155 0c-20,2 -29,35 -5,45 7,3 17,0 24,2zm210 421c16,0 33,-1 45,-6 1,0 3,-1 4,-2 4,-2 0,0 5,-3 2,-2 4,-2 7,-4l6 -6c1,-1 2,-2 2,-2 -1,-1 -2,-2 -4,-4l20 -32 0 0c0,-5 1,-10 1,-14 0,-8 0,-14 -2,-21 -2,-10 -6,-19 -11,-29l-49 76c-7,10 -21,28 -23,45zm-165 -308c-3,2 -23,38 -27,45l-4 6c-5,10 -9,16 -14,26 -5,10 -10,16 -15,26 -4,8 -11,20 -15,27l-44 78c-12,29 12,47 34,33 8,-5 12,-13 18,-23l74 -131 122 -1c-2,-1 -1,1 -3,-3l-47 -83c-2,-5 0,-98 0,-106l-78 0 1 106z"/>
   <path class="fil1" d="M694 454c3,-15 9,-31 3,-41l-39 -24c-7,5 -8,8 -11,16 9,9 26,20 38,25 -3,10 -28,48 -35,56l-40 -24 -10 17 38 27 -33 53c-16,-4 -28,-16 -43,-24l-10 18c10,9 26,17 37,26 -2,8 -20,36 -27,45 -15,18 -21,18 -47,25 -20,5 -37,71 -68,77 -24,5 -38,-13 -33,-37 4,-17 38,-60 41,-69 7,-22 -21,-23 17,-81 38,-58 75,-115 113,-174 26,-41 58,-103 124,-42 17,16 12,30 12,54 -2,3 -4,5 -5,8l0 0 0 0 0 0 0 0 0 0 0 0 0 0 0 0 0 0 0 0 0 0 0 0 0 0 0 0 0 0 0 0 0 0 0 0 0 0 0 0 0 0 0 0 0 0 0 0 0 0 0 0 0 0 0 0 0 0 0 0 0 0 0 0 0 0 0 0 0 0 0 0 0 0 0 0 0 0 0 0 0 0 0 0 0 0 0 0 0 0 0 0 0 0 0 0 0 0 0 0 0 0 0 0 0 0 0 0 0 0 0 0 0 0 0 0 0 0 0 0 0 0 0 0 0 0 0 0 0 0 0 0 0 0 0 0 0 0 0 0 0 0 0 0 0 0 0 0 0 0 0 0 0 0 0 0 0 0 -9 15 0 4 0 0 0 0 0 0 0 0 0 0 0 0 0 0 0 0 0 0 0 0 0 0 0 0 0 0 0 0 0 0 0 0 0 0 0 0 0 0 0 0 0 0 0 0 0 0 0 0 0 0 0 0 0 0 0 0 0 0 0 0 0 0 0 0 0 0 0 0 0 0 0 0 0 0 0 0 0 0 0 0 0 0 0 0 0 0 0 0 0 0 0 0 0 0 0 0 0 0 -6 6 6 -6 0 0 0 0 0 0 0 0 0 0 0 0 0 0 0 0 0 0 0 0 0 0 0 0 0 0 0 0 0 0 0 0 0 0 0 0 0 0 0 0 0 0 0 0 0 0 0 0 0 0 -4 43c12,-23 54,-80 49,-114 -5,-31 -23,-42 -46,-55 -26,-16 -53,-13 -77,2 -23,15 -30,31 -46,55l-117 181c-56,87 -8,69 -37,113 -16,25 -51,71 -16,105 21,20 53,10 71,-5 15,-13 33,-50 42,-59 11,-11 35,-6 60,-39 15,-19 116,-174 118,-185z"/>
   <path class="fil1" d="M502 623c22,0 32,2 43,-13 5,-6 18,-27 21,-35 -10,-9 -19,-11 -26,-20l20 -32c13,3 19,11 32,17l23 -37 -27 -20c4,-13 13,-26 22,-33 13,5 17,12 29,15 8,-9 15,-18 18,-30l-64 -40c-9,7 -27,37 -33,46l-62 95c-8,12 -28,35 -23,55 6,26 20,4 -9,50 -5,8 -30,44 -31,51 0,14 12,11 18,4 9,-11 34,-57 48,-73z"/>
  </g>
 </g>
</svg>
