<?xml version="1.0" encoding="UTF-8"?>
<!DOCTYPE svg PUBLIC "-//W3C//DTD SVG 1.1//EN" "http://www.w3.org/Graphics/SVG/1.1/DTD/svg11.dtd">
<!-- Creator: CorelDRAW X6 -->
<svg xmlns="http://www.w3.org/2000/svg" xml:space="preserve" width="810px" height="810px" version="1.1" style="shape-rendering:geometricPrecision; text-rendering:geometricPrecision; image-rendering:optimizeQuality; fill-rule:evenodd; clip-rule:evenodd"
viewBox="0 0 810 810"
 xmlns:xlink="http://www.w3.org/1999/xlink">
 <defs>
  <style type="text/css">
   <![CDATA[
    .str0 {stroke:#5F3773;stroke-width:10.0004}
    .fil0 {fill:none}
    .fil1 {fill:#5F3773}
   ]]>
  </style>
 </defs>
 <g id="Capa_x0020_1">
  <metadata id="CorelCorpID_0Corel-Layer"/>
  <g id="_236878264">
   <rect class="fil0 str0" x="5" y="5" width="800" height="800" rx="118" ry="118"/>
   <path class="fil1" d="M188 581c22,-5 40,11 44,28 5,22 -11,41 -28,44 -48,11 -65,-62 -16,-73zm452 0c22,-4 40,12 44,30 4,22 -12,41 -30,44 -48,8 -61,-64 -13,-73zm-226 0c22,-5 40,11 44,29 10,49 -64,63 -73,15 -5,-23 11,-40 29,-44zm-288 44c3,23 20,40 42,45 11,2 30,1 42,1l392 0c22,0 65,3 81,-5 47,-23 38,-90 -11,-102 -11,-2 -30,-1 -42,-1 -131,0 -261,0 -392,0 -23,0 -64,-3 -81,5 -17,8 -34,28 -30,56z"/>
   <path class="fil1" d="M184 719c1,10 18,6 26,6l416 0c9,0 24,3 26,-6 1,-2 1,-29 0,-32 -2,-9 -16,-6 -26,-6l-416 0c-8,0 -24,-3 -26,6 -1,3 0,28 0,32z"/>
   <path class="fil1" d="M565 174c5,1 10,-1 15,-1 9,0 24,7 11,-19 -9,-17 -28,-29 -50,-29l-216 0c-13,0 -1,6 8,18 9,12 4,13 24,13l151 0c17,0 41,-4 51,6 5,5 4,6 8,11z"/>
   <path class="fil1" d="M566 369c-3,2 -3,11 -8,16 -15,18 -12,31 -12,59 0,8 0,16 0,24 0,27 -3,21 50,21 7,0 16,2 18,-6 1,-4 1,-63 1,-70 0,-10 -3,-19 -9,-26 -15,-16 0,-19 -16,-19 -5,0 -20,-1 -23,1z"/>
   <path class="fil1" d="M360 432c-4,17 2,5 -10,21 -4,6 -8,14 -8,24l0 64c0,11 4,12 15,12 61,0 53,6 53,-29 0,-14 2,-41 0,-54 -1,-7 -5,-14 -9,-19 -8,-10 -5,-6 -8,-19 -4,-1 -31,-2 -33,0z"/>
   <path class="fil1" d="M211 477l0 65c0,13 14,10 35,10 26,0 33,3 33,-13l0 -62c0,-13 -5,-22 -11,-29 -5,-6 -4,-6 -6,-14 -2,-6 -12,-4 -17,-4 -29,0 -10,1 -23,17 -7,9 -11,14 -11,29z"/>
   <path class="fil1" d="M494 353l51 -59c9,-10 -1,-13 -9,-21 -7,-7 -9,-17 -20,-5l-42 49c-3,4 -6,6 -9,10 -22,27 -23,23 11,67 5,7 10,14 16,21 16,20 43,0 33,-19 -4,-9 -28,-37 -31,-43z"/>
   <path class="fil1" d="M668 353c-1,5 -25,34 -30,42 -11,20 16,41 32,21l31 -42c5,-6 13,-14 11,-25 -1,-7 -17,-24 -23,-31l-34 -39c-23,-28 -16,-16 -38,3 -5,4 -4,8 0,13l51 59z"/>
   <path class="fil1" d="M577 210c14,-2 26,8 28,20 2,15 -8,26 -20,28 -32,5 -40,-42 -8,-48zm-6 -24c-24,5 -45,28 -39,58 5,24 29,44 58,39 24,-5 45,-28 39,-58 -5,-24 -28,-44 -58,-39z"/>
   <path class="fil1" d="M166 303c10,15 48,26 74,24 53,-4 95,-45 99,-98 2,-28 -8,-63 -24,-75l-112 111c-12,12 -28,26 -38,38z"/>
   <path class="fil1" d="M148 287l150 -150c-42,-39 -108,-26 -143,7 -37,35 -42,99 -8,143z"/>
   <path class="fil1" d="M191 591c34,-6 42,47 8,52 -35,6 -43,-46 -8,-52zm-4 -10c-49,11 -32,83 16,73 17,-4 33,-22 28,-44 -4,-18 -22,-33 -44,-28z"/>
   <path class="fil1" d="M395 624c-9,-34 41,-48 51,-15 10,34 -42,48 -51,15zm18 -44c-18,4 -34,21 -29,44 10,48 83,34 73,-15 -4,-18 -22,-34 -44,-29z"/>
   <path class="fil1" d="M620 621c-6,-35 47,-42 52,-9 6,36 -47,43 -52,9zm19 -41c-48,10 -35,81 13,73 18,-3 35,-21 30,-44 -3,-18 -21,-34 -44,-30z"/>
   <path class="fil1" d="M567 238c-6,-19 22,-27 28,-9 6,19 -22,27 -28,9zm10 -29c-32,5 -24,53 8,48 12,-2 22,-14 20,-28 -2,-11 -13,-22 -28,-20z"/>
   <path class="fil1" d="M353 400c-6,2 -7,7 -5,14 1,7 7,6 14,6 29,0 49,6 43,-15 -2,-6 -7,-5 -14,-5 -6,0 -35,-1 -38,0z"/>
   <path class="fil1" d="M600 337l-39 0c-15,0 -8,17 -8,18 3,4 20,3 27,3 16,0 34,5 29,-15 -1,-5 -5,-5 -10,-5z"/>
   <path class="fil1" d="M221 400c-4,3 -5,10 -4,16 2,6 9,5 15,5 7,0 35,1 39,-1 3,-2 5,-10 3,-15 -2,-5 -8,-4 -15,-4 -5,0 -36,-1 -38,1z"/>
  </g>
 </g>
</svg>
