<?xml version="1.0" encoding="UTF-8"?>
<!DOCTYPE svg PUBLIC "-//W3C//DTD SVG 1.1//EN" "http://www.w3.org/Graphics/SVG/1.1/DTD/svg11.dtd">
<!-- Creator: CorelDRAW X6 -->
<svg xmlns="http://www.w3.org/2000/svg" xml:space="preserve" width="800px" height="800px" version="1.1" style="shape-rendering:geometricPrecision; text-rendering:geometricPrecision; image-rendering:optimizeQuality; fill-rule:evenodd; clip-rule:evenodd"
viewBox="0 0 800 800"
 xmlns:xlink="http://www.w3.org/1999/xlink">
 <defs>
  <style type="text/css">
   <![CDATA[
    .fil0 {fill:#5F3773}
    .fil1 {fill:#F8E088}
   ]]>
  </style>
 </defs>
 <g id="Capa_x0020_1">
  <metadata id="CorelCorpID_0Corel-Layer"/>
  <g id="_592366072">
   <path class="fil0" d="M118 0l565 0c65,0 118,53 118,118l0 565c0,65 -53,118 -118,118l-565 0c-65,0 -118,-53 -118,-118l0 -565c0,-65 53,-118 118,-118zm273 167c-41,4 -76,45 -63,92 3,12 19,42 25,55 15,33 7,27 54,27 20,0 28,3 32,-8 4,-10 8,-19 12,-28 7,-17 19,-43 21,-60 3,-46 -35,-83 -81,-78zm28 188l-39 0c-10,0 -13,2 -13,12 0,9 0,14 4,21 15,28 66,24 64,-23 0,-10 -6,-9 -15,-9zm-172 -120c-3,1 -5,2 -6,5 -5,15 17,12 21,12 7,0 39,1 43,-1 5,-2 7,-9 3,-14 -3,-4 -12,-3 -19,-3 -7,0 -38,-1 -42,1zm300 -1l-44 0c-19,0 -14,13 -11,15 5,4 23,2 30,2 6,0 27,1 32,-1 7,-3 8,-17 -8,-17zm-26 -92c-5,1 -23,21 -28,26 -4,4 -10,9 -13,13 -6,7 0,16 9,14 3,-1 37,-35 41,-40 5,-7 0,-16 -8,-14zm-248 1c-8,5 -4,11 1,16l27 27c3,3 10,13 17,9 2,-1 5,-4 5,-8 0,-5 -13,-16 -19,-22l-20 -20c-4,-4 -7,-3 -10,-1zm39 145c-4,1 -38,35 -41,39 -5,7 -1,16 8,14 3,-1 37,-35 41,-40 6,-7 0,-16 -8,-14zm170 1c-3,1 -6,2 -5,8 0,4 3,6 5,9l27 27c3,3 9,12 17,9 3,-1 5,-4 5,-8 0,-5 -3,-7 -6,-9l-27 -27c-4,-4 -9,-12 -17,-9zm-166 166c-2,4 0,93 -1,105l-108 0c-7,0 -32,-2 -36,2 -7,1 -5,13 -5,20l0 54c0,9 -1,19 6,21 6,2 377,1 427,1 34,0 37,4 37,-17 0,-31 1,-77 0,-106 0,-11 -7,-10 -16,-10 -42,0 -94,1 -134,0 -1,-20 0,-42 0,-62 0,-14 -4,-14 -18,-14l-126 0c-10,0 -23,-3 -24,7z"/>
   <path class="fil0" d="M334 640l132 0c2,-6 1,-169 0,-175l-133 0c0,9 -1,168 1,175z"/>
   <polygon class="fil0" points="484,639 616,639 616,541 484,541 "/>
   <path class="fil0" d="M377 324l48 0 16 -40c5,-13 13,-28 14,-43 1,-31 -26,-58 -58,-57 -31,1 -56,27 -54,60 1,17 25,62 34,80z"/>
   <path class="fil0" d="M183 639l132 0c1,-12 1,-51 0,-61l-132 0 0 61z"/>
   <path class="fil0" d="M417 373l-33 0c2,21 30,21 33,0z"/>
   <path class="fil1" d="M171 562c12,-3 129,1 145,-1 2,-4 1,-96 1,-106 -2,4 0,93 -1,105l-108 0c-7,0 -32,-2 -36,2z"/>
   <path class="fil1" d="M484 639c2,2 13,1 16,1 19,0 107,1 117,0 2,-5 1,-71 1,-87 0,-2 0,-4 0,-6 0,-5 0,-4 -1,-6l0 99 -133 0z"/>
   <path class="fil1" d="M183 639c2,1 -3,1 4,1l129 0 1 -58c-1,-6 0,-2 -2,-4 2,10 1,49 0,61l-132 0z"/>
  </g>
 </g>
</svg>
