<?xml version="1.0" encoding="UTF-8"?>
<!DOCTYPE svg PUBLIC "-//W3C//DTD SVG 1.1//EN" "http://www.w3.org/Graphics/SVG/1.1/DTD/svg11.dtd">
<!-- Creator: CorelDRAW X6 -->
<svg xmlns="http://www.w3.org/2000/svg" xml:space="preserve" width="800px" height="800px" version="1.1" style="shape-rendering:geometricPrecision; text-rendering:geometricPrecision; image-rendering:optimizeQuality; fill-rule:evenodd; clip-rule:evenodd"
viewBox="0 0 800 800"
 xmlns:xlink="http://www.w3.org/1999/xlink">
 <defs>
  <style type="text/css">
   <![CDATA[
    .fil0 {fill:#5F3773}
   ]]>
  </style>
 </defs>
 <g id="Capa_x0020_1">
  <metadata id="CorelCorpID_0Corel-Layer"/>
  <path class="fil0" d="M118 0l565 0c65,0 118,53 118,118l0 565c0,65 -53,118 -118,118l-565 0c-65,0 -118,-53 -118,-118l0 -565c0,-65 53,-118 118,-118zm423 322c-5,-8 -10,-21 -15,-31 -13,-30 -6,-13 -1,-32 -8,-6 -11,-4 -16,-10 6,-4 8,-5 13,-11 -47,-1 -38,19 -43,73 -3,31 -9,78 -8,107 7,3 18,2 26,3 4,14 6,140 6,165l47 0c0,-19 -1,-161 1,-165 6,2 4,24 5,37l4 128c9,1 40,2 47,-1l0 -164 26 -2c1,-11 -6,-91 -8,-108 -1,-16 -2,-39 -4,-54 -3,-18 -21,-19 -39,-19 4,5 8,8 13,12l-16 9c7,19 11,8 0,31 -5,10 -8,22 -14,30 -2,-14 -2,-30 -3,-45 0,-9 -2,-13 1,-21 2,-7 -1,-10 -2,-18l-15 0c-5,24 0,9 -2,41 -1,15 -2,30 -2,45zm-251 3l44 0 0 261 80 0 0 -261 43 0 -84 -85c-29,27 -57,57 -84,85zm-145 333l509 0 0 -48 -509 -1 0 49zm4 -197l43 1c2,30 1,92 1,125l80 0 0 -124 44 0c-4,-9 -13,-15 -20,-22 -7,-7 -14,-14 -21,-21 -14,-14 -28,-30 -42,-42l-84 84zm393 -316c-7,3 -6,2 -12,7 -30,31 -3,88 33,73 42,-17 23,-98 -21,-80z"/>
 </g>
</svg>
