<?xml version="1.0" encoding="UTF-8"?>
<!DOCTYPE svg PUBLIC "-//W3C//DTD SVG 1.1//EN" "http://www.w3.org/Graphics/SVG/1.1/DTD/svg11.dtd">
<!-- Creator: CorelDRAW X6 -->
<svg xmlns="http://www.w3.org/2000/svg" xml:space="preserve" width="798px" height="800px" version="1.1" style="shape-rendering:geometricPrecision; text-rendering:geometricPrecision; image-rendering:optimizeQuality; fill-rule:evenodd; clip-rule:evenodd"
viewBox="0 0 798 800"
 xmlns:xlink="http://www.w3.org/1999/xlink">
 <defs>
  <style type="text/css">
   <![CDATA[
    .fil0 {fill:#5F3773}
    .fil1 {fill:#F8E088}
   ]]>
  </style>
 </defs>
 <g id="Capa_x0020_1">
  <metadata id="CorelCorpID_0Corel-Layer"/>
  <g id="_592367176">
   <path class="fil0" d="M470 208l272 0c31,0 57,25 57,57l0 272c0,31 -25,57 -57,57l-272 0c-31,0 -57,-25 -57,-57l0 -272c0,-31 25,-57 57,-57zm204 155c-3,-4 -5,-10 -7,-15 -6,-15 -3,-6 0,-15 -4,-3 -5,-2 -8,-5 3,-2 4,-3 6,-5 -23,0 -18,9 -20,35 -1,15 -4,37 -4,52 3,1 8,1 12,1 2,7 3,67 3,79l23 0c0,-9 -1,-77 1,-79 3,1 2,12 2,18l2 62c4,1 19,1 23,0l0 -79 13 -1c1,-5 -3,-44 -4,-52 -1,-8 -1,-19 -2,-26 -2,-9 -10,-9 -19,-9 2,2 4,4 6,6l-8 5c3,9 5,4 0,15 -2,5 -4,10 -7,14 -1,-7 -1,-15 -1,-22 0,-4 -1,-6 0,-10 1,-3 0,-5 -1,-9l-7 0c-3,11 0,4 -1,20 0,7 -1,14 -1,22zm-121 1l21 0 0 126 39 0 0 -126 21 0 -40 -41c-14,13 -27,28 -41,41zm-70 160l245 0 0 -23 -245 0 0 23zm2 -95l21 0c1,14 0,44 0,60l39 0 0 -60 21 0c-2,-4 -6,-7 -10,-10 -4,-4 -7,-7 -10,-10 -7,-7 -14,-14 -20,-20l-41 40zm189 -152c-3,1 -3,1 -6,3 -15,15 -1,42 16,35 20,-8 11,-47 -10,-39z"/>
   <g>
    <g>
     <path class="fil0" d="M57 0l272 0c31,0 57,25 57,57l0 272c0,31 -25,57 -57,57l-272 0c-31,0 -57,-25 -57,-57l0 -272c0,-31 25,-57 57,-57zm132 81c-20,2 -37,21 -30,44 2,6 9,20 12,26 7,16 3,13 26,13 9,0 14,1 16,-4 2,-5 4,-9 6,-14 3,-8 9,-21 10,-29 2,-22 -17,-40 -39,-38zm14 91l-19 0c-5,0 -6,1 -6,6 0,4 0,7 2,10 7,14 32,12 31,-11 0,-5 -3,-5 -7,-5zm-83 -58c-1,1 -2,1 -3,2 -2,7 8,6 10,6 3,0 19,0 21,0 3,-1 3,-4 1,-7 -2,-2 -6,-1 -9,-1 -4,0 -18,0 -20,0zm144 0l-21 0c-9,0 -7,6 -5,7 2,2 11,1 15,1 3,0 13,0 15,0 3,-1 4,-8 -4,-8zm-12 -44c-3,1 -11,10 -14,13 -2,2 -5,4 -6,6 -3,3 0,8 4,7 1,0 18,-17 20,-19 3,-3 0,-8 -4,-7zm-119 1c-4,2 -2,5 0,8l13 13c2,2 5,6 8,4 1,-1 2,-2 2,-4 0,-3 -6,-8 -9,-10l-10 -10c-2,-2 -3,-2 -5,-1zm19 70c-2,0 -18,17 -20,19 -3,3 0,8 4,7 1,0 18,-17 20,-19 3,-3 0,-8 -4,-7zm82 0c-1,1 -3,1 -2,4 0,2 2,3 3,4l13 13c2,2 4,6 8,4 1,-1 3,-2 2,-4 0,-2 -2,-3 -3,-4l-13 -13c-2,-2 -4,-6 -8,-4zm-80 80c-1,2 0,45 -1,51l-52 0c-3,0 -16,-1 -17,1 -3,1 -3,6 -3,10l0 26c0,4 -1,9 3,10 3,1 181,0 205,0 16,0 18,2 18,-8 0,-15 1,-37 0,-51 0,-5 -3,-5 -8,-5 -20,0 -45,1 -65,0 0,-9 0,-20 0,-30 0,-7 -2,-7 -8,-7l-61 0c-5,0 -11,-1 -11,3z"/>
     <path class="fil0" d="M161 308l64 0c1,-3 0,-81 0,-84l-64 0c0,5 0,81 0,84z"/>
     <polygon class="fil0" points="233,308 297,308 297,260 233,260 "/>
     <path class="fil0" d="M181 156l23 0 8 -19c2,-6 6,-13 7,-21 0,-15 -13,-28 -28,-27 -15,1 -27,13 -26,29 1,8 12,30 16,39z"/>
     <path class="fil0" d="M88 308l64 0c0,-6 1,-25 0,-29l-64 0 0 29z"/>
     <path class="fil0" d="M201 180l-16 0c1,10 15,10 16,0z"/>
     <path class="fil1" d="M82 271c6,-1 62,1 70,0 1,-2 1,-46 0,-51 -1,2 0,45 -1,51l-52 0c-3,0 -16,-1 -17,1z"/>
     <path class="fil1" d="M233 308c1,1 6,0 8,0 9,0 52,0 57,0 1,-2 0,-34 0,-42 0,-1 0,-2 0,-3 0,-2 0,-2 -1,-3l0 47 -64 0z"/>
     <path class="fil1" d="M88 308c1,1 -1,1 2,1l62 0 0 -28c0,-3 0,-1 -1,-2 1,5 0,24 0,29l-64 0z"/>
    </g>
    <g>
     <path class="fil0" d="M57 415l272 0c31,0 57,25 57,57l0 272c0,31 -25,57 -57,57l-272 0c-31,0 -57,-25 -57,-57l0 -272c0,-31 25,-57 57,-57zm121 112l-5 -4c0,0 0,0 -1,-1l-3 -2c-1,0 -2,-1 -2,-2 -4,-2 -8,3 -5,6l10 8c2,1 4,4 6,4 2,0 3,-3 5,-4 1,-1 4,-5 6,-7l3 -3c2,-2 3,-4 5,-6 1,-2 4,-4 5,-6 2,-2 4,-4 3,-7 -1,-1 -2,-2 -4,-2 -2,0 -2,2 -3,2l-2 2c0,0 0,0 -1,1l-18 21zm-25 -22c4,-10 12,-15 19,-18 1,0 2,-1 3,-1 4,-1 4,-1 9,-1 23,0 40,24 30,46 -8,17 -27,24 -43,17 -17,-7 -24,-27 -17,-43zm-10 -8l-1 2c0,2 -1,3 0,6 0,2 1,3 2,4l1 1c-2,1 -3,2 -5,4 -3,6 -1,13 6,16 -4,7 -1,14 5,17 3,1 5,1 6,1 0,2 0,4 1,6 3,5 9,7 15,5 1,0 2,-1 3,-2 1,2 1,3 4,5 2,1 5,2 7,2 4,0 8,-2 10,-7 7,4 14,1 17,-5 0,-1 1,-2 1,-3 0,-1 0,-2 0,-3 1,0 7,0 11,-6 1,-2 1,-5 1,-7 0,-1 0,-2 -1,-3 0,0 0,-1 -1,-1 0,0 -1,-1 -1,-1 1,-1 3,-1 5,-4 3,-6 1,-14 -6,-16 5,-8 -1,-18 -10,-18 -1,0 -1,0 -2,0 0,-2 0,-4 -1,-6 0,-1 -1,-2 -2,-2 -1,-1 -2,-2 -2,-2l-2 -1c-2,0 -2,-1 -6,0 -1,0 -4,1 -5,2 0,0 -1,-1 -2,-3 -5,-6 -16,-4 -19,4 -8,-5 -18,1 -18,10 0,0 0,1 0,1 -2,0 -3,0 -6,1 -3,1 -4,3 -5,4zm84 90l0 -1c0,-1 -3,-6 -3,-7 -1,-2 -2,-5 -4,-7 -1,-3 -2,-5 -4,-7l-4 -7c0,0 -1,1 -3,3 -2,1 -5,2 -8,2 -1,0 -3,0 -4,-1 -1,2 -2,3 -4,4 -1,0 -1,1 -2,1 0,0 0,1 0,2 1,6 2,12 3,18 0,1 0,3 1,3 1,1 2,0 3,-1 1,-1 8,-6 8,-6 0,0 14,4 16,5 1,0 1,0 2,1 1,0 1,0 2,0zm-80 5l1 0c0,0 0,0 0,0 0,0 0,0 0,0l4 -2c3,-2 8,-3 11,-5l2 -1 10 6c3,2 3,0 3,-6 0,-1 1,-17 1,-18 -1,-1 -2,-1 -3,-2 -1,-1 -2,-2 -2,-2 -1,0 -3,1 -4,1 -1,0 -2,0 -4,0 -4,0 -6,-2 -9,-4 -1,2 -2,6 -3,8l-8 22c0,1 0,1 0,2zm177 68c-3,0 -6,-2 -6,-5 0,-2 0,-2 1,-4 2,-3 8,-2 9,2 1,2 0,3 -1,5 -1,1 -3,2 -4,2zm-52 -65c0,5 0,6 2,10l2 5c0,0 0,0 0,0 0,0 0,0 0,0l1 1c0,0 0,0 0,1 0,0 0,0 0,1l3 7c0,1 0,1 1,1l1 1c0,0 0,1 1,1l3 6c0,0 0,0 0,1 2,3 4,8 6,11l2 4c0,0 0,0 0,1l3 6c0,0 0,0 0,0l0 1c0,0 0,0 0,0 1,2 3,5 4,7 0,0 0,0 0,1 0,0 0,0 0,0l2 4c0,0 0,0 0,1l1 2c1,1 2,2 3,3l1 1c2,1 5,2 7,2 2,0 4,0 6,-1l16 -8c0,0 0,0 0,0 0,0 0,0 1,0l5 -3c1,0 2,-1 2,-1 0,-1 0,0 -1,-1l-1 -3c0,-1 -1,-1 -1,-2l-2 -4c0,-1 -1,-1 -1,-2l0 -1c0,0 0,0 0,-1l-1 -2c0,0 0,0 0,-1 0,-1 -1,-1 -1,-2 0,0 0,0 0,-1 0,0 0,0 0,0l-3 -7c0,0 0,0 0,0l0 -1c0,0 0,0 0,0l-6 -12c0,0 0,0 0,0 0,0 0,0 0,0 0,0 0,0 0,0 -2,-4 -4,-8 -6,-11l-6 -12c0,0 0,-1 0,-1l-6 -12c0,-1 -1,-1 -1,-2 -1,-1 -1,-2 -2,-4 -1,-1 -2,-5 -3,-6 0,0 0,0 -1,0l-23 12c-2,1 -4,3 -5,5l-1 3c0,1 0,0 0,1 0,1 0,1 0,1 0,1 0,1 0,1zm-107 146c0,-2 0,-3 1,-5l0 0c2,-3 7,-4 10,-2 3,2 4,5 4,8 0,1 0,1 0,2 -1,2 -2,3 -4,4 -2,1 -4,1 -6,0 -1,0 -2,-1 -2,-1l-2 -2c-1,-1 -1,-2 -1,-3zm-15 -1c-3,0 -4,0 -6,-2l-1 -2c-1,-1 -1,-1 -1,-2 0,-2 0,-2 0,-4 0,-1 0,-1 1,-2l6 -7c1,-1 5,-6 6,-6l1 0c3,-2 9,-1 11,3 0,1 1,1 1,2 0,2 0,3 -1,5 -1,1 0,1 -1,2 -1,1 -1,1 -1,2l-7 7c-2,2 -3,4 -6,4zm-9 -40c3,0 3,0 4,0 1,1 2,1 3,2 1,1 1,1 1,2 1,2 1,6 -1,8 -1,1 -2,2 -3,3l-4 4c-2,2 -6,2 -8,1 -4,-2 -5,-6 -4,-9 0,-1 1,-2 1,-2l0 0c0,0 0,0 0,0 0,0 0,0 0,-1l5 -5c1,-1 3,-2 4,-2zm-25 -4c0,-2 0,-4 1,-5 1,-1 3,-3 5,-3 2,0 3,0 5,0l1 0c2,1 4,4 4,5 0,2 0,3 -1,5 -2,3 -4,4 -7,4 -2,0 -4,-1 -5,-2l-1 -1c-1,-1 -2,-3 -2,-4zm51 -22c-3,0 -3,0 -5,-1 -1,-1 -2,-1 -2,-2 -1,-2 -1,-4 0,-6l1 -3c0,0 0,-1 1,-1l2 -5c0,0 0,0 0,-1l6 -12c0,0 0,0 0,-1l1 -3c0,-1 0,-1 1,-1l4 -9c0,0 0,0 0,0l2 -4c0,0 0,0 0,-1l3 -7c1,-2 2,-2 3,-3 0,0 1,-1 1,-1l2 -1c0,0 0,0 0,0l4 -2c0,0 1,0 1,0 0,0 0,0 1,0 0,0 1,0 1,0l2 -1c0,0 0,0 1,0l11 -4c0,0 0,0 1,0 0,0 0,0 1,0l3 -1c1,-1 2,-1 3,-1 0,0 0,0 1,0 3,-1 2,-1 5,-1 2,0 3,0 5,0l15 5c0,0 0,0 1,0 1,0 0,0 1,0l15 5c1,0 6,2 6,2 0,0 0,0 0,1l16 32c0,1 0,1 1,1l3 6c0,0 0,0 0,0l0 0c0,0 0,0 0,0l3 5c0,0 1,1 1,2l1 2c0,0 0,0 0,0l4 8c0,0 0,0 0,0l1 2 -10 9c-1,1 -1,1 -2,1 0,0 0,0 -1,1 0,0 0,0 0,0 0,0 0,0 0,0 0,0 0,0 0,0 0,0 0,0 0,0l-9 8c0,0 0,0 -1,1 -1,0 -2,-2 -3,-3 0,0 0,0 0,0 0,0 0,0 0,0 0,0 0,0 -1,-1l-3 -3c0,0 0,0 0,0l-3 -3c0,0 0,0 -1,-1l-42 -42c0,0 0,0 0,0l-7 -7c0,0 0,0 0,0 0,0 0,0 0,0 0,0 0,0 0,0l-1 -1c0,0 0,0 0,0 -1,-1 0,-2 0,-4 0,-5 -7,-3 -11,-4 -3,0 -2,0 -2,3 0,2 0,4 0,5 0,1 -1,5 -1,6l-1 2c-1,2 -1,5 -2,7l-2 5c0,0 0,1 -1,1l-5 8 -6 6c0,0 -1,0 -1,1 -2,2 -5,4 -8,4 -1,0 -1,1 -3,1zm15 -66l-8 -4c-1,0 -1,0 -1,0l-5 -1 -6 -1c-3,0 -5,0 -8,0 -1,0 -3,0 -4,0 -2,0 -5,1 -7,1 -1,0 -2,0 -4,0 -2,0 -3,0 -5,2 -1,1 -6,8 -7,10l-28 40c0,0 -1,1 -1,1 -1,2 -2,3 -3,5l-2 2c-2,3 -1,6 1,9l6 6c2,2 3,3 5,5l4 4c0,0 0,0 0,0 2,2 2,1 1,4 0,1 -1,3 -1,5 0,3 1,5 2,7 1,1 1,2 2,3 2,2 4,3 7,3 0,0 2,0 2,0 0,0 0,1 0,2 0,2 0,5 1,7l3 5c0,0 0,0 0,0 1,1 2,2 3,2 2,1 4,2 6,2 0,1 0,1 -1,2 0,2 0,5 0,7 0,0 0,0 0,1l0 1c1,1 1,3 2,4l3 2c1,1 2,1 3,2 3,1 4,1 6,1 1,0 1,0 2,-1 2,0 5,-3 6,-3 1,2 0,3 4,7 1,1 2,2 4,3l3 1c5,2 8,0 9,0 1,0 2,1 3,1 1,0 1,0 1,0 3,1 7,1 10,0l1 -1c0,0 0,0 1,0 5,-3 3,-3 0,-6l-6 -6c-1,-1 -1,-1 -1,-2 0,-1 0,-2 0,-3 1,0 1,1 2,2l2 2c0,0 0,0 0,0 0,0 0,0 0,0 0,0 0,0 0,0l1 1c0,0 0,0 0,0l1 1c1,0 1,1 1,1l5 5c2,2 4,4 5,5 1,1 5,2 7,2l4 0c2,-1 3,-1 5,-2 2,-1 3,-2 5,-4l1 -2c3,-3 2,-3 -2,-7l-10 -10c-1,-1 -1,-1 -2,-2l-2 -2c0,0 0,0 0,0l-10 -10c-1,-1 -2,-2 -2,-4 0,-1 1,-1 1,-1 1,0 3,2 4,3l20 20c0,0 0,0 0,0 0,0 0,0 0,0l3 3c0,0 0,0 0,0l4 4c0,0 0,0 0,0l5 5c0,0 0,0 0,0 0,0 0,0 0,0 1,1 4,1 6,2 1,0 4,0 5,-1 1,0 1,0 1,0 3,-1 7,-4 8,-6l2 -3c1,-1 2,-2 2,-3 1,-1 1,-2 1,-3 0,-1 -7,-8 -8,-8 -5,-5 -10,-10 -15,-15l0 0c0,0 0,0 0,0l-2 -2c0,0 0,0 0,0l-4 -4c0,0 0,0 -1,-1l-1 -1c0,0 0,0 0,0 -2,-2 -1,-4 0,-4 2,0 2,1 3,2 3,3 5,5 8,8l3 3c0,0 0,0 0,0 0,0 0,0 0,0 0,0 0,0 0,0l2 2c0,0 0,0 0,0l5 5c0,0 0,0 0,0 0,0 0,0 1,1 0,0 0,0 1,1l0 0c0,0 0,0 0,0l1 1c3,2 5,5 8,8 1,1 0,1 1,1 2,1 4,1 6,0 1,0 1,0 2,0 0,0 0,0 1,0l2 -1c1,-1 2,-2 3,-3l1 -1c1,-1 2,-3 3,-4l1 -4c1,-2 1,-6 0,-7 0,-1 0,-1 0,-1 0,-1 -1,-2 -2,-4l-1 -2c-2,-3 -5,-5 -7,-7l14 -13c0,0 0,0 0,0 0,0 0,0 0,0l2 -2c2,-2 7,-6 8,-8 1,-4 0,-5 -2,-9l-20 -40c0,-1 0,-1 -1,-2 0,0 0,0 0,-1l-7 -14c0,0 0,0 0,0l-1 -1c-1,-1 -2,-2 -3,-2l-4 -2c0,0 -1,0 -1,0 -2,-1 -5,-2 -7,-3l-6 -2c-1,0 0,0 -1,0l-8 -3c0,0 -1,0 -1,0l-6 -2c-2,0 -3,-1 -5,-1 -2,0 -3,0 -6,0 -1,0 -2,0 -3,1 -2,1 -5,2 -8,3l-8 3c-1,0 0,0 -1,0l-2 1c0,0 0,0 -1,0l-5 2c0,0 0,0 -1,0l-2 1c-1,0 -1,0 -1,0l-3 1c-2,1 -3,2 -5,2zm-117 36c0,-2 1,-4 3,-5 2,-1 4,-1 6,1 4,3 1,10 -5,9 -3,0 -4,-3 -4,-5zm-18 2c0,1 0,1 1,1l1 0c1,0 1,1 2,1l1 1c2,1 5,4 7,5 1,1 1,1 2,1l1 1c0,0 0,0 0,0l4 3c1,1 3,2 4,3l0 0c1,0 1,0 1,0 5,2 10,1 14,-2 0,0 1,-1 1,-1 0,0 0,0 0,0 1,-1 2,-2 3,-4 0,0 0,-1 1,-1 0,0 1,-1 1,-1 0,0 0,-1 1,-1 2,-3 4,-5 6,-8 0,-1 0,-1 1,-1l6 -8c0,0 1,-1 1,-1l3 -5c0,0 0,-1 1,-1 0,0 1,-1 1,-1l6 -9c1,-2 3,-4 4,-6 0,0 0,0 0,-1 0,0 0,0 0,0l5 -6c0,0 0,0 0,0l0 0c1,-2 3,-4 4,-6l1 -2c1,-2 1,-4 1,-5 0,-1 0,-2 -1,-3 0,-1 -1,-3 -1,-4l0 0c0,0 0,0 0,0l0 0c-2,-4 -7,-7 -11,-9 0,0 -1,-1 -1,-1 0,0 0,0 0,0 -2,-1 -6,-4 -8,-5l-5 -3c-1,0 0,0 -1,0 0,1 -5,7 -5,7l-3 4c0,1 -1,1 -1,1 -1,2 -3,4 -4,6 0,0 0,0 0,1l-11 15c0,0 -1,1 -1,1l-16 22c0,0 -1,1 -1,1l-8 11c0,0 -1,1 -1,1l-4 6c0,0 -1,1 -1,1z"/>
     <path class="fil0" d="M193 506c0,0 0,0 1,-1l1 -2c1,-1 1,-2 3,-3 2,0 3,0 4,1l0 0 0 0 0 0c2,0 3,1 4,2 2,3 -1,5 -3,7 -1,2 -4,4 -5,6 -2,2 -3,4 -5,6l-1 1 -2 3c-1,2 -4,6 -5,8 -2,2 -2,5 -5,5 -2,0 -4,-2 -7,-3l-11 -6c-2,-1 -2,-4 -1,-5l0 0 0 0 0 0 0 0 0 0 0 0 0 0 0 0 0 0 0 0 0 0 0 0 0 0 0 0 0 0 0 0 0 0 0 0 0 0 0 0 0 0 0 0 0 0 0 0 0 0 0 0 0 0 0 0 0 0 0 0 0 0 0 0 0 0 0 0 0 0 0 0 0 0 0 0 0 0 0 0 0 0 0 0 0 0 0 0 0 0 0 0 0 0 0 0 0 0 0 0 0 0 0 0 0 0 0 0 0 0 0 0 0 0 0 0 0 0 0 0 0 0 0 0 0 0 0 0 0 0 0 0 0 0 0 0 0 0 0 0 0 0 0 0 0 0 0 0 0 0 0 0 0 0 0 0 0 0 0 0 0 0 0 0 0 0 0 0 0 0 0 0 0 0 0 0 0 0 0 0 0 0 0 0 0 0 0 0 0 0 0 0 0 0 0 0 0 0 0 0 0 0 0 0 0 0 0 0 0 0 0 0 0 0 0 0m0 0l0 0 0 0 0 0 0 0 0 0 0 0 0 0 0 0 0 0 0 0 0 0 0 0 0 0 0 0c1,1 2,1 2,2l3 2c0,0 0,0 1,1l5 4 7 -9 8 -13m-41 21c4,17 22,28 40,23 17,-5 28,-22 23,-40 -6,-23 -35,-32 -53,-17 -4,3 -4,4 -6,6 -1,1 -1,2 -2,2 -4,7 -6,15 -3,25z"/>
    </g>
   </g>
  </g>
 </g>
</svg>
