<?xml version="1.0" encoding="UTF-8"?>
<!DOCTYPE svg PUBLIC "-//W3C//DTD SVG 1.1//EN" "http://www.w3.org/Graphics/SVG/1.1/DTD/svg11.dtd">
<!-- Creator: CorelDRAW X6 -->
<svg xmlns="http://www.w3.org/2000/svg" xml:space="preserve" width="800px" height="800px" version="1.1" style="shape-rendering:geometricPrecision; text-rendering:geometricPrecision; image-rendering:optimizeQuality; fill-rule:evenodd; clip-rule:evenodd"
viewBox="0 0 800 800"
 xmlns:xlink="http://www.w3.org/1999/xlink">
 <defs>
  <style type="text/css">
   <![CDATA[
    .fil0 {fill:#5F3773}
   ]]>
  </style>
 </defs>
 <g id="Capa_x0020_1">
  <metadata id="CorelCorpID_0Corel-Layer"/>
  <g id="_592362664">
   <path class="fil0" d="M118 0l565 0c65,0 118,53 118,118l0 565c0,65 -53,118 -118,118l-565 0c-65,0 -118,-53 -118,-118l0 -565c0,-65 53,-118 118,-118zm252 233l-10 -8c-1,0 -1,-1 -2,-1l-6 -5c-1,-1 -3,-3 -5,-4 -8,-5 -16,6 -9,12l21 17c4,3 8,8 13,7 5,0 7,-5 11,-9 2,-2 9,-11 12,-14l5 -6c3,-4 7,-8 10,-13 3,-3 8,-9 10,-12 4,-5 9,-9 6,-15 -1,-2 -4,-4 -8,-4 -4,0 -5,3 -7,5l-4 5c0,1 -1,1 -1,1l-37 44zm-51 -46c9,-20 24,-31 39,-37 2,-1 4,-1 6,-2 8,-2 9,-2 18,-3 48,0 83,50 63,96 -16,36 -57,50 -90,35 -35,-15 -50,-57 -35,-90zm-21 -17l-2 5c0,3 -2,6 -1,13 1,3 1,5 3,8l2 3c-4,2 -7,4 -10,9 -7,12 -3,28 12,34 -8,15 -2,29 11,35 7,3 10,1 13,2 0,5 0,8 3,12 6,11 19,15 30,10 2,-1 3,-2 6,-3 3,3 3,6 9,10 4,3 10,4 14,3 8,-1 16,-5 20,-16 15,8 29,2 35,-11 1,-2 2,-5 2,-7 0,-3 0,-4 0,-6 1,0 15,1 22,-13 2,-5 3,-10 2,-14 0,-2 -1,-4 -2,-6 -1,-1 -1,-2 -1,-3 -1,-1 -1,-2 -2,-3 1,-1 6,-3 10,-9 7,-12 2,-29 -12,-34 10,-17 -2,-37 -21,-36 -1,0 -2,0 -3,0 1,-4 -1,-9 -2,-11 -1,-2 -2,-3 -3,-5 -2,-2 -5,-4 -5,-5l-5 -2c-3,0 -4,-2 -13,-1 -3,0 -8,2 -11,5 -1,-1 -2,-3 -4,-5 -11,-12 -33,-9 -39,8 -17,-10 -37,2 -36,21 0,1 0,2 0,3 -5,1 -6,0 -11,2 -6,3 -8,7 -10,8zm175 187l1 -2c-1,-2 -6,-12 -7,-15 -3,-5 -5,-10 -8,-15 -3,-5 -5,-10 -8,-15l-8 -15c-1,1 -3,3 -7,5 -5,3 -10,4 -16,4 -3,0 -6,-1 -9,-2 -3,4 -4,6 -8,9 -1,1 -2,1 -3,2 0,1 0,3 1,3 2,12 5,26 7,38 0,1 1,6 2,7 2,2 5,-1 6,-2 1,-1 17,-13 18,-13 1,0 29,9 33,10 1,0 3,1 4,1 2,1 2,0 4,0zm-165 10l1 1c0,0 0,0 0,0 0,0 0,0 1,0l8 -4c7,-3 16,-7 23,-11l5 -2 20 11c7,4 6,0 7,-12 0,-3 2,-35 2,-37 -2,-1 -4,-2 -7,-4 -2,-1 -3,-3 -5,-5 -1,1 -6,2 -7,3 -2,0 -5,1 -8,0 -8,-1 -12,-4 -18,-8 -2,5 -4,12 -6,17l-16 46c-1,2 0,2 0,4zm367 142c-6,0 -12,-4 -12,-10 0,-4 0,-5 3,-8 5,-6 17,-4 19,4 1,4 1,7 -1,10 -2,3 -6,5 -8,5zm-109 -135c0,11 0,12 5,21l5 10c0,0 0,0 0,1 0,0 0,0 0,0l1 2c0,1 0,1 1,1 0,1 0,1 1,1l7 14c0,1 1,1 1,2l1 2c0,1 1,1 1,3l6 12c0,1 0,1 1,1 3,6 8,17 12,23l4 8c0,1 0,1 1,1l6 13c0,0 0,0 0,1l1 1c0,0 0,0 0,0 2,4 6,11 7,15 0,1 0,1 1,1 0,0 0,0 0,0l4 9c0,1 0,0 1,1l3 5c2,3 4,5 7,7l2 1c4,3 10,4 15,4 4,0 8,-1 12,-2l33 -17c0,0 1,0 1,0 1,0 1,0 2,-1l11 -6c1,-1 3,-1 3,-3 0,-1 0,-1 -1,-2l-3 -6c-1,-1 -1,-3 -2,-4l-4 -8c-1,-1 -1,-3 -2,-4l-1 -2c0,-1 0,0 0,-1l-2 -4c0,-1 0,-1 -1,-1 -1,-1 -1,-3 -2,-4 0,0 0,-1 0,-1 0,-1 0,0 -1,-1l-7 -14c0,-1 0,0 -1,-1l-1 -2c0,0 0,0 0,0l-12 -25c0,0 0,0 0,0 0,0 0,0 0,-1 0,0 0,0 0,0 -4,-8 -8,-16 -12,-23l-12 -24c0,-1 -1,-1 -1,-2l-13 -26c-1,-1 -1,-3 -2,-4 -1,-3 -3,-5 -4,-8 -1,-2 -5,-10 -6,-12 -1,-1 -1,-1 -2,-1l-48 24c-5,2 -8,6 -11,10l-3 6c-1,1 -1,1 -1,2 0,1 0,1 -1,2 0,1 -1,1 -1,3zm-222 304c0,-5 0,-7 3,-11l0 -1c5,-6 14,-7 20,-4 7,4 9,10 8,18 0,2 0,1 -1,3 -2,4 -4,6 -8,8 -3,2 -9,2 -13,0 -2,-1 -3,-2 -5,-3l-3 -4c-1,-2 -2,-4 -2,-7zm-32 -1c-6,0 -8,0 -13,-4l-2 -3c-1,-2 -1,-1 -2,-5 -1,-3 -1,-5 0,-8 1,-2 0,-2 1,-3l12 -14c3,-3 10,-12 13,-13l1 -1c7,-4 18,-2 22,6 1,2 1,2 2,5 1,3 1,7 -1,10 -1,2 -1,2 -2,4 -1,1 -2,2 -3,3l-14 15c-3,3 -7,8 -13,8zm-19 -84c5,0 5,-1 9,1 3,1 4,2 6,4 1,1 2,3 3,4 2,5 1,12 -2,16 -1,2 -4,4 -6,6l-9 9c-4,3 -11,4 -16,1 -7,-4 -11,-11 -8,-20 0,-1 2,-4 3,-5l0 0c0,0 0,0 0,0 0,0 1,-1 1,-1l10 -11c2,-2 6,-5 9,-5zm-51 -9c0,-4 1,-7 3,-11 2,-3 6,-6 9,-6 4,0 7,-1 10,1l2 1c4,2 8,8 8,11 0,5 0,7 -2,11 -3,5 -8,8 -14,8 -4,0 -8,-2 -11,-4l-1 -1c-2,-3 -4,-6 -4,-9zm106 -45c-6,0 -7,0 -11,-2 -2,-1 -4,-2 -5,-4 -3,-4 -1,-8 1,-12l3 -6c0,-1 1,-2 1,-3l5 -10c0,-1 0,-1 1,-1l12 -25c0,-1 0,0 1,-1l3 -6c1,-1 1,-1 1,-3l9 -19c0,0 0,-1 0,-1l4 -8c0,-1 0,-1 1,-2l7 -15c2,-4 4,-4 7,-6 1,-1 2,-1 3,-2l5 -2c0,0 0,0 1,0l8 -3c1,0 1,0 2,0 1,0 1,0 2,-1 1,0 1,0 2,-1l3 -1c1,0 1,0 2,-1l22 -8c1,0 1,0 2,-1 1,0 1,0 2,-1l6 -2c2,-1 4,-1 6,-2 1,0 1,0 2,-1 6,-2 4,-2 10,-3 4,-1 5,0 10,0l31 10c1,0 1,0 2,1 1,0 1,0 2,1l31 11c2,1 12,4 13,5 1,1 0,0 1,1l33 66c1,1 1,2 1,3l6 12c0,0 0,0 0,0l1 1c0,0 0,0 0,0l6 11c1,1 1,2 2,3l2 4c0,1 0,0 0,1l8 16c0,0 0,1 0,1l2 3 -21 19c-1,1 -2,2 -3,3 -1,1 -1,1 -1,1 0,0 0,0 -1,1 0,0 0,0 0,0 0,0 0,0 0,0 0,0 0,0 0,0l-19 17c-1,1 -1,1 -2,1 -2,-1 -4,-4 -6,-6 0,0 0,0 0,0 0,0 0,0 -1,-1 0,0 -1,-1 -1,-1l-6 -6c0,0 0,0 0,0l-7 -6c-1,-1 -1,-1 -1,-1l-87 -87c0,0 0,0 0,0l-14 -14c0,0 0,0 0,0 0,0 0,0 0,0 0,0 0,0 -1,-1l-2 -2c0,0 0,0 -1,-1 -2,-3 1,-3 1,-7 0,-10 -14,-7 -22,-8 -6,-1 -4,0 -5,7 -1,4 0,8 -1,11 -1,3 -1,10 -3,13l-1 5c-2,5 -2,10 -5,15l-4 10c0,1 -1,1 -1,2l-10 16 -11 12c-1,1 -1,1 -2,1 -4,4 -10,8 -16,9 -2,0 -3,1 -5,1zm31 -137l-17 -7c-1,0 -2,0 -3,-1l-11 -3 -12 -1c-5,0 -11,0 -16,1 -3,0 -5,0 -8,0 -5,1 -11,1 -15,1 -3,0 -5,1 -7,1 -4,0 -6,0 -10,4 -2,2 -12,16 -14,20l-58 83c-1,1 -1,2 -2,3 -2,3 -4,6 -7,9l-3 5c-4,7 -3,12 3,19l13 13c4,4 7,7 10,10l8 8c0,0 0,0 0,0 4,4 3,2 2,8 -1,3 -2,7 -2,11 1,7 2,10 5,15 1,2 3,4 5,5 4,4 9,6 14,7 1,0 4,0 5,1 1,1 -1,2 -1,4 0,5 0,10 2,14l6 10c0,0 0,0 0,0 2,2 4,4 6,5 4,2 8,4 13,4 0,2 -1,3 -1,5 -1,5 -1,10 1,15 0,1 0,1 0,1l1 2c1,3 3,6 5,8l5 5c2,1 5,3 7,4 5,1 7,1 13,1 2,0 3,-1 5,-1 5,-1 10,-6 12,-6 2,3 0,5 7,14 2,2 5,5 8,6l6 2c10,3 17,0 18,0 2,0 4,2 5,2 1,0 1,0 2,1 7,3 14,2 21,-1l3 -1c1,0 1,0 1,-1 10,-6 7,-6 1,-12l-12 -12c-2,-2 -1,-2 -1,-5 0,-3 0,-4 0,-6 2,1 3,2 4,4l4 4c0,0 0,0 1,1 0,0 0,0 0,0 0,0 0,0 0,0l2 2c0,0 0,0 0,0l2 2c1,1 1,1 2,2l10 10c4,4 8,8 11,11 3,2 11,4 15,4l8 -1c4,-1 7,-2 10,-4 4,-2 7,-5 10,-7l3 -3c7,-7 5,-6 -4,-14l-21 -21c-2,-2 -3,-3 -4,-4l-5 -5c0,0 0,0 0,0l-20 -20c-2,-2 -5,-5 -4,-8 1,-1 1,-1 3,-1 2,0 6,5 8,7l41 41c0,0 0,0 0,0 0,0 0,0 0,0l6 6c0,0 0,0 0,0l8 8c0,0 0,0 0,0l10 10c0,0 0,0 0,0 0,0 0,0 1,1 3,3 8,3 12,3 2,0 8,-1 10,-1 1,0 1,-1 3,-1 6,-2 14,-8 17,-12l5 -6c2,-2 3,-4 5,-6 1,-2 2,-5 2,-7 0,-1 -15,-16 -16,-17 -10,-10 -20,-21 -30,-30l-1 -1c0,0 0,0 -1,-1l-4 -4c0,0 0,0 0,0l-8 -8c0,0 -1,-1 -1,-1l-3 -3c0,0 0,0 0,0 -5,-5 -2,-8 -1,-8 4,0 4,1 6,4 5,5 11,11 16,16l7 7c0,0 0,0 0,0 0,0 0,0 0,0 0,0 0,0 0,0l4 4c0,0 0,0 0,0l11 11c0,0 1,1 1,1 0,0 1,1 1,1 0,0 1,1 1,1l1 1c0,0 0,0 1,1l1 1c6,5 11,11 16,16 1,1 1,1 3,2 4,1 9,1 13,0 1,0 2,0 3,-1 0,0 1,0 1,-1l4 -2c3,-2 5,-4 7,-6l2 -2c2,-3 4,-5 6,-8l3 -8c1,-4 2,-11 0,-16 0,-1 -1,-2 -1,-3 -1,-3 -2,-5 -3,-7l-3 -4c-4,-5 -10,-10 -14,-15l29 -27c0,0 0,0 0,0 0,0 0,0 0,0l4 -3c4,-4 16,-13 17,-17 3,-7 0,-11 -3,-18l-41 -82c-1,-1 -1,-2 -2,-3 0,-1 -1,-1 -1,-2l-14 -29c0,0 0,0 0,0l-1 -2c-2,-2 -3,-3 -6,-4l-9 -3c-1,0 -1,0 -2,-1 -4,-1 -11,-4 -15,-5l-13 -5c-1,0 0,0 -2,-1l-16 -6c-1,0 -1,0 -2,-1l-13 -5c-4,-1 -6,-2 -10,-2 -5,0 -7,0 -12,0 -2,0 -4,1 -6,1 -4,1 -11,4 -16,6l-17 7c-1,0 0,0 -1,1l-4 1c-1,0 -1,0 -1,1l-10 4c-1,0 0,0 -1,1l-5 2c-1,0 -2,1 -3,1l-5 2c-4,1 -7,3 -10,5zm-243 75c0,-3 3,-9 6,-10 5,-2 9,-1 12,2 7,6 3,21 -10,19 -5,-1 -9,-6 -9,-11zm-38 4c0,1 1,2 2,2l1 1c1,1 2,2 4,3l3 2c5,3 11,7 16,11 1,1 2,1 4,3l3 2c0,0 0,0 0,0l8 6c3,2 6,4 9,6l1 0c1,0 1,1 2,1 10,3 21,2 29,-4 1,-1 1,-1 2,-2 1,-1 0,0 1,-1 3,-2 4,-5 6,-8 1,-1 1,-2 2,-3 1,-1 1,-2 2,-2 1,-1 1,-1 2,-2 4,-6 8,-11 12,-16 1,-1 1,-2 2,-2l12 -17c1,-1 1,-2 2,-2l7 -9c1,-1 1,-2 2,-2 1,-1 1,-1 2,-2l13 -19c3,-4 6,-8 8,-12 0,0 0,-1 1,-1 0,0 0,0 0,0l9 -13c0,0 0,0 0,0l0 0c3,-4 6,-8 8,-12l2 -4c1,-4 1,-7 1,-11 0,-2 -1,-3 -1,-6 0,-3 -2,-5 -3,-7l0 0c0,0 0,0 0,0l0 0c-4,-7 -15,-14 -22,-18 -1,-1 -1,-1 -2,-2 -1,0 0,0 -1,-1 -3,-2 -12,-9 -16,-11l-10 -7c-1,-1 -1,-1 -3,-1 0,2 -10,14 -11,16l-5 8c-1,1 -1,1 -2,3 -3,5 -6,9 -9,13 0,1 0,1 -1,1l-23 32c-1,1 -1,2 -2,3l-33 47c-1,1 -1,2 -2,3l-16 23c-1,1 -1,2 -2,3l-9 13c-1,1 -2,2 -2,3z"/>
   <path class="fil0" d="M401 189c0,-1 1,-1 1,-2l3 -5c1,-2 2,-5 6,-6 3,-1 6,0 7,2l0 0 0 0 0 0c4,0 6,2 8,4 4,6 -2,10 -6,15 -3,4 -8,9 -10,12 -3,4 -7,8 -10,13l-2 2 -3 5c-2,3 -8,13 -9,16 -3,5 -5,10 -9,11 -4,1 -9,-3 -14,-5l-23 -13c-4,-3 -4,-8 -2,-11l0 0 0 0 0 0 0 0 0 0 0 0 0 0 0 0 0 0 0 0 0 0 0 0 0 0 0 0 0 0 0 0 0 0 0 0 0 0 0 0 0 0 0 0 0 0 0 0 0 0 0 0 0 0 0 0 0 0 0 0 0 0 0 0 0 0 0 0 0 0 0 0 0 0 0 0 0 0 0 0 0 0 0 0 0 0 0 0 0 0 0 0 0 0 0 0 0 0 0 0 0 0 0 0 0 0 0 0 0 0 0 0 0 0 0 0 0 0 0 0 0 0 0 0 0 0 0 0 0 0 0 0 0 0 0 0 0 0 0 0 0 0 0 0 0 0 0 0 0 0 0 0 0 0 0 0 0 0 0 0 0 0 0 0 0 0 0 0 0 0 0 0 0 0 0 0 0 0 0 0 0 0 0 0 0 0 0 0 0 0 0 0 0 0 0 0 0 0 0 0 0 0 0 0 0 0 0 0 0 0 0 0 0 0 0 0m1 0l0 0 0 0 0 0 0 0 0 0 0 0 0 0 0 0 0 0 0 0 0 0 0 0 0 0 0 0c2,1 4,3 5,4l6 5c1,0 1,1 2,1l10 8 15 -18 16 -26m-85 44c9,35 47,58 84,48 36,-10 58,-46 48,-84 -13,-49 -72,-66 -109,-36 -7,6 -8,7 -13,13 -1,1 -2,3 -3,5 -8,14 -13,31 -7,53z"/>
  </g>
 </g>
</svg>
