<?xml version="1.0" encoding="UTF-8"?>
<!DOCTYPE svg PUBLIC "-//W3C//DTD SVG 1.1//EN" "http://www.w3.org/Graphics/SVG/1.1/DTD/svg11.dtd">
<!-- Creator: CorelDRAW X6 -->
<svg xmlns="http://www.w3.org/2000/svg" xml:space="preserve" width="810px" height="810px" version="1.1" style="shape-rendering:geometricPrecision; text-rendering:geometricPrecision; image-rendering:optimizeQuality; fill-rule:evenodd; clip-rule:evenodd"
viewBox="0 0 810 810"
 xmlns:xlink="http://www.w3.org/1999/xlink">
 <defs>
  <style type="text/css">
   <![CDATA[
    .str0 {stroke:#5F3773;stroke-width:10.0004}
    .fil0 {fill:none}
    .fil1 {fill:#5F3773}
   ]]>
  </style>
 </defs>
 <g id="Capa_x0020_1">
  <metadata id="CorelCorpID_0Corel-Layer"/>
  <g id="_594737976">
   <rect class="fil0 str0" x="5" y="5" width="800" height="800" rx="118" ry="118"/>
   <path class="fil1" d="M189 424c-2,8 -1,196 -1,226 0,5 0,11 0,16 0,25 -5,12 55,12 39,0 78,8 113,22 4,2 9,4 14,6 -3,-3 -11,-8 -14,-10 -42,-26 -83,-34 -134,-34 -21,0 -16,-28 -16,-47 0,-21 0,-43 0,-64 0,-42 -1,-86 0,-128 -6,0 -14,0 -17,2zm239 282l38 -15c29,-9 62,-14 94,-14 9,0 18,0 26,1 31,2 26,11 26,-30l0 -210c0,-4 1,-13 -2,-15 -2,-2 -12,-2 -16,-1 0,37 0,75 0,112 0,20 1,99 0,112 -2,19 -24,13 -42,15 -30,2 -63,10 -89,23 -11,5 -27,14 -35,21zm-22 1c-1,-30 0,-62 0,-93l0 -138c0,-18 -2,-13 10,-24 37,-32 91,-52 143,-53 27,-1 22,-2 22,23 1,60 0,123 0,184 0,57 6,40 -31,43 -25,2 -48,7 -71,15 -44,16 -68,40 -73,43zm-188 -293c0,-6 -2,-14 3,-15 6,-1 28,0 35,1 49,5 98,26 130,55 5,4 7,3 7,12 -1,79 0,161 0,240l-16 -12c-15,-11 -34,-21 -52,-29 -56,-23 -95,-16 -104,-18 -4,-1 -3,-3 -3,-7l0 -135 0 -93zm-12 -4c-35,0 -30,7 -30,43l0 146c0,23 1,49 0,72 -1,27 19,21 33,19 60,-7 127,6 178,37 11,7 15,7 27,0 27,-16 63,-29 94,-34 11,-2 21,-3 33,-4 11,-1 25,-1 36,0 18,1 36,9 45,-3 3,-5 3,-9 3,-16l0 -219c0,-9 2,-28 -3,-34 -7,-10 -15,-7 -28,-8 0,-6 1,-11 -2,-16 -7,-11 -29,-8 -44,-7 -49,4 -101,23 -138,55 -2,2 -7,7 -9,8 -19,-15 -15,-14 -41,-30 -13,-8 -32,-16 -49,-21 -16,-5 -40,-10 -59,-11 -16,-1 -37,-5 -44,8 -3,5 -2,9 -2,15z"/>
   <path class="fil1" d="M251 454c3,1 27,4 34,5 21,5 38,11 56,23l17 12c2,2 4,3 7,2 2,-6 -4,-9 -8,-12 -13,-10 -26,-17 -41,-23 -9,-4 -22,-7 -33,-10 -6,-1 -12,-2 -18,-3 -5,-1 -17,-4 -14,5z"/>
   <path class="fil1" d="M550 454c3,-9 -7,-6 -13,-6 -6,1 -13,2 -19,3 -31,6 -57,19 -81,37 -6,5 -2,12 5,5l17 -12c48,-28 79,-23 90,-27z"/>
   <path class="fil1" d="M252 566c-3,2 -2,5 0,6l28 3c21,4 42,12 60,23 4,3 9,5 12,8 3,2 9,9 13,7 7,-5 -13,-17 -18,-19 -18,-11 -37,-19 -58,-24 -6,-1 -32,-7 -36,-4z"/>
   <path class="fil1" d="M436 573c4,4 9,-3 13,-6 12,-9 25,-16 39,-22 10,-4 21,-7 32,-9 16,-3 35,-2 30,-9 -3,-4 -30,1 -36,3 -28,6 -48,16 -71,32 -6,5 -10,7 -8,11z"/>
   <path class="fil1" d="M252 527c-2,1 -2,0 -2,3 0,4 4,3 12,4 17,2 35,6 50,12 10,4 19,8 27,13 10,6 21,17 25,15 6,-4 -4,-10 -6,-11 -4,-3 -7,-6 -12,-8 -20,-12 -35,-18 -58,-24 -6,-1 -31,-6 -36,-4z"/>
   <path class="fil1" d="M435 535c5,1 6,-1 13,-7 19,-15 47,-27 72,-31l27 -3c2,-1 4,-4 2,-6 -3,-3 -30,2 -36,3 -11,3 -21,5 -31,10 -15,6 -27,13 -39,22 -4,3 -10,5 -8,12z"/>
   <path class="fil1" d="M436 612c3,2 4,1 7,-1 13,-11 29,-20 46,-27 10,-4 21,-7 32,-9 22,-4 33,0 29,-10 -12,-5 -56,9 -67,13 -9,4 -19,9 -27,14 -4,3 -8,5 -12,8 -6,5 -11,6 -8,11z"/>
   <path class="fil1" d="M252 488c-2,1 -2,0 -2,3 0,4 6,3 12,4 32,3 73,17 96,38 1,1 4,4 7,2 11,-7 -41,-32 -45,-34 -10,-4 -20,-7 -31,-10 -6,-1 -31,-7 -36,-4z"/>
   <path class="fil1" d="M273 314c11,8 44,47 53,51 0,-39 0,-78 0,-118 0,-37 2,-80 0,-117 -1,-21 -15,-25 -34,-25l-176 0c-23,0 -35,-4 -47,12 -8,10 -5,39 -5,54 0,38 -2,80 0,117 1,20 13,26 33,26l175 0zm-64 -122l72 0c-2,7 -2,10 -5,15 -6,13 -20,28 -27,28 -9,0 -19,-20 -23,-33l-17 0c-1,12 6,24 12,33l5 7 -17 2 0 18c8,0 14,-1 21,-2 5,-1 15,-4 19,-4 9,0 21,8 37,6l-1 -17 -13 -1c20,-21 29,-24 29,-68l-37 0 0 -18 -18 0 1 18 -37 0 0 17zm-65 -6c1,2 0,0 2,3l2 6c1,3 2,6 3,9 2,6 5,13 6,19l-27 0 14 -37zm-20 54l39 0 7 21 25 0c-2,-8 -39,-101 -42,-105l-20 0c-3,9 -7,18 -10,26l-31 78 24 0 8 -22z"/>
   <path class="fil1" d="M130 223l27 0c-1,-6 -4,-13 -6,-19 -1,-3 -2,-6 -3,-9l-2 -6c-1,-3 0,-1 -2,-3l-14 37z"/>
  </g>
 </g>
</svg>
