<?xml version="1.0" encoding="UTF-8"?>
<!DOCTYPE svg PUBLIC "-//W3C//DTD SVG 1.1//EN" "http://www.w3.org/Graphics/SVG/1.1/DTD/svg11.dtd">
<!-- Creator: CorelDRAW X6 -->
<svg xmlns="http://www.w3.org/2000/svg" xml:space="preserve" width="800px" height="800px" version="1.1" style="shape-rendering:geometricPrecision; text-rendering:geometricPrecision; image-rendering:optimizeQuality; fill-rule:evenodd; clip-rule:evenodd"
viewBox="0 0 800 800"
 xmlns:xlink="http://www.w3.org/1999/xlink">
 <defs>
  <style type="text/css">
   <![CDATA[
    .fil0 {fill:#5F3773}
    .fil1 {fill:#9D9FB5}
   ]]>
  </style>
 </defs>
 <g id="Capa_x0020_1">
  <metadata id="CorelCorpID_0Corel-Layer"/>
  <g id="_594740904">
   <path class="fil0" d="M118 0l565 0c65,0 118,53 118,118l0 565c0,65 -53,118 -118,118l-565 0c-65,0 -118,-53 -118,-118l0 -565c0,-65 53,-118 118,-118zm451 521l-52 0 1 -9c8,-4 22,-2 32,-2 19,0 18,-4 19,12zm-13 -21c-43,0 -35,3 -39,-6l52 -6c0,15 -1,12 -12,12zm-264 -222c1,-4 3,-9 5,-13l8 -14 9 28 -22 -1zm-114 117c-30,47 -39,16 -33,54 41,22 76,-17 95,-10 46,17 54,18 106,14 2,52 -3,75 25,118 10,15 20,31 33,40 12,9 30,22 47,29 39,15 85,17 125,4 58,-20 10,4 80,9 39,3 40,-20 23,-32 -11,-8 -12,-7 -20,-20 -7,-12 -5,-12 3,-23 57,-84 29,-195 -48,-244 -42,-27 -71,-30 -128,-26 1,-59 -9,-120 -57,-157 -21,-16 -37,-28 -69,-37 -32,-9 -67,-8 -98,2 -86,26 -136,117 -117,204 11,49 29,57 34,75z"/>
   <path class="fil0" d="M510 557c-8,-10 -4,-67 -3,-79l73 0 0 75c-24,6 -21,8 -29,0 0,-1 1,-2 1,-1l7 -4c8,-3 10,6 10,-17l-52 0c1,34 1,24 -7,27zm-68 -79c-1,-5 4,-39 11,-44 2,2 8,-2 2,25 -5,25 -6,17 -13,19zm38 -49c15,2 19,15 14,26 -5,-3 -13,-5 -14,-26zm57 -14l3 -14c28,3 -3,-1 13,15 21,0 28,-3 37,5 -16,13 -31,-6 -41,10 6,9 -3,5 35,5l0 9c-43,0 -30,-2 -35,6 4,6 -7,7 24,6 26,-1 21,2 22,7 -11,7 -37,3 -52,3 -13,0 -44,6 -51,-6 19,-11 38,5 45,-10 -9,-16 -18,3 -32,-10 14,-13 23,6 32,-10 -5,-10 -6,-7 -39,-5l0 -11 39 0zm-70 142c-8,-13 -2,-128 -4,-155 20,1 12,-13 12,73l0 67c-1,18 1,12 -9,15zm182 74c11,0 4,1 6,-3 -13,-10 -18,-22 -24,-40l28 -46c27,-57 9,-129 -28,-168 -54,-57 -146,-63 -211,-12 -91,72 -66,237 62,267 70,17 112,-19 121,-18 17,8 23,17 46,20z"/>
   <path class="fil0" d="M272 330l-41 1c4,-16 46,-115 57,-123l38 0 52 122c-37,0 -38,4 -46,-9 -1,-1 -4,-10 -5,-12l-47 0 -8 21zm-99 104c49,2 33,-33 80,-11 30,14 65,14 99,8 13,-49 49,-90 95,-110 17,-7 22,-5 20,-49 -9,-167 -250,-199 -300,-35 -28,91 35,140 34,157 -1,15 -19,30 -27,39z"/>
   <path class="fil1" d="M649 630c8,5 0,4 12,2l-5 -6c-3,5 5,4 -6,3z"/>
  </g>
 </g>
</svg>
