<?xml version="1.0" encoding="UTF-8"?>
<!DOCTYPE svg PUBLIC "-//W3C//DTD SVG 1.1//EN" "http://www.w3.org/Graphics/SVG/1.1/DTD/svg11.dtd">
<!-- Creator: CorelDRAW X6 -->
<svg xmlns="http://www.w3.org/2000/svg" xml:space="preserve" width="810px" height="810px" version="1.1" style="shape-rendering:geometricPrecision; text-rendering:geometricPrecision; image-rendering:optimizeQuality; fill-rule:evenodd; clip-rule:evenodd"
viewBox="0 0 810 810"
 xmlns:xlink="http://www.w3.org/1999/xlink">
 <defs>
  <style type="text/css">
   <![CDATA[
    .str0 {stroke:#5F3773;stroke-width:10.0004}
    .fil0 {fill:none}
    .fil1 {fill:#5F3773}
    .fil2 {fill:#9D9FB5}
   ]]>
  </style>
 </defs>
 <g id="Capa_x0020_1">
  <metadata id="CorelCorpID_0Corel-Layer"/>
  <g id="_594739272">
   <rect class="fil0 str0" x="5" y="5" width="800" height="800" rx="118" ry="118"/>
   <path class="fil1" d="M645 652l5 6c-12,2 -4,2 -12,-2 -24,-2 -30,-12 -46,-20 -9,-1 -51,35 -121,18 -128,-31 -152,-196 -62,-267 65,-51 158,-45 211,12 37,40 55,111 28,168l-28 46c6,18 12,29 24,40zm-482 -193c49,2 33,-33 80,-11 30,14 65,14 99,8 13,-49 49,-90 95,-110 17,-7 22,-5 20,-49 -9,-167 -250,-199 -300,-35 -28,91 35,140 34,157 -1,15 -19,30 -27,39zm5 -39c-30,47 -39,16 -33,54 41,22 76,-17 95,-10 46,17 54,18 106,14 2,52 -3,75 25,118 10,15 20,31 33,40 12,9 30,22 47,29 39,15 85,17 125,4 58,-20 10,4 80,9 39,3 40,-20 23,-32 -11,-8 -12,-7 -20,-20 -7,-12 -5,-12 3,-23 57,-84 29,-195 -48,-244 -42,-27 -71,-30 -128,-26 1,-59 -9,-120 -57,-157 -21,-16 -37,-28 -69,-37 -32,-9 -67,-8 -98,2 -86,26 -136,117 -117,204 11,49 29,57 34,75z"/>
   <path class="fil1" d="M269 334l47 0c1,2 4,11 5,12 8,13 9,9 46,9l-52 -122 -38 0c-10,7 -52,107 -57,123l41 -1 8 -21zm12 -31l22 1 -9 -28 -8 14c-2,4 -3,9 -5,13z"/>
   <path class="fil1" d="M499 581c8,-3 8,8 7,-27l52 0c0,23 -2,13 -10,17l-7 4c0,0 -1,1 -1,1 7,8 5,6 29,0l0 -75 -73 0c-1,11 -4,69 3,79zm8 -46l-1 9 52 0c-1,-16 0,-12 -19,-12 -10,0 -24,-1 -32,2zm0 -17c4,8 -4,6 39,6 11,0 12,3 12,-12l-52 6z"/>
   <path class="fil1" d="M526 440c-1,0 -2,1 -2,1 -24,7 -36,-9 -36,10 33,-2 34,-4 39,5 -10,16 -18,-3 -32,10 15,13 23,-6 32,10 -7,15 -26,-1 -45,10 8,12 39,6 51,6 15,0 41,4 52,-3 -1,-5 4,-8 -22,-7 -31,1 -21,0 -24,-6 5,-8 -8,-6 35,-6l0 -9c-38,0 -29,3 -35,-5 10,-16 25,3 41,-10 -9,-8 -16,-5 -37,-5 -16,-16 15,-12 -13,-15l-3 14z"/>
   <path class="fil1" d="M456 581c10,-3 8,3 9,-15l0 -67c0,-87 7,-72 -12,-73 2,27 -5,142 4,155z"/>
   <path class="fil1" d="M431 503c7,-2 8,6 13,-19 6,-27 -1,-23 -2,-25 -7,5 -13,38 -11,44z"/>
   <path class="fil1" d="M484 480c4,-12 1,-25 -14,-26 1,21 10,24 14,26z"/>
   <path class="fil1" d="M487 451c0,-19 12,-3 36,-10 1,0 1,-1 2,-1l-39 0 0 11z"/>
   <path class="fil2" d="M638 655c8,5 0,4 12,2l-5 -6c-3,5 5,4 -6,3z"/>
  </g>
 </g>
</svg>
