<?xml version="1.0" encoding="UTF-8"?>
<!DOCTYPE svg PUBLIC "-//W3C//DTD SVG 1.1//EN" "http://www.w3.org/Graphics/SVG/1.1/DTD/svg11.dtd">
<!-- Creator: CorelDRAW X6 -->
<svg xmlns="http://www.w3.org/2000/svg" xml:space="preserve" width="800px" height="800px" version="1.1" style="shape-rendering:geometricPrecision; text-rendering:geometricPrecision; image-rendering:optimizeQuality; fill-rule:evenodd; clip-rule:evenodd"
viewBox="0 0 800 800"
 xmlns:xlink="http://www.w3.org/1999/xlink">
 <defs>
  <style type="text/css">
   <![CDATA[
    .fil0 {fill:#5F3773}
    .fil1 {fill:white}
   ]]>
  </style>
 </defs>
 <g id="Capa_x0020_1">
  <metadata id="CorelCorpID_0Corel-Layer"/>
  <g id="_594743520">
   <path class="fil0" d="M118 0l565 0c65,0 118,53 118,118l0 565c0,65 -53,118 -118,118l-565 0c-65,0 -118,-53 -118,-118l0 -565c0,-65 53,-118 118,-118zm129 386c-35,0 -30,7 -30,43l0 146c0,23 1,49 0,72 -1,27 19,21 33,19 60,-7 127,6 178,37 11,7 15,7 27,0 27,-16 63,-29 94,-34 11,-2 21,-3 33,-4 11,-1 25,-1 36,0 18,1 36,9 45,-3 3,-5 3,-9 3,-16l0 -219c0,-9 2,-28 -3,-34 -7,-10 -15,-7 -28,-8 0,-6 1,-11 -2,-16 -7,-11 -29,-8 -44,-7 -49,4 -101,23 -138,55 -2,2 -7,7 -9,8 -19,-15 -15,-14 -41,-30 -13,-8 -32,-16 -49,-21 -16,-5 -40,-10 -59,-11 -16,-1 -37,-5 -44,8 -3,5 -2,9 -2,15zm-91 -149l-24 0 31 -78c3,-8 7,-17 10,-26l20 0c3,4 40,97 42,105l-25 0 -7 -21 -39 0 -8 22zm93 -87l37 0 -1 -18 18 0 0 18 37 0c0,44 -9,47 -29,68l13 1 1 17c-16,2 -28,-6 -37,-6 -4,0 -14,3 -19,4 -7,1 -13,2 -21,2l0 -18 17 -2 -5 -7c-6,-9 -13,-21 -12,-33l17 0c3,13 14,33 23,33 7,0 21,-15 27,-28 3,-6 3,-9 5,-15l-72 0 0 -17zm64 139c11,8 44,47 53,51 0,-39 0,-78 0,-118 0,-37 2,-80 0,-117 -1,-21 -15,-25 -34,-25l-176 0c-23,0 -35,-4 -47,12 -8,10 -5,39 -5,54 0,38 -2,80 0,117 1,20 13,26 33,26l175 0z"/>
   <path class="fil0" d="M476 588c-3,-5 2,-7 8,-11 4,-3 8,-6 12,-8 8,-5 17,-10 27,-14 11,-5 55,-18 67,-13 4,9 -8,5 -29,10 -11,2 -22,5 -32,9 -17,7 -33,15 -46,27 -2,2 -4,3 -7,1zm0 -39c-3,-5 1,-7 8,-11 22,-16 43,-26 71,-32 6,-1 33,-7 36,-3 5,8 -14,6 -30,9 -11,2 -22,5 -32,9 -14,6 -27,13 -39,22 -4,3 -9,9 -13,6zm0 -38c-2,-6 4,-9 8,-12 12,-9 24,-16 39,-22 10,-4 20,-7 31,-10 6,-1 33,-7 36,-3 2,2 0,5 -2,6l-27 3c-24,4 -52,16 -72,31 -8,6 -8,8 -13,7zm114 -81c-11,4 -42,-1 -90,27l-17 12c-7,6 -11,-1 -5,-5 24,-19 50,-32 81,-37 6,-1 12,-2 19,-3 6,-1 16,-3 13,6zm-143 253c5,-2 30,-26 73,-43 23,-8 46,-13 71,-15 37,-3 31,14 31,-43 0,-61 1,-124 0,-184 0,-25 4,-24 -22,-23 -52,1 -106,21 -143,53 -12,11 -10,6 -10,24l0 138c0,31 -1,62 0,93z"/>
   <path class="fil0" d="M380 573c-18,-11 -38,-18 -60,-23l-28 -3c-3,-1 -3,-5 0,-6 5,-3 30,2 36,4 21,5 40,13 58,24 5,3 25,15 18,19 -3,2 -10,-5 -13,-7 -4,-3 -8,-5 -12,-8zm-27 -52c-16,-6 -33,-10 -50,-12 -7,-1 -12,1 -12,-4 0,-4 0,-2 2,-3 5,-2 30,3 36,4 23,6 39,12 58,24 5,3 8,5 12,8 2,1 12,7 6,11 -4,2 -15,-9 -25,-15 -9,-5 -17,-9 -27,-13zm45 -13c-23,-21 -64,-35 -96,-38 -6,-1 -12,1 -12,-4 0,-4 0,-2 2,-3 5,-3 30,2 36,4 11,3 21,6 31,10 4,2 56,27 45,34 -3,2 -5,-1 -7,-2zm8 -37c-4,1 -5,0 -7,-2l-17 -12c-18,-11 -35,-18 -56,-23 -6,-1 -31,-4 -34,-5 -2,-9 10,-6 14,-5 6,1 12,2 18,3 11,2 24,6 33,10 16,6 28,13 41,23 4,3 10,6 8,12zm-146 11l0 135c0,4 -1,6 3,7 9,2 48,-5 104,18 18,7 37,18 52,29l16 12c0,-79 -1,-161 0,-240 0,-9 -2,-7 -7,-12 -32,-30 -81,-50 -130,-55 -7,-1 -29,-2 -35,-1 -5,1 -3,9 -3,15l0 93z"/>
   <path class="fil0" d="M469 681l38 -15c29,-9 62,-14 94,-14 9,0 18,0 26,1 31,2 26,11 26,-30l0 -210c0,-4 1,-13 -2,-15 -2,-2 -12,-2 -16,-1 0,37 0,75 0,112 0,20 1,99 0,112 -2,19 -24,13 -42,15 -30,2 -63,10 -89,23 -11,5 -27,14 -35,21z"/>
   <path class="fil0" d="M230 399c-2,8 -1,196 -1,226 0,5 0,11 0,16 0,25 -5,12 55,12 39,0 78,8 113,22 4,2 9,4 14,6 -3,-3 -11,-8 -14,-10 -42,-26 -83,-34 -134,-34 -21,0 -16,-28 -16,-47 0,-21 0,-43 0,-64 0,-42 -1,-86 0,-128 -6,0 -14,0 -17,2z"/>
   <path class="fil0" d="M249 167l72 0c-2,7 -2,10 -5,15 -6,13 -20,28 -27,28 -9,0 -19,-20 -23,-33l-17 0c-1,12 6,24 12,33l5 7 -17 2 0 18c8,0 14,-1 21,-2 5,-1 15,-4 19,-4 9,0 21,8 37,6l-1 -17 -13 -1c20,-21 29,-24 29,-68l-37 0 0 -18 -18 0 1 18 -37 0 0 17z"/>
   <path class="fil0" d="M184 161c1,2 0,0 2,3l2 6c1,3 2,6 3,9 2,6 5,12 6,19l-27 0 14 -37zm-20 54l39 0 7 21 25 0c-2,-8 -39,-101 -42,-105l-20 0c-3,9 -7,18 -10,26l-31 78 24 0 8 -22z"/>
   <path class="fil1" d="M170 198l27 0c-1,-6 -4,-13 -6,-19 -1,-3 -2,-6 -3,-9l-2 -6c-1,-3 0,-1 -2,-3l-14 37z"/>
  </g>
 </g>
</svg>
