<?xml version="1.0" encoding="UTF-8"?>
<!DOCTYPE svg PUBLIC "-//W3C//DTD SVG 1.1//EN" "http://www.w3.org/Graphics/SVG/1.1/DTD/svg11.dtd">
<!-- Creator: CorelDRAW X6 -->
<svg xmlns="http://www.w3.org/2000/svg" xml:space="preserve" width="800px" height="791px" version="1.1" style="shape-rendering:geometricPrecision; text-rendering:geometricPrecision; image-rendering:optimizeQuality; fill-rule:evenodd; clip-rule:evenodd"
viewBox="0 0 800 791"
 xmlns:xlink="http://www.w3.org/1999/xlink">
 <defs>
  <style type="text/css">
   <![CDATA[
    .fil0 {fill:#5F3773}
    .fil2 {fill:#737373}
    .fil3 {fill:#9D9FB5}
    .fil1 {fill:white}
   ]]>
  </style>
 </defs>
 <g id="Capa_x0020_1">
  <metadata id="CorelCorpID_0Corel-Layer"/>
  <g id="_236878552">
   <g>
    <path class="fil0" d="M57 0l273 0c31,0 57,26 57,57l0 273c0,31 -26,57 -57,57l-273 0c-31,0 -57,-26 -57,-57l0 -273c0,-31 26,-57 57,-57zm19 83l0 121c0,1 0,2 1,2 2,5 5,10 11,11 3,1 20,0 25,0l0 27c0,1 6,6 7,7l19 19c1,1 1,1 2,2l28 0c0,6 -1,21 1,26 1,2 1,3 2,4 3,4 7,7 13,7l107 0c4,0 10,0 13,0 2,0 3,-1 5,-2 5,-3 7,-7 8,-12 0,-4 0,-9 0,-13 0,-3 0,-103 0,-107 -1,-7 -6,-13 -13,-14 -3,-1 -59,0 -67,0 -3,0 -11,0 -13,0 0,-5 0,-21 0,-27 0,-4 0,-50 0,-53 0,-2 -1,-3 -2,-5 -1,-1 -2,-3 -3,-4 0,0 -1,-1 -2,-1 -2,-1 -3,-2 -4,-2 -1,0 -2,0 -3,-1l-121 0c-2,1 -5,0 -9,5 -4,4 -3,6 -5,9z"/>
    <path class="fil1" d="M123 125c-3,0 -6,5 -6,9 0,3 3,7 5,10 2,4 5,6 6,8l2 3c0,0 1,1 1,1 1,1 1,1 2,2l1 1c0,0 0,1 1,1 -2,3 -18,11 -20,12 -4,2 -8,2 -10,6 -3,4 -1,9 2,12 4,3 8,2 12,0 10,-4 17,-9 26,-15 2,-1 4,-3 5,-4 1,1 1,1 2,1 4,3 10,7 14,9 1,0 2,1 3,1 1,2 0,13 0,16l-37 0 -4 -5 -4 5 -28 0 0 -111 111 0 0 74c-4,0 -22,0 -25,0 -3,1 -4,2 -6,3 -2,-1 -9,-5 -10,-6l7 -8c0,-1 0,0 1,-1 5,-5 9,-13 12,-19 0,-1 1,-1 1,-2 0,-1 0,-2 0,-3l10 0 0 -19 -37 0 0 -9 -18 0c0,2 0,8 0,9l-37 0 0 18c1,0 17,0 20,0 0,1 0,0 -1,1z"/>
    <path class="fil1" d="M131 125l36 0c-1,3 -6,10 -8,12 -1,1 -1,1 -2,3l-7 8c-3,-1 -11,-11 -13,-14 -2,-2 -2,-4 -4,-6 -1,-1 -2,-1 -3,-2z"/>
    <path class="fil0" d="M169 218l0 28c0,0 1,0 -1,0 -4,0 -25,0 -27,0l0 -28c1,0 12,0 14,0l12 0c2,0 1,0 2,0z"/>
    <path class="fil1" d="M222 279l-20 0c1,-2 1,-4 2,-6l9 -24c0,0 0,-1 0,-1l4 -12c0,0 0,0 0,-1 0,0 0,0 0,-1l13 -35c0,0 0,-1 1,-1l2 -7 20 0 32 86 -20 0c-1,0 -2,-3 -2,-5 -1,-2 -1,-3 -2,-5l-2 -7c0,-1 -1,-2 -1,-2l-31 0 -6 19z"/>
    <path class="fil0" d="M123 125c-1,-1 1,-1 -2,0l-7 0c-2,0 -8,0 -9,0 0,-2 0,-17 0,-19 1,0 34,0 37,0 0,-1 0,-9 0,-9l18 0 0 9 37 0 0 19 -10 0c0,1 0,2 0,3 0,1 -1,2 -1,2 -3,6 -8,14 -12,19 0,1 0,0 -1,1l-7 8c1,1 9,6 10,6 2,-1 3,-2 6,-3 3,-1 21,0 25,0l0 -74 -111 0 0 111 28 0 4 -5 4 5 37 0c0,-3 0,-14 0,-16 -1,0 -2,-1 -3,-1 -4,-2 -10,-6 -14,-9 -1,0 -1,-1 -2,-1 -1,1 -3,2 -5,4 -9,6 -16,10 -26,15 -4,2 -8,3 -12,0 -3,-2 -5,-7 -2,-12 2,-4 6,-4 10,-6 3,-1 18,-10 20,-12 0,-1 0,-1 -1,-1l-1 -1c-1,-1 -1,-1 -2,-2 0,0 -1,-1 -1,-1l-2 -3c-2,-2 -4,-5 -6,-8 -2,-2 -4,-7 -5,-10 0,-4 3,-8 6,-9z"/>
    <path class="fil0" d="M228 260l31 0c0,1 0,1 1,2l2 7c1,2 1,3 2,5 0,1 1,4 2,5l20 0 -32 -86 -20 0 -2 7c0,0 0,1 -1,1l-13 35c0,0 0,0 0,1 0,0 0,0 0,1l-4 12c0,0 0,0 0,1l-9 24c-1,2 -1,4 -2,6l20 0 6 -19zm5 -14l21 0c-2,-6 -5,-14 -7,-19l-4 -11c0,-1 0,0 -1,-1l-10 30z"/>
    <path class="fil0" d="M131 125c1,1 2,1 3,2 1,2 2,3 4,6 2,3 10,13 13,14l7 -8c1,-1 1,-2 2,-3 2,-2 7,-9 8,-12l-36 0z"/>
    <path class="fil2" d="M169 245l-28 0 0 -28 28 0c0,0 0,0 -2,0l-12 0c-2,0 -13,0 -14,0l0 28c2,1 23,0 27,0 2,0 0,0 1,0z"/>
   </g>
   <g>
    <path class="fil0" d="M470 94l273 0c31,0 57,26 57,57l0 273c0,31 -26,57 -57,57l-273 0c-31,0 -57,-26 -57,-57l0 -273c0,-31 26,-57 57,-57zm218 252l-25 0 0 -5c4,-2 11,-1 16,-1 9,0 9,-2 9,6zm-6 -10c-21,0 -17,1 -19,-3l25 -3c0,7 -1,6 -6,6zm-128 -108c1,-2 1,-4 2,-6l4 -7 5 13 -11 -1zm-55 57c-14,23 -19,8 -16,26 20,11 37,-8 46,-5 22,8 26,9 51,7 1,25 -1,36 12,57 5,7 10,15 16,19 6,4 14,11 23,14 19,7 41,8 61,2 28,-10 5,2 39,4 19,1 19,-9 11,-16 -5,-4 -6,-3 -10,-10 -4,-6 -2,-6 1,-11 28,-41 14,-95 -23,-118 -21,-13 -34,-15 -62,-12 1,-29 -4,-58 -28,-76 -10,-8 -18,-14 -34,-18 -16,-4 -32,-4 -47,1 -42,13 -66,57 -57,99 5,24 14,28 17,36z"/>
    <path class="fil0" d="M659 364c-4,-5 -2,-33 -2,-38l35 0 0 36c-12,3 -10,4 -14,0 0,0 0,-1 0,-1l4 -2c4,-2 5,3 5,-8l-25 0c0,17 0,12 -4,13zm-33 -38c-1,-3 2,-19 6,-21 1,1 4,-1 1,12 -2,12 -3,8 -7,9zm18 -24c7,1 9,7 7,13 -2,-1 -6,-3 -7,-13zm27 -7l1 -7c14,2 -1,-1 6,7 10,0 14,-1 18,3 -8,6 -15,-3 -20,5 3,4 -1,3 17,3l0 4c-21,0 -14,-1 -17,3 2,3 -3,3 12,3 13,0 10,1 11,4 -5,3 -18,1 -25,1 -6,0 -21,3 -25,-3 9,-5 18,2 22,-5 -4,-8 -9,1 -16,-5 7,-6 11,3 16,-5 -3,-5 -3,-3 -19,-3l0 -5 19 0zm-34 69c-4,-6 -1,-62 -2,-75 9,0 6,-7 6,36l0 32c0,9 1,6 -4,7zm88 36c5,0 2,1 3,-2 -6,-5 -9,-11 -12,-19l14 -22c13,-28 4,-62 -14,-81 -26,-28 -71,-31 -102,-6 -44,35 -32,115 30,130 34,8 54,-9 59,-9 8,4 11,8 22,10z"/>
    <path class="fil0" d="M544 254l-20 0c2,-8 22,-56 27,-59l18 0 25 59c-18,0 -19,2 -22,-4 0,-1 -2,-5 -2,-6l-23 0 -4 10zm-48 50c24,1 16,-16 39,-5 14,7 32,7 48,4 6,-24 24,-43 46,-53 8,-4 11,-2 10,-24 -4,-81 -121,-96 -145,-17 -13,44 17,68 16,76 -1,7 -9,14 -13,19z"/>
    <path class="fil3" d="M727 400c4,2 0,2 6,1l-3 -3c-1,2 2,2 -3,2z"/>
   </g>
   <g>
    <path class="fil0" d="M63 404l273 0c31,0 57,26 57,57l0 273c0,31 -26,57 -57,57l-273 0c-31,0 -57,-26 -57,-57l0 -273c0,-31 26,-57 57,-57zm63 187c-17,0 -14,3 -15,21l0 71c0,11 0,24 0,35 0,13 9,10 16,9 29,-3 61,3 86,18 5,3 7,3 13,0 13,-8 30,-14 45,-16 5,-1 10,-1 16,-2 5,0 12,0 17,0 9,0 18,4 22,-2 2,-2 1,-4 1,-8l0 -106c0,-4 1,-14 -1,-17 -3,-5 -7,-3 -13,-4 0,-3 0,-5 -1,-8 -4,-5 -14,-4 -21,-3 -24,2 -49,11 -67,27 -1,1 -4,3 -5,4 -9,-7 -7,-7 -20,-15 -6,-4 -15,-8 -24,-10 -8,-3 -19,-5 -28,-5 -8,0 -18,-2 -21,4 -1,2 -1,4 -1,7zm-44 -72l-12 0 15 -38c2,-4 3,-8 5,-13l10 0c1,2 19,47 20,51l-12 0 -4 -10 -19 0 -4 10zm45 -42l18 0 0 -9 9 0 0 9 18 0c0,21 -4,23 -14,33l6 0 0 8c-8,1 -14,-3 -18,-3 -2,0 -7,2 -9,2 -4,1 -6,1 -10,1l0 -9 8 -1 -2 -3c-3,-4 -6,-10 -6,-16l8 0c2,6 7,16 11,16 3,0 10,-7 13,-13 1,-3 1,-4 2,-8l-35 0 0 -8zm31 67c5,4 21,23 26,25 0,-19 0,-38 0,-57 0,-18 1,-39 0,-57 -1,-10 -7,-12 -16,-12l-85 0c-11,0 -17,-2 -23,6 -4,5 -2,19 -2,26 0,18 -1,39 0,57 0,9 6,13 16,13l85 0z"/>
    <path class="fil0" d="M236 688c-1,-2 1,-3 4,-6 2,-1 4,-3 6,-4 4,-3 8,-5 13,-7 5,-2 27,-9 33,-6 2,5 -4,3 -14,5 -5,1 -11,3 -16,4 -8,3 -16,7 -22,13 -1,1 -2,2 -3,0zm0 -19c-1,-2 1,-3 4,-6 11,-8 21,-13 34,-15 3,-1 16,-3 17,-1 2,4 -7,3 -15,4 -5,1 -11,3 -16,5 -7,3 -13,6 -19,10 -2,1 -4,4 -6,3zm0 -18c-1,-3 2,-4 4,-6 6,-5 12,-8 19,-11 5,-2 10,-3 15,-5 3,-1 16,-3 17,-2 1,1 0,3 -1,3l-13 2c-12,2 -25,8 -35,15 -4,3 -4,4 -6,3zm55 -39c-5,2 -20,-1 -43,13l-8 6c-4,3 -6,0 -3,-3 12,-9 24,-15 39,-18 3,-1 6,-1 9,-1 3,0 8,-1 6,3zm-69 122c2,-1 14,-13 35,-21 11,-4 22,-6 34,-7 18,-2 15,7 15,-21 0,-29 0,-60 0,-89 0,-12 2,-12 -11,-11 -25,1 -51,10 -69,26 -6,5 -5,3 -5,12l0 67c0,15 0,30 0,45z"/>
    <path class="fil0" d="M190 681c-9,-5 -19,-9 -29,-11l-13 -2c-1,-1 -2,-2 0,-3 2,-1 15,1 18,2 10,2 20,6 28,12 2,1 12,7 9,9 -2,1 -5,-2 -6,-3 -2,-1 -4,-3 -6,-4zm-13 -25c-8,-3 -16,-5 -24,-6 -4,0 -6,0 -6,-2 0,-2 0,-1 1,-2 2,-1 15,1 17,2 11,3 19,6 28,12 2,1 4,3 6,4 1,1 6,4 3,5 -2,1 -7,-4 -12,-7 -4,-2 -8,-5 -13,-6zm22 -6c-11,-10 -31,-17 -46,-18 -3,0 -6,0 -6,-2 0,-2 0,-1 1,-2 2,-1 14,1 17,2 5,1 10,3 15,5 2,1 27,13 22,16 -1,1 -3,0 -3,-1zm4 -18c-2,1 -2,0 -4,-1l-8 -6c-9,-5 -17,-9 -27,-11 -3,-1 -15,-2 -16,-3 -1,-4 5,-3 7,-3 3,0 6,1 9,1 5,1 11,3 16,5 8,3 14,6 20,11 2,2 5,3 4,6zm-71 5l0 65c0,2 0,3 2,3 4,1 23,-2 51,9 9,4 18,9 25,14l8 6c0,-38 0,-78 0,-116 0,-4 -1,-4 -3,-6 -15,-14 -39,-24 -63,-27 -3,0 -14,-1 -17,0 -2,1 -2,4 -2,7l0 45z"/>
    <path class="fil0" d="M233 734l18 -7c14,-5 30,-7 45,-7 4,0 8,0 13,1 15,1 12,6 13,-15l0 -102c0,-2 1,-6 -1,-7 -1,-1 -6,-1 -8,-1 0,18 0,36 0,54 0,10 1,48 0,54 -1,9 -11,7 -20,7 -15,1 -30,5 -43,11 -5,3 -13,7 -17,10z"/>
    <path class="fil0" d="M117 597c-1,4 0,95 0,109 0,3 0,5 0,8 0,12 -2,6 27,6 19,0 38,4 55,11 2,1 5,2 7,3 -1,-2 -5,-4 -7,-5 -20,-13 -40,-17 -65,-17 -10,0 -8,-14 -8,-23 0,-10 0,-21 0,-31 0,-21 -1,-41 0,-62 -3,0 -7,0 -8,1z"/>
    <path class="fil0" d="M127 485l35 0c-1,3 -1,5 -2,8 -3,6 -10,13 -13,13 -4,0 -9,-10 -11,-16l-8 0c-1,6 3,12 6,16l2 3 -8 1 0 9c4,0 7,0 10,-1 2,0 7,-2 9,-2 4,0 10,4 18,3l0 -8 -6 0c10,-10 14,-12 14,-33l-18 0 0 -9 -9 0 0 9 -18 0 0 8z"/>
    <path class="fil0" d="M95 482c1,1 0,0 1,1l1 3c0,2 1,3 2,4 1,3 2,6 3,9l-13 0 7 -18zm-9 26l19 0 4 10 12 0c-1,-4 -19,-49 -20,-51l-10 0c-2,4 -3,9 -5,13l-15 38 12 0 4 -10z"/>
    <path class="fil1" d="M88 499l13 0c-1,-3 -2,-6 -3,-9 -1,-2 -1,-3 -2,-4l-1 -3c-1,-1 0,0 -1,-1l-7 18z"/>
   </g>
  </g>
 </g>
</svg>
