<?xml version="1.0" encoding="UTF-8"?>
<!DOCTYPE svg PUBLIC "-//W3C//DTD SVG 1.1//EN" "http://www.w3.org/Graphics/SVG/1.1/DTD/svg11.dtd">
<!-- Creator: CorelDRAW X6 -->
<svg xmlns="http://www.w3.org/2000/svg" xml:space="preserve" width="810px" height="810px" version="1.1" style="shape-rendering:geometricPrecision; text-rendering:geometricPrecision; image-rendering:optimizeQuality; fill-rule:evenodd; clip-rule:evenodd"
viewBox="0 0 810 810"
 xmlns:xlink="http://www.w3.org/1999/xlink">
 <defs>
  <style type="text/css">
   <![CDATA[
    .str0 {stroke:#5F3773;stroke-width:10.0004}
    .fil0 {fill:none}
    .fil1 {fill:#5F3773}
   ]]>
  </style>
 </defs>
 <g id="Capa_x0020_1">
  <metadata id="CorelCorpID_0Corel-Layer"/>
  <g id="_594733440">
   <rect class="fil0 str0" x="5" y="5" width="800" height="800" rx="118" ry="118"/>
   <path class="fil1" d="M347 462l0 57c-1,1 2,1 -2,1 -8,0 -52,1 -56,0l0 -57c3,-1 25,0 29,0l25 0c3,0 3,0 3,1zm153 -3c2,1 1,0 2,1l7 22c4,12 10,27 14,40l-44 0 22 -63zm-31 91l64 0c0,2 1,3 2,5l5 14c1,3 2,6 3,10 1,2 2,9 4,10l40 0 -66 -178 -40 0 -5 15c0,1 -1,2 -1,3l-27 72c0,1 0,1 -1,2 0,0 0,1 -1,1l-9 24c0,0 0,1 0,1l-18 50c-2,4 -3,8 -4,11l41 0 13 -38zm-201 -280c2,2 4,2 6,5 3,3 4,7 7,12 4,6 21,26 27,29l14 -16c2,-2 3,-3 4,-5 3,-4 14,-19 16,-25l-74 0zm-15 1c-6,1 -12,9 -11,18 0,6 6,15 9,20 5,7 9,12 13,17l5 6c1,1 1,1 2,2 1,2 2,2 4,4l2 2c1,1 1,1 2,2 -5,6 -36,23 -42,25 -9,5 -16,4 -21,13 -5,9 -1,19 5,24 9,7 16,4 25,0 21,-9 36,-18 54,-31 3,-2 8,-6 10,-7 1,1 3,2 4,3 8,6 20,13 28,18 2,1 4,2 5,2 1,4 0,27 0,33l-77 0 -9 -9 -9 9 -58 0 0 -230 230 0 0 153c-8,0 -45,-1 -52,1 -6,1 -8,4 -13,6 -3,-2 -20,-11 -21,-13l15 -17c1,-1 1,-1 2,-2 10,-11 19,-27 26,-40 1,-1 2,-3 2,-5 1,-3 1,-4 1,-7l21 0 0 -38 -77 0 0 -19 -38 0c0,5 1,16 -1,19l-77 0 0 38c3,-1 35,-1 40,0 -1,2 1,1 -1,2zm-97 -88l0 250c1,1 1,3 1,5 3,11 11,20 23,23 7,2 42,1 52,1l0 57c1,2 11,12 14,15l40 40c2,2 3,2 3,4l58 0c0,13 -2,44 1,53 1,4 2,6 4,9 6,9 15,14 28,14l221 0c9,0 20,1 27,-1 4,-1 7,-2 10,-4 9,-6 15,-15 16,-26 0,-9 0,-19 0,-28 0,-7 1,-214 0,-221 -2,-14 -13,-26 -27,-28 -7,-1 -122,0 -138,0 -5,0 -23,1 -27,0 -1,-10 0,-43 0,-55 0,-9 1,-103 0,-110 -1,-4 -2,-7 -4,-10 -2,-3 -4,-6 -6,-8 -1,-1 -3,-2 -4,-3 -3,-2 -5,-3 -9,-4 -2,-1 -5,-1 -6,-1l-250 0c-4,2 -10,1 -19,10 -9,9 -7,13 -10,19z"/>
   <path class="fil1" d="M475 520l44 0c-4,-12 -10,-28 -14,-40l-7 -22c-1,-1 0,-1 -2,-1l-22 63z"/>
  </g>
 </g>
</svg>
