<?xml version="1.0" encoding="UTF-8"?>
<!DOCTYPE svg PUBLIC "-//W3C//DTD SVG 1.1//EN" "http://www.w3.org/Graphics/SVG/1.1/DTD/svg11.dtd">
<!-- Creator: CorelDRAW X6 -->
<svg xmlns="http://www.w3.org/2000/svg" xml:space="preserve" width="810px" height="800px" version="1.1" style="shape-rendering:geometricPrecision; text-rendering:geometricPrecision; image-rendering:optimizeQuality; fill-rule:evenodd; clip-rule:evenodd"
viewBox="0 0 810 800"
 xmlns:xlink="http://www.w3.org/1999/xlink">
 <defs>
  <style type="text/css">
   <![CDATA[
    .str0 {stroke:#5F3773;stroke-width:10.0004}
    .fil0 {fill:none}
    .fil1 {fill:#5F3773}
    .fil2 {fill:#9D9FB5}
   ]]>
  </style>
 </defs>
 <g id="Capa_x0020_1">
  <metadata id="CorelCorpID_0Corel-Layer"/>
  <g id="_594744408">
   <g>
    <rect class="fil0 str0" x="40" y="414" width="380" height="380" rx="56" ry="56"/>
    <path class="fil1" d="M127 614c-1,4 0,93 0,107 0,3 0,5 0,8 0,12 -2,6 26,6 19,0 37,4 54,11 2,1 4,2 7,3 -1,-2 -5,-4 -7,-5 -20,-12 -40,-16 -64,-16 -10,0 -8,-13 -8,-22 0,-10 0,-20 0,-31 0,-20 -1,-41 0,-61 -3,0 -7,0 -8,1zm114 134l18 -7c14,-4 30,-7 45,-7 4,0 8,0 12,0 15,1 12,5 12,-14l0 -100c0,-2 1,-6 -1,-7 -1,-1 -6,-1 -8,-1 0,18 0,36 0,53 0,10 1,47 0,53 -1,9 -11,6 -20,7 -14,1 -30,5 -42,11 -5,3 -13,7 -17,10zm-10 1c0,-14 0,-30 0,-44l0 -66c0,-9 -1,-6 5,-11 17,-15 43,-25 68,-25 13,0 11,-1 11,11 0,29 0,59 0,87 0,27 3,19 -15,21 -12,1 -23,3 -34,7 -21,8 -32,19 -35,20zm-89 -139c0,-3 -1,-7 2,-7 3,-1 13,0 17,0 23,2 47,12 62,26 2,2 3,1 3,6 0,37 0,76 0,114l-7 -6c-7,-5 -16,-10 -25,-14 -27,-11 -45,-8 -50,-8 -2,0 -2,-2 -2,-3l0 -64 0 -44zm-6 -2c-17,0 -14,3 -14,21l0 70c0,11 0,23 0,34 0,13 9,10 15,9 28,-3 60,3 85,18 5,3 7,3 13,0 13,-8 30,-14 45,-16 5,-1 10,-1 16,-2 5,0 12,0 17,0 9,0 17,4 21,-2 2,-2 1,-4 1,-7l0 -104c0,-4 1,-13 -1,-16 -3,-5 -7,-3 -13,-4 0,-3 0,-5 -1,-7 -3,-5 -14,-4 -21,-3 -23,2 -48,11 -66,26 -1,1 -4,3 -4,4 -9,-7 -7,-7 -19,-14 -6,-4 -15,-8 -23,-10 -8,-2 -19,-5 -28,-5 -7,0 -17,-2 -21,4 -1,2 -1,4 -1,7z"/>
    <path class="fil1" d="M156 628c1,1 13,2 16,3 10,2 18,5 27,11l8 6c1,1 2,1 4,1 1,-3 -2,-4 -4,-6 -6,-5 -12,-8 -20,-11 -4,-2 -10,-4 -16,-5 -3,-1 -6,-1 -9,-1 -2,0 -8,-2 -7,3z"/>
    <path class="fil1" d="M299 628c1,-4 -3,-3 -6,-3 -3,0 -6,1 -9,1 -15,3 -27,9 -38,18 -3,2 -1,6 3,3l8 -6c23,-14 38,-11 43,-13z"/>
    <path class="fil1" d="M157 681c-1,1 -1,3 0,3l13 2c10,2 20,6 28,11 2,1 4,3 6,4 1,1 4,4 6,3 3,-2 -6,-8 -9,-9 -8,-5 -18,-9 -28,-11 -3,-1 -15,-3 -17,-2z"/>
    <path class="fil1" d="M244 685c2,2 4,-1 6,-3 6,-4 12,-8 19,-10 5,-2 10,-3 15,-4 8,-2 17,-1 14,-4 -1,-2 -14,1 -17,1 -13,3 -23,8 -34,15 -3,2 -5,3 -4,5z"/>
    <path class="fil1" d="M157 662c-1,0 -1,0 -1,2 0,2 2,1 6,2 8,1 16,3 24,6 5,2 9,4 13,6 5,3 10,8 12,7 3,-2 -2,-5 -3,-5 -2,-1 -3,-3 -6,-4 -9,-6 -17,-9 -28,-11 -3,-1 -15,-3 -17,-2z"/>
    <path class="fil1" d="M244 666c2,1 3,0 6,-3 9,-7 22,-13 34,-15l13 -2c1,0 2,-2 1,-3 -2,-2 -14,1 -17,2 -5,1 -10,3 -15,5 -7,3 -13,6 -19,11 -2,1 -5,3 -4,6z"/>
    <path class="fil1" d="M244 703c1,1 2,1 3,0 6,-5 14,-10 22,-13 5,-2 10,-3 15,-4 10,-2 16,0 14,-5 -6,-2 -27,4 -32,6 -5,2 -9,4 -13,7 -2,1 -4,3 -6,4 -3,2 -5,3 -4,5z"/>
    <path class="fil1" d="M157 644c-1,0 -1,0 -1,2 0,2 3,2 6,2 15,1 35,8 45,18 1,1 2,2 3,1 5,-3 -20,-15 -22,-16 -5,-2 -9,-3 -15,-5 -3,-1 -15,-3 -17,-2z"/>
    <path class="fil1" d="M167 561c5,4 21,22 25,24 0,-19 0,-37 0,-56 0,-18 1,-38 0,-56 -1,-10 -7,-12 -16,-12l-83 0c-11,0 -17,-2 -22,5 -4,5 -2,18 -2,26 0,18 -1,38 0,56 0,9 6,12 16,12l83 0zm-31 -58l34 0c-1,3 -1,5 -2,7 -3,6 -9,13 -13,13 -4,0 -9,-10 -11,-16l-8 0c-1,6 3,11 6,16l2 3 -8 1 0 9c4,0 6,0 10,-1 2,0 7,-2 9,-2 4,0 10,4 18,3l0 -8 -6 0c10,-10 14,-12 14,-33l-17 0 0 -8 -9 0 0 8 -18 0 0 8zm-31 -3c1,1 0,0 1,1l1 3c0,1 1,3 1,4 1,3 2,6 3,9l-13 0 7 -17zm-9 26l19 0 3 10 12 0c-1,-4 -19,-48 -20,-50l-10 0c-2,4 -3,9 -5,12l-15 37 12 0 4 -10z"/>
    <path class="fil1" d="M99 518l13 0c-1,-3 -2,-6 -3,-9 -1,-1 -1,-3 -1,-4l-1 -3c-1,-1 0,0 -1,-1l-7 17z"/>
   </g>
   <g>
    <rect class="fil0 str0" x="5" y="5" width="380" height="380" rx="56" ry="56"/>
    <path class="fil1" d="M167 222l0 27c0,0 1,0 -1,0 -4,0 -25,0 -27,0l0 -27c1,0 12,0 14,0l12 0c2,0 1,0 2,0zm73 -1c1,0 0,0 1,1l4 10c2,6 5,13 6,19l-21 0 10 -30zm-15 43l30 0c0,1 0,1 1,2l2 7c1,2 1,3 2,5 0,1 1,4 2,5l19 0 -31 -85 -19 0 -2 7c0,0 0,1 -1,1l-13 34c0,0 0,0 0,1 0,0 0,0 0,1l-4 11c0,0 0,0 0,1l-9 24c-1,2 -1,4 -2,5l20 0 6 -18zm-95 -133c1,1 2,1 3,2 1,1 2,3 3,6 2,3 10,12 13,14l7 -8c1,-1 1,-2 2,-3 2,-2 6,-9 7,-12l-35 0zm-7 1c-3,0 -6,4 -5,8 0,3 3,7 4,10 2,3 5,6 6,8l2 3c0,0 1,1 1,1 1,1 1,1 2,2l1 1c0,0 0,0 1,1 -2,3 -17,11 -20,12 -4,2 -7,2 -10,6 -2,4 -1,9 2,11 4,3 8,2 12,0 10,-4 17,-9 25,-15 2,-1 4,-3 5,-3 1,1 1,1 2,1 4,3 9,6 13,9 1,0 2,1 3,1 1,2 0,13 0,16l-37 0 -4 -4 -4 4 -27 0 0 -109 109 0 0 73c-4,0 -21,0 -25,0 -3,1 -4,2 -6,3 -2,-1 -9,-5 -10,-6l7 -8c0,-1 0,0 1,-1 5,-5 9,-13 12,-19 0,-1 1,-1 1,-2 0,-1 0,-2 0,-3l10 0 0 -18 -37 0 0 -9 -18 0c0,2 0,7 0,9l-36 0 0 18c1,0 17,0 19,0 0,1 0,0 -1,1zm-46 -42l0 119c0,1 0,2 1,2 2,5 5,9 11,11 3,1 20,0 25,0l0 27c0,1 5,6 7,7l19 19c1,1 1,1 2,2l27 0c0,6 -1,21 1,25 1,2 1,3 2,4 3,4 7,7 13,7l105 0c4,0 9,0 13,0 2,0 3,-1 5,-2 5,-3 7,-7 8,-12 0,-4 0,-9 0,-13 0,-3 0,-101 0,-105 -1,-7 -6,-12 -13,-13 -3,-1 -58,0 -65,0 -3,0 -11,0 -13,0 0,-5 0,-20 0,-26 0,-4 0,-49 0,-52 0,-2 -1,-3 -2,-5 -1,-1 -2,-3 -3,-4 0,0 -1,-1 -2,-1 -2,-1 -3,-2 -4,-2 -1,0 -2,0 -3,-1l-119 0c-2,1 -5,0 -9,5 -4,4 -3,6 -5,9z"/>
    <path class="fil1" d="M229 250l21 0c-2,-6 -5,-13 -6,-19l-4 -10c0,-1 0,0 -1,-1l-10 30z"/>
   </g>
   <g>
    <rect class="fil0 str0" x="425" y="74" width="380" height="380" rx="56" ry="56"/>
    <path class="fil1" d="M729 382l3 3c-6,1 -2,1 -6,-1 -11,-1 -14,-6 -22,-9 -5,0 -24,17 -58,9 -61,-15 -72,-93 -29,-127 31,-24 75,-21 100,6 18,19 26,53 13,80l-13 22c3,8 5,14 11,19zm-229 -92c23,1 16,-16 38,-5 14,7 31,7 47,4 6,-23 23,-43 45,-52 8,-3 11,-2 9,-23 -4,-80 -119,-95 -143,-17 -13,43 17,66 16,75 -1,7 -9,14 -13,19zm2 -18c-14,22 -19,8 -16,26 20,10 36,-8 45,-5 22,8 25,9 50,7 1,25 -1,36 12,56 5,7 10,15 16,19 6,4 14,11 23,14 18,7 40,8 60,2 28,-9 5,2 38,4 19,1 19,-9 11,-15 -5,-4 -6,-3 -10,-9 -4,-6 -2,-6 1,-11 27,-40 14,-93 -23,-116 -20,-13 -34,-14 -61,-12 1,-28 -4,-57 -27,-74 -10,-7 -18,-13 -33,-18 -15,-4 -32,-4 -47,1 -41,13 -65,56 -56,97 5,23 14,27 16,36z"/>
    <path class="fil1" d="M550 230l22 0c0,1 2,5 2,6 4,6 4,4 22,4l-25 -58 -18 0c-5,3 -25,51 -27,58l20 0 4 -10zm6 -15l10 1 -4 -13 -4 7c-1,2 -2,4 -2,6z"/>
    <path class="fil1" d="M659 348c4,-1 4,4 3,-13l25 0c0,11 -1,6 -5,8l-3 2c0,0 0,0 0,1 4,4 2,3 14,0l0 -35 -35 0c0,5 -2,33 2,37zm4 -22l0 4 25 0c-1,-8 0,-6 -9,-6 -5,0 -11,-1 -15,1zm0 -8c2,4 -2,3 19,3 5,0 6,2 6,-6l-25 3z"/>
    <path class="fil1" d="M672 281c0,0 -1,0 -1,1 -11,3 -17,-4 -17,5 15,-1 16,-2 18,2 -5,7 -9,-2 -15,5 7,6 11,-3 15,5 -3,7 -12,-1 -21,5 4,6 18,3 24,3 7,0 20,2 25,-1 -1,-2 2,-4 -11,-3 -15,0 -10,0 -12,-3 2,-4 -4,-3 16,-3l0 -4c-18,0 -14,1 -16,-3 5,-8 12,1 20,-5 -4,-4 -8,-2 -18,-2 -8,-8 7,-5 -6,-7l-1 7z"/>
    <path class="fil1" d="M639 348c5,-1 4,1 4,-7l0 -32c0,-41 4,-34 -6,-35 1,13 -2,68 2,74z"/>
    <path class="fil1" d="M627 311c4,-1 4,3 6,-9 3,-13 0,-11 -1,-12 -3,2 -6,18 -5,21z"/>
    <path class="fil1" d="M652 300c2,-5 0,-12 -7,-13 1,10 5,11 7,13z"/>
    <path class="fil1" d="M654 286c0,-9 6,-1 17,-5 0,0 1,0 1,-1l-19 0 0 5z"/>
    <path class="fil2" d="M726 383c4,2 0,2 6,1l-3 -3c-1,2 2,2 -3,2z"/>
   </g>
  </g>
 </g>
</svg>
