<?xml version="1.0" encoding="UTF-8"?>
<!DOCTYPE svg PUBLIC "-//W3C//DTD SVG 1.1//EN" "http://www.w3.org/Graphics/SVG/1.1/DTD/svg11.dtd">
<!-- Creator: CorelDRAW X6 -->
<svg xmlns="http://www.w3.org/2000/svg" xml:space="preserve" width="810px" height="804px" version="1.1" style="shape-rendering:geometricPrecision; text-rendering:geometricPrecision; image-rendering:optimizeQuality; fill-rule:evenodd; clip-rule:evenodd"
viewBox="0 0 810 804"
 xmlns:xlink="http://www.w3.org/1999/xlink">
 <defs>
  <style type="text/css">
   <![CDATA[
    .str0 {stroke:#5F3773;stroke-width:10.0004}
    .fil0 {fill:none}
    .fil1 {fill:#5F3773}
    .fil2 {fill:white}
   ]]>
  </style>
 </defs>
 <g id="Capa_x0020_1">
  <metadata id="CorelCorpID_0Corel-Layer"/>
  <g id="_595182824">
   <g>
    <rect class="fil0 str0" x="213" y="5" width="385" height="385" rx="57" ry="57"/>
    <path class="fil1" d="M383 135l0 62c0,10 6,16 13,20 7,4 20,2 30,2 8,0 9,4 19,14 5,5 19,23 22,10 0,-1 0,-2 0,-5l0 -16c0,-4 0,0 -1,-3 15,0 33,-2 33,-23l0 -61c0,-5 -3,-11 -5,-14 -2,-3 -9,-7 -13,-7l-79 0c-11,0 -19,10 -19,21zm53 34c-8,-6 -13,-18 -23,-12 -11,7 6,21 8,23 13,13 13,17 28,2l23 -24c2,-4 3,-14 -8,-14 -5,0 -25,20 -28,25z"/>
    <path class="fil1" d="M259 232l0 30c0,9 12,9 14,1 1,-5 -1,-23 1,-32l4 0 0 77c0,6 5,8 9,8 11,0 8,-19 8,-34 0,-10 -1,-11 2,-13 3,2 2,0 2,5 1,19 -5,43 9,43 5,0 8,-4 8,-8l0 -77 4 0c0,9 -3,38 6,38 4,0 8,0 8,-6 0,-18 3,-37 -8,-47 -11,-11 -25,-8 -44,-8 -11,0 -24,12 -24,24z"/>
    <path class="fil1" d="M538 252c0,-38 -47,-42 -59,-14 -13,31 23,56 47,37 7,-6 12,-12 12,-23z"/>
    <path class="fil1" d="M313 96l0 43c0,11 8,19 16,19l7 0c0,13 -2,20 8,20 5,0 19,-20 23,-20l8 0 0 -10 -11 0c-6,0 -14,12 -18,15 0,-9 1,-14 -8,-15 -4,0 -7,1 -10,-1 -2,-1 -5,-4 -5,-7l0 -43c0,-4 3,-8 6,-8l60 0c8,0 6,15 6,18 2,-1 7,-1 10,-2 0,-8 0,-14 -3,-18 -2,-3 -8,-8 -13,-8l-61 0c-9,0 -17,9 -17,18z"/>
    <path class="fil1" d="M463 310c0,2 0,3 1,5 9,2 69,1 83,1 8,0 4,-12 -6,-20 -14,-11 -27,-8 -48,-8 -8,0 -15,4 -20,7 -3,2 -11,12 -11,16z"/>
    <path class="fil1" d="M297 202c8,0 15,-3 19,-8 15,-17 3,-43 -19,-43 -34,0 -33,51 0,51z"/>
    <path class="fil1" d="M354 116c0,7 0,7 7,7 2,-3 3,-2 3,-6 0,-2 -2,-5 -6,-5 -2,0 -3,2 -5,3z"/>
    <path class="fil1" d="M369 117c0,11 10,5 10,3 0,-9 -10,-8 -10,-3z"/>
    <path class="fil1" d="M339 118c0,2 0,3 1,5 5,1 2,1 8,0 3,-14 -9,-10 -9,-5z"/>
   </g>
   <g>
    <g>
     <rect class="fil0 str0" x="5" y="414" width="385" height="385" rx="57" ry="57"/>
     <path class="fil1" d="M139 676l0 32 114 0 1 -32c18,3 47,20 59,0 7,-12 0,-22 -5,-29 -6,-8 -11,-15 -17,-23 -51,-66 -28,-60 -95,-60 -71,0 -43,-3 -111,83 -6,8 -12,16 -5,28 13,23 39,3 59,2zm0 -44c14,1 25,-5 31,10 7,17 -6,23 -15,29 3,2 38,13 41,13l33 -10c3,-1 3,-1 5,-2 2,-1 2,-1 4,-2 -26,-10 -23,-45 16,-37l0 -44c-14,3 -49,18 -58,17 -13,0 -43,-17 -57,-17l0 42z"/>
     <path class="fil1" d="M186 482c-47,15 -26,82 20,71 48,-12 28,-86 -20,-71z"/>
     <path class="fil1" d="M78 732c5,3 3,2 9,2l222 0c6,0 4,1 9,-2 1,-9 3,-8 -22,-8l-195 0c-11,0 -25,-4 -23,8z"/>
    </g>
    <g>
     <rect class="fil0 str0" x="420" y="414" width="385" height="385" rx="57" ry="57"/>
     <path class="fil1" d="M496 678l33 0 0 -13c-19,-5 -16,-21 -16,-41 0,-21 -3,-36 11,-48 6,-5 13,-7 22,-7 17,0 35,-3 45,13 5,8 4,14 5,25 6,0 12,0 18,0 7,0 8,3 11,6 3,-2 12,-11 14,-14 -8,0 -20,2 -24,-4 -3,-4 -1,-46 -1,-53 0,-10 -2,-18 9,-18l83 0c9,1 7,12 7,21l0 41c0,15 -5,12 -29,12 -9,0 -19,0 -28,0 -9,0 -6,-1 -17,10 -2,2 -4,4 -7,7 -3,3 -4,3 -6,8 -3,8 -9,9 -18,9 -7,0 -22,-1 -28,0l0 43 150 0c1,-15 0,-53 0,-71l0 -89c0,-7 -2,-8 -9,-8l-213 0c-13,0 -10,3 -10,25l0 107c0,12 -1,25 0,36zm55 -150c19,-5 25,24 7,28 -19,5 -25,-24 -7,-28zm-1 -7c-13,3 -19,15 -16,26 2,10 13,19 26,15 27,-7 17,-49 -10,-42z"/>
     <path class="fil1" d="M629 563c-3,-6 0,-7 6,-7l33 0c4,0 4,3 3,6 -4,2 -39,2 -42,1zm-1 -18c0,-4 3,-4 6,-4 5,0 14,-1 18,1 3,8 -6,6 -17,6 -3,0 -6,0 -7,-3zm-9 48l22 0c5,0 6,-3 13,-10 3,-3 5,-7 10,-5 2,6 -7,10 -9,14l49 0 0 -61c-8,-1 -81,-1 -85,0l0 60z"/>
     <path class="fil1" d="M529 658c0,-6 -1,-51 0,-54 2,-3 6,-3 6,4l0 40c3,1 31,1 36,0 0,-13 0,-26 0,-39 0,-3 0,-6 2,-7 4,-1 5,2 5,5 0,6 0,13 0,20 5,1 15,0 21,0 6,0 15,2 18,-3 2,-2 1,-6 0,-8 -3,-4 -18,-1 -29,-2 0,-17 1,-30 -13,-36 -8,-3 -38,-3 -45,1 -14,8 -11,23 -11,38 0,8 -1,29 2,35 1,2 4,5 8,5z"/>
     <path class="fil1" d="M484 686c-3,17 5,18 19,18l220 0c14,0 21,-1 19,-18 -3,-1 -100,-1 -106,0 0,12 -1,10 -24,10 -24,0 -23,2 -23,-11 -13,1 -100,-1 -105,0z"/>
     <path class="fil1" d="M551 528c-18,5 -12,33 7,28 18,-4 12,-33 -7,-28z"/>
     <polygon class="fil1" points="536,678 551,679 551,656 536,656 "/>
     <polygon class="fil1" points="558,678 572,679 572,656 558,656 "/>
     <path class="fil2" d="M629 563c3,1 38,1 42,-1 1,-3 0,-6 -3,-6l-33 0c-5,0 -8,1 -6,7z"/>
     <path class="fil2" d="M635 549c11,0 20,2 17,-6 -3,-2 -13,-1 -18,-1 -3,0 -6,0 -6,4 0,4 3,3 7,3z"/>
    </g>
   </g>
  </g>
 </g>
</svg>
