<?xml version="1.0" encoding="UTF-8"?>
<!DOCTYPE svg PUBLIC "-//W3C//DTD SVG 1.1//EN" "http://www.w3.org/Graphics/SVG/1.1/DTD/svg11.dtd">
<!-- Creator: CorelDRAW X6 -->
<svg xmlns="http://www.w3.org/2000/svg" xml:space="preserve" width="800px" height="794px" version="1.1" style="shape-rendering:geometricPrecision; text-rendering:geometricPrecision; image-rendering:optimizeQuality; fill-rule:evenodd; clip-rule:evenodd"
viewBox="0 0 800 794"
 xmlns:xlink="http://www.w3.org/1999/xlink">
 <defs>
  <style type="text/css">
   <![CDATA[
    .fil0 {fill:#5F3773}
    .fil1 {fill:white}
   ]]>
  </style>
 </defs>
 <g id="Capa_x0020_1">
  <metadata id="CorelCorpID_0Corel-Layer"/>
  <g id="_595182824">
   <g>
    <path class="fil0" d="M57 404l275 0c32,0 57,26 57,57l0 275c0,32 -26,57 -57,57l-275 0c-32,0 -57,-26 -57,-57l0 -275c0,-32 26,-57 57,-57zm17 322c5,3 3,2 9,2l225 0c6,0 4,1 9,-2 1,-9 3,-8 -22,-8l-198 0c-12,0 -25,-4 -24,8zm61 -101l0 -43c14,0 45,17 58,17 9,0 45,-15 59,-18l0 44c-40,-8 -43,28 -17,38 -1,1 -1,1 -4,2 -2,1 -3,1 -5,2l-33 10c-3,0 -38,-12 -41,-14 9,-6 22,-11 15,-29 -6,-15 -17,-9 -32,-10zm0 45l0 32 116 0 1 -33c19,3 47,20 60,0 7,-12 0,-23 -5,-29 -6,-8 -11,-15 -17,-23 -51,-67 -29,-61 -97,-61 -72,0 -44,-3 -112,84 -6,8 -12,16 -6,28 13,23 39,3 60,2zm48 -197c-48,16 -26,83 20,72 49,-12 28,-87 -20,-72z"/>
    <g>
     <path class="fil0" d="M467 404l275 0c32,0 57,26 57,57l0 275c0,32 -26,57 -57,57l-275 0c-32,0 -57,-26 -57,-57l0 -275c0,-32 26,-57 57,-57zm7 275c-3,17 5,18 19,18l223 0c14,0 21,-1 19,-18 -3,-1 -102,-1 -107,0 0,13 -1,10 -24,10 -24,0 -23,2 -23,-11 -13,1 -101,-1 -107,0zm148 -124c-3,-6 0,-7 6,-7l34 0c4,0 4,3 4,6 -5,2 -40,2 -43,1zm-1 -18c0,-4 3,-4 6,-4 5,0 14,-1 18,1 3,8 -6,6 -17,6 -3,0 -7,0 -7,-4zm-9 49l23 0c5,0 7,-3 13,-10 3,-3 5,-7 10,-5 2,6 -7,10 -9,15l50 0 0 -61c-8,-1 -83,-1 -87,0l0 61zm-125 86l34 0 0 -13c-20,-6 -17,-21 -17,-42 0,-22 -3,-36 11,-48 6,-5 13,-7 23,-7 18,0 35,-3 46,13 5,9 5,14 5,25 6,0 12,0 18,0 7,0 8,4 11,6 3,-3 12,-11 14,-14 -8,0 -20,2 -24,-4 -3,-4 -1,-46 -1,-54 0,-10 -2,-18 10,-18l84 0c9,1 7,12 7,21l0 42c0,15 -6,13 -29,13 -10,0 -19,0 -29,0 -9,0 -6,-1 -18,10 -3,3 -5,4 -7,7 -3,3 -4,3 -6,8 -3,8 -9,9 -19,9 -7,0 -23,-1 -28,0l0 43 152 0c1,-15 0,-54 0,-72l0 -90c0,-7 -2,-9 -10,-9l-216 0c-13,0 -10,3 -10,26l0 108c0,12 -1,25 0,36zm34 -20c0,-6 -1,-52 0,-54 2,-3 6,-3 7,4l0 41c3,1 32,1 36,0 0,-13 0,-26 0,-39 0,-3 0,-6 2,-7 4,-1 5,2 5,5 0,6 0,14 0,20 5,1 16,0 21,0 6,0 16,2 19,-3 2,-2 1,-6 0,-8 -3,-4 -19,-1 -30,-2 0,-18 1,-31 -13,-37 -8,-3 -38,-3 -45,1 -14,8 -11,24 -11,38 0,9 -1,30 2,35 1,2 4,5 8,5zm7 20l15 0 0 -23 -15 0 0 22zm22 0l14 0 0 -23 -15 0 0 23z"/>
     <path class="fil1" d="M521 651c0,-6 -1,-52 0,-54 2,-3 6,-3 7,4l0 41c3,1 32,1 36,0 0,-13 0,-26 0,-39 0,-3 0,-6 2,-7 4,-1 5,2 5,5 0,6 0,14 0,20 5,1 16,0 21,0 6,0 16,2 19,-3 2,-2 1,-6 0,-8 -3,-4 -19,-1 -30,-2 0,-18 1,-31 -13,-37 -8,-3 -38,-3 -45,1 -14,8 -11,24 -11,38 0,9 -1,30 2,35 1,2 4,5 8,5z"/>
     <path class="fil0" d="M542 519c19,-5 25,24 7,29 -19,5 -26,-24 -7,-29zm-1 -7c-13,3 -19,15 -16,27 3,10 13,19 26,16 27,-7 17,-49 -10,-42z"/>
     <polygon class="fil1" points="528,671 542,672 542,649 527,649 "/>
     <polygon class="fil1" points="549,672 564,672 564,649 549,649 "/>
     <path class="fil0" d="M622 555c3,1 38,2 43,-1 1,-3 0,-6 -4,-6l-34 0c-5,0 -8,1 -6,7z"/>
     <path class="fil0" d="M628 540c11,0 20,2 17,-6 -3,-2 -13,-1 -18,-1 -3,0 -6,0 -6,4 0,4 3,4 7,4z"/>
    </g>
   </g>
   <path class="fil0" d="M262 0l275 0c32,0 57,26 57,57l0 275c0,32 -26,57 -57,57l-275 0c-32,0 -57,-26 -57,-57l0 -275c0,-32 26,-57 57,-57zm196 310c0,3 0,3 1,5 10,2 70,1 84,1 8,0 4,-13 -6,-21 -14,-12 -27,-8 -49,-8 -8,0 -15,4 -20,7 -3,2 -11,12 -11,16zm76 -59c0,-39 -47,-43 -60,-15 -14,31 24,57 47,38 7,-6 12,-12 12,-23zm-103 -84c3,-5 23,-25 28,-25 11,0 11,9 8,14l-24 24c-15,15 -15,11 -29,-2 -2,-2 -19,-16 -8,-23 10,-6 15,7 23,12zm-53 -35l0 63c0,10 6,17 13,20 8,4 20,2 30,2 8,0 9,4 19,14 5,5 19,24 23,10 0,-1 0,-2 0,-5l0 -16c0,-4 0,0 -1,-3 15,0 34,-2 34,-23l0 -62c0,-5 -3,-11 -5,-14 -2,-3 -9,-7 -13,-7l-80 0c-11,0 -20,10 -20,22zm-126 98l0 31c0,9 13,9 14,1 1,-5 -1,-24 1,-33l4 0 0 78c0,6 5,8 9,8 11,0 8,-19 8,-35 0,-10 -1,-11 2,-13 3,2 2,0 2,5 1,19 -5,43 9,43 5,0 8,-4 8,-8l0 -78 4 0c0,9 -3,38 7,38 4,0 8,0 8,-7 0,-18 3,-37 -8,-48 -11,-11 -26,-8 -45,-8 -11,0 -24,12 -24,24zm38 -30c8,0 15,-3 19,-8 15,-17 4,-43 -19,-43 -35,0 -34,52 0,52zm43 -85c0,3 0,3 1,5 5,1 2,2 8,0 3,-14 -9,-10 -9,-5zm30 -1c0,11 10,5 10,3 0,-9 -10,-8 -10,-3zm-15 -1c0,7 0,7 7,7 2,-3 3,-2 3,-6 0,-2 -2,-5 -6,-5 -2,0 -3,2 -5,3zm-41 -21l0 43c0,11 9,20 16,20l7 0c0,13 -2,21 8,21 5,0 19,-21 23,-21l8 0 0 -10 -11 0c-6,0 -14,12 -19,15 0,-9 1,-15 -8,-15 -4,0 -7,1 -10,-1 -2,-1 -5,-4 -5,-8l0 -43c0,-4 3,-8 7,-8l61 0c8,0 7,16 7,19 2,-1 7,-1 10,-2 0,-8 0,-14 -3,-19 -2,-3 -8,-8 -13,-8l-62 0c-9,0 -17,9 -17,18z"/>
  </g>
 </g>
</svg>
