<?xml version="1.0" encoding="UTF-8"?>
<!DOCTYPE svg PUBLIC "-//W3C//DTD SVG 1.1//EN" "http://www.w3.org/Graphics/SVG/1.1/DTD/svg11.dtd">
<!-- Creator: CorelDRAW X6 -->
<svg xmlns="http://www.w3.org/2000/svg" xml:space="preserve" width="810px" height="810px" version="1.1" style="shape-rendering:geometricPrecision; text-rendering:geometricPrecision; image-rendering:optimizeQuality; fill-rule:evenodd; clip-rule:evenodd"
viewBox="0 0 810 810"
 xmlns:xlink="http://www.w3.org/1999/xlink">
 <defs>
  <style type="text/css">
   <![CDATA[
    .str0 {stroke:#5F3773;stroke-width:10.0004}
    .fil0 {fill:none}
    .fil1 {fill:#5F3773}
   ]]>
  </style>
 </defs>
 <g id="Capa_x0020_1">
  <metadata id="CorelCorpID_0Corel-Layer"/>
  <g id="_239573096">
   <rect class="fil0 str0" x="5" y="5" width="800" height="800" rx="118" ry="118"/>
   <path class="fil1" d="M360 275l0 129c0,20 12,34 26,41 16,7 41,5 62,5 16,0 19,9 39,28 11,11 39,49 46,20 1,-3 1,-5 1,-10l0 -33c0,-7 1,-1 -2,-6 31,0 69,-4 69,-48l0 -127c0,-11 -6,-23 -11,-29 -5,-6 -18,-15 -27,-15l-163 0c-23,0 -40,21 -40,44zm109 71c-17,-12 -27,-38 -48,-25 -24,15 12,44 16,48 27,27 28,34 59,4l49 -50c5,-9 6,-29 -17,-29 -11,0 -51,43 -58,52z"/>
   <path class="fil1" d="M101 477l0 63c0,18 26,18 29,2 2,-10 -2,-48 2,-67l8 0 0 159c0,13 10,17 19,17 23,0 17,-39 17,-71 0,-20 -3,-22 4,-27 6,4 3,0 4,9 2,39 -11,89 19,89 9,0 17,-8 17,-17l0 -159 8 0c0,19 -6,79 13,79 9,0 17,-1 17,-13 0,-37 6,-77 -16,-98 -23,-22 -53,-16 -92,-16 -23,0 -50,25 -50,50z"/>
   <path class="fil1" d="M681 519c0,-79 -97,-87 -122,-30 -28,64 49,117 97,78 15,-12 25,-25 25,-48z"/>
   <path class="fil1" d="M214 194l0 88c0,23 18,40 33,40l15 0c0,27 -4,42 17,42 10,0 39,-42 48,-42l17 0 0 -21 -23 0c-13,0 -28,24 -38,31 0,-19 3,-30 -17,-31 -9,0 -15,2 -21,-2 -5,-2 -10,-8 -10,-15l0 -88c0,-8 6,-17 13,-17l125 0c16,0 13,32 13,38 5,-2 15,-2 21,-4 0,-16 0,-28 -6,-38 -4,-7 -17,-17 -27,-17l-127 0c-18,0 -35,18 -35,36z"/>
   <path class="fil1" d="M525 640c0,5 1,5 2,10 20,5 143,2 173,2 17,0 8,-26 -12,-42 -28,-24 -56,-17 -100,-17 -16,0 -32,8 -41,15 -6,5 -23,25 -23,33z"/>
   <path class="fil1" d="M180 415c16,0 30,-7 39,-17 31,-35 7,-89 -39,-89 -71,0 -69,106 0,106z"/>
   <path class="fil1" d="M299 237c0,15 0,15 15,15 4,-6 6,-4 6,-12 0,-5 -4,-10 -12,-10 -4,0 -6,3 -10,6z"/>
   <path class="fil1" d="M329 238c0,24 21,11 21,6 0,-18 -21,-16 -21,-6z"/>
   <path class="fil1" d="M268 240c0,5 1,5 2,10 11,3 4,3 17,0 7,-28 -19,-20 -19,-10z"/>
  </g>
 </g>
</svg>
