<?xml version="1.0" encoding="UTF-8"?>
<!DOCTYPE svg PUBLIC "-//W3C//DTD SVG 1.1//EN" "http://www.w3.org/Graphics/SVG/1.1/DTD/svg11.dtd">
<!-- Creator: CorelDRAW X6 -->
<svg xmlns="http://www.w3.org/2000/svg" xml:space="preserve" width="800px" height="800px" version="1.1" style="shape-rendering:geometricPrecision; text-rendering:geometricPrecision; image-rendering:optimizeQuality; fill-rule:evenodd; clip-rule:evenodd"
viewBox="0 0 800 800"
 xmlns:xlink="http://www.w3.org/1999/xlink">
 <defs>
  <style type="text/css">
   <![CDATA[
    .fil0 {fill:#5F3773}
   ]]>
  </style>
 </defs>
 <g id="Capa_x0020_1">
  <metadata id="CorelCorpID_0Corel-Layer"/>
  <path class="fil0" d="M118 0l565 0c65,0 118,53 118,118l0 565c0,65 -53,118 -118,118l-565 0c-65,0 -118,-53 -118,-118l0 -565c0,-65 53,-118 118,-118zm34 659c10,6 6,5 18,5l461 0c13,0 9,2 19,-5 2,-19 6,-17 -45,-17l-405 0c-24,0 -52,-8 -48,17zm125 -207l0 -88c29,0 92,34 119,35 19,1 92,-31 121,-36l0 91c-83,-17 -88,57 -34,77 -3,2 -3,3 -8,5 -5,2 -5,3 -11,4l-68 20c-6,0 -78,-25 -85,-28 18,-11 46,-23 31,-59 -13,-32 -35,-19 -65,-21zm1 91l0 66 237 0 1 -67c38,6 97,41 122,0 15,-24 1,-46 -10,-60 -13,-17 -22,-30 -35,-47 -105,-137 -59,-125 -198,-125 -148,0 -90,-6 -230,172 -12,16 -25,34 -11,58 26,48 80,5 123,3zm99 -403c-99,32 -53,170 41,147 100,-25 58,-179 -41,-147z"/>
 </g>
</svg>
