<?xml version="1.0" encoding="UTF-8"?>
<!DOCTYPE svg PUBLIC "-//W3C//DTD SVG 1.1//EN" "http://www.w3.org/Graphics/SVG/1.1/DTD/svg11.dtd">
<!-- Creator: CorelDRAW X6 -->
<svg xmlns="http://www.w3.org/2000/svg" xml:space="preserve" width="810px" height="810px" version="1.1" style="shape-rendering:geometricPrecision; text-rendering:geometricPrecision; image-rendering:optimizeQuality; fill-rule:evenodd; clip-rule:evenodd"
viewBox="0 0 810 810"
 xmlns:xlink="http://www.w3.org/1999/xlink">
 <defs>
  <style type="text/css">
   <![CDATA[
    .str0 {stroke:#5F3773;stroke-width:10.0004}
    .fil0 {fill:none}
    .fil1 {fill:#5F3773}
   ]]>
  </style>
 </defs>
 <g id="Capa_x0020_1">
  <metadata id="CorelCorpID_0Corel-Layer"/>
  <g id="_239571680">
   <rect class="fil0 str0" x="5" y="5" width="800" height="800" rx="118" ry="118"/>
   <path class="fil1" d="M283 548l0 66 237 0 1 -67c38,6 97,41 122,0 15,-24 1,-46 -10,-60 -13,-17 -22,-30 -35,-47 -105,-137 -59,-125 -198,-125 -148,0 -90,-6 -230,172 -12,16 -25,34 -11,58 26,48 80,5 123,3zm-1 -91c29,2 52,-10 65,21 15,36 -13,48 -31,59 6,3 79,28 85,28l68 -20c6,-2 6,-2 11,-4 5,-3 5,-3 8,-5 -54,-20 -49,-94 34,-77l0 -91c-29,5 -102,37 -121,36 -27,-1 -90,-35 -119,-35l0 88z"/>
   <path class="fil1" d="M382 145c-99,32 -53,170 41,147 100,-25 58,-179 -41,-147z"/>
   <path class="fil1" d="M157 664c10,6 6,5 18,5l461 0c13,0 9,2 19,-5 2,-19 6,-17 -45,-17l-405 0c-24,0 -52,-8 -48,17z"/>
  </g>
 </g>
</svg>
