<?xml version="1.0" encoding="UTF-8"?>
<!DOCTYPE svg PUBLIC "-//W3C//DTD SVG 1.1//EN" "http://www.w3.org/Graphics/SVG/1.1/DTD/svg11.dtd">
<!-- Creator: CorelDRAW X6 -->
<svg xmlns="http://www.w3.org/2000/svg" xml:space="preserve" width="810px" height="810px" version="1.1" style="shape-rendering:geometricPrecision; text-rendering:geometricPrecision; image-rendering:optimizeQuality; fill-rule:evenodd; clip-rule:evenodd"
viewBox="0 0 810 810"
 xmlns:xlink="http://www.w3.org/1999/xlink">
 <defs>
  <style type="text/css">
   <![CDATA[
    .str0 {stroke:#5F3773;stroke-width:10.0004}
    .fil0 {fill:none}
    .fil1 {fill:#5F3773}
    .fil2 {fill:white}
   ]]>
  </style>
 </defs>
 <g id="Capa_x0020_1">
  <metadata id="CorelCorpID_0Corel-Layer"/>
  <g id="_595189784">
   <rect class="fil0 str0" x="5" y="5" width="800" height="800" rx="118" ry="118"/>
   <path class="fil1" d="M163 554l69 0 0 -26c-40,-11 -34,-43 -34,-86 0,-45 -7,-74 22,-99 12,-10 26,-14 46,-14 36,0 72,-7 93,28 11,18 9,29 10,52 12,0 26,-1 37,0 15,1 16,7 23,13 6,-5 25,-23 29,-29 -16,-1 -41,5 -50,-8 -5,-8 -3,-95 -3,-111 0,-20 -3,-37 20,-37l172 0c19,2 15,25 15,44l0 86c0,31 -11,26 -60,26 -20,0 -39,0 -59,0 -19,0 -13,-1 -36,21 -5,5 -9,9 -14,14 -6,6 -9,7 -12,17 -6,17 -18,19 -38,19 -14,0 -47,-2 -58,1l0 89 312 0c2,-31 0,-111 0,-147l0 -185c0,-15 -5,-18 -20,-18l-443 0c-27,0 -22,6 -22,53l0 222c0,24 -1,51 0,75zm113 -313c39,-10 51,50 15,59 -39,10 -53,-50 -15,-59zm-3 -14c-26,7 -39,32 -33,55 5,20 27,39 54,32 55,-15 35,-101 -21,-87z"/>
   <path class="fil1" d="M440 315c-5,-12 0,-14 11,-14l69 0c8,0 9,6 7,12 -9,5 -81,3 -88,1zm-2 -37c0,-8 6,-7 12,-7 9,0 29,-1 37,2 6,16 -12,13 -35,13 -7,0 -13,0 -14,-7zm-18 100l46 1c11,0 13,-7 28,-20 6,-6 10,-14 20,-10 5,13 -14,21 -19,30l102 0 0 -126c-17,-1 -169,-1 -177,1l0 125z"/>
   <path class="fil1" d="M232 512c0,-13 -1,-107 1,-111 3,-7 13,-7 13,7l0 84c7,2 65,2 74,0 0,-27 0,-54 0,-80 0,-7 -1,-13 5,-15 8,-3 10,4 10,11 0,13 0,28 0,41 10,2 32,1 43,1 12,0 32,3 38,-6 3,-5 3,-12 -1,-16 -7,-8 -38,-3 -61,-5 1,-36 2,-63 -27,-75 -16,-7 -79,-6 -93,2 -29,17 -23,49 -23,79 0,18 -3,61 4,73 3,4 9,10 16,11z"/>
   <path class="fil1" d="M137 569c-5,35 10,37 39,37l458 0c29,0 44,-3 39,-37 -5,-2 -208,-2 -219,0 1,26 -2,21 -50,21 -50,0 -47,4 -48,-22 -27,2 -208,-1 -219,1z"/>
   <path class="fil1" d="M277 241c-38,10 -24,69 15,59 36,-9 24,-69 -15,-59z"/>
   <polygon class="fil1" points="246,553 277,554 277,508 246,508 "/>
   <polygon class="fil1" points="291,554 320,554 321,508 291,507 "/>
   <path class="fil2" d="M440 315c7,2 79,3 88,-1 2,-6 0,-12 -7,-12l-69 0c-11,0 -17,2 -11,14z"/>
   <path class="fil2" d="M452 284c23,0 41,4 35,-13 -7,-3 -27,-2 -37,-2 -7,0 -13,0 -12,7 0,7 7,7 14,7z"/>
  </g>
 </g>
</svg>
