<?xml version="1.0" encoding="utf-8"?>
<!-- Generator: Adobe Illustrator 26.0.1, SVG Export Plug-In . SVG Version: 6.00 Build 0)  -->
<svg version="1.1" id="Capa_1" xmlns="http://www.w3.org/2000/svg" xmlns:xlink="http://www.w3.org/1999/xlink" x="0px" y="0px"
	 viewBox="0 0 776 776" style="enable-background:new 0 0 776 776;" xml:space="preserve">
<style type="text/css">
	.st0{fill-rule:evenodd;clip-rule:evenodd;fill:#583168;}
	.st1{fill:none;}
	.st2{fill:none;stroke:#5F3773;stroke-width:10.0004;}
</style>
<g id="Capa_x0020_1">
	<g id="_237010176">
		<path class="st0" d="M163,334c11-5,29-4,43-2l2,90l7,9c36-4,13-49,20-98c73-5,82,33,152,54v28l-111-26l-28,249h-55l-13-153l-43-2
			l27-150L163,334z M359,276l278,1l-1,221H359v-60c47,8,56,6,55-45c26-4,71-19,98-27c56-17,82-13,82-40c-17-14-35-3-61,5
			c-149,43-104,43-175,12v-66L359,276z M154,514c11,122-7,152,54,152c75,0,67,22,91-243l31,8c7,64-12,58,15,95h126
			c-2,11-29,53-37,66c-7,12-13,21-20,33c-10,17-16,16-10,36c18,8,20,5,28-10l52-85c2,31-4,71,4,97c40,9,19-30,26-97
			c10,12,25,40,35,56c11,17,25,54,42,40c21-18-60-107-64-137c164,5,140,16,140-136c0-160,18-143-96-143c-248,0-240-23-238,79
			c-46-16-29-24-91-24c-24,0-83-7-98,10c-10,12-36,163-32,183c13,20,15,15,43,17L154,514z"/>
		<path class="st1" d="M359,343c70,31,26,32,175-12c25-7,43-19,61-5c0,27-26,23-82,40c-27,8-72,23-98,27c1,51-8,53-55,45v60h277
			l1-221l-278-1v66L359,343z"/>
		<path class="st1" d="M208,422c-10-9-5-71-4-89l-41,1l-27,150l43,2l13,153h55l28-249l111,26v-28c-69-21-78-59-152-54
			c-7,48,16,94-20,98l-7-9L208,422z"/>
		<path class="st0" d="M165,201c-3-33,20-59,48-63c29-3,57,18,61,48C283,261,171,268,165,201z M193,115c-108,41-47,187,50,158
			C353,240,296,76,193,115z"/>
		<path class="st1" d="M165,201c6,68,118,60,109-15c-4-30-32-51-61-48C185,141,162,168,165,201z"/>
		<path class="st2" d="M118,5h540c62.4,0,113,50.6,113,113v540c0,62.4-50.6,113-113,113H118C55.6,771,5,720.4,5,658V118
			C5,55.6,55.6,5,118,5z"/>
	</g>
</g>
</svg>
