<?xml version="1.0" encoding="UTF-8"?>
<!DOCTYPE svg PUBLIC "-//W3C//DTD SVG 1.1//EN" "http://www.w3.org/Graphics/SVG/1.1/DTD/svg11.dtd">
<!-- Creator: CorelDRAW X6 -->
<svg xmlns="http://www.w3.org/2000/svg" xml:space="preserve" width="800px" height="789px" version="1.1" style="shape-rendering:geometricPrecision; text-rendering:geometricPrecision; image-rendering:optimizeQuality; fill-rule:evenodd; clip-rule:evenodd"
viewBox="0 0 800 789"
 xmlns:xlink="http://www.w3.org/1999/xlink">
 <defs>
  <style type="text/css">
   <![CDATA[
    .fil3 {fill:none}
    .fil0 {fill:#5F3773}
    .fil2 {fill:gray}
    .fil1 {fill:#B3B3B3}
   ]]>
  </style>
 </defs>
 <g id="Capa_x0020_1">
  <metadata id="CorelCorpID_0Corel-Layer"/>
  <g id="_236882344">
   <g>
    <g>
     <path class="fil0" d="M468 400l275 0c32,0 57,26 57,57l0 275c0,32 -26,57 -57,57l-275 0c-32,0 -57,-26 -57,-57l0 -275c0,-32 26,-57 57,-57zm127 200l21 0c0,-1 0,-4 0,-6 0,-2 1,-4 1,-6 4,-19 22,-34 16,-55 -2,-6 -9,-14 -15,-16 -1,0 -3,-1 -4,-1 -11,-2 -24,1 -31,10 -2,3 -4,6 -5,10 0,1 -1,2 -1,3 0,0 0,0 0,1l0 2c0,1 0,2 0,2 0,4 0,6 2,11 1,4 3,7 5,10 1,1 1,2 2,3l5 10c1,2 2,5 3,8 0,0 0,0 0,1 1,6 1,8 1,14zm24 34c3,0 5,4 4,7 -1,4 -5,3 -8,3 -4,0 -8,0 -12,0 -5,0 -8,1 -10,-2 -6,-1 -6,-8 -2,-10 2,-1 15,-1 18,-1 8,0 6,0 10,2zm-33 -7c-4,-1 -7,-6 -4,-10 3,-4 7,-3 13,-3l24 0c4,0 4,1 6,2 2,1 4,2 4,4 1,3 0,6 -3,8 -1,1 -2,1 -3,1l-24 0c-5,0 -12,1 -14,-2zm-34 -93c2,0 2,0 2,1 10,12 -26,13 -31,7l-1 -1c-1,0 0,0 -1,0 -2,-1 -4,-3 -2,-6 3,-7 25,-3 31,-3 1,1 0,1 1,2zm136 1c3,0 3,1 3,3 0,8 -11,8 -17,7 -4,0 -7,-1 -11,-2 -3,-1 -4,-1 -5,-2 -2,-1 -3,0 -3,-3 -1,-11 21,-7 27,-6 2,0 3,1 5,1l0 1zm-68 75l-15 1c-5,0 -9,0 -14,-1 -12,-1 -8,-3 -11,-19 -3,-18 -15,-27 -17,-44 -2,-18 9,-33 21,-39 7,-4 15,-6 24,-5 4,1 8,2 12,3 3,1 9,5 10,5 3,2 7,5 9,8l5 7c1,2 2,4 3,7 0,2 0,1 1,3 0,1 0,3 0,4 1,18 -11,30 -16,45 -4,15 1,23 -12,24zm23 -104c-3,0 -3,-1 -4,-4 -1,-3 0,-4 1,-6 3,-4 10,-11 14,-15 4,-3 6,-3 10,0 3,1 6,5 2,9l-2 2c0,0 0,0 0,0 0,0 0,0 0,0l-2 2c0,0 0,0 0,0l-9 9c-2,2 -5,4 -8,4 -1,0 -1,-1 -2,-2zm-86 -21c2,1 10,8 12,11 3,3 6,9 0,12 -2,1 -4,1 -6,-1l-3 -2c-3,-2 -7,-5 -9,-8 -3,-2 -9,-9 -9,-12 0,-3 1,-4 3,-5 3,-1 4,0 6,1 1,1 2,1 3,2 1,1 1,1 2,2zm52 -26c4,1 4,5 4,10 0,1 0,1 0,1 1,6 -1,13 -1,18 -3,2 -6,4 -9,0 -6,-1 -6,-10 -6,-14 0,-2 0,-3 0,-7 0,-3 1,-5 1,-9 2,-2 5,-3 8,-2 1,1 1,1 2,2zm145 193c-1,0 -24,-2 -32,-1 -2,0 -5,1 -8,1 -8,1 -17,9 -23,13 -5,4 -10,8 -16,11 -12,9 -22,15 -38,15l-5 0c-1,0 -1,0 -2,0 -17,0 -36,-1 -54,-1 -1,0 -2,0 -3,0 -8,0 -25,1 -31,-4 -1,-1 -3,-1 -4,-3 -5,-4 -5,-11 -2,-15 4,-5 12,-7 20,-7 9,0 19,0 25,1 2,0 5,0 6,0 1,0 4,0 6,0 3,0 10,0 12,-1 7,9 9,24 29,13l31 -19c-6,0 -12,5 -17,8 -7,4 -14,11 -21,12 -2,0 -5,-1 -6,-2 -10,-4 -13,-15 -9,-20 2,-3 15,-11 19,-14l39 -28c6,-5 14,-9 23,-11 15,-4 47,0 63,0 3,0 6,0 9,0 2,-21 0,-44 -7,-64 0,-1 -1,-3 -1,-4 0,-1 -1,-2 -1,-3 -1,-4 -4,-9 -6,-13 -2,-4 -6,-11 -8,-15 -1,-1 -1,-2 -2,-3l-7 -10c0,0 0,0 0,0 0,0 0,0 0,0l-4 -5c0,0 0,0 0,-1l-12 -12c-1,-1 -2,-1 -3,-2l-1 -1c-1,-2 -4,-3 -5,-4 0,0 0,0 0,0 0,0 0,0 0,0l-3 -3c-1,-1 -2,-1 -3,-2 -6,-5 -9,-5 -14,-9l-6 -3c-2,-1 -4,-2 -6,-3 -10,-4 -17,-7 -28,-10 -16,-4 -32,-5 -49,-4 -13,1 -26,3 -38,8 -2,1 -4,1 -7,2l-7 3c-5,2 -7,3 -12,6l-6 3c-3,2 -6,4 -9,6 -1,1 -2,1 -3,2 -1,1 -2,1 -3,2l-13 11c-2,2 -3,3 -5,5 -1,0 -1,1 -1,1 0,0 0,0 0,0l-6 7c-1,2 -3,3 -4,5l-5 7c-7,10 -11,18 -16,30 -10,25 -13,52 -10,79 1,11 4,20 7,31 2,7 9,21 12,26 0,0 0,0 0,0l10 16c1,2 3,4 5,6 0,1 2,2 2,2l4 5c0,0 0,0 0,0l10 10c0,0 0,0 0,0l7 6c1,0 1,1 2,1l3 2c0,0 0,0 0,0l9 6c1,0 1,1 1,1 0,0 0,0 1,0 4,2 9,6 13,7 2,1 4,2 6,3l10 4c3,1 8,2 11,3 2,1 5,1 8,2 5,1 10,2 15,2l18 1c10,0 19,-1 28,-2 13,-2 20,-5 31,-9l18 -8c1,-1 2,-1 3,-2l9 -5 23 -19c1,-1 1,-1 2,-2 1,-1 1,-2 2,-3 1,-1 2,-1 2,-2l12 -16c2,-3 11,-18 12,-21z"/>
     <path class="fil0" d="M624 674c4,0 4,0 7,-1 4,-2 17,-11 24,-15 1,-1 1,-1 3,-1 5,-2 8,-2 13,-1 -1,1 -1,1 -2,1l-31 19c-20,10 -22,-4 -29,-13 -2,1 -9,1 -12,1 -2,0 -5,0 -6,0 -1,0 -4,0 -6,0 -6,0 -16,-1 -25,-1 -8,0 -17,2 -20,7 -3,4 -3,12 2,15 2,1 3,2 4,3 1,0 2,1 3,1 5,1 13,2 17,2 1,0 2,0 3,0 15,-1 53,1 63,0 6,-1 9,0 15,-1 10,-2 14,-5 22,-9 1,-1 2,-1 3,-2l16 -11c8,-6 18,-15 28,-17l10 -1c11,0 21,1 32,1 1,-2 2,-4 2,-6l6 -18c1,-4 5,-22 5,-27 -3,0 -6,0 -9,0 -16,0 -48,-3 -63,0 -9,2 -16,7 -23,11l-39 28c-5,3 -17,11 -19,14 -4,5 -1,16 9,20z"/>
     <path class="fil0" d="M618 516c6,1 12,9 15,16 7,21 -11,36 -16,55 0,2 -1,4 -1,6 0,2 0,5 0,6l-21 0 -3 0c3,-26 -19,-36 -18,-60 1,-18 15,-27 30,-28 3,0 12,1 14,3zm2 93l2 -1c1,0 1,0 1,-1 4,-3 3,-15 6,-25 5,-17 19,-31 15,-50 -1,-6 -5,-13 -9,-17l-5 -4c0,0 -6,-4 -10,-5 -4,-2 -8,-3 -12,-3 -9,-1 -17,1 -24,5 -12,6 -23,20 -21,39 2,17 14,26 17,44 3,16 -1,18 11,19 4,0 9,1 14,1l15 -1z"/>
     <path class="fil0" d="M586 627c2,0 30,0 33,0 1,0 2,0 3,0l2 -2c2,-3 2,-6 0,-9 -2,-1 -2,-2 -6,-2l-24 0c-6,0 -11,-1 -13,3 -3,4 0,9 4,10z"/>
     <path class="fil1" d="M544 687c7,5 23,4 31,4 1,0 2,0 3,0 18,0 37,1 54,1 1,0 1,0 2,0l5 0c15,0 25,-6 38,-15 5,-4 11,-8 16,-11 6,-5 15,-12 23,-13 2,0 6,-1 8,-1 8,-1 30,1 32,1 1,0 0,0 1,-1 0,-1 0,-1 1,-1 -10,0 -21,-2 -32,-1l-10 1c-10,1 -20,10 -28,17l-16 11c-1,1 -2,1 -3,2 -7,4 -11,7 -22,9 -6,1 -9,1 -15,1 -10,1 -48,-1 -63,0 -1,0 -2,0 -3,0 -5,0 -13,0 -17,-2 -1,0 -2,-1 -3,-1z"/>
     <path class="fil0" d="M563 506c1,0 2,0 3,-1 1,-1 2,-1 2,-3 2,-5 -3,-9 -7,-13 -1,-1 -2,-2 -3,-3 -1,-1 -2,-1 -3,-2 -1,0 -2,-1 -2,-2 -1,-1 -2,-1 -3,-2 -2,-1 -3,-2 -6,-1 -2,1 -3,2 -3,5 0,3 6,10 9,12 2,2 7,6 9,8l3 2z"/>
     <path class="fil0" d="M524 542c2,0 5,1 9,1 5,0 18,0 20,-5 1,-2 0,-3 0,-4 -1,-1 -1,-1 -1,-2 -6,0 -28,-4 -31,3 -2,3 0,5 2,6 0,0 0,0 1,0l1 1z"/>
     <path class="fil0" d="M659 541c6,1 11,3 18,2 7,0 12,-3 11,-9l0 -1c-2,0 -4,-1 -5,-1 -6,-1 -28,-5 -27,6 0,3 1,2 3,3z"/>
     <path class="fil0" d="M643 506c7,-2 10,-8 17,-13 2,-1 5,-4 6,-6 1,-3 0,-3 0,-5 -4,-3 -6,-3 -10,0 -4,3 -11,11 -14,15 -1,2 -2,3 -1,6 0,2 1,4 4,4z"/>
     <path class="fil0" d="M604 489l3 -1c2,-1 2,-1 2,-3 0,-2 0,-6 1,-8 1,-9 -1,-12 -1,-19 -1,-1 -1,-1 -2,-2 -3,-2 -6,0 -8,2 0,3 -1,6 -1,9 0,4 0,6 0,7 0,4 0,13 6,14z"/>
     <path class="fil0" d="M593 642c6,0 12,0 18,0 4,0 6,0 7,-2 2,-2 2,-5 1,-7 -4,-3 -2,-2 -10,-2 -3,0 -16,0 -18,1 -4,2 -4,9 2,10z"/>
     <path class="fil2" d="M595 600c0,-6 0,-8 -1,-14 0,-1 0,0 0,-1 -1,-3 -2,-6 -3,-8l-5 -10c-1,-1 -1,-2 -2,-3 -2,-4 -3,-6 -5,-10 -1,-4 -2,-7 -2,-11 0,-1 0,-2 0,-2l0 -2c0,-1 0,-1 0,-1 0,-1 0,-2 1,-3 1,-4 3,-7 5,-10 7,-9 20,-12 31,-10 1,0 3,1 4,1 -2,-2 -11,-3 -14,-3 -15,0 -29,10 -30,28 -1,23 21,33 18,60l3 0z"/>
     <path class="fil1" d="M620 609c13,-1 8,-10 12,-24 5,-16 17,-27 16,-45 0,0 0,-2 0,-4 0,-2 0,-2 -1,-3 -1,-3 -1,-5 -3,-7l-5 -7c-2,-3 -6,-6 -9,-8l5 4c4,4 8,11 9,17 4,20 -9,34 -15,50 -3,10 -2,22 -6,25 -1,0 -1,0 -1,1l-2 1z"/>
     <path class="fil1" d="M624 674c1,1 4,2 6,2 7,-1 14,-8 21,-12 5,-3 11,-8 17,-8 1,0 2,-1 2,-1 -5,-1 -8,-1 -13,1 -1,0 -2,1 -3,1 -6,4 -20,13 -24,15 -3,1 -3,1 -7,1z"/>
     <path class="fil2" d="M643 506c0,1 1,1 2,2 3,1 6,-2 8,-4l9 -9c0,0 0,0 0,0l2 -2c0,0 0,0 0,0 0,0 0,0 0,0l2 -2c3,-4 1,-8 -2,-9 0,2 1,2 0,5 -1,2 -4,5 -6,6 -6,5 -9,11 -17,13z"/>
     <path class="fil1" d="M586 627c2,3 9,2 14,2l24 0c1,0 2,-1 3,-1 2,-2 3,-5 3,-8 -1,-2 -2,-4 -4,-4 2,3 2,6 0,9l-2 2c-2,1 -2,0 -3,0 -4,0 -31,0 -33,0z"/>
     <path class="fil2" d="M604 489c2,3 6,1 9,0 0,-5 1,-13 1,-18 0,-1 0,-1 0,-1 0,-5 0,-9 -4,-10 0,7 1,10 1,19 0,1 0,6 -1,8 0,2 0,2 -2,3l-3 1z"/>
     <path class="fil2" d="M524 542c4,6 40,5 31,-7 -1,-1 -1,-1 -2,-1 0,1 1,2 0,4 -2,5 -15,5 -20,5 -4,0 -7,-1 -9,-1z"/>
     <path class="fil2" d="M659 541c1,2 1,1 5,2 4,1 7,1 11,2 6,0 17,0 17,-7 0,-3 -1,-3 -3,-3 1,6 -4,9 -11,9 -7,0 -12,-1 -18,-2z"/>
     <path class="fil1" d="M593 642c2,3 5,2 10,2 4,0 8,0 12,0 3,0 7,1 8,-3 1,-3 -1,-7 -4,-7 1,2 1,5 -1,7 -2,2 -4,2 -7,2 -6,0 -12,0 -18,0z"/>
     <path class="fil2" d="M563 506c2,2 4,2 6,1 6,-3 3,-8 0,-12 -2,-2 -9,-10 -12,-11 1,1 1,1 3,2 1,1 2,2 3,3 3,3 9,8 7,13 -1,1 -1,2 -2,3 -2,1 -2,1 -3,1z"/>
    </g>
    <g>
     <path class="fil0" d="M56 403l270 0c31,0 56,25 56,56l0 270c0,31 -25,56 -56,56l-270 0c-31,0 -56,-25 -56,-56l0 -270c0,-31 25,-56 56,-56zm18 254c5,61 -3,76 27,76 37,0 33,11 46,-122l15 4c4,32 -6,29 7,47l63 0c-1,6 -14,27 -18,33 -4,6 -6,11 -10,17 -5,8 -8,8 -5,18 9,4 10,2 14,-5l26 -42c1,16 -2,35 2,49 20,4 9,-15 13,-48 5,6 12,20 18,28 5,9 12,27 21,20 11,-9 -30,-53 -32,-68 82,2 70,8 70,-68 0,-80 9,-71 -48,-71 -124,0 -120,-12 -119,40 -23,-8 -15,-12 -45,-12 -12,0 -41,-4 -49,5 -5,6 -18,81 -16,91 7,10 8,8 21,9zm27 -46c-5,-5 -2,-36 -2,-45l-21 1c5,-3 14,-2 22,-1l1 45zm-8 -154c-54,21 -24,94 25,79 55,-17 26,-98 -25,-79z"/>
     <path class="fil3" d="M79 567c5,-3 14,-2 22,-1l1 45 3 4c18,-2 6,-25 10,-49 37,-2 41,16 76,27l0 14 -55 -13 -14 124 -28 0 -6 -76 -21 -1 13 -75zm98 -29l139 1 0 110 -138 0 0 -30c23,4 28,3 28,-22 13,-2 35,-9 49,-14 28,-8 41,-6 41,-20 -9,-7 -18,-1 -30,2 -74,22 -52,21 -87,6l0 -33zm-102 119c5,61 -3,76 27,76 37,0 33,11 46,-122l15 4c4,32 -6,29 7,47l63 0c-1,6 -14,27 -18,33 -4,6 -6,11 -10,17 -5,8 -8,8 -5,18 9,4 10,2 14,-5l26 -42c1,16 -2,35 2,49 20,4 9,-15 13,-48 5,6 12,20 18,28 5,9 12,27 21,20 11,-9 -30,-53 -32,-68 82,2 70,8 70,-68 0,-80 9,-71 -48,-71 -124,0 -120,-12 -119,40 -23,-8 -15,-12 -45,-12 -12,0 -41,-4 -49,5 -5,6 -18,81 -16,91 7,10 8,8 21,9z"/>
     <path class="fil0" d="M177 572c35,16 13,16 87,-6 13,-4 22,-10 30,-2 0,14 -13,12 -41,20 -13,4 -36,12 -49,14 0,26 -4,26 -28,22l0 30 138 0 0 -110 -139 -1 0 33z"/>
     <path class="fil0" d="M101 611c-5,-5 -2,-36 -2,-45l-21 1 -13 75 21 1 6 76 28 0 14 -124 55 13 0 -14c-35,-11 -39,-29 -76,-27 -3,24 8,47 -10,49l-3 -4z"/>
     <path class="fil3" d="M80 501c-1,-16 10,-30 24,-31 14,-2 29,9 30,24 5,37 -51,41 -55,7zm14 -43c-54,21 -24,94 25,79 55,-17 26,-98 -25,-79z"/>
     <path class="fil0" d="M80 501c3,34 59,30 55,-7 -2,-15 -16,-26 -30,-24 -14,2 -26,15 -24,31z"/>
    </g>
   </g>
   <path class="fil0" d="M263 0l275 0c32,0 57,26 57,57l0 275c0,32 -26,57 -57,57l-275 0c-32,0 -57,-26 -57,-57l0 -275c0,-32 26,-57 57,-57zm279 192c-3,0 -6,-2 -6,-6 0,-2 0,-3 1,-5 3,-3 9,-2 10,2 1,2 0,4 -1,5 -1,2 -3,3 -4,3zm-58 -72c0,6 0,6 2,11l3 5c0,0 0,0 0,0 0,0 0,0 0,0l1 1c0,0 0,0 0,1 0,0 0,0 0,1l4 8c0,1 0,1 1,1l1 1c0,1 0,1 1,1l3 6c0,0 0,0 0,1 2,3 5,9 6,13l2 4c0,0 0,0 0,1l3 7c0,0 0,0 0,0l0 1c0,0 0,0 0,0 1,2 3,6 4,8 0,0 0,0 0,1 0,0 0,0 0,0l2 5c0,1 0,0 0,1l2 3c1,1 2,3 4,4l1 1c2,1 6,2 8,2 2,0 4,-1 6,-1l18 -9c0,0 0,0 1,0 0,0 1,0 1,-1l6 -3c1,0 2,-1 2,-1 0,-1 0,0 -1,-1l-2 -3c0,-1 -1,-1 -1,-2l-2 -4c0,-1 -1,-1 -1,-2l-1 -1c0,0 0,0 0,-1l-1 -2c0,0 0,0 0,-1 0,-1 -1,-1 -1,-2 0,0 0,0 0,-1 0,0 0,0 0,-1l-4 -8c0,0 0,0 0,-1l-1 -1c0,0 0,0 0,0l-7 -13c0,0 0,0 0,0 0,0 0,0 0,0 0,0 0,0 0,0 -2,-4 -4,-8 -6,-13l-7 -13c0,0 0,-1 -1,-1l-7 -14c0,-1 -1,-1 -1,-2 -1,-2 -1,-3 -2,-4 -1,-1 -3,-5 -3,-7 0,0 0,-1 -1,0l-26 13c-2,1 -4,3 -6,5l-2 3c0,1 0,0 0,1 0,1 0,1 0,1 0,1 0,1 0,1zm-119 163c0,-3 0,-4 2,-6l0 0c3,-3 8,-4 11,-2 4,2 5,5 4,9 0,1 0,1 0,2 -1,2 -2,3 -4,4 -2,1 -5,1 -7,0 -1,0 -2,-1 -3,-2l-2 -2c-1,-1 -1,-2 -1,-3zm-17 -1c-3,0 -5,0 -7,-2l-1 -2c-1,-1 -1,-1 -1,-3 0,-2 0,-3 0,-4 0,-1 0,-1 1,-2l7 -8c1,-2 6,-6 7,-7l1 0c4,-2 10,-1 12,3 1,1 1,1 1,3 0,2 0,4 -1,5 -1,1 -1,1 -1,2 -1,1 -1,1 -2,2l-8 8c-2,2 -4,4 -7,4zm-10 -45c3,0 3,0 5,0 1,1 2,1 3,2 1,1 1,1 2,2 1,3 1,6 -1,9 -1,1 -2,2 -3,3l-5 5c-2,2 -6,2 -9,1 -4,-2 -6,-6 -4,-10 0,-1 1,-2 2,-3l0 0c0,0 0,0 0,0 0,0 0,0 1,-1l6 -6c1,-1 3,-3 5,-3zm-28 -5c0,-2 0,-4 2,-6 1,-2 3,-3 5,-3 2,0 4,0 6,0l1 1c2,1 4,4 4,6 0,2 0,4 -1,6 -2,3 -4,4 -8,4 -2,0 -4,-1 -6,-2l-1 -1c-1,-1 -2,-3 -2,-5zm57 -24c-3,0 -4,0 -6,-1 -1,-1 -2,-1 -3,-2 -2,-2 -1,-4 0,-7l1 -3c0,-1 0,-1 1,-1l2 -6c0,0 0,0 0,-1l6 -14c0,0 0,0 0,-1l1 -3c0,-1 0,-1 1,-2l5 -10c0,0 0,0 0,0l2 -4c0,0 0,0 0,-1l4 -8c1,-2 2,-2 4,-3 0,0 1,-1 1,-1l2 -1c0,0 0,0 0,0l4 -2c0,0 1,0 1,0 0,0 0,0 1,0 0,0 1,0 1,0l2 -1c0,0 0,0 1,0l12 -4c0,0 1,0 1,0 1,0 0,0 1,0l3 -1c1,-1 2,-1 3,-1 0,0 0,0 1,0 3,-1 2,-1 5,-2 2,0 3,0 5,0l17 5c0,0 0,0 1,0 1,0 0,0 1,0l16 6c1,0 6,2 7,3 1,0 0,0 0,1l18 35c0,1 0,1 1,2l3 6c0,0 0,0 0,0l0 1c0,0 0,0 0,0l3 6c0,1 1,1 1,2l1 2c0,0 0,0 0,0l4 9c0,0 0,0 0,0l1 2 -11 10c-1,1 -1,1 -2,1 0,0 0,0 -1,1 0,0 0,0 0,0 0,0 0,0 0,0 0,0 0,0 0,0 0,0 0,0 0,0l-10 9c0,0 -1,0 -1,1 -1,-1 -2,-2 -3,-3 0,0 0,0 0,0 0,0 0,0 0,0 0,0 0,0 -1,-1l-3 -3c0,0 0,0 0,0l-4 -3c0,0 0,0 -1,-1l-47 -47c0,0 0,0 0,0l-8 -7c0,0 0,0 0,0 0,0 0,0 0,0 0,0 0,0 0,0l-1 -1c0,0 0,0 -1,0 -1,-1 0,-2 0,-4 0,-5 -7,-4 -12,-4 -3,0 -2,0 -3,4 0,2 0,4 0,6 0,2 -1,5 -1,7l-1 3c-1,3 -1,5 -3,8l-2 5c0,0 0,1 -1,1l-6 9 -6 6c0,0 -1,0 -1,1 -2,2 -6,4 -9,5 -1,0 -2,1 -3,1zm17 -73l-9 -4c-1,0 -1,0 -2,0l-6 -1 -7 -1c-3,0 -6,0 -9,0 -1,0 -3,0 -4,0 -2,0 -6,1 -8,1 -1,0 -2,0 -4,0 -2,0 -3,0 -6,2 -1,1 -6,9 -8,11l-31 44c0,0 -1,1 -1,1 -1,2 -2,3 -4,5l-2 3c-2,4 -2,7 1,10l7 7c2,2 4,4 5,6l4 4c0,0 0,0 0,0 2,2 2,1 1,4 0,2 -1,4 -1,6 0,4 1,5 3,8 1,1 2,2 2,3 2,2 5,3 7,4 0,0 2,0 2,0 1,1 0,1 0,2 0,3 0,5 1,8l3 6c0,0 0,0 0,0 1,1 2,2 3,3 2,1 5,2 7,2 0,1 0,1 -1,3 0,3 -1,6 0,8 0,0 0,0 0,1l0 1c1,2 1,3 3,4l3 2c1,1 2,2 4,2 3,1 4,1 7,1 1,0 2,0 3,-1 3,-1 5,-3 6,-3 1,2 0,3 4,8 1,1 3,2 4,3l3 1c6,2 9,0 10,0 1,0 2,1 3,1 1,0 1,0 1,0 4,1 8,1 11,0l1 -1c0,0 0,0 1,0 5,-3 4,-3 0,-6l-7 -7c-1,-1 -1,-1 -1,-3 0,-1 0,-2 0,-3 1,0 1,1 2,2l2 2c0,0 0,0 0,0 0,0 0,0 0,0 0,0 0,0 0,0l1 1c0,0 0,0 0,0l1 1c1,1 1,1 1,1l5 5c2,2 4,4 6,6 2,1 6,2 8,2l5 0c2,-1 4,-1 6,-2 2,-1 4,-2 5,-4l2 -2c4,-4 3,-3 -2,-8l-11 -11c-1,-1 -2,-1 -2,-2l-3 -3c0,0 0,0 0,0l-11 -11c-1,-1 -3,-2 -2,-4 0,-1 1,-1 2,-1 1,0 3,3 4,4l22 22c0,0 0,0 0,0 0,0 0,0 0,0l3 3c0,0 0,0 0,0l4 4c0,0 0,0 0,0l6 6c0,0 0,0 0,0 0,0 0,0 0,0 2,1 4,2 6,2 1,0 4,0 5,-1 1,0 1,0 1,-1 3,-1 7,-4 9,-7l3 -3c1,-1 2,-2 3,-3 1,-1 1,-3 1,-4 0,-1 -8,-9 -9,-9 -5,-5 -11,-11 -16,-16l0 0c0,0 0,0 0,0l-2 -2c0,0 0,0 0,0l-4 -4c0,0 0,0 -1,-1l-2 -1c0,0 0,0 0,0 -3,-3 -1,-4 0,-4 2,0 2,1 3,2 3,3 6,6 9,9l4 4c0,0 0,0 0,0 0,0 0,0 0,0 0,0 0,0 0,0l2 2c0,0 0,0 0,0l6 6c0,0 0,0 1,0 0,0 0,0 1,1 0,0 0,0 1,1l0 0c0,0 0,0 0,0l1 1c3,3 6,6 9,9 1,1 0,1 1,1 2,1 5,1 7,0 1,0 1,0 2,0 0,0 0,0 1,0l2 -1c1,-1 3,-2 4,-3l1 -1c1,-1 2,-3 3,-4l2 -4c1,-2 1,-6 0,-8 0,-1 0,-1 0,-2 0,-1 -1,-3 -2,-4l-2 -2c-2,-3 -5,-5 -8,-8l16 -14c0,0 0,0 0,0 0,0 0,0 0,0l2 -2c2,-2 8,-7 9,-9 1,-4 0,-6 -2,-10l-22 -44c0,-1 -1,-1 -1,-2 0,0 0,-1 0,-1l-8 -16c0,0 0,0 0,0l-1 -1c-1,-1 -2,-2 -3,-2l-5 -2c0,0 -1,0 -1,0 -2,-1 -6,-2 -8,-3l-7 -2c-1,0 0,0 -1,0l-9 -3c0,0 -1,0 -1,0l-7 -2c-2,-1 -3,-1 -6,-1 -3,0 -4,0 -6,0 -1,0 -2,0 -3,1 -2,1 -6,2 -8,3l-9 4c-1,0 0,0 -1,0l-2 1c0,0 0,0 -1,0l-5 2c0,0 0,0 -1,0l-3 1c-1,0 -1,0 -1,1l-3 1c-2,1 -4,2 -5,3zm-131 40c0,-2 2,-5 3,-5 2,-1 5,-1 7,1 4,3 2,12 -5,10 -3,0 -5,-3 -5,-6zm-21 2c0,1 0,1 1,1l1 0c1,1 1,1 2,1l1 1c3,2 6,4 8,6 1,1 1,1 2,1l1 1c0,0 0,0 0,0l4 3c1,1 3,2 5,3l0 0c1,0 1,0 1,1 5,2 11,1 15,-2 1,0 1,-1 1,-1 0,0 0,0 1,0 1,-1 2,-3 3,-4 0,0 0,-1 1,-1 0,0 1,-1 1,-1 0,-1 1,-1 1,-1 2,-3 4,-6 6,-9 0,-1 1,-1 1,-1l6 -9c0,-1 1,-1 1,-1l4 -5c0,-1 1,-1 1,-1 0,0 1,-1 1,-1l7 -10c1,-2 3,-4 4,-6 0,0 0,0 0,-1 0,0 0,0 0,0l5 -7c0,0 0,0 0,0l0 0c2,-2 3,-4 4,-7l1 -2c1,-2 1,-4 1,-6 0,-1 0,-2 -1,-3 0,-1 -1,-3 -2,-4l0 0c0,0 0,0 0,0l0 0c-2,-4 -8,-7 -12,-10 0,0 -1,-1 -1,-1 0,0 0,0 -1,0 -2,-1 -6,-5 -8,-6l-5 -4c-1,-1 0,0 -2,0 0,1 -5,8 -6,8l-3 4c0,1 -1,1 -1,1 -1,2 -3,5 -5,7 0,0 0,0 0,1l-12 17c0,0 -1,1 -1,1l-18 25c0,1 -1,1 -1,1l-9 12c0,0 -1,1 -1,1l-5 7c0,0 -1,1 -1,2z"/>
  </g>
 </g>
</svg>
