<?xml version="1.0" encoding="UTF-8"?>
<!DOCTYPE svg PUBLIC "-//W3C//DTD SVG 1.1//EN" "http://www.w3.org/Graphics/SVG/1.1/DTD/svg11.dtd">
<!-- Creator: CorelDRAW X6 -->
<svg xmlns="http://www.w3.org/2000/svg" xml:space="preserve" width="776px" height="776px" version="1.1" style="shape-rendering:geometricPrecision; text-rendering:geometricPrecision; image-rendering:optimizeQuality; fill-rule:evenodd; clip-rule:evenodd"
viewBox="0 0 776 776"
 xmlns:xlink="http://www.w3.org/1999/xlink">
 <defs>
  <style type="text/css">
   <![CDATA[
    .str0 {stroke:#5F3773;stroke-width:10.0004}
    .fil1 {fill:none}
    .fil0 {fill:#583168}
   ]]>
  </style>
 </defs>
 <g id="Capa_x0020_1">
  <metadata id="CorelCorpID_0Corel-Layer"/>
  <g id="_237010176">
   <path class="fil0" d="M163 334c11,-5 29,-4 43,-2l2 90 7 9c36,-4 13,-49 20,-98 73,-5 82,33 152,54l0 28 -111 -26 -28 249 -55 0 -13 -153 -43 -2 27 -150zm196 -58l278 1 -1 221 -277 0 0 -60c47,8 56,6 55,-45 26,-4 71,-19 98,-27 56,-17 82,-13 82,-40 -17,-14 -35,-3 -61,5 -149,43 -104,43 -175,12l0 -66zm-205 238c11,122 -7,152 54,152 75,0 67,22 91,-243l31 8c7,64 -12,58 15,95l126 0c-2,11 -29,53 -37,66 -7,12 -13,21 -20,33 -10,17 -16,16 -10,36 18,8 20,5 28,-10l52 -85c2,31 -4,71 4,97 40,9 19,-30 26,-97 10,12 25,40 35,56 11,17 25,54 42,40 21,-18 -60,-107 -64,-137 164,5 140,16 140,-136 0,-160 18,-143 -96,-143 -248,0 -240,-23 -238,79 -46,-16 -29,-24 -91,-24 -24,0 -83,-7 -98,10 -10,12 -36,163 -32,183 13,20 15,15 43,17z"/>
   <path class="fil1" d="M359 343c70,31 26,32 175,-12 25,-7 43,-19 61,-5 0,27 -26,23 -82,40 -27,8 -72,23 -98,27 1,51 -8,53 -55,45l0 60 277 0 1 -221 -278 -1 0 66z"/>
   <path class="fil1" d="M208 422c-10,-9 -5,-71 -4,-89l-41 1 -27 150 43 2 13 153 55 0 28 -249 111 26 0 -28c-69,-21 -78,-59 -152,-54 -7,48 16,94 -20,98l-7 -9z"/>
   <path class="fil0" d="M165 201c-3,-33 20,-59 48,-63 29,-3 57,18 61,48 9,75 -103,82 -109,15zm28 -86c-108,41 -47,187 50,158 110,-33 53,-197 -50,-158z"/>
   <path class="fil1" d="M165 201c6,68 118,60 109,-15 -4,-30 -32,-51 -61,-48 -28,3 -51,30 -48,63z"/>
   <rect class="fil1 str0" x="5" y="5" width="766" height="766" rx="113" ry="113"/>
  </g>
 </g>
</svg>
