<?xml version="1.0" encoding="UTF-8"?>
<!DOCTYPE svg PUBLIC "-//W3C//DTD SVG 1.1//EN" "http://www.w3.org/Graphics/SVG/1.1/DTD/svg11.dtd">
<!-- Creator: CorelDRAW X6 -->
<svg xmlns="http://www.w3.org/2000/svg" xml:space="preserve" width="800px" height="800px" version="1.1" style="shape-rendering:geometricPrecision; text-rendering:geometricPrecision; image-rendering:optimizeQuality; fill-rule:evenodd; clip-rule:evenodd"
viewBox="0 0 800 800"
 xmlns:xlink="http://www.w3.org/1999/xlink">
 <defs>
  <style type="text/css">
   <![CDATA[
    .fil0 {fill:#5F3773}
   ]]>
  </style>
 </defs>
 <g id="Capa_x0020_1">
  <metadata id="CorelCorpID_0Corel-Layer"/>
  <path class="fil0" d="M118 0l565 0c65,0 118,53 118,118l0 565c0,65 -53,118 -118,118l-565 0c-65,0 -118,-53 -118,-118l0 -565c0,-65 53,-118 118,-118zm574 395c-7,0 -13,-5 -13,-12 0,-5 0,-6 3,-9 5,-7 18,-4 21,4 1,4 1,8 -1,11 -2,3 -6,6 -9,6zm-120 -148c0,12 0,13 5,23l5 11c0,0 0,0 0,1 0,0 0,0 0,0l1 2c0,1 0,1 1,1 0,1 0,1 1,1l8 16c1,1 1,1 1,3l1 3c1,1 1,2 1,3l6 13c0,1 0,1 1,2 4,6 9,19 13,26l4 9c0,1 0,1 1,1l7 14c0,0 0,1 0,1l1 1c0,0 0,0 0,0 3,5 6,12 8,16 0,1 0,1 1,1 0,0 0,0 0,0l5 10c1,1 0,0 1,1l3 5c2,3 5,6 8,7l3 2c5,3 11,5 17,5 4,0 9,-1 13,-2l37 -18c0,0 1,0 1,-1 1,-1 1,-1 2,-1l13 -6c1,-1 4,-1 4,-3 0,-1 -1,-1 -1,-2l-3 -7c-1,-1 -1,-3 -2,-4l-4 -9c-1,-2 -2,-3 -2,-4l-1 -2c0,-1 0,-1 0,-1l-2 -4c0,-1 0,-1 -1,-1 -1,-1 -1,-3 -2,-4 0,-1 0,-1 0,-1 0,-1 0,0 -1,-1l-8 -16c0,-1 0,0 -1,-1l-1 -2c0,0 0,0 0,0l-14 -27c0,0 0,0 0,0 0,0 0,0 0,-1 0,0 0,0 0,0 -4,-9 -9,-17 -13,-26l-13 -27c0,-1 -1,-1 -1,-2l-14 -28c-1,-2 -1,-3 -2,-5 -2,-3 -3,-6 -4,-9 -1,-3 -5,-11 -7,-13 -1,-1 -1,-1 -2,-1l-53 27c-5,2 -9,7 -12,11l-3 6c-1,2 -1,1 -1,2 0,1 0,1 -1,3 0,1 -1,2 -1,3zm-245 335c0,-5 0,-8 3,-12l1 -1c5,-7 15,-8 22,-4 8,5 10,11 8,19 0,3 0,2 -1,4 -2,5 -4,6 -9,9 -4,2 -10,2 -14,0 -2,-1 -4,-2 -5,-3l-4 -5c-1,-2 -2,-4 -2,-7zm-35 -2c-6,0 -9,0 -15,-5l-3 -3c-2,-3 -1,-1 -2,-6 -1,-4 -1,-5 0,-8 1,-2 0,-2 1,-4l14 -15c3,-3 12,-13 14,-15l1 -1c8,-5 20,-2 24,7 1,2 1,2 2,5 1,4 1,8 -1,11 -1,2 -1,2 -3,4 -1,1 -2,2 -3,4l-16 17c-4,4 -8,9 -14,9zm-21 -92c6,0 6,-1 10,1 3,1 5,2 7,5 1,1 2,3 3,5 2,5 1,13 -2,18 -1,2 -4,4 -7,7l-10 10c-5,4 -13,4 -18,1 -8,-4 -12,-13 -9,-22 0,-2 2,-4 3,-6l0 0c0,0 0,0 0,0 0,-1 1,-1 1,-1l12 -12c2,-2 7,-5 10,-5zm-57 -10c0,-5 1,-8 3,-12 2,-3 7,-7 10,-7 4,0 8,-1 11,1l2 1c4,3 8,9 8,12 0,5 0,7 -2,12 -3,6 -9,9 -16,9 -5,0 -9,-2 -12,-5l-1 -1c-2,-3 -4,-7 -4,-10zm117 -50c-6,0 -7,0 -13,-2 -2,-1 -4,-2 -5,-4 -3,-5 -1,-9 1,-14l3 -7c1,-1 1,-2 1,-3l5 -11c0,-1 0,-1 1,-2l13 -28c0,-1 0,-1 1,-2l3 -7c1,-2 1,-2 1,-3l10 -21c0,0 0,-1 0,-1l4 -9c0,-1 0,-1 1,-2l7 -16c2,-4 4,-4 7,-7 1,-1 2,-1 3,-2l5 -2c0,0 1,0 1,0l9 -4c1,0 1,0 2,-1 1,0 1,0 2,-1 1,0 1,0 2,-1l4 -1c1,0 1,0 2,-1l24 -9c1,0 1,0 2,-1 1,0 1,0 2,-1l7 -3c2,-1 5,-1 7,-2 1,0 1,0 2,-1 7,-2 5,-2 11,-3 5,-1 6,-1 11,0l34 11c1,0 1,0 2,1 1,1 1,0 2,1l34 12c2,1 13,4 15,5 1,1 0,0 1,1l36 73c1,1 1,2 2,3l6 13c0,0 0,0 0,0l1 1c0,0 0,0 0,0l6 13c1,1 1,2 2,4l2 4c0,1 0,0 0,1l9 18c0,0 0,1 0,1l2 4 -23 20c-1,1 -2,2 -3,3 -1,1 -1,1 -1,1 0,0 0,0 -1,1 0,0 0,0 0,0 0,0 0,0 0,0 0,0 0,0 0,0l-21 19c-1,1 -1,1 -2,1 -2,-1 -5,-5 -7,-6 0,0 0,0 0,0 0,0 0,0 -1,-1 0,-1 -1,-1 -1,-1l-7 -7c0,0 0,0 0,0l-7 -7c-1,-1 -1,-1 -1,-1l-96 -96c0,0 0,0 0,0l-15 -15c0,0 0,0 0,0 0,0 0,0 0,0 0,0 0,0 -1,-1l-2 -2c0,0 -1,0 -1,-1 -3,-3 1,-4 1,-8 0,-11 -15,-8 -25,-9 -7,-1 -4,0 -6,8 -1,4 0,9 -1,13 -1,3 -2,11 -3,14l-1 6c-2,5 -3,11 -5,17l-5 11c0,1 -1,1 -1,2l-11 18 -13 13c-1,1 -1,1 -2,2 -5,4 -11,9 -18,10 -2,0 -3,1 -6,1zm35 -151l-18 -8c-1,0 -2,0 -3,-1l-12 -3 -14 -2c-6,0 -12,0 -18,1 -3,0 -6,0 -9,0 -5,1 -12,2 -17,2 -3,0 -5,1 -8,1 -4,0 -7,0 -11,4 -2,2 -13,18 -16,22l-64 91c-1,1 -1,2 -2,3 -2,4 -5,7 -7,10l-4 5c-5,8 -3,14 3,21l14 14c4,4 7,7 11,11l9 9c0,0 0,0 0,0 5,5 3,2 2,8 -1,3 -2,8 -2,12 1,8 2,11 6,17 1,2 3,4 5,6 4,4 10,6 15,8 1,0 4,0 5,1 1,1 -1,2 -1,4 0,6 0,11 2,16l7 11c0,0 0,0 0,0 2,2 4,4 7,5 4,2 9,4 14,4 0,2 -1,3 -1,5 -1,5 -1,11 1,16 0,1 0,1 0,2l1 2c2,3 3,6 6,9l6 5c2,2 5,3 8,4 6,2 8,1 15,1 2,0 3,-1 5,-1 5,-1 11,-6 13,-7 2,4 0,6 8,16 2,2 6,5 8,6l6 3c11,4 19,0 20,0 2,0 4,2 6,3 1,0 1,0 2,1 7,3 16,2 23,-1l3 -1c1,0 1,0 2,-1 11,-7 7,-7 1,-13l-14 -14c-2,-2 -1,-2 -1,-6 0,-3 0,-4 0,-7 2,1 3,3 5,4l5 5c0,0 0,0 1,1 0,0 0,0 0,0 0,0 0,0 0,0l3 3c0,0 0,0 0,0l2 2c1,1 2,2 3,3l11 11c4,4 8,9 13,12 3,3 12,4 17,4l9 -1c4,-1 7,-2 11,-4 4,-2 8,-5 11,-8l3 -4c8,-8 5,-7 -4,-16l-23 -23c-2,-2 -3,-3 -5,-5l-6 -6c0,0 0,0 0,0l-23 -22c-2,-2 -6,-5 -4,-9 1,-1 2,-2 3,-2 2,0 7,6 9,7l46 46c0,0 0,0 0,0 0,0 0,0 0,0l6 6c0,0 0,0 0,0l9 9c0,0 0,0 0,0l11 12c0,0 0,0 0,0 0,0 1,1 1,1 3,3 9,3 13,4 2,0 9,-1 11,-1 1,0 1,-1 3,-1 7,-2 15,-8 19,-14l6 -7c2,-2 4,-4 5,-7 1,-2 2,-5 2,-8 0,-1 -17,-18 -18,-19 -11,-11 -22,-23 -33,-33l-1 -1c0,0 0,-1 -1,-1l-4 -4c0,0 0,0 0,0l-8 -8c0,0 -1,-1 -1,-1l-3 -3c0,0 0,0 0,0 -5,-5 -2,-9 -1,-9 4,0 4,2 7,4 6,6 12,12 18,18l8 8c0,0 0,0 0,0 0,0 0,0 0,0 0,0 0,0 0,0l5 5c0,0 0,0 0,0l12 12c0,0 1,1 1,1 1,1 1,1 1,1 1,1 1,1 1,1l1 1c0,0 0,1 1,1l1 1c6,6 12,12 18,18 1,1 1,1 3,2 4,1 10,1 14,0 1,0 2,0 4,-1 0,0 1,0 1,-1l5 -2c3,-2 5,-4 8,-6l2 -2c2,-3 5,-6 6,-9l3 -8c1,-4 2,-13 0,-17 0,-1 -1,-2 -1,-3 -1,-3 -2,-6 -4,-8l-3 -5c-5,-6 -11,-11 -16,-16l32 -29c0,0 0,0 0,0 0,0 0,0 0,0l4 -3c5,-4 17,-14 19,-19 3,-8 0,-12 -4,-20l-45 -91c-1,-1 -1,-2 -2,-4 0,-1 -1,-1 -1,-2l-16 -32c0,0 0,0 0,0l-1 -2c-2,-2 -4,-4 -6,-5l-10 -4c-1,0 -1,0 -2,-1 -5,-1 -12,-4 -16,-6l-14 -5c-1,-1 0,0 -2,-1l-18 -7c-1,0 -1,0 -2,-1l-14 -5c-4,-1 -7,-2 -11,-3 -6,0 -8,0 -13,0 -3,0 -4,1 -7,1 -5,1 -12,5 -17,6l-19 7c-1,0 0,0 -1,1l-5 2c-1,0 -1,0 -1,1l-11 4c-1,0 0,0 -1,1l-6 2c-1,1 -2,1 -3,1l-6 2c-4,1 -7,4 -11,6zm-268 83c0,-4 3,-9 7,-11 5,-2 10,-1 14,2 8,7 3,24 -11,21 -6,-1 -10,-6 -10,-12zm-42 5c0,2 1,2 2,3l1 1c2,1 3,2 4,3l3 2c6,3 12,8 17,12 2,1 3,2 4,3l3 2c0,0 0,0 0,0l9 6c3,2 6,5 9,6l1 0c1,0 1,1 3,1 11,4 23,2 32,-4 1,-1 2,-1 3,-2 1,-1 0,0 1,-1 3,-3 5,-6 7,-9 1,-1 1,-2 2,-3 1,-1 1,-2 2,-3 1,-1 1,-1 2,-3 4,-6 9,-12 13,-18 1,-1 1,-2 2,-3l13 -18c1,-1 1,-2 2,-3l7 -10c1,-1 1,-2 2,-3 1,-1 1,-2 2,-3l15 -21c3,-5 6,-9 9,-13 0,-1 0,-1 1,-1 0,0 0,0 0,0l10 -15c0,0 0,0 0,0l0 0c3,-4 7,-9 9,-14l2 -5c1,-4 2,-8 2,-12 0,-3 -1,-4 -1,-6 0,-3 -2,-6 -3,-8l0 -1c0,0 0,0 0,0l0 -1c-5,-8 -17,-15 -24,-20 -1,-1 -1,-1 -2,-2 -1,0 0,0 -1,-1 -4,-2 -13,-9 -17,-12l-11 -8c-1,-1 -1,-1 -3,-1 0,2 -11,16 -12,17l-6 9c-1,1 -1,1 -2,3 -3,5 -7,9 -10,14 -1,1 0,1 -1,2l-25 35c-1,1 -1,2 -2,3l-36 51c-1,1 -1,2 -2,3l-18 26c-1,1 -1,2 -2,3l-10 14c-1,1 -2,2 -2,3z"/>
 </g>
</svg>
