<?xml version="1.0" encoding="UTF-8"?>
<!DOCTYPE svg PUBLIC "-//W3C//DTD SVG 1.1//EN" "http://www.w3.org/Graphics/SVG/1.1/DTD/svg11.dtd">
<!-- Creator: CorelDRAW X6 -->
<svg xmlns="http://www.w3.org/2000/svg" xml:space="preserve" width="810px" height="810px" version="1.1" style="shape-rendering:geometricPrecision; text-rendering:geometricPrecision; image-rendering:optimizeQuality; fill-rule:evenodd; clip-rule:evenodd"
viewBox="0 0 810 810"
 xmlns:xlink="http://www.w3.org/1999/xlink">
 <defs>
  <style type="text/css">
   <![CDATA[
    .str0 {stroke:#5F3773;stroke-width:10.0004}
    .fil0 {fill:none}
    .fil1 {fill:#5F3773}
    .fil3 {fill:gray}
    .fil2 {fill:#B3B3B3}
   ]]>
  </style>
 </defs>
 <g id="Capa_x0020_1">
  <metadata id="CorelCorpID_0Corel-Layer"/>
  <g id="_236882536">
   <rect class="fil0 str0" x="5" y="5" width="800" height="800" rx="118" ry="118"/>
   <path class="fil1" d="M418 505c6,1 10,8 8,15 -3,8 -11,7 -17,7 -8,0 -16,0 -24,0 -10,0 -16,2 -20,-4 -12,-2 -13,-16 -4,-21 5,-2 31,-1 38,-1 16,0 13,-1 20,5zm-67 -14c-8,-2 -14,-12 -8,-20 5,-8 15,-6 27,-6l50 0c8,0 7,1 12,4 4,1 7,4 9,8 2,6 0,12 -5,15 -2,1 -4,2 -6,2l-50 0c-10,0 -25,2 -29,-4zm-70 -191c3,0 4,1 5,2 20,25 -54,26 -63,15l-2 -1c-1,-1 -1,0 -2,-1 -5,-3 -8,-7 -5,-13 7,-14 52,-6 64,-6 1,2 1,2 3,4zm280 1c6,1 7,2 7,7 1,16 -23,16 -35,15 -7,0 -15,-2 -23,-3 -7,-2 -8,-2 -9,-5 -4,-2 -6,-1 -7,-6 -3,-23 42,-15 55,-13 3,1 7,2 10,2l1 3zm-141 155l-30 2c-11,0 -19,0 -28,-1 -25,-3 -17,-7 -23,-40 -6,-38 -30,-56 -35,-91 -5,-38 18,-67 43,-79 15,-8 31,-12 50,-9 9,1 17,3 25,7 7,3 19,11 20,11 7,3 14,11 19,16l9 14c2,5 4,8 5,14 1,4 1,3 1,7 1,3 1,7 1,8 2,38 -23,61 -33,93 -9,30 3,47 -25,50zm47 -213c-5,0 -7,-3 -8,-8 -1,-6 1,-8 3,-11 6,-9 20,-24 29,-31 9,-7 12,-6 21,0 7,2 11,10 5,18l-5 5c0,0 0,0 0,0 0,0 0,0 0,0l-5 4c0,0 0,0 0,0l-19 17c-4,3 -11,9 -17,7 -2,-1 -3,-2 -4,-4zm-176 -44c5,1 20,17 24,22 6,7 13,18 1,24 -5,2 -9,1 -13,-2l-6 -3c-5,-3 -14,-11 -19,-16 -6,-5 -18,-17 -18,-25 0,-6 3,-8 7,-10 6,-2 9,0 13,3 2,1 3,2 5,4 2,1 3,3 5,3zm107 -53c8,2 8,11 8,21 0,1 0,1 0,3 1,12 -1,28 -1,38 -5,4 -13,8 -18,1 -12,-2 -12,-20 -12,-29 0,-4 0,-7 0,-15 0,-5 1,-11 1,-18 5,-3 10,-6 17,-3 3,1 2,2 4,3zm298 397c-2,1 -49,-4 -65,-2 -4,0 -10,1 -15,2 -16,3 -35,17 -47,28 -10,8 -22,16 -32,24 -25,19 -46,30 -77,30l-9 1c-1,0 -2,0 -4,0 -36,1 -74,-2 -111,-1 -2,0 -3,0 -6,0 -17,0 -51,2 -64,-9 -3,-2 -6,-3 -9,-6 -10,-8 -10,-23 -4,-31 7,-11 25,-15 42,-15 19,0 39,0 52,1 4,0 10,0 12,1 2,0 7,0 12,0 7,0 21,0 25,-1 14,19 18,48 60,27l64 -39c-13,-1 -26,10 -35,16 -14,8 -29,23 -43,24 -5,0 -10,-1 -12,-4 -20,-8 -26,-31 -18,-41 5,-7 30,-23 40,-29l80 -58c13,-10 29,-19 47,-23 31,-7 97,-1 130,-1 6,0 13,0 19,0 4,-44 -1,-90 -15,-132 -1,-3 -2,-5 -3,-8 -1,-2 -2,-4 -2,-7 -3,-8 -8,-19 -12,-27 -4,-9 -12,-22 -17,-31 -1,-2 -2,-4 -4,-6l-15 -21c0,0 0,0 0,0 0,0 0,0 0,0l-9 -10c0,0 -1,-1 -1,-1l-24 -25c-2,-2 -3,-2 -5,-4l-3 -3c-3,-3 -8,-6 -11,-9 0,0 0,0 0,0 0,0 0,0 0,0l-7 -6c-2,-2 -4,-3 -6,-4 -13,-9 -18,-11 -30,-18l-12 -7c-3,-2 -9,-4 -13,-6 -21,-9 -35,-14 -57,-20 -32,-8 -67,-10 -100,-8 -27,2 -54,7 -79,16 -5,2 -9,3 -14,5l-13 6c-11,4 -15,7 -25,12l-12 7c-7,4 -12,7 -18,12 -2,2 -4,2 -6,4 -2,2 -3,3 -5,4l-26 22c-3,3 -6,7 -10,10 -1,1 -1,1 -3,2 0,0 0,0 0,0l-13 15c-3,4 -6,7 -9,11l-10 14c-14,20 -23,38 -33,62 -21,51 -27,106 -20,162 3,22 8,41 15,63 5,14 18,44 24,53 0,0 0,0 0,0l21 32c3,4 7,9 10,13 1,1 3,4 4,5l9 10c0,0 1,1 1,1l20 20c0,0 0,0 0,0l14 11c1,1 2,1 3,2l6 5c0,0 0,0 0,0l19 13c1,1 2,1 3,2 1,1 0,0 1,1 7,5 18,11 26,14 4,2 8,4 13,6l21 8c6,3 16,5 22,7 5,2 11,3 16,4 10,2 21,4 32,5l36 3c20,1 40,-2 58,-5 26,-4 41,-10 64,-18l36 -17c2,-1 3,-2 6,-4l18 -11 48 -39c2,-2 3,-2 5,-5 2,-2 3,-3 4,-5 2,-2 3,-3 5,-5l25 -32c5,-6 23,-38 24,-44z"/>
   <path class="fil1" d="M369 436l43 0c0,-3 0,-9 1,-13 1,-4 1,-9 2,-13 9,-40 46,-71 32,-114 -4,-13 -18,-29 -30,-32 -3,0 -5,-1 -8,-2 -23,-5 -49,2 -64,20 -5,6 -9,12 -10,20 -1,2 -1,4 -1,6 0,1 0,1 0,2l0 4c0,2 0,3 0,5 0,7 1,13 4,22 3,8 6,14 10,21 1,2 2,4 4,7l11 20c3,5 5,11 6,17 0,1 0,0 0,1 3,13 2,17 2,29z"/>
   <path class="fil2" d="M265 616c14,11 47,8 64,9 2,0 4,0 6,0 37,-1 75,2 111,1 1,0 3,0 4,0l9 -1c31,0 52,-12 77,-30 10,-8 22,-16 32,-24 12,-10 31,-25 47,-28 5,-1 12,-2 15,-2 16,-2 63,3 65,2 1,-1 1,0 2,-2 1,-1 1,-1 1,-2 -21,-1 -43,-4 -65,-3l-21 2c-20,3 -42,21 -58,34l-32 23c-2,2 -3,3 -6,4 -15,9 -23,15 -44,19 -12,2 -18,1 -31,2 -20,2 -98,-3 -129,-1 -2,0 -4,0 -6,0 -10,0 -26,-1 -36,-3 -3,-1 -4,-2 -7,-2z"/>
   <path class="fil3" d="M369 436c0,-12 1,-16 -2,-29 0,-1 0,0 0,-1 -1,-6 -4,-12 -6,-17l-11 -20c-1,-2 -2,-4 -4,-7 -4,-8 -7,-13 -10,-21 -3,-9 -4,-15 -4,-22 0,-2 0,-3 0,-5l0 -4c0,-1 0,-1 0,-2 0,-3 1,-4 1,-6 2,-7 5,-14 10,-20 15,-18 41,-25 64,-20 3,1 5,2 8,2 -5,-4 -23,-7 -30,-7 -32,1 -61,20 -62,57 -1,48 43,68 37,122l7 0z"/>
   <path class="fil2" d="M421 456c27,-3 16,-20 25,-50 10,-32 34,-56 33,-93 0,-1 0,-5 -1,-8 -1,-4 0,-3 -1,-7 -1,-6 -3,-9 -5,-14l-9 -14c-5,-6 -13,-13 -19,-16l9 9c9,9 16,23 18,36 9,41 -19,69 -30,104 -7,20 -4,45 -13,50 -1,1 -2,1 -3,1l-4 2z"/>
   <path class="fil2" d="M429 588c2,3 7,5 12,4 14,-1 29,-16 43,-24 10,-6 23,-17 35,-16 2,-1 3,-1 5,-3 -10,-2 -16,-2 -26,3 -2,1 -3,2 -5,3 -13,8 -41,28 -48,31 -6,3 -7,3 -15,3z"/>
   <path class="fil3" d="M468 243c1,2 2,3 4,4 6,1 13,-4 17,-7l19 -17c0,0 0,0 0,0l5 -4c0,0 0,0 0,0 0,0 0,0 0,0l5 -5c7,-8 2,-17 -5,-18 1,4 3,5 1,10 -2,4 -8,10 -12,13 -13,11 -19,22 -34,26z"/>
   <path class="fil2" d="M350 491c4,6 18,4 29,4l50 0c2,0 4,-1 6,-2 5,-3 7,-10 5,-15 -1,-4 -5,-7 -9,-8 3,6 4,13 -1,18l-5 3c-3,1 -5,1 -7,1 -8,0 -64,1 -68,0z"/>
   <path class="fil3" d="M387 208c5,7 12,3 18,-1 0,-10 2,-26 1,-38 0,-1 0,-2 0,-3 0,-10 1,-19 -8,-21 0,15 3,20 1,39 0,3 -1,12 -1,16 0,4 -1,4 -4,6l-7 2z"/>
   <path class="fil3" d="M223 317c9,12 83,10 63,-15 -1,-2 -2,-2 -5,-2 1,3 3,5 1,9 -4,11 -31,11 -41,11 -7,0 -14,-3 -18,-3z"/>
   <path class="fil3" d="M502 315c2,3 2,3 9,5 7,2 15,3 23,3 12,1 35,1 35,-15 0,-5 -1,-6 -7,-7 3,13 -9,18 -22,19 -15,1 -26,-2 -37,-4z"/>
   <path class="fil2" d="M365 523c4,5 10,4 20,4 8,0 16,0 24,0 6,0 14,1 17,-7 3,-7 -1,-14 -8,-15 2,5 2,10 -1,14 -4,4 -8,3 -15,3 -12,0 -25,0 -37,0z"/>
   <path class="fil3" d="M304 243c4,3 8,5 13,2 12,-6 5,-17 -1,-24 -4,-5 -19,-20 -24,-22 2,3 3,3 5,5 2,2 3,3 5,5 7,7 18,16 14,26 -1,3 -2,4 -5,6 -3,2 -4,1 -7,2z"/>
  </g>
 </g>
</svg>
