<?xml version="1.0" encoding="UTF-8"?>
<!DOCTYPE svg PUBLIC "-//W3C//DTD SVG 1.1//EN" "http://www.w3.org/Graphics/SVG/1.1/DTD/svg11.dtd">
<!-- Creator: CorelDRAW X6 -->
<svg xmlns="http://www.w3.org/2000/svg" xml:space="preserve" width="809px" height="816px" version="1.1" style="shape-rendering:geometricPrecision; text-rendering:geometricPrecision; image-rendering:optimizeQuality; fill-rule:evenodd; clip-rule:evenodd"
viewBox="0 0 809 816"
 xmlns:xlink="http://www.w3.org/1999/xlink">
 <defs>
  <style type="text/css">
   <![CDATA[
    .str0 {stroke:#5F3773;stroke-width:9.99679}
    .fil0 {fill:none}
    .fil4 {fill:#583168}
    .fil1 {fill:#5F3773}
    .fil3 {fill:gray}
    .fil2 {fill:#B3B3B3}
   ]]>
  </style>
 </defs>
 <g id="Capa_x0020_1">
  <metadata id="CorelCorpID_0Corel-Layer"/>
  <g id="_236883520">
   <g>
    <rect class="fil0 str0" x="406" y="413" width="398" height="398" rx="58" ry="58"/>
    <path class="fil1" d="M612 662c3,0 5,4 4,7 -1,4 -6,3 -9,3 -4,0 -8,0 -12,0 -5,0 -8,1 -10,-2 -6,-1 -7,-8 -2,-11 2,-1 16,-1 19,-1 8,0 6,0 10,2zm-34 -7c-4,-1 -7,-6 -4,-10 3,-4 8,-3 13,-3l25 0c4,0 4,1 6,2 2,1 4,2 4,4 1,3 0,6 -3,8 -1,1 -2,1 -3,1l-25 0c-5,0 -12,1 -14,-2zm-35 -95c2,0 2,0 2,1 10,12 -27,13 -31,7l-1 -1c-1,0 -1,0 -1,0 -3,-1 -4,-3 -2,-6 3,-7 26,-3 32,-3 1,1 0,1 1,2zm139 1c3,0 3,1 4,3 0,8 -11,8 -17,8 -4,0 -8,-1 -11,-2 -4,-1 -4,-1 -5,-2 -2,-1 -3,0 -3,-3 -1,-11 21,-8 27,-6 2,0 4,1 5,1l0 1zm-70 77l-15 1c-5,0 -10,0 -14,-1 -13,-1 -9,-3 -11,-20 -3,-19 -15,-28 -17,-45 -2,-19 9,-33 21,-40 7,-4 15,-6 25,-5 5,1 9,2 13,3 3,1 9,5 10,5 3,2 7,5 9,8l5 7c1,2 2,4 3,7 0,2 0,2 1,3 0,1 0,3 0,4 1,19 -11,30 -16,46 -4,15 1,23 -12,25zm23 -106c-3,0 -3,-1 -4,-4 -1,-3 0,-4 1,-6 3,-5 10,-12 15,-15 4,-3 6,-3 10,0 4,1 6,5 2,9l-2 2c0,0 0,0 0,0 0,0 0,0 0,0l-2 2c0,0 0,0 0,0l-9 9c-2,2 -6,4 -8,4 -1,0 -1,-1 -2,-2zm-88 -22c3,1 10,8 12,11 3,3 6,9 0,12 -2,1 -4,1 -6,-1l-3 -2c-3,-2 -7,-6 -10,-8 -3,-3 -9,-9 -9,-12 0,-3 1,-4 3,-5 3,-1 4,0 6,1 1,1 2,1 3,2 1,1 1,1 2,2zm53 -26c4,1 4,5 4,10 0,1 0,1 0,1 1,6 -1,14 -1,19 -3,2 -7,4 -9,0 -6,-1 -6,-10 -6,-14 0,-2 0,-3 0,-8 0,-3 1,-6 1,-9 3,-2 5,-3 9,-2 1,1 1,1 2,2zm148 197c-1,0 -24,-2 -32,-1 -2,0 -5,1 -8,1 -8,1 -17,9 -24,14 -5,4 -11,8 -16,12 -12,9 -23,15 -38,15l-5 0c-1,0 -1,0 -2,0 -18,0 -37,-1 -55,-1 -1,0 -2,0 -3,0 -9,0 -25,1 -32,-4 -1,-1 -3,-2 -5,-3 -5,-4 -5,-11 -2,-16 4,-5 12,-7 21,-7 9,0 19,0 26,1 2,0 5,0 6,0 1,0 4,0 6,0 4,0 10,0 13,-1 7,9 9,24 30,13l32 -20c-6,0 -13,5 -18,8 -7,4 -15,11 -21,12 -2,0 -5,-1 -6,-2 -10,-4 -13,-15 -9,-21 3,-3 15,-11 20,-15l40 -29c6,-5 14,-9 23,-11 15,-4 48,0 65,0 3,0 6,0 9,0 2,-22 0,-45 -7,-66 0,-1 -1,-3 -1,-4 0,-1 -1,-2 -1,-3 -1,-4 -4,-9 -6,-13 -2,-4 -6,-11 -9,-15 -1,-1 -1,-2 -2,-3l-8 -10c0,0 0,0 0,0 0,0 0,0 0,0l-4 -5c0,0 0,0 0,-1l-12 -12c-1,-1 -2,-1 -3,-2l-1 -1c-1,-2 -4,-3 -5,-4 0,0 0,0 0,0 0,0 0,0 0,0l-4 -3c-1,-1 -2,-1 -3,-2 -7,-5 -9,-6 -15,-9l-6 -3c-2,-1 -4,-2 -7,-3 -10,-4 -17,-7 -28,-10 -16,-4 -33,-5 -50,-4 -13,1 -27,4 -39,8 -3,1 -5,1 -7,3l-7 3c-5,2 -7,4 -12,6l-6 4c-3,2 -6,4 -9,6 -1,1 -2,1 -3,2 -1,1 -2,1 -3,2l-13 11c-2,2 -3,3 -5,5 -1,0 -1,1 -1,1 0,0 0,0 0,0l-6 8c-1,2 -3,3 -4,5l-5 7c-7,10 -12,19 -16,31 -10,25 -14,53 -10,81 1,11 4,20 7,31 2,7 9,22 12,27 0,0 0,0 0,0l11 16c1,2 3,4 5,6 0,1 2,2 2,3l5 5c0,0 0,0 0,0l10 10c0,0 0,0 0,0l7 6c1,0 1,1 2,1l3 2c0,0 0,0 0,0l9 6c1,0 1,1 1,1 0,0 0,0 1,0 4,2 9,6 13,7 2,1 4,2 7,3l11 4c3,1 8,3 11,3 3,1 5,1 8,2 5,1 10,2 16,3l18 1c10,0 20,-1 29,-2 13,-2 20,-5 32,-9l18 -9c1,-1 2,-1 3,-2l9 -5 24 -19c1,-1 1,-1 2,-2 1,-1 1,-2 2,-3 1,-1 2,-1 2,-2l12 -16c2,-3 12,-19 12,-22z"/>
    <path class="fil1" d="M587 627l21 0c0,-1 0,-4 0,-6 0,-2 1,-4 1,-7 4,-20 23,-35 16,-57 -2,-7 -9,-15 -15,-16 -2,0 -3,-1 -4,-1 -11,-2 -24,1 -32,10 -3,3 -4,6 -5,10 0,1 -1,2 -1,3 0,0 0,0 0,1l0 2c0,1 0,2 0,2 0,4 0,7 2,11 1,4 3,7 5,11 1,1 1,2 2,3l5 10c1,3 2,5 3,8 0,0 0,0 0,1 1,6 1,9 1,14z"/>
    <path class="fil2" d="M536 717c7,5 23,4 32,4 1,0 2,0 3,0 18,0 37,1 55,1 1,0 1,0 2,0l5 0c15,0 26,-6 38,-15 5,-4 11,-8 16,-12 6,-5 16,-12 24,-14 2,0 6,-1 8,-1 8,-1 31,1 32,1 1,0 0,0 1,-1 0,-1 0,-1 1,-1 -11,0 -21,-2 -33,-1l-10 1c-10,1 -21,10 -29,17l-16 11c-1,1 -2,1 -3,2 -8,5 -12,8 -22,10 -6,1 -9,1 -15,1 -10,1 -49,-1 -64,0 -1,0 -2,0 -3,0 -5,0 -13,0 -18,-2 -2,0 -2,-1 -4,-1z"/>
    <path class="fil3" d="M587 627c0,-6 0,-8 -1,-14 0,-1 0,0 0,-1 -1,-3 -2,-6 -3,-8l-5 -10c-1,-1 -1,-2 -2,-3 -2,-4 -4,-6 -5,-11 -1,-4 -2,-7 -2,-11 0,-1 0,-2 0,-2l0 -2c0,-1 0,-1 0,-1 0,-1 0,-2 1,-3 1,-4 3,-7 5,-10 8,-9 21,-12 32,-10 2,0 3,1 4,1 -2,-2 -11,-3 -15,-3 -16,0 -30,10 -31,28 -1,24 21,34 18,61l3 0z"/>
    <path class="fil2" d="M613 637c14,-1 8,-10 12,-25 5,-16 17,-28 16,-46 0,0 0,-2 0,-4 0,-2 0,-2 -1,-3 -1,-3 -1,-5 -3,-7l-5 -7c-2,-3 -6,-7 -9,-8l5 5c4,4 8,11 9,18 5,20 -9,35 -15,52 -3,10 -2,22 -6,25 -1,0 -1,0 -2,1l-2 1z"/>
    <path class="fil2" d="M617 703c1,1 4,2 6,2 7,-1 15,-8 21,-12 5,-3 11,-8 18,-8 1,-1 2,-1 2,-2 -5,-1 -8,-1 -13,1 -1,0 -2,1 -3,1 -6,4 -20,14 -24,15 -3,1 -3,1 -8,1z"/>
    <path class="fil3" d="M636 531c0,1 1,1 2,2 3,1 6,-2 8,-4l9 -9c0,0 0,0 0,0l2 -2c0,0 0,0 0,0 0,0 0,0 0,0l2 -2c3,-4 1,-8 -2,-9 0,2 1,2 0,5 -1,2 -4,5 -6,6 -7,5 -10,11 -17,13z"/>
    <path class="fil2" d="M578 655c2,3 9,2 14,2l25 0c1,0 2,-1 3,-1 2,-2 4,-5 3,-8 -1,-2 -2,-4 -4,-4 2,3 2,6 0,9l-3 2c-2,1 -2,0 -3,0 -4,0 -32,0 -34,0z"/>
    <path class="fil3" d="M596 514c2,3 6,1 9,0 0,-5 1,-13 1,-19 0,-1 0,-1 0,-1 0,-5 0,-9 -4,-10 0,7 1,10 1,19 0,1 0,6 -1,8 0,2 0,2 -2,3l-3 1z"/>
    <path class="fil3" d="M515 568c4,6 41,5 31,-7 -1,-1 -1,-1 -2,-1 0,1 1,2 1,5 -2,5 -15,6 -20,5 -4,0 -7,-1 -9,-1z"/>
    <path class="fil3" d="M653 567c1,2 1,1 5,2 4,1 7,2 11,2 6,0 18,0 17,-8 0,-3 -1,-3 -4,-3 1,6 -4,9 -11,9 -7,0 -13,-1 -18,-2z"/>
    <path class="fil2" d="M585 671c2,3 5,2 10,2 4,0 8,0 12,0 3,0 7,1 9,-3 1,-3 -1,-7 -4,-7 1,3 1,5 -1,7 -2,2 -4,2 -7,2 -6,0 -12,0 -18,0z"/>
    <path class="fil3" d="M555 531c2,2 4,2 6,1 6,-3 3,-9 0,-12 -2,-2 -10,-10 -12,-11 1,1 1,1 3,2 1,1 2,2 3,3 3,3 9,8 7,13 -1,1 -1,2 -2,3 -2,1 -2,1 -3,1z"/>
   </g>
   <g>
    <rect class="fil0 str0" x="198" y="5" width="398" height="398" rx="58" ry="58"/>
    <path class="fil1" d="M360 295c0,-3 0,-4 2,-6l0 0c3,-3 8,-4 11,-2 4,2 5,6 4,10 0,1 0,1 -1,2 -1,2 -2,3 -4,4 -2,1 -5,1 -7,0 -1,0 -2,-1 -3,-2l-2 -2c-1,-1 -1,-2 -1,-4zm-18 -1c-3,0 -5,0 -7,-2l-1 -2c-1,-1 -1,-1 -1,-3 -1,-2 0,-3 0,-4 0,-1 0,-1 1,-2l7 -8c2,-2 6,-6 7,-7l1 0c4,-2 10,-1 12,3 1,1 1,1 1,3 0,2 0,4 -1,6 -1,1 -1,1 -1,2 -1,1 -1,1 -2,2l-8 9c-2,2 -4,4 -7,4zm-11 -47c3,0 3,0 5,0 1,1 2,1 4,2 1,1 1,1 2,2 1,3 1,7 -1,9 -1,1 -2,2 -3,4l-5 5c-2,2 -6,2 -9,1 -4,-2 -6,-6 -5,-11 0,-1 1,-2 2,-3l0 0c0,0 0,0 0,0 0,0 0,0 1,-1l6 -6c1,-1 4,-3 5,-3zm-29 -5c0,-2 0,-4 2,-6 1,-2 3,-3 5,-3 2,0 4,0 6,1l1 1c2,1 4,4 4,6 0,3 0,4 -1,6 -2,3 -4,4 -8,4 -2,0 -4,-1 -6,-2l-1 -1c-1,-1 -2,-3 -2,-5zm59 -25c-3,0 -4,0 -6,-1 -1,-1 -2,-1 -3,-2 -2,-2 -1,-4 0,-7l1 -3c0,-1 0,-1 1,-2l3 -6c0,0 0,0 0,-1l6 -14c0,0 0,0 0,-1l1 -3c0,-1 0,-1 1,-2l5 -11c0,0 0,0 0,0l2 -5c0,0 0,0 0,-1l4 -8c1,-2 2,-2 4,-4 1,0 1,-1 2,-1l3 -1c0,0 0,0 0,0l5 -2c0,0 1,0 1,0 0,0 0,0 1,0 0,0 1,0 1,0l2 -1c0,0 0,0 1,0l12 -5c0,0 1,0 1,0 1,0 0,0 1,0l3 -1c1,-1 2,-1 4,-1 0,0 0,0 1,0 3,-1 2,-1 6,-2 2,0 3,0 5,0l17 6c0,0 0,0 1,0 1,0 0,0 1,0l17 6c1,0 7,2 7,3 1,0 0,0 1,1l18 37c0,1 0,1 1,2l3 7c0,0 0,0 0,0l0 1c0,0 0,0 0,0l3 6c0,1 1,1 1,2l1 2c0,0 0,0 0,0l4 9c0,0 0,0 0,0l1 2 -11 10c-1,1 -1,1 -2,2 0,0 0,0 -1,1 0,0 0,0 0,0 0,0 0,0 0,0 0,0 0,0 0,0 0,0 0,0 0,0l-11 10c0,0 -1,0 -1,1 -1,-1 -2,-2 -3,-3 0,0 0,0 0,0 0,0 0,0 0,0 0,0 0,0 -1,-1l-3 -3c0,0 0,0 0,0l-4 -4c0,0 0,0 -1,-1l-49 -48c0,0 0,0 0,0l-8 -8c0,0 0,0 0,0 0,0 0,0 0,0 0,0 0,0 0,0l-1 -1c0,0 0,0 -1,-1 -1,-1 0,-2 0,-4 0,-6 -8,-4 -12,-5 -3,0 -2,0 -3,4 0,2 0,4 -1,6 0,2 -1,6 -1,7l-1 3c-1,3 -1,5 -3,8l-2 5c0,0 0,1 -1,1l-6 9 -6 7c0,0 -1,0 -1,1 -2,2 -6,5 -9,5 -1,0 -2,1 -3,1zm17 -76l-9 -4c-1,0 -1,0 -2,0l-6 -2 -7 -1c-3,0 -6,0 -9,0 -2,0 -3,0 -5,0 -3,0 -6,1 -9,1 -1,0 -3,0 -4,0 -2,0 -4,0 -6,2 -1,1 -6,9 -8,11l-32 46c0,0 -1,1 -1,1 -1,2 -2,4 -4,5l-2 3c-2,4 -2,7 2,10l7 7c2,2 4,4 6,6l4 4c0,0 0,0 0,0 2,2 2,1 1,4 0,2 -1,4 -1,6 0,4 1,5 3,9 1,1 2,2 3,3 2,2 5,3 8,4 0,0 2,0 3,0 1,1 0,1 0,2 0,3 0,5 1,8l4 6c0,0 0,0 0,0 1,1 2,2 3,3 2,1 5,2 7,2 0,1 -1,1 -1,3 0,3 -1,6 0,8 0,0 0,0 0,1l0 1c1,2 2,3 3,4l3 3c1,1 3,2 4,2 3,1 4,1 7,1 1,0 2,0 3,-1 3,-1 5,-3 6,-3 1,2 0,3 4,8 1,1 3,3 4,3l3 1c6,2 9,0 10,0 1,0 2,1 3,1 1,0 1,0 1,0 4,1 8,1 12,0l2 -1c0,0 0,0 1,0 6,-3 4,-3 0,-7l-7 -7c-1,-1 -1,-1 -1,-3 0,-1 0,-2 0,-3 1,0 2,1 2,2l2 2c0,0 0,0 0,0 0,0 0,0 0,0 0,0 0,0 0,0l1 1c0,0 0,0 0,0l1 1c1,1 1,1 1,1l6 6c2,2 4,4 6,6 2,1 6,2 9,2l5 -1c2,-1 4,-1 6,-2 2,-1 4,-3 6,-4l2 -2c4,-4 3,-3 -2,-8l-12 -12c-1,-1 -2,-1 -2,-2l-3 -3c0,0 0,0 0,0l-11 -11c-1,-1 -3,-3 -2,-4 0,-1 1,-1 2,-1 1,0 4,3 5,4l23 23c0,0 0,0 0,0 0,0 0,0 0,0l3 3c0,0 0,0 0,0l4 4c0,0 0,0 0,0l6 6c0,0 0,0 0,0 0,0 0,0 0,0 2,1 4,2 6,2 1,0 4,0 5,-1 1,0 1,0 1,-1 4,-1 8,-4 10,-7l3 -3c1,-1 2,-2 3,-3 1,-1 1,-3 1,-4 0,-1 -9,-9 -9,-9 -5,-5 -11,-12 -17,-17l0 0c0,0 0,0 0,0l-2 -2c0,0 0,0 0,0l-4 -4c0,0 0,0 -1,-1l-2 -2c0,0 0,0 0,0 -3,-3 -1,-4 0,-4 2,0 2,1 4,2 3,3 6,6 9,9l4 4c0,0 0,0 0,0 0,0 0,0 0,0 0,0 0,0 0,0l2 2c0,0 0,0 0,0l6 6c0,0 0,0 1,1 0,0 0,0 1,1 0,0 0,0 1,1l0 0c0,0 0,0 0,0l1 1c3,3 6,6 9,9 1,1 1,1 1,1 2,1 5,1 7,0 1,0 1,0 2,0 0,0 0,0 1,0l2 -1c1,-1 3,-2 4,-3l1 -1c1,-1 2,-3 3,-5l2 -4c1,-2 1,-6 0,-9 0,-1 0,-1 0,-2 0,-1 -1,-3 -2,-4l-2 -2c-2,-3 -5,-5 -8,-8l16 -15c0,0 0,0 0,0 0,0 0,0 0,0l2 -2c2,-2 9,-7 10,-10 2,-4 0,-6 -2,-10l-23 -46c0,-1 -1,-1 -1,-2 0,0 0,-1 0,-1l-8 -16c0,0 0,0 0,0l-1 -1c-1,-1 -2,-2 -3,-2l-5 -2c-1,0 -1,0 -1,0 -2,-1 -6,-2 -8,-3l-7 -3c-1,0 0,0 -1,0l-9 -3c0,0 -1,0 -1,0l-7 -3c-2,-1 -3,-1 -6,-1 -3,0 -4,0 -6,0 -1,0 -2,0 -3,1 -2,1 -6,2 -9,3l-10 4c-1,0 0,0 -1,0l-2 1c0,0 0,0 -1,0l-5 2c0,0 0,0 -1,0l-3 1c-1,0 -1,0 -2,1l-3 1c-2,1 -4,2 -5,3z"/>
    <path class="fil1" d="M544 201c-4,0 -7,-2 -7,-6 0,-2 0,-3 2,-5 3,-3 9,-2 10,2 1,2 0,4 -1,6 -1,2 -3,3 -5,3zm-61 -75c0,6 0,6 3,12l3 5c0,0 0,0 0,0 0,0 0,0 0,0l1 1c0,0 0,0 0,1 0,0 0,0 0,1l4 8c0,1 0,1 1,1l1 1c0,1 0,1 1,1l3 6c0,0 0,0 0,1 2,3 5,9 6,13l2 4c0,0 0,0 0,1l4 7c0,0 0,0 0,0l0 1c0,0 0,0 0,0 1,2 3,6 4,8 0,0 0,0 0,1 0,0 0,0 0,0l2 5c0,1 0,0 0,1l2 3c1,1 2,3 4,4l1 1c2,2 6,2 9,2 2,0 5,-1 6,-1l19 -9c0,0 0,0 1,0 1,0 1,0 1,-1l6 -3c1,0 2,-1 2,-1 0,-1 0,0 -1,-1l-2 -3c0,-1 -1,-1 -1,-2l-2 -4c0,-1 -1,-1 -1,-2l-1 -1c0,0 0,0 0,-1l-1 -2c0,0 0,0 0,-1 0,-1 -1,-1 -1,-2 0,0 0,0 0,-1 0,0 0,0 0,-1l-4 -8c0,0 0,0 0,-1l-1 -1c0,0 0,0 0,0l-7 -14c0,0 0,0 0,0 0,0 0,0 0,0 0,0 0,0 0,0 -2,-4 -4,-9 -6,-13l-7 -14c0,0 0,-1 -1,-1l-7 -14c0,-1 -1,-2 -1,-2 -1,-2 -1,-3 -2,-4 -1,-1 -3,-6 -3,-7 0,-1 0,-1 -1,0l-27 13c-3,1 -5,3 -6,6l-2 3c0,1 0,0 0,1 0,1 0,1 0,1 0,1 0,1 0,2z"/>
    <path class="fil1" d="M244 184c0,-2 2,-5 4,-6 3,-1 5,-1 7,1 4,4 2,12 -5,11 -3,-1 -5,-3 -5,-6zm-21 2c0,1 0,1 1,1l1 0c1,1 1,1 2,1l1 1c3,2 6,4 9,6 1,1 1,1 2,1l1 1c0,0 0,0 0,0l4 3c1,1 3,2 5,3l0 0c1,0 1,0 1,1 5,2 12,1 16,-2 1,0 1,-1 1,-1 0,0 0,0 1,0 1,-1 2,-3 4,-4 0,0 1,-1 1,-1 0,0 1,-1 1,-1 0,-1 1,-1 1,-1 2,-3 4,-6 6,-9 0,-1 1,-1 1,-1l7 -9c0,-1 1,-1 1,-1l4 -5c0,-1 1,-1 1,-1 0,0 1,-1 1,-1l7 -10c1,-2 3,-4 5,-7 0,0 0,0 0,-1 0,0 0,0 0,0l5 -7c0,0 0,0 0,0l0 0c2,-2 3,-4 5,-7l1 -2c1,-2 1,-4 1,-6 0,-1 0,-2 -1,-3 0,-1 -1,-3 -2,-4l0 0c0,0 0,0 0,0l0 0c-2,-4 -8,-8 -12,-10 0,0 -1,-1 -1,-1 0,0 0,0 -1,0 -2,-1 -7,-5 -9,-6l-6 -4c-1,-1 0,0 -2,0 0,1 -5,8 -6,9l-3 4c0,1 -1,1 -1,1 -2,3 -4,5 -5,7 0,0 0,0 0,1l-13 18c0,1 -1,1 -1,1l-18 26c0,1 -1,1 -1,1l-9 13c0,0 -1,1 -1,1l-5 7c0,0 -1,1 -1,2z"/>
   </g>
   <g>
    <path class="fil4" d="M83 585c5,-3 14,-2 22,-1l1 45 3 4c18,-2 6,-25 10,-49 36,-2 41,16 75,27l0 14 -55 -13 -14 124 -28 0 -6 -76 -21 -1 13 -75zm97 -29l138 1 0 110 -137 0 0 -30c23,4 28,3 27,-22 13,-2 35,-9 49,-13 28,-8 41,-6 41,-20 -9,-7 -18,-1 -30,2 -74,22 -52,21 -87,6l0 -33zm-102 118c5,61 -3,76 27,76 37,0 33,11 45,-121l15 4c4,32 -6,29 7,47l63 0c-1,6 -14,26 -18,33 -4,6 -6,11 -10,16 -5,8 -8,8 -5,18 9,4 10,2 14,-5l26 -42c1,15 -2,35 2,48 20,4 9,-15 13,-48 5,6 12,20 18,28 5,8 12,27 21,20 11,-9 -30,-53 -32,-68 81,2 69,8 69,-68 0,-80 9,-71 -47,-71 -123,0 -119,-12 -118,39 -23,-8 -14,-12 -45,-12 -12,0 -41,-4 -49,5 -5,6 -18,81 -16,91 7,10 7,8 21,9z"/>
    <path class="fil0" d="M181 590c35,16 13,16 87,-6 13,-4 22,-10 30,-2 0,14 -13,12 -41,20 -13,4 -36,12 -49,13 0,25 -4,26 -27,22l0 30 137 0 0 -110 -138 -1 0 33z"/>
    <path class="fil0" d="M106 629c-5,-5 -2,-35 -2,-44l-20 1 -13 75 21 1 6 76 28 0 14 -124 55 13 0 -14c-34,-11 -39,-29 -75,-27 -3,24 8,47 -10,49l-3 -4z"/>
    <path class="fil4" d="M84 519c-1,-16 10,-29 24,-31 14,-2 28,9 30,24 4,37 -51,41 -54,7zm14 -43c-54,20 -23,93 25,79 55,-17 26,-98 -25,-79z"/>
    <path class="fil0" d="M84 519c3,34 59,30 54,-7 -2,-15 -16,-25 -30,-24 -14,2 -25,15 -24,31z"/>
    <rect class="fil0 str0" x="5" y="422" width="381" height="381" rx="56" ry="56"/>
   </g>
  </g>
 </g>
</svg>
