<?xml version="1.0" encoding="UTF-8"?>
<!DOCTYPE svg PUBLIC "-//W3C//DTD SVG 1.1//EN" "http://www.w3.org/Graphics/SVG/1.1/DTD/svg11.dtd">
<!-- Creator: CorelDRAW X6 -->
<svg xmlns="http://www.w3.org/2000/svg" xml:space="preserve" width="786px" height="786px" version="1.1" style="shape-rendering:geometricPrecision; text-rendering:geometricPrecision; image-rendering:optimizeQuality; fill-rule:evenodd; clip-rule:evenodd"
viewBox="0 0 786 786"
 xmlns:xlink="http://www.w3.org/1999/xlink">
 <defs>
  <style type="text/css">
   <![CDATA[
    .fil1 {fill:none}
    .fil0 {fill:#5F3773}
   ]]>
  </style>
 </defs>
 <g id="Capa_x0020_1">
  <metadata id="CorelCorpID_0Corel-Layer"/>
  <g id="_237008712">
   <path class="fil0" d="M116 0l555 0c64,0 116,52 116,116l0 555c0,64 -52,116 -116,116l-555 0c-64,0 -116,-52 -116,-116l0 -555c0,-64 52,-116 116,-116zm37 523c11,125 -7,156 55,156 77,0 69,22 94,-250l31 9c7,66 -12,60 15,98l129 0c-2,11 -30,54 -38,68 -7,12 -13,22 -20,34 -10,17 -17,17 -10,37 18,8 20,5 28,-11l53 -87c2,32 -4,72 4,100 41,9 19,-31 26,-99 11,12 26,41 36,58 11,18 25,56 43,41 22,-19 -62,-110 -66,-140 168,5 143,17 143,-139 0,-164 19,-147 -98,-147 -254,0 -246,-24 -244,81 -47,-16 -30,-24 -93,-24 -24,0 -85,-7 -100,10 -11,12 -37,167 -33,188 14,20 15,16 44,18zm56 -95c-10,-9 -5,-73 -4,-92l-42 1c11,-6 29,-4 44,-2l2 93zm-16 -316c-111,42 -48,192 51,162 113,-34 54,-202 -51,-162z"/>
   <path class="fil1" d="M162 338c11,-6 29,-4 44,-2l2 93 7 9c37,-4 13,-51 20,-100 75,-5 85,34 156,56l0 29 -114 -27 -29 256 -57 0 -13 -157 -44 -2 28 -154zm201 -59l285 1 -1 227 -284 0 0 -62c48,8 58,6 57,-46 27,-4 73,-20 100,-28 58,-17 85,-13 84,-41 -18,-15 -36,-3 -62,5 -153,45 -107,44 -179,12l0 -68zm-210 244c11,125 -7,156 55,156 77,0 69,22 94,-250l31 9c7,66 -12,60 15,98l129 0c-2,11 -30,54 -38,68 -7,12 -13,22 -20,34 -10,17 -17,17 -10,37 18,8 20,5 28,-11l53 -87c2,32 -4,72 4,100 41,9 19,-31 26,-99 11,12 26,41 36,58 11,18 25,56 43,41 22,-19 -62,-110 -66,-140 168,5 143,17 143,-139 0,-164 19,-147 -98,-147 -254,0 -246,-24 -244,81 -47,-16 -30,-24 -93,-24 -24,0 -85,-7 -100,10 -11,12 -37,167 -33,188 14,20 15,16 44,18z"/>
   <path class="fil0" d="M363 347c72,32 26,33 179,-12 26,-8 44,-20 62,-5 0,28 -27,24 -84,41 -28,8 -74,24 -100,28 1,52 -9,54 -57,46l0 62 284 0 1 -227 -285 -1 0 68z"/>
   <path class="fil0" d="M209 428c-10,-9 -5,-73 -4,-92l-42 1 -28 154 44 2 13 157 57 0 29 -256 114 27 0 -29c-71,-22 -80,-60 -156,-56 -7,50 17,96 -20,100l-7 -9z"/>
   <path class="fil1" d="M164 201c-3,-34 21,-61 50,-64 30,-3 59,19 62,49 9,77 -106,85 -112,15zm29 -88c-111,42 -48,192 51,162 113,-34 54,-202 -51,-162z"/>
   <path class="fil0" d="M164 201c6,70 121,62 112,-15 -4,-31 -33,-53 -62,-49 -29,3 -53,30 -50,64z"/>
  </g>
 </g>
</svg>
