<?xml version="1.0" encoding="UTF-8"?>
<!DOCTYPE svg PUBLIC "-//W3C//DTD SVG 1.1//EN" "http://www.w3.org/Graphics/SVG/1.1/DTD/svg11.dtd">
<!-- Creator: CorelDRAW X6 -->
<svg xmlns="http://www.w3.org/2000/svg" xml:space="preserve" width="800px" height="800px" version="1.1" style="shape-rendering:geometricPrecision; text-rendering:geometricPrecision; image-rendering:optimizeQuality; fill-rule:evenodd; clip-rule:evenodd"
viewBox="0 0 800 800"
 xmlns:xlink="http://www.w3.org/1999/xlink">
 <defs>
  <style type="text/css">
   <![CDATA[
    .fil0 {fill:#5F3773}
   ]]>
  </style>
 </defs>
 <g id="Capa_x0020_1">
  <metadata id="CorelCorpID_0Corel-Layer"/>
  <g id="_598091840">
   <path class="fil0" d="M118 0l565 0c65,0 118,53 118,118l0 565c0,65 -53,118 -118,118l-565 0c-65,0 -118,-53 -118,-118l0 -565c0,-65 53,-118 118,-118zm595 587l0 -3c-2,-3 -16,-13 -20,-16 -7,-5 -13,-10 -20,-15 -7,-5 -13,-10 -20,-15l-20 -15c-1,2 -2,6 -6,12 -5,7 -11,13 -18,16 -4,2 -9,3 -13,4 -2,7 -2,11 -6,17 -1,2 -2,3 -3,5 1,1 2,3 3,4 11,15 23,31 34,46 1,2 5,7 7,8 4,1 6,-4 7,-7 1,-2 14,-29 15,-29 1,-1 44,-7 50,-8 2,0 4,-1 6,-1 4,-1 3,-1 5,-3zm-215 124l2 0c0,0 0,0 0,0 0,1 0,0 1,-1l9 -10c7,-9 17,-20 24,-30l5 -6 34 2c12,1 8,-4 1,-21 -2,-4 -21,-49 -22,-51 -4,0 -7,0 -11,-1 -4,-1 -7,-2 -10,-3 -1,2 -6,7 -8,9 -3,2 -6,4 -11,6 -11,4 -18,3 -30,1 0,8 2,19 3,27l9 73c0,3 1,3 3,5zm-312 -491c-2,1 -3,-1 -3,4 0,6 7,4 15,5 41,4 95,22 124,49 2,2 5,6 9,3 14,-9 -54,-42 -59,-44 -13,-5 -25,-10 -40,-13 -8,-2 -40,-8 -47,-5zm377 111c9,-1 13,-2 10,-9 -9,-4 -30,0 -49,5 -2,-2 -4,-5 -6,-6 -2,-2 -5,-3 -8,-5 -4,-2 -9,-3 -10,-3l-8 0c-4,2 -7,0 -17,7 -4,2 -9,9 -11,14 -2,-1 -4,-3 -9,-5 -6,-2 -13,-3 -19,-2 2,-2 4,-3 5,-4 16,-12 32,-21 51,-28 13,-5 27,-9 42,-12 21,-4 46,-2 39,-12 -4,-6 -39,2 -47,3 -36,8 -63,21 -92,41 -8,6 -14,9 -10,15 0,0 1,1 1,1 -12,6 -20,19 -18,35 -8,-1 -15,1 -21,4l0 -166c0,-23 -2,-17 14,-31 48,-41 118,-68 185,-69 35,-1 29,-2 29,30 1,78 0,160 0,239l0 4c-7,-8 -18,-13 -30,-12 1,-18 -8,-31 -21,-37zm32 99c0,-2 -1,-3 -1,-5 0,1 1,3 1,5zm-1 -5c0,-1 0,-1 -1,-2 0,1 0,1 1,2zm-2 -5c-1,-2 -2,-4 -3,-6 1,2 2,4 3,6zm-3 -7l-1 -2c0,1 1,1 1,2zm-4 -7c-1,-2 -2,-4 -4,-6 1,2 3,4 4,6zm-5 -8c-1,-2 -3,-3 -4,-5 1,2 3,3 4,5zm-17 -19c-1,0 -1,-1 -2,-1 1,0 1,1 2,1zm-2 -2c-2,-2 -5,-4 -7,-6 3,2 5,4 7,6zm-10 -7c-3,-2 -6,-3 -8,-5 3,2 6,3 8,5zm-9 -5c-3,-2 -6,-3 -9,-4 3,1 6,3 9,4zm-11 -5c-1,0 -1,-1 -2,-1 1,0 1,0 2,1zm-2 -1c-3,-1 -6,-2 -9,-3 3,1 6,2 9,3zm-12 -3c-8,-2 -16,-3 -25,-2 8,0 17,1 25,2zm-25 -2c-3,0 -7,0 -10,1 3,0 7,-1 10,-1zm-10 1c-1,0 -2,0 -2,0 1,0 2,0 2,0zm-3 0c-3,1 -7,1 -10,2 3,-1 7,-2 10,-2zm-55 -73c7,2 7,-1 17,-9 25,-19 61,-35 93,-40l36 -5c3,-1 5,-5 2,-8 -4,-4 -40,3 -47,4 -15,3 -27,7 -40,13 -19,8 -35,17 -51,29 -5,4 -13,7 -10,15zm-238 -11c-2,1 -3,0 -3,4 0,6 6,4 15,5 22,2 45,7 65,15 13,5 24,11 36,17 13,8 28,23 32,19 7,-5 -6,-13 -8,-14 -5,-4 -10,-7 -15,-11 -26,-15 -46,-24 -76,-31 -8,-2 -41,-8 -47,-5zm0 51c-4,2 -3,7 1,8l36 4c27,6 54,15 77,29 6,4 11,7 16,11 3,3 12,12 17,9 9,-6 -17,-22 -23,-25 -23,-15 -48,-25 -76,-31 -8,-2 -41,-9 -47,-5zm387 -145c4,-12 -9,-8 -17,-8 -8,1 -16,2 -24,3 -40,8 -74,24 -105,49 -8,6 -3,15 7,7l22 -16c62,-37 103,-30 117,-36zm-389 0c3,2 36,5 44,7 27,6 50,15 73,29l22 16c3,3 5,4 10,2 3,-8 -5,-11 -10,-15 -17,-13 -33,-22 -54,-30 -12,-5 -28,-10 -42,-13 -8,-2 -16,-3 -24,-4 -6,-1 -22,-5 -19,7zm445 256c0,-2 1,-3 1,-5 2,-17 0,-120 0,-146 0,-49 -1,-97 0,-146 5,-1 18,0 21,2 4,3 2,14 2,19l0 273c0,46 5,44 -19,41 2,-4 3,-9 3,-14 0,-8 -3,-15 -6,-20 -1,-1 -1,-2 -2,-3zm-525 -296c4,-2 15,-2 22,-2 -1,55 0,111 0,166 0,28 0,56 0,84 0,24 -7,61 21,61 66,0 120,11 174,45 4,3 15,9 18,13 -6,-2 -12,-5 -18,-8 -46,-19 -96,-29 -147,-29 -78,0 -72,17 -72,-15 0,-7 0,-14 0,-21 0,-39 -2,-283 1,-293zm459 280c0,0 0,1 0,1 0,0 0,-1 0,-1zm-420 -292c0,-8 -2,-18 4,-20 8,-2 37,0 46,1 64,7 128,33 169,72 6,6 9,4 9,15 -1,64 0,130 0,195 -3,8 -4,18 0,27l0 10c-4,2 -6,3 -10,9 -6,8 -6,14 -7,17l0 8c2,5 1,10 7,18 3,4 5,6 10,9l0 0 0 9c-1,2 -2,5 -2,8l-18 -13c-20,-14 -44,-28 -68,-37 -73,-30 -124,-21 -136,-23 -5,-1 -4,-4 -4,-9l0 -176 0 -121zm-16 -5c-46,1 -39,9 -39,56l0 190c0,31 1,64 0,94 -1,35 25,27 42,25 78,-9 165,8 232,48 10,6 15,8 23,6 6,4 14,6 23,6 -1,25 17,41 37,39 11,-1 15,-5 19,-7 3,6 6,10 12,15 16,11 36,8 48,-6 2,-3 3,-5 5,-8 6,3 8,6 19,7 8,1 15,-2 21,-5 10,-6 19,-18 17,-34 25,1 40,-17 39,-37 0,-4 -1,-8 -2,-10 -1,-4 -3,-6 -5,-9 0,0 3,-1 5,-3 18,3 35,6 44,-6 4,-6 4,-11 4,-20l0 -285c0,-12 2,-37 -3,-45 -9,-13 -19,-9 -36,-10 0,-8 1,-14 -3,-20 -9,-15 -37,-11 -58,-9 -64,5 -132,30 -179,71 -3,2 -10,9 -12,10 -24,-19 -19,-18 -53,-39 -17,-11 -41,-21 -63,-28 -21,-7 -52,-13 -76,-15 -20,-1 -48,-6 -57,10 -3,6 -3,12 -3,19zm291 402l0 0m3 3c2,2 3,3 5,5 -2,-2 -3,-3 -5,-5zm9 9c1,1 2,2 3,3 -1,-1 -2,-2 -3,-3zm3 3c1,1 1,1 2,2 -1,-1 -1,-1 -2,-2zm2 2c1,1 1,1 2,2 -1,-1 -1,-1 -2,-2z"/>
   <path class="fil0" d="M394 461c2,55 49,100 107,98 55,-3 100,-49 98,-107 -3,-75 -84,-120 -148,-87 -13,6 -14,8 -23,16 -2,2 -4,4 -6,6 -16,18 -29,41 -27,75zm80 26l-14 -12c-1,-1 -1,-1 -2,-2l-9 -8c-2,-1 -5,-4 -7,-6 -12,-8 -25,7 -15,17l30 27c6,5 12,12 18,12 8,0 11,-7 17,-13 3,-3 15,-16 19,-20l9 -9c5,-6 11,-12 17,-18 4,-5 12,-13 17,-18 6,-7 15,-13 10,-22 -2,-3 -5,-7 -11,-6 -6,0 -8,4 -11,7l-6 7c-1,1 -1,1 -2,2l-59 63z"/>
  </g>
 </g>
</svg>
