<?xml version="1.0" encoding="UTF-8"?>
<!DOCTYPE svg PUBLIC "-//W3C//DTD SVG 1.1//EN" "http://www.w3.org/Graphics/SVG/1.1/DTD/svg11.dtd">
<!-- Creator: CorelDRAW X6 -->
<svg xmlns="http://www.w3.org/2000/svg" xml:space="preserve" width="810px" height="828px" version="1.1" style="shape-rendering:geometricPrecision; text-rendering:geometricPrecision; image-rendering:optimizeQuality; fill-rule:evenodd; clip-rule:evenodd"
viewBox="0 0 810 828"
 xmlns:xlink="http://www.w3.org/1999/xlink">
 <defs>
  <style type="text/css">
   <![CDATA[
    .str0 {stroke:#5F3773;stroke-width:10.0004}
    .fil0 {fill:none}
    .fil1 {fill:#5F3773}
   ]]>
  </style>
 </defs>
 <g id="Capa_x0020_1">
  <metadata id="CorelCorpID_0Corel-Layer"/>
  <g id="_598089704">
   <g>
    <rect class="fil0 str0" x="20" y="440" width="382" height="382" rx="56" ry="56"/>
    <g>
     <path class="fil1" d="M321 645l0 0c1,-8 0,-57 0,-70 0,-23 0,-47 0,-70 3,0 9,0 10,1 2,1 1,7 1,9l0 130 0 1 0 0 0 1 0 1 0 0 0 1 0 0 0 1 0 0 0 1 0 0 0 0 0 1 0 0 0 1 0 0 0 1 0 0 0 0 0 0 0 0 0 1 0 0 0 1 0 0 0 0 0 0 0 0 0 0 0 0 0 1 0 0 0 0 0 0 0 0 0 0 0 0c0,0 0,1 0,1l0 0 0 0 0 0 0 0 0 0 0 0 0 0 0 0 0 0 0 0 0 0 0 0 0 0 0 0 0 0 0 0 0 0 0 0 0 0 0 0 0 0c0,1 -1,1 -1,1l0 0 0 0 0 0c0,0 -1,0 -1,0 0,0 -1,0 -1,0l0 0 0 0 0 0 0 0 0 0 0 0 0 0 0 0 0 0c-2,4 -4,6 -6,7 8,1 14,2 18,-3 2,-3 2,-5 2,-10l0 -136c0,-6 1,-18 -2,-21 -4,-6 -9,-4 -17,-5 0,-4 0,-7 -1,-10 -5,-7 -18,-5 -28,-4 -31,3 -63,14 -86,34 -1,1 -5,4 -6,5 -12,-9 -9,-9 -25,-19 -8,-5 -20,-10 -30,-13 -10,-3 -25,-6 -37,-7 -10,-1 -23,-3 -27,5 -2,3 -1,6 -1,9 -22,0 -18,4 -19,27l0 91c0,15 1,30 0,45 -1,17 12,13 20,12 37,-4 79,4 111,23 6,3 8,4 13,2 -4,-3 -7,-9 -6,-14 0,-4 2,-6 3,-9l-2 -1c-1,-1 -2,-1 -3,-2l0 0 0 0 0 0 0 0 0 0 0 0 0 0 0 0 0 0 0 0 0 0 0 0 0 0 0 0 0 0 0 0 0 0 0 0 0 0 0 0 0 0 0 0 0 0 0 0 0 0 0 0 0 0 0 0 0 0 0 0 0 0 0 0 0 0 0 0 0 0 0 0 0 0 0 0 0 0 0 0 0 0 0 0 0 0 0 0 0 0 0 0 0 0 0 0 0 0 0 0 0 0 0 0 0 0 0 0 0 0 0 0 0 0 0 0 0 0 0 0 0 0 0 0 0 0 0 0 0 0 0 0 0 0 0 0 -10 -7c-9,-7 -21,-13 -32,-18 -35,-14 -59,-10 -65,-11 -2,0 -2,-2 -2,-4l0 -84 0 -58c0,-4 -1,-9 2,-9 4,-1 18,0 22,1 31,3 61,16 81,34 3,3 4,2 4,7l0 2 0 1 0 1 0 1 0 1 0 2 0 0 0 2 0 0 0 1 0 1 0 1 0 2 0 0 0 2 0 0 0 1 0 1 0 1 0 2 0 0 0 2 0 0 0 1 0 2 0 1 0 0 0 2 0 0 0 2 0 1 0 1 0 1 0 0 0 2 0 0 0 2 0 2 0 1 0 1 0 4 0 1 0 1 0 1 0 1 0 2 0 0 0 2 0 1 0 1 0 1 0 1 0 2 0 0 0 2 0 0 0 1 0 1 0 1 0 2 0 0 0 2 0 0 0 1 0 1 0 1 0 1 0 0 0 2 0 0 0 2 0 1 0 1 0 1 0 0 0 2 0 0 0 2 0 1 0 1 0 1 0 0 0 2 0 0 0 2 0 1 0 1 0 1 0 1 0 2 0 0 0 2 0 1 0 1 0 1 0 1 0 2 0 0 0 2 0 1 0 1 0 1 0 2 0 0 0 2 0 0 0 1c1,-2 3,-2 5,-3 0,-1 -1,-1 -1,-2 -4,-8 -2,-16 4,-21l0 -82c0,-11 -1,-8 7,-15 23,-20 57,-32 89,-33 17,0 14,-1 14,15l0 2 0 0 0 2 0 0 0 2 0 0 0 2 0 0 0 2 0 0 0 2 0 0 0 2 0 0 0 2 0 0 0 2 0 0 0 2 0 0 0 2 0 0 0 2 0 0 0 2 0 0 0 2 0 0 0 2 0 0 0 2 0 0 0 2 0 0 0 2 0 0 0 2 0 0 0 2 0 0 0 2 0 0 0 2 0 0 0 2 0 0 0 2 0 0 0 2 0 0 0 2 0 0 0 2 0 0 0 2 0 0 0 2 0 0 0 2 0 0 0 2 0 0 0 2 0 0 0 2 0 0 0 2 0 0 0 2 0 0 0 2 0 0 0 1 0 0 0 1 0 0 0 1 0 0 0 1 0 0 0 1 0 0 0 1 0 0 0 1 0 0 0 1 0 0 0 1 0 0 0 1 0 0 0 1 0 0 0 1 0 0 0 1 0 0 0 1 0 0 0 1 0 0 0 1 0 0 0 1 0 0 0 1 0 0 0 1 0 0 0 1 0 0 0 1 0 0 0 1 0 0 0 1 0 0 0 1 0 0 0 1 0 0 0 1 0 1 0 1 0 1 0 1c5,3 8,9 7,15 0,5 -3,8 -3,9 1,0 1,1 2,1 1,0 1,1 1,1zm-252 -139c-1,5 0,122 -1,140 0,3 0,7 0,10 0,16 -3,7 35,7 24,0 48,5 70,14 3,1 6,3 9,4 -2,-2 -7,-5 -9,-6 -26,-16 -52,-21 -83,-21 -13,0 -10,-18 -10,-29 0,-13 0,-27 0,-40 0,-26 -1,-53 0,-80 -3,0 -9,0 -11,1z"/>
     <path class="fil1" d="M108 525c2,1 17,2 21,3 13,3 24,7 35,14l11 8c1,1 2,2 5,1 1,-4 -2,-5 -5,-7 -8,-6 -16,-10 -26,-14 -6,-2 -14,-5 -20,-6 -4,-1 -8,-1 -11,-2 -3,0 -10,-2 -9,3z"/>
     <path class="fil1" d="M294 525c2,-6 -4,-4 -8,-4 -4,0 -8,1 -12,2 -19,4 -35,12 -50,23 -4,3 -1,7 3,3l11 -8c30,-18 49,-14 56,-17z"/>
     <path class="fil1" d="M108 594c-2,1 -1,3 0,4l17 2c13,3 26,7 37,14 3,2 5,3 8,5 2,1 6,6 8,4 4,-3 -8,-10 -11,-12 -11,-7 -23,-12 -36,-15 -4,-1 -20,-4 -23,-2z"/>
     <path class="fil1" d="M223 599c2,2 6,-2 8,-4 7,-6 15,-10 24,-13 6,-2 13,-4 20,-6 10,-2 22,-1 19,-6 -2,-3 -19,1 -22,2 -17,4 -30,10 -44,20 -4,3 -7,4 -5,7z"/>
     <path class="fil1" d="M109 570c-1,1 -1,0 -1,2 0,3 3,2 7,2 11,1 22,4 31,7 6,2 12,5 17,8 6,4 13,11 16,9 4,-2 -3,-6 -4,-7 -2,-2 -5,-4 -7,-5 -12,-7 -22,-11 -36,-15 -4,-1 -20,-4 -22,-2z"/>
     <path class="fil1" d="M223 575c3,1 3,-1 8,-4 12,-9 29,-17 45,-19l17 -2c1,0 3,-2 1,-4 -2,-2 -19,1 -22,2 -7,2 -13,3 -19,6 -9,4 -17,8 -25,14 -2,2 -6,3 -5,7z"/>
     <path class="fil1" d="M223 623c2,1 3,1 4,-1 8,-7 18,-12 28,-17 6,-3 13,-4 20,-6 14,-3 21,0 18,-6 -8,-3 -35,5 -42,8 -6,2 -12,5 -17,9 -3,2 -5,3 -8,5 -4,3 -7,4 -5,7z"/>
     <path class="fil1" d="M109 546c-1,1 -1,0 -1,2 0,3 3,2 7,2 20,2 45,11 59,24 1,1 2,3 4,1 7,-4 -26,-20 -28,-21 -6,-3 -12,-5 -19,-6 -4,-1 -19,-4 -22,-2z"/>
     <g>
      <path class="fil1" d="M192 657l0 4c1,2 0,5 3,8 2,2 3,3 5,4l2 1c-2,3 -3,5 -3,9 -1,10 7,19 19,18 -1,12 8,19 18,19 5,0 7,-2 9,-3 2,3 3,5 6,7 8,5 17,4 23,-3 1,-1 1,-2 2,-4 3,1 4,3 9,3 4,0 7,-1 10,-2 5,-3 9,-8 8,-16 12,1 19,-8 19,-18 0,-2 0,-4 -1,-5 -1,-2 -1,-3 -2,-4 1,-1 10,-4 10,-16 0,-4 -1,-7 -3,-10 -1,-1 -2,-3 -3,-3 -1,0 -1,-1 -2,-1 -1,0 -1,-1 -2,-1 0,-1 3,-4 3,-9 1,-10 -8,-19 -19,-18 1,-15 -13,-23 -25,-17 -1,0 -1,1 -2,1 -1,-3 -3,-5 -5,-7 -1,-1 -2,-2 -4,-2 -2,-1 -5,-1 -5,-1l-4 0c-2,1 -3,0 -8,3 -2,1 -4,4 -5,7 -1,0 -2,-1 -4,-2 -11,-4 -24,5 -23,18 -14,-1 -23,13 -17,25 0,1 1,1 1,2 -3,2 -4,2 -7,5 -3,4 -3,7 -4,8zm82 -13c0,0 1,-1 1,-1l3 -3c1,-1 2,-3 5,-3 3,0 4,1 5,3 2,5 -2,7 -5,10 -2,2 -6,6 -8,8 -3,3 -5,6 -8,9l-4 4c-2,2 -7,8 -9,10 -3,3 -5,6 -8,6 -3,0 -6,-4 -9,-6l-14 -13c-5,-5 2,-12 7,-8 1,1 3,2 3,3l4 4c0,0 1,1 1,1l7 6 28 -30zm-66 17c1,26 24,48 51,47 26,-1 48,-23 47,-51 -2,-36 -40,-57 -71,-42 -6,3 -7,4 -11,7 -1,1 -2,2 -3,3 -7,8 -14,20 -13,36z"/>
      <path class="fil1" d="M258 780l1 0c0,0 0,0 0,0 0,0 0,0 1,0l4 -5c3,-4 8,-10 11,-14l2 -3 16 1c6,0 4,-2 0,-10 -1,-2 -10,-23 -11,-24 -2,0 -3,0 -5,0 -2,0 -3,-1 -5,-1 0,1 -3,3 -4,4 -1,1 -3,2 -5,3 -5,2 -9,1 -14,0 0,4 1,9 2,13l4 35c0,2 0,2 1,2z"/>
      <path class="fil1" d="M360 721l0 -1c-1,-1 -8,-6 -9,-7 -3,-2 -6,-5 -10,-7 -3,-2 -6,-5 -10,-7l-10 -7c0,1 -1,3 -3,6 -2,3 -5,6 -9,8 -2,1 -4,2 -6,2 -1,3 -1,5 -3,8 0,1 -1,2 -1,2 0,1 1,1 1,2 5,7 11,15 16,22 1,1 2,4 3,4 2,1 3,-2 4,-3 1,-1 7,-14 7,-14 0,0 21,-3 24,-4 1,0 2,0 3,0 2,0 1,0 2,-1z"/>
     </g>
     <path class="fil1" d="M246 674l-7 -6c0,0 -1,-1 -1,-1l-4 -4c-1,-1 -2,-2 -3,-3 -6,-4 -12,4 -7,8l14 13c3,2 6,6 9,6 4,0 5,-3 8,-6 2,-1 7,-8 9,-10l4 -4c3,-3 5,-6 8,-9 2,-2 6,-6 8,-8 3,-3 7,-6 5,-10 -1,-2 -3,-3 -5,-3 -3,0 -4,2 -5,3l-3 3c0,0 -1,1 -1,1l-28 30z"/>
    </g>
   </g>
   <g>
    <rect class="fil0 str0" x="423" y="139" width="382" height="382" rx="56" ry="56"/>
    <path class="fil1" d="M651 461c-1,-1 -21,-22 -23,-24 6,-11 8,-3 15,2l10 8c12,-10 39,-41 47,-45 0,0 1,0 1,0 0,0 0,0 1,0 6,6 3,6 -9,18l-27 26c-4,4 -9,11 -14,13zm-36 -29c0,30 25,55 49,55 13,0 18,1 30,-5 6,-3 10,-6 15,-11 33,-33 10,-93 -39,-93 -30,0 -55,25 -55,55z"/>
    <path class="fil1" d="M503 234l0 217c0,24 34,19 45,19 21,0 43,0 64,0 -1,-3 -5,-10 -6,-13 -16,0 -31,0 -47,0 -11,0 -42,4 -42,-6l0 -214c0,-3 1,-3 1,-5l33 -2c0,-17 5,-14 -29,-14 -10,0 -19,9 -19,19z"/>
    <path class="fil1" d="M607 195c0,5 4,12 6,16l-19 0c4,-8 15,-20 -4,-20 1,-6 4,-4 12,-4 5,0 11,0 16,0 -1,7 0,1 -11,9zm-28 -5c0,6 4,9 9,11 -2,4 -4,6 -5,11 -26,0 -23,-4 -23,25 0,3 2,4 4,4 15,0 68,1 79,-1 0,-31 5,-28 -18,-28 -1,-5 -3,-6 -4,-11 14,-7 10,-25 -7,-25 -13,0 -34,-5 -34,14z"/>
    <path class="fil1" d="M653 227c0,5 9,3 18,3 9,0 14,-2 15,6 1,13 0,30 0,44 0,29 0,58 0,87 6,1 9,4 15,4l0 -124c0,-38 -14,-32 -48,-32l0 12z"/>
    <path class="fil1" d="M578 322c0,5 -1,9 6,9l83 0c7,0 7,-13 0,-13l-83 0c-3,0 -6,1 -6,4z"/>
    <path class="fil1" d="M578 276c0,3 -1,8 4,8l85 0c6,0 9,-13 -2,-13l-81 0c-3,0 -5,3 -5,5z"/>
    <path class="fil1" d="M578 369c0,3 1,8 5,8l45 0c4,0 9,-4 13,-6 3,-2 9,-5 11,-7l-71 0c-1,2 -3,3 -3,5z"/>
    <path class="fil1" d="M538 324c0,-14 20,-14 20,0 0,13 -20,13 -20,0zm10 17c25,0 22,-34 3,-34l-5 0c-19,0 -20,34 2,34z"/>
    <path class="fil1" d="M538 418c0,-13 20,-14 20,0 0,13 -20,13 -20,0zm9 17c26,0 25,-34 1,-34 -24,0 -20,34 -1,34z"/>
    <path class="fil1" d="M538 370c0,-13 20,-12 20,-1 0,16 -20,15 -20,1zm28 1c0,-9 -8,-18 -17,-18 -28,0 -20,43 6,34 6,-2 11,-10 11,-15z"/>
    <path class="fil1" d="M538 277c0,-13 20,-13 20,0 0,14 -20,14 -20,0zm8 17c6,0 10,0 15,-5 12,-13 0,-29 -12,-29 -24,0 -22,34 -3,34z"/>
    <path class="fil1" d="M578 415c0,11 5,9 21,9 4,0 5,-8 5,-13 -6,0 -27,-3 -27,4z"/>
   </g>
   <g>
    <rect class="fil0 str0" x="5" y="5" width="382" height="382" rx="56" ry="56"/>
    <path class="fil1" d="M66 333c1,1 2,2 3,3 3,4 12,3 18,3l171 0c9,0 13,1 18,-3 4,-4 6,-7 6,-15 0,-35 1,-73 0,-108 -1,-2 -1,-11 0,-13l0 -6c-2,1 -2,1 -3,2 -1,1 -2,2 -3,3 -2,2 -4,3 -5,6 0,1 0,1 0,1l0 113c0,10 -1,9 -14,9 -22,0 -178,1 -181,0 -5,-2 -3,-13 -3,-19l0 -227c0,-8 -2,-17 5,-18 4,-1 112,0 131,0 2,0 4,0 5,1 2,-1 2,-1 5,-1 2,0 3,0 5,0l18 0c3,0 7,-1 10,0 3,0 10,0 13,0 5,1 5,2 5,8l0 78 1 1c3,-4 7,-7 11,-11 0,-10 1,-69 0,-73 -3,-14 -15,-13 -24,-13 -16,0 -180,-1 -184,0 -2,1 -5,2 -6,3 -7,6 -6,13 -6,21l0 240c0,7 0,12 3,16z"/>
    <path class="fil1" d="M182 270c-1,-1 -1,-1 -2,-1 1,-3 3,-6 4,-9 1,-2 3,-7 4,-10l1 0c1,2 9,11 11,11 -1,1 -17,8 -18,8zm26 -15l-13 -13 80 -80c1,3 4,5 6,7 2,2 4,5 7,6l-80 80zm87 -113c1,2 0,0 1,2l9 9c0,0 1,1 1,1 1,1 1,1 2,2l-13 13 -13 -13 13 -13zm10 -4l6 -6c2,1 2,1 3,3 0,0 0,0 1,1l3 3 -6 6 -6 -6zm-22 1c-3,4 -8,7 -11,11l-1 -1c0,2 -1,3 -3,4 -1,1 -2,2 -3,3l-79 79c-10,10 -6,4 -12,17l-6 15c-1,4 0,4 1,6l-8 8c-1,1 0,0 -1,1 0,2 1,3 3,4 1,1 2,3 4,4l10 -10c8,2 2,1 15,-4 3,-1 5,-2 8,-3 11,-5 8,-4 18,-14 6,-6 51,-52 54,-54l0 -1c1,-3 3,-4 5,-6 1,-1 2,-2 3,-3 1,-1 1,-2 3,-2l21 -21 3 3 -24 24c-1,2 -1,11 0,13 3,0 10,-8 12,-10l23 -23c5,-6 -4,-10 -6,-14 3,-5 10,-7 6,-14 1,-1 10,-9 11,-11 2,-3 0,-6 -2,-7l-11 -11c-2,-2 -4,-4 -8,-3 -2,1 -8,9 -11,11 -8,-2 -4,-1 -14,8z"/>
    <path class="fil1" d="M91 159l133 0c3,0 2,-3 2,-9 0,-1 0,-2 -2,-2l-133 0 0 10z"/>
    <path class="fil1" d="M91 186c0,1 0,2 2,2l131 0c3,0 2,-3 2,-9 0,-1 0,-2 -2,-2l-133 0 0 9z"/>
    <path class="fil1" d="M215 65c0,13 0,26 0,39 0,9 6,9 10,5 3,-3 8,-7 10,-10l10 10c2,2 3,4 7,2 2,-1 3,-4 3,-7 0,-13 0,-26 0,-40 -3,-1 -7,-1 -10,0l0 29c-6,-4 -7,-11 -14,-3 -1,1 -3,3 -4,4 1,-6 1,-24 0,-30 -2,0 -3,0 -5,0 -3,0 -3,0 -5,1z"/>
    <polygon class="fil1" points="91,216 178,216 178,205 91,205 "/>
    <path class="fil1" d="M91 122l0 9 49 0c0,-7 1,-10 -2,-10l-45 0c-1,0 -2,0 -2,2z"/>
    <path class="fil1" d="M70 336c-1,-1 -2,-2 -3,-3 1,2 2,3 3,3z"/>
    <path class="fil1" d="M112 275l-7 -7c0,0 -1,-1 -1,-1l-5 -4c-1,-1 -2,-2 -4,-3 -6,-5 -13,4 -8,9l16 14c3,3 6,7 10,7 4,0 6,-4 9,-7 2,-2 8,-9 10,-11l5 -5c3,-3 6,-6 9,-10 2,-3 7,-7 9,-10 3,-4 8,-7 5,-12 -1,-2 -3,-4 -6,-3 -3,0 -4,2 -6,4l-3 4c0,0 -1,1 -1,1l-32 34z"/>
   </g>
  </g>
 </g>
</svg>
