<?xml version="1.0" encoding="UTF-8"?>
<!DOCTYPE svg PUBLIC "-//W3C//DTD SVG 1.1//EN" "http://www.w3.org/Graphics/SVG/1.1/DTD/svg11.dtd">
<!-- Creator: CorelDRAW X6 -->
<svg xmlns="http://www.w3.org/2000/svg" xml:space="preserve" width="810px" height="810px" version="1.1" style="shape-rendering:geometricPrecision; text-rendering:geometricPrecision; image-rendering:optimizeQuality; fill-rule:evenodd; clip-rule:evenodd"
viewBox="0 0 810 810"
 xmlns:xlink="http://www.w3.org/1999/xlink">
 <defs>
  <style type="text/css">
   <![CDATA[
    .str0 {stroke:#5F3773;stroke-width:10.0004}
    .fil0 {fill:none}
    .fil1 {fill:#5F3773}
   ]]>
  </style>
 </defs>
 <g id="Capa_x0020_1">
  <metadata id="CorelCorpID_0Corel-Layer"/>
  <g id="_598083704">
   <rect class="fil0 str0" x="5" y="5" width="800" height="800" rx="118" ry="118"/>
   <g>
    <path class="fil1" d="M635 434l0 0c2,-17 0,-120 0,-146 0,-49 -1,-97 0,-146 5,-1 18,0 21,2 4,3 2,14 2,19l0 273 0 2 0 1 0 1 0 1 0 1 0 2 0 0 0 2 0 0 0 1 0 1 0 1 0 1 0 0 0 1 0 0 0 1 0 1 0 1 0 1 0 0 0 1 0 0 0 1 0 0 0 1 0 1 0 1 0 1 0 0 0 1 0 0 0 1 0 0 0 1 0 1 0 0c0,1 0,2 0,3l0 0 0 0 0 0 0 1 0 1 0 0 0 1 0 0 0 0 0 0 0 1 0 1 0 0 0 0 0 0 0 0 0 0 0 0 0 0 0 0 0 0c-1,1 -1,2 -2,3l0 0 0 0 0 0c-1,0 -2,0 -3,0 -1,0 -2,0 -3,0l0 0 0 0 -1 0 0 0 -1 0 0 0 -1 0 0 0 0 0c-4,8 -9,12 -13,15 16,2 30,4 38,-7 4,-6 4,-11 4,-20l0 -285c0,-12 2,-37 -3,-45 -9,-13 -19,-9 -36,-10 0,-8 1,-14 -3,-20 -9,-15 -37,-11 -58,-9 -64,5 -132,30 -179,71 -3,2 -10,9 -12,10 -24,-19 -19,-18 -53,-39 -17,-11 -41,-21 -63,-28 -21,-7 -52,-13 -76,-15 -20,-1 -48,-6 -57,10 -3,6 -3,12 -3,19 -46,1 -39,9 -39,56l0 190c0,31 1,64 0,94 -1,35 25,27 42,25 78,-9 165,8 232,48 12,7 17,8 27,4 -9,-7 -14,-18 -14,-30 0,-8 3,-13 7,-19l-4 -2c-3,-2 -5,-3 -6,-5l0 0 0 0 0 0 0 0 0 0 0 0 0 0 0 0 0 0 0 0 0 0 0 0 0 0 0 0 0 0 0 0 0 0 0 0 0 0 0 0 0 0 0 0 0 0 0 0 0 0 0 0 0 0 0 0 0 0 0 0 0 0 0 0 0 0 0 0 0 0 0 0 0 0 0 0 0 0 0 0 0 0 0 0 0 0 0 0 0 0 0 0 0 0 0 0 0 0 0 0 0 0 0 0 0 0 0 0 0 0 0 0 0 0 0 0 0 0 0 0 0 0 0 0 0 0 0 0 0 0 0 0 0 0 0 0 -20 -15c-20,-14 -44,-28 -68,-37 -73,-30 -124,-21 -136,-23 -5,-1 -4,-4 -4,-9l0 -176 0 -121c0,-8 -2,-18 4,-20 8,-2 37,0 46,1 64,7 128,33 169,72 6,6 9,4 9,15l0 4 0 1 0 2 0 2 0 1 0 3 0 0 0 4 0 1 0 3 0 2 0 2 0 3 0 0 0 4 0 1 0 3 0 2 0 2 0 3 0 1 0 4 0 1 0 3 0 4 0 3 0 1 0 4 0 0 0 3 0 2 0 2 0 3 0 1 0 4 0 0 0 3 0 4 0 3 0 1 0 7 0 1 0 2 0 2 0 1 0 4 0 0 0 4 0 1 0 3 0 2 0 1 0 3 0 0 0 4 0 1 0 3 0 2 0 2 0 3 0 0 0 4 0 1 0 3 0 2 0 2 0 3 0 1 0 4 0 1 0 3 0 2 0 2 0 3 0 1 0 4 0 0 0 3 0 2 0 2 0 3 0 1 0 4 0 0 0 4 0 1 0 2 0 3 0 1 0 4 0 0 0 4 0 1 0 3 0 2 0 1 0 4 0 0 0 5 0 3 0 2 0 2 0 3 0 0 0 4 0 1 0 3c3,-3 5,-4 10,-7 -1,-1 -2,-3 -2,-4 -8,-16 -4,-34 8,-44l0 -171c0,-23 -2,-17 14,-31 48,-41 118,-68 185,-69 35,-1 29,-2 29,30l0 4 0 0 0 4 0 0 0 4 0 0 0 4 0 0 0 4 0 0 0 4 0 0 0 4 0 0 0 4 0 0 0 4 0 0 0 4 0 0 0 4 0 0 0 4 0 0 0 4 0 0 0 3 0 0 0 3 0 0 0 3 0 0 0 3 0 0 0 3 0 0 0 3 0 0 0 3 0 0 0 3 0 0 0 3 0 0 0 3 0 0 0 3 0 0 0 3 0 0 0 3 0 0 0 3 0 0 0 3 0 0 0 3 0 0 0 3 0 1 0 3 0 1 0 3 0 1 0 3 0 1 0 3 0 1 0 3 0 1 0 3 0 1 0 3 0 1 0 3 0 1 0 3 0 1 0 3 0 1 0 3 0 1 0 3 0 1 0 3 0 1 0 3 0 1 0 3 0 1 0 3 0 1 0 3 0 1 0 3 0 1 0 3 0 1 0 3 0 1 0 3 0 1 0 3 0 1 0 3 0 1 0 3 0 1 0 3 0 1 0 3 0 1 0 3 0 1 0 3 0 1 0 3 0 1 0 3 0 1 0 3 0 1 0 3 0 1 0 3 0 1 0 3c10,7 16,19 15,32 -1,11 -6,16 -7,19 1,1 3,2 4,2 1,1 2,1 3,2zm-526 -291c-3,10 -1,255 -1,293 0,7 0,14 0,21 0,33 -6,15 72,15 51,0 101,10 147,29 6,2 12,6 18,8 -3,-4 -14,-10 -18,-13 -54,-34 -109,-45 -174,-45 -28,0 -21,-37 -21,-61 0,-28 0,-56 0,-84 0,-55 -1,-111 0,-166 -7,0 -18,0 -22,2z"/>
    <path class="fil1" d="M189 182c3,2 36,5 44,7 27,6 50,15 73,29l22 16c3,3 5,4 10,2 3,-8 -5,-11 -10,-15 -17,-13 -33,-22 -54,-30 -12,-5 -28,-10 -42,-13 -8,-2 -16,-3 -24,-4 -6,-1 -22,-5 -19,7z"/>
    <path class="fil1" d="M578 182c4,-12 -9,-8 -17,-8 -8,1 -16,2 -24,3 -40,8 -74,24 -105,49 -8,6 -3,15 7,7l22 -16c62,-37 103,-30 117,-36z"/>
    <path class="fil1" d="M191 327c-4,2 -3,7 1,8l36 4c27,6 54,15 77,29 6,4 11,7 16,11 3,3 12,12 17,9 9,-6 -17,-22 -23,-25 -23,-15 -48,-25 -76,-31 -8,-2 -41,-9 -47,-5z"/>
    <path class="fil1" d="M430 337c5,5 12,-4 17,-7 16,-12 32,-21 51,-28 13,-5 27,-9 42,-12 21,-4 46,-2 39,-12 -4,-6 -39,2 -47,3 -36,8 -63,21 -92,41 -8,6 -14,9 -10,15z"/>
    <path class="fil1" d="M191 276c-2,1 -3,0 -3,4 0,6 6,4 15,5 22,2 45,7 65,15 13,5 24,11 36,17 13,8 28,23 32,19 7,-5 -6,-13 -8,-14 -5,-4 -10,-7 -15,-11 -26,-15 -46,-24 -76,-31 -8,-2 -41,-8 -47,-5z"/>
    <path class="fil1" d="M429 287c7,2 7,-1 17,-9 25,-19 61,-35 93,-40l36 -5c3,-1 5,-5 2,-8 -4,-4 -40,3 -47,4 -15,3 -27,7 -40,13 -19,8 -35,17 -51,29 -5,4 -13,7 -10,15z"/>
    <path class="fil1" d="M430 388c4,3 6,1 9,-1 17,-15 37,-26 60,-35 13,-5 27,-9 42,-12 28,-6 43,0 38,-13 -16,-6 -73,11 -88,17 -12,5 -25,11 -35,18 -5,4 -11,7 -16,11 -8,6 -14,8 -10,15z"/>
    <path class="fil1" d="M191 226c-2,1 -3,-1 -3,4 0,6 7,4 15,5 41,4 95,22 124,49 2,2 5,6 9,3 14,-9 -53,-42 -59,-44 -13,-5 -25,-10 -40,-13 -8,-2 -40,-8 -47,-5z"/>
    <g>
     <path class="fil1" d="M365 458l0 8c2,5 1,10 7,18 3,4 5,6 10,9l4 2c-3,6 -6,10 -7,19 -1,21 15,39 39,37 -1,25 17,41 37,39 11,-1 15,-5 19,-7 3,6 6,10 12,15 16,11 36,8 48,-6 2,-3 3,-5 5,-8 6,3 8,6 19,7 8,1 15,-2 21,-5 10,-6 19,-18 17,-34 25,1 40,-17 39,-37 0,-4 -1,-8 -2,-10 -1,-4 -3,-6 -5,-9 1,-1 21,-9 21,-33 0,-8 -3,-15 -6,-20 -2,-3 -4,-5 -6,-7 -1,-1 -2,-2 -4,-3 -1,-1 -3,-2 -4,-2 1,-3 6,-8 7,-19 1,-21 -16,-40 -39,-37 2,-30 -28,-48 -52,-35 -2,1 -3,2 -4,3 -2,-6 -7,-11 -11,-14 -2,-2 -5,-3 -8,-5 -4,-2 -9,-3 -10,-3l-8 0c-4,2 -7,0 -17,7 -4,2 -9,9 -11,14 -2,-1 -4,-3 -9,-5 -23,-9 -50,9 -48,37 -30,-2 -48,27 -35,52 1,1 2,3 2,4 -7,4 -8,4 -14,11 -6,8 -6,14 -7,17zm172 -27c1,-1 1,-1 2,-2l6 -7c3,-3 5,-6 11,-7 5,0 9,3 11,6 5,9 -4,15 -10,22 -4,5 -12,13 -17,18 -5,6 -11,12 -17,18l-9 9c-4,4 -16,17 -19,20 -6,6 -10,13 -17,13 -7,0 -12,-8 -18,-12l-30 -27c-10,-10 3,-26 15,-17 2,2 5,5 7,6l9 8c1,1 1,1 2,2l14 12 59 -63zm-139 36c2,55 49,100 107,98 55,-3 100,-49 98,-107 -3,-75 -84,-120 -148,-87 -13,6 -14,8 -23,16 -2,2 -4,4 -6,6 -16,18 -29,41 -27,75z"/>
     <path class="fil1" d="M503 716l2 0c0,0 0,0 0,0 0,1 0,0 1,-1l9 -10c7,-9 17,-20 24,-30l5 -6 34 2c12,1 8,-4 1,-21 -2,-4 -21,-49 -22,-51 -4,0 -7,0 -11,-1 -4,-1 -7,-2 -10,-3 -1,2 -6,7 -8,9 -3,2 -6,4 -11,6 -11,4 -18,3 -30,1 0,8 2,19 3,27l9 73c0,3 1,3 3,5z"/>
     <path class="fil1" d="M718 592l0 -3c-2,-3 -16,-13 -20,-16 -7,-5 -13,-10 -20,-15 -7,-5 -13,-10 -20,-15l-20 -15c-1,2 -2,6 -6,12 -5,7 -11,13 -18,16 -4,2 -9,3 -14,4 -2,7 -2,11 -6,17 -1,2 -2,3 -3,5 1,1 2,3 3,4 11,15 23,31 34,46 1,2 5,7 7,8 4,1 6,-4 7,-7 1,-2 14,-29 15,-29 1,-1 44,-7 50,-8 2,0 4,-1 6,-1 4,-1 3,-1 5,-3z"/>
    </g>
    <path class="fil1" d="M478 493l-14 -12c-1,-1 -1,-1 -2,-2l-9 -8c-2,-1 -5,-4 -7,-6 -12,-8 -25,7 -15,17l30 27c6,5 12,12 18,12 8,0 11,-7 17,-13 3,-3 15,-16 19,-20l9 -9c5,-6 11,-12 17,-18 4,-5 12,-13 17,-18 6,-7 15,-13 10,-22 -2,-3 -5,-7 -11,-6 -6,0 -8,4 -11,7l-6 7c-1,1 -1,1 -2,2l-59 63z"/>
   </g>
  </g>
 </g>
</svg>
