<?xml version="1.0" encoding="UTF-8"?>
<!DOCTYPE svg PUBLIC "-//W3C//DTD SVG 1.1//EN" "http://www.w3.org/Graphics/SVG/1.1/DTD/svg11.dtd">
<!-- Creator: CorelDRAW X6 -->
<svg xmlns="http://www.w3.org/2000/svg" xml:space="preserve" width="810px" height="810px" version="1.1" style="shape-rendering:geometricPrecision; text-rendering:geometricPrecision; image-rendering:optimizeQuality; fill-rule:evenodd; clip-rule:evenodd"
viewBox="0 0 810 810"
 xmlns:xlink="http://www.w3.org/1999/xlink">
 <defs>
  <style type="text/css">
   <![CDATA[
    .str0 {stroke:#5F3773;stroke-width:10.0004}
    .fil0 {fill:none}
    .fil1 {fill:#5F3773}
   ]]>
  </style>
 </defs>
 <g id="Capa_x0020_1">
  <metadata id="CorelCorpID_0Corel-Layer"/>
  <g id="_598085456">
   <rect class="fil0 str0" x="5" y="5" width="800" height="800" rx="118" ry="118"/>
   <path class="fil1" d="M133 691c2,2 5,5 7,7 6,8 24,6 38,6l358 0c18,0 27,2 38,-7 9,-8 13,-16 13,-32 0,-74 2,-153 0,-226 -1,-5 -2,-23 0,-27l0 -12c-4,1 -4,2 -7,5 -2,2 -4,4 -6,6 -4,4 -9,7 -11,13 1,2 1,1 -1,1l0 237c0,22 -3,19 -29,19 -45,0 -372,1 -379,-1 -10,-4 -7,-26 -7,-40l0 -475c0,-17 -4,-35 11,-37 9,-1 234,0 274,0 4,0 8,-1 11,1 4,-3 5,-2 11,-2 4,0 7,0 11,0l38 0c7,-1 15,-1 22,0 6,-1 21,-1 26,0 10,1 11,5 11,17l0 162 2 2c6,-8 15,-15 22,-23 0,-21 1,-144 -1,-153 -7,-29 -31,-27 -50,-27 -34,0 -377,-2 -385,1 -4,1 -10,4 -13,6 -15,12 -13,27 -13,45l0 501c0,14 0,26 7,33z"/>
   <path class="fil1" d="M374 560c-3,-2 -1,-1 -5,-2 3,-5 5,-12 8,-18 2,-5 7,-15 8,-20l2 0c1,4 20,23 24,24 -2,3 -35,16 -37,17zm54 -30l-28 -27 168 -168c2,6 9,11 13,14 4,4 9,11 14,12l-167 168zm183 -237c2,5 0,0 3,4l18 18c0,0 2,2 2,2 2,2 2,2 4,3l-27 28 -26 -27 27 -28zm22 -8l12 -13c4,2 4,2 7,6 0,0 1,1 1,1l5 5 -13 14 -13 -13zm-45 1c-7,9 -16,15 -22,23l-2 -2c0,5 -3,5 -6,8 -3,3 -5,5 -7,7l-165 165c-21,21 -13,8 -25,35l-13 31c-2,8 0,7 2,12l-17 16c-2,1 0,1 -3,2 0,5 3,6 6,9 3,3 5,5 8,8l21 -20c16,3 5,3 32,-8 5,-2 10,-4 16,-7 23,-10 16,-8 38,-29 12,-12 108,-109 113,-113l1 -1c2,-6 7,-9 11,-13 2,-2 4,-4 6,-6 3,-3 3,-4 7,-5l44 -44 6 5 -50 51c-2,4 -1,23 0,27 6,-1 20,-17 25,-22l48 -47c11,-12 -7,-22 -12,-29 6,-10 21,-14 13,-29 3,-2 21,-19 22,-22 4,-7 0,-12 -4,-16l-22 -22c-3,-3 -8,-9 -16,-6 -5,2 -17,18 -24,22 -17,-4 -8,-2 -30,17z"/>
   <path class="fil1" d="M186 327l278 0c5,0 4,-6 4,-18 0,-3 -1,-4 -4,-4l-278 0 0 22z"/>
   <path class="fil1" d="M186 383c0,3 1,4 4,4l274 0c5,0 4,-6 4,-18 0,-3 -1,-4 -4,-4l-278 0 0 18z"/>
   <path class="fil1" d="M444 130c0,27 0,55 0,82 0,18 13,19 21,11 5,-5 17,-15 20,-21l21 20c3,3 7,8 14,4 5,-2 6,-7 6,-15 0,-28 0,-55 0,-83 -7,-2 -15,-1 -22,0l0 61c-12,-8 -15,-22 -30,-7 -3,3 -5,6 -9,8 3,-12 2,-51 0,-63 -4,0 -7,0 -11,0 -6,0 -7,-1 -11,2z"/>
   <polygon class="fil1" points="186,446 367,446 367,424 186,424 "/>
   <path class="fil1" d="M186 249l0 18 102 0c0,-14 2,-22 -4,-22l-95 0c-3,0 -4,1 -4,4z"/>
   <path class="fil1" d="M140 698c-2,-2 -5,-5 -7,-7 1,4 3,6 7,7z"/>
   <path class="fil1" d="M229 570l-15 -14c-1,-1 -1,-2 -2,-2l-10 -9c-2,-2 -5,-5 -8,-7 -13,-10 -28,8 -17,19l33 30c7,5 13,14 21,14 9,0 13,-8 20,-15 4,-4 17,-18 21,-23l10 -10c6,-7 13,-13 19,-20 5,-6 14,-14 19,-20 7,-8 17,-14 11,-25 -2,-4 -6,-7 -12,-7 -7,0 -9,5 -12,8l-7 7c-1,1 -2,1 -3,2l-67 71z"/>
  </g>
 </g>
</svg>
