<?xml version="1.0" encoding="UTF-8"?>
<!DOCTYPE svg PUBLIC "-//W3C//DTD SVG 1.1//EN" "http://www.w3.org/Graphics/SVG/1.1/DTD/svg11.dtd">
<!-- Creator: CorelDRAW X6 -->
<svg xmlns="http://www.w3.org/2000/svg" xml:space="preserve" width="800px" height="800px" version="1.1" style="shape-rendering:geometricPrecision; text-rendering:geometricPrecision; image-rendering:optimizeQuality; fill-rule:evenodd; clip-rule:evenodd"
viewBox="0 0 800 800"
 xmlns:xlink="http://www.w3.org/1999/xlink">
 <defs>
  <style type="text/css">
   <![CDATA[
    .fil0 {fill:#5F3773}
   ]]>
  </style>
 </defs>
 <g id="Capa_x0020_1">
  <metadata id="CorelCorpID_0Corel-Layer"/>
  <path class="fil0" d="M118 0l565 0c65,0 118,53 118,118l0 565c0,65 -53,118 -118,118l-565 0c-65,0 -118,-53 -118,-118l0 -565c0,-65 53,-118 118,-118zm372 652c-3,-2 -45,-46 -47,-49 12,-23 17,-7 31,5l21 17c25,-22 82,-85 99,-94 0,0 1,0 1,1 0,1 1,1 1,1 13,12 7,12 -19,38l-57 55c-8,8 -19,24 -30,26zm-76 -61c0,62 52,114 103,114 27,0 37,1 63,-11 13,-6 21,-13 31,-23 69,-68 21,-195 -82,-195 -62,0 -114,52 -114,114zm-233 -413l0 453c0,51 70,40 94,40 45,0 90,0 135,0 -1,-6 -10,-21 -13,-27 -33,0 -66,0 -99,0 -22,0 -87,8 -87,-13l0 -448c0,-6 1,-6 2,-11l70 -4c0,-35 11,-29 -61,-29 -21,0 -40,20 -40,40zm217 -83c1,11 9,25 13,34l-40 0c9,-17 31,-43 -9,-43 1,-13 9,-9 25,-9 11,0 22,0 34,0 -1,14 0,3 -22,18zm-58 -11c0,12 8,20 18,22 -4,8 -9,13 -11,22 -55,0 -47,-9 -47,52 0,5 4,9 9,9 32,0 143,3 166,-2 0,-66 10,-58 -38,-58 -2,-10 -7,-13 -9,-22 29,-16 21,-52 -16,-52 -27,0 -72,-10 -72,29zm155 78c0,11 18,7 38,7 19,0 30,-5 31,13 2,27 0,64 0,92 0,61 0,121 0,182 12,3 18,9 31,9l0 -260c0,-78 -29,-67 -101,-67l0 25zm-157 200c0,10 -2,18 13,18l173 0c14,0 14,-27 0,-27l-173 0c-7,0 -13,2 -13,9zm0 -96c0,6 -1,16 9,16l177 0c13,0 18,-27 -4,-27l-170 0c-5,0 -11,6 -11,11zm0 195c0,7 2,16 11,16l94 0c9,0 20,-8 26,-12 7,-4 19,-10 23,-15l-148 0c-3,5 -7,6 -7,11zm-85 -94c0,-28 43,-28 43,0 0,27 -43,27 -43,0zm20 36c52,0 45,-72 7,-72l-11 0c-39,0 -42,72 4,72zm-20 159c0,-28 43,-29 43,0 0,27 -43,27 -43,0zm18 36c54,0 52,-72 2,-72 -50,0 -42,72 -2,72zm-18 -135c0,-28 43,-25 43,-2 0,34 -43,30 -43,2zm58 2c0,-19 -17,-38 -36,-38 -58,0 -42,90 12,70 14,-5 24,-20 24,-32zm-58 -197c0,-27 43,-27 43,0 0,30 -43,29 -43,0zm16 36c13,0 22,1 32,-11 25,-27 0,-61 -25,-61 -50,0 -45,72 -7,72zm70 253c0,23 10,18 45,18 9,0 11,-18 11,-27 -13,0 -56,-7 -56,9z"/>
 </g>
</svg>
