<?xml version="1.0" encoding="UTF-8"?>
<!DOCTYPE svg PUBLIC "-//W3C//DTD SVG 1.1//EN" "http://www.w3.org/Graphics/SVG/1.1/DTD/svg11.dtd">
<!-- Creator: CorelDRAW X6 -->
<svg xmlns="http://www.w3.org/2000/svg" xml:space="preserve" width="800px" height="801px" version="1.1" style="shape-rendering:geometricPrecision; text-rendering:geometricPrecision; image-rendering:optimizeQuality; fill-rule:evenodd; clip-rule:evenodd"
viewBox="0 0 800 801"
 xmlns:xlink="http://www.w3.org/1999/xlink">
 <defs>
  <style type="text/css">
   <![CDATA[
    .fil0 {fill:#5F3773}
   ]]>
  </style>
 </defs>
 <g id="Capa_x0020_1">
  <metadata id="CorelCorpID_0Corel-Layer"/>
  <g id="_598081640">
   <g>
    <path class="fil0" d="M90 422l267 0c31,0 56,25 56,56l0 267c0,31 -25,56 -56,56l-267 0c-31,0 -56,-25 -56,-56l0 -267c0,-31 25,-56 56,-56zm282 278l0 -1c-1,-1 -8,-6 -9,-7 -3,-2 -6,-5 -10,-7 -3,-2 -6,-5 -10,-7l-10 -7c0,1 -1,3 -3,5 -2,3 -5,6 -9,8 -2,1 -4,2 -6,2 -1,3 -1,5 -3,8 0,1 -1,2 -1,2 0,1 1,1 1,2 5,7 11,15 16,22 1,1 2,4 3,4 2,1 3,-2 3,-3 1,-1 7,-14 7,-14 0,0 21,-3 24,-4 1,0 2,0 3,0 2,0 1,0 2,-1zm-102 59l1 0c0,0 0,0 0,0 0,0 0,0 1,0l4 -5c3,-4 8,-10 11,-14l2 -3 16 1c6,0 4,-2 0,-10 -1,-2 -10,-23 -11,-24 -2,0 -3,0 -5,0 -2,0 -3,-1 -5,-1 0,1 -3,3 -4,4 -1,1 -3,2 -5,3 -5,2 -9,1 -14,0 0,4 1,9 2,13l4 34c0,2 0,2 1,2zm-148 -232c-1,1 -1,0 -1,2 0,3 3,2 7,2 19,2 45,11 59,23 1,1 2,3 4,1 7,-4 -25,-20 -28,-21 -6,-3 -12,-5 -19,-6 -4,-1 -19,-4 -22,-2zm179 53c4,0 6,-1 5,-4 -4,-2 -14,0 -23,2 -1,-1 -2,-2 -3,-3 -1,-1 -2,-2 -4,-2 -2,-1 -4,-1 -5,-1l-4 0c-2,1 -3,0 -8,3 -2,1 -4,4 -5,7 -1,0 -2,-1 -4,-2 -3,-1 -6,-1 -9,-1 1,-1 2,-2 2,-2 7,-6 15,-10 24,-13 6,-2 13,-4 20,-6 10,-2 22,-1 19,-6 -2,-3 -19,1 -22,2 -17,4 -30,10 -43,20 -4,3 -6,4 -5,7 0,0 0,0 1,0 -6,3 -9,9 -9,17 -4,0 -7,0 -10,2l0 -79c0,-11 -1,-8 6,-15 23,-20 56,-32 88,-33 17,0 14,-1 14,14 0,37 0,76 0,113l0 2c-3,-4 -8,-6 -14,-5 1,-8 -4,-15 -10,-17zm15 47c0,-1 0,-1 -1,-2 0,1 0,1 1,2zm-1 -2c0,0 0,-1 0,-1 0,0 0,1 0,1zm-1 -2c0,-1 -1,-2 -1,-3 0,1 1,2 1,3zm-1 -3l0 -1c0,0 0,1 0,1zm-2 -3c-1,-1 -1,-2 -2,-3 1,1 1,2 2,3zm-3 -4c-1,-1 -1,-2 -2,-2 1,1 1,2 2,2zm-8 -9c0,0 -1,0 -1,-1 0,0 1,0 1,1zm-1 -1c-1,-1 -2,-2 -4,-3 1,1 2,2 4,3zm-5 -3c-1,-1 -3,-2 -4,-2 1,1 3,1 4,2zm-4 -2c-1,-1 -3,-1 -4,-2 1,1 3,1 4,2zm-5 -2c0,0 -1,0 -1,0 0,0 1,0 1,0zm-1 0c-1,0 -3,-1 -4,-1 1,0 3,1 4,1zm-6 -2c-4,-1 -8,-1 -12,-1 4,0 8,0 12,1zm-12 -1c-2,0 -3,0 -5,0 2,0 3,0 5,0zm-5 0c0,0 -1,0 -1,0 0,0 1,0 1,0zm-1 0c-2,0 -3,1 -5,1 2,0 3,-1 5,-1zm-26 -35c3,1 3,-1 8,-4 12,-9 29,-16 44,-19l17 -2c1,0 3,-2 1,-4 -2,-2 -19,1 -22,2 -7,2 -13,3 -19,6 -9,4 -17,8 -24,14 -2,2 -6,3 -5,7zm-113 -5c-1,1 -1,0 -1,2 0,3 3,2 7,2 11,1 21,4 31,7 6,2 11,5 17,8 6,4 13,11 15,9 3,-2 -3,-6 -4,-7 -2,-2 -5,-4 -7,-5 -12,-7 -22,-11 -36,-15 -4,-1 -19,-4 -22,-2zm0 24c-2,1 -1,3 0,4l17 2c13,3 26,7 37,14 3,2 5,3 7,5 2,1 6,6 8,4 4,-3 -8,-10 -11,-12 -11,-7 -23,-12 -36,-15 -4,-1 -19,-4 -22,-2zm184 -68c2,-5 -4,-4 -8,-4 -4,0 -8,1 -11,2 -19,4 -35,11 -50,23 -4,3 -1,7 3,3l11 -8c29,-18 49,-14 55,-17zm-184 0c2,1 17,2 21,3 13,3 24,7 35,14l10 8c1,1 2,2 5,1 1,-4 -2,-5 -5,-7 -8,-6 -16,-10 -25,-14 -6,-2 -13,-5 -20,-6 -4,-1 -8,-1 -11,-2 -3,0 -10,-2 -9,3zm211 121c0,-1 0,-2 0,-2 1,-8 0,-57 0,-69 0,-23 0,-46 0,-69 2,0 9,0 10,1 2,1 1,7 1,9l0 129c0,22 2,21 -9,19 1,-2 1,-4 1,-7 0,-4 -1,-7 -3,-10 0,0 -1,-1 -1,-1zm-249 -140c2,-1 7,-1 11,-1 -1,26 0,53 0,79 0,13 0,26 0,40 0,12 -3,29 10,29 31,0 57,5 83,21 2,1 7,4 9,6 -3,-1 -6,-2 -9,-4 -22,-9 -45,-14 -70,-14 -37,0 -34,8 -34,-7 0,-3 0,-7 0,-10 0,-18 -1,-134 1,-139zm217 133c0,0 0,0 0,0 0,0 0,0 0,0zm-199 -138c0,-4 -1,-9 2,-9 4,-1 17,0 22,1 30,3 60,16 80,34 3,3 4,2 4,7 0,30 0,61 0,93 -2,4 -2,9 0,13l0 5c-2,1 -3,2 -5,4 -3,4 -3,7 -3,8l0 4c1,2 0,5 3,8 2,2 3,3 5,4l0 0 0 4c-1,1 -1,2 -1,4l-9 -6c-9,-7 -21,-13 -32,-18 -35,-14 -59,-10 -64,-11 -2,0 -2,-2 -2,-4l0 -83 0 -57zm-8 -3c-22,0 -18,4 -19,27l0 90c0,14 0,30 0,45 -1,17 12,13 20,12 37,-4 78,4 110,23 5,3 7,4 11,3 3,2 7,3 11,3 -1,12 8,19 18,19 5,0 7,-2 9,-3 2,3 3,5 6,7 8,5 17,4 23,-3 1,-1 1,-2 2,-4 3,1 4,3 9,3 4,0 7,-1 10,-2 5,-3 9,-8 8,-16 12,1 19,-8 19,-18 0,-2 0,-4 -1,-5 -1,-2 -1,-3 -2,-4 0,0 1,-1 3,-2 9,1 16,3 21,-3 2,-3 2,-5 2,-10l0 -135c0,-6 1,-17 -2,-21 -4,-6 -9,-4 -17,-5 0,-4 0,-7 -1,-10 -4,-7 -18,-5 -27,-4 -30,3 -62,14 -85,34 -1,1 -5,4 -6,5 -11,-9 -9,-9 -25,-18 -8,-5 -20,-10 -30,-13 -10,-3 -25,-6 -36,-7 -10,-1 -23,-3 -27,5 -2,3 -1,6 -1,9zm138 190l0 0m1 2c1,1 2,2 2,2 -1,-1 -2,-2 -2,-2zm4 4c1,0 1,1 2,1 -1,0 -1,-1 -2,-1zm2 1c0,0 1,1 1,1 0,0 -1,0 -1,-1zm1 1c0,0 1,1 1,1 0,0 -1,-1 -1,-1z"/>
    <path class="fil0" d="M221 641c1,26 23,48 51,46 26,-1 48,-23 46,-51 -2,-36 -40,-57 -70,-41 -6,3 -7,4 -11,7 -1,1 -2,2 -3,3 -7,8 -14,20 -13,35zm38 12l-7 -6c0,0 -1,-1 -1,-1l-4 -4c-1,-1 -2,-2 -3,-3 -6,-4 -12,4 -7,8l14 13c3,2 6,6 9,6 4,0 5,-3 8,-6 2,-1 7,-8 9,-10l4 -4c3,-3 5,-6 8,-8 2,-2 6,-6 8,-8 3,-3 7,-6 5,-10 -1,-2 -3,-3 -5,-3 -3,0 -4,2 -5,3l-3 3c0,0 -1,1 -1,1l-28 30z"/>
   </g>
   <path class="fil0" d="M56 0l267 0c31,0 56,25 56,56l0 267c0,31 -25,56 -56,56l-267 0c-31,0 -56,-25 -56,-56l0 -267c0,-31 25,-56 56,-56zm119 263c-1,-1 -1,-1 -2,-1 1,-3 2,-6 4,-9 1,-2 3,-7 4,-9l1 0c1,2 9,11 11,11 -1,1 -16,8 -18,8zm25 -14l-13 -13 80 -79c1,3 4,5 6,7 2,2 4,5 7,6l-79 80zm87 -112c1,2 0,0 1,2l9 9c0,0 1,1 1,1 1,1 1,1 2,2l-13 13 -13 -13 13 -13zm10 -4l6 -6c2,1 2,1 3,3 0,0 0,0 1,1l3 3 -6 6 -6 -6zm-33 11c0,2 -1,3 -3,4 -1,1 -2,2 -3,3l-78 78c-10,10 -6,4 -12,17l-6 15c-1,4 0,4 1,6l-8 8c-1,1 0,0 -1,1 0,2 1,3 3,4 1,1 2,3 4,4l10 -10c8,2 2,1 15,-4 3,-1 5,-2 8,-3 11,-5 8,-4 18,-14 6,-6 51,-52 54,-53l0 112c0,10 -1,9 -14,9 -21,0 -176,1 -179,0 -5,-2 -3,-13 -3,-19l0 -225c0,-8 -2,-16 5,-18 4,-1 111,0 130,0 2,0 4,0 5,1 0,13 0,26 0,39 0,9 6,9 10,5 3,-3 8,-7 10,-10l10 10c2,2 3,4 7,2 2,-1 3,-3 3,-7 0,-13 0,-26 0,-39 3,0 10,0 12,0 5,1 5,2 5,8l0 77zm0 56l0 -1c0,1 0,1 0,1zm11 -12l21 -21 3 3 -24 24 0 -6zm0 18c3,0 9,-8 12,-10l23 -22c5,-6 -3,-10 -6,-14 3,-5 10,-6 6,-14 1,-1 10,-9 11,-10 2,-3 0,-6 -2,-7l-11 -11c-2,-2 -4,-4 -7,-3 -2,1 -8,8 -11,10 -8,-2 -4,-1 -14,8 0,-10 1,-68 0,-73 -3,-14 -15,-13 -23,-13 -16,0 -178,-1 -182,0 -2,1 -5,2 -6,3 -7,6 -6,13 -6,21l0 237c0,7 0,12 3,16 1,2 2,3 3,3 3,4 11,3 18,3l170 0c8,0 13,1 18,-3 4,-4 6,-7 6,-15 0,-35 1,-73 0,-107zm-190 -53l131 0c3,0 2,-3 2,-9 0,-1 0,-2 -2,-2l-131 0 0 10zm0 27c0,1 0,2 2,2l130 0c3,0 2,-3 2,-9 0,-1 0,-2 -2,-2l-131 0 0 9zm151 -121l0 29c-6,-4 -7,-11 -14,-3 -1,1 -3,3 -4,4 1,-6 1,-24 0,-30l18 0zm-151 150l86 0 0 -10 -86 0 0 10zm0 -93l0 9 48 0c0,-7 1,-10 -2,-10l-45 0c-1,0 -2,0 -2,2zm21 152l-7 -6c0,0 -1,-1 -1,-1l-5 -4c-1,-1 -2,-2 -4,-3 -6,-5 -13,4 -8,9l16 14c3,3 6,7 10,7 4,0 6,-4 9,-7 2,-2 8,-9 10,-11l5 -5c3,-3 6,-6 9,-10 2,-3 7,-7 9,-9 3,-4 8,-7 5,-12 -1,-2 -3,-3 -6,-3 -3,0 -4,2 -6,4l-3 4c0,0 -1,1 -1,1l-32 33z"/>
   <path class="fil0" d="M477 99l267 0c31,0 56,25 56,56l0 267c0,31 -25,56 -56,56l-267 0c-31,0 -56,-25 -56,-56l0 -267c0,-31 25,-56 56,-56zm176 309c-1,-1 -21,-22 -22,-23 6,-11 8,-3 15,2l10 8c12,-10 39,-40 47,-45 0,0 1,0 1,0 0,0 0,0 1,0 6,6 3,6 -9,18l-27 26c-4,4 -9,11 -14,12zm-36 -29c0,29 25,54 49,54 13,0 18,1 30,-5 6,-3 10,-6 15,-11 32,-32 10,-92 -39,-92 -29,0 -54,25 -54,54zm-110 -195l0 215c0,24 33,19 45,19 21,0 42,0 64,0 -1,-3 -5,-10 -6,-13 -16,0 -31,0 -47,0 -11,0 -41,4 -41,-6l0 -212c0,-3 1,-3 1,-5l33 -2c0,-17 5,-14 -29,-14 -10,0 -19,9 -19,19zm103 -39c0,5 4,12 6,16l-19 0c4,-8 15,-20 -4,-20 1,-6 4,-4 12,-4 5,0 11,0 16,0 -1,7 0,1 -11,8zm-28 -5c0,6 4,9 8,11 -2,4 -4,6 -5,11 -26,0 -22,-4 -22,24 0,2 2,4 4,4 15,0 68,1 79,-1 0,-31 5,-28 -18,-28 -1,-5 -3,-6 -4,-11 14,-7 10,-25 -7,-24 -13,0 -34,-5 -34,14zm73 37c0,5 9,3 18,3 9,0 14,-2 15,6 1,13 0,30 0,44 0,29 0,57 0,86 6,1 9,4 15,4l0 -123c0,-37 -14,-32 -48,-32l0 12zm-74 95c0,5 -1,8 6,8l82 0c7,0 7,-13 0,-13l-82 0c-3,0 -6,1 -6,4zm0 -46c0,3 -1,7 4,7l84 0c6,0 9,-13 -2,-13l-81 0c-2,0 -5,3 -5,5zm0 92c0,3 1,7 5,7l45 0c4,0 9,-4 12,-6 3,-2 9,-5 11,-7l-70 0c-1,2 -3,3 -3,5zm-40 -45c0,-13 20,-13 20,0 0,13 -20,13 -20,0zm10 17c25,0 21,-34 3,-34l-5 0c-18,0 -20,34 2,34zm-10 75c0,-13 20,-14 20,0 0,13 -20,13 -20,0zm8 17c26,0 25,-34 1,-34 -24,0 -20,34 -1,34zm-8 -64c0,-13 20,-12 20,-1 0,16 -20,14 -20,1zm28 1c0,-9 -8,-18 -17,-18 -27,0 -20,43 6,33 6,-2 11,-10 11,-15zm-28 -93c0,-13 20,-13 20,0 0,14 -20,14 -20,0zm7 17c6,0 10,0 15,-5 12,-13 0,-29 -12,-29 -24,0 -22,34 -3,34zm33 120c0,11 5,8 21,8 4,0 5,-8 5,-13 -6,0 -27,-3 -27,4z"/>
  </g>
 </g>
</svg>
