<?xml version="1.0" encoding="UTF-8"?>
<!DOCTYPE svg PUBLIC "-//W3C//DTD SVG 1.1//EN" "http://www.w3.org/Graphics/SVG/1.1/DTD/svg11.dtd">
<!-- Creator: CorelDRAW X6 -->
<svg xmlns="http://www.w3.org/2000/svg" xml:space="preserve" width="800px" height="800px" version="1.1" style="shape-rendering:geometricPrecision; text-rendering:geometricPrecision; image-rendering:optimizeQuality; fill-rule:evenodd; clip-rule:evenodd"
viewBox="0 0 800 800"
 xmlns:xlink="http://www.w3.org/1999/xlink">
 <defs>
  <style type="text/css">
   <![CDATA[
    .fil0 {fill:#5F3773}
   ]]>
  </style>
 </defs>
 <g id="Capa_x0020_1">
  <metadata id="CorelCorpID_0Corel-Layer"/>
  <path class="fil0" d="M118 0l565 0c65,0 118,53 118,118l0 565c0,65 -53,118 -118,118l-565 0c-65,0 -118,-53 -118,-118l0 -565c0,-65 53,-118 118,-118zm267 534c0,6 3,7 7,10 6,-4 6,-2 7,-12 -1,0 -14,-6 -14,2zm76 -76c0,6 3,7 7,10 20,-14 -7,-19 -7,-10zm76 -76c0,6 3,7 7,10 11,-7 8,-8 2,-17 -3,2 -10,3 -10,7zm-121 52c9,13 9,2 19,2 3,0 26,31 26,10 0,-5 -26,-41 -45,-12zm78 -71c11,0 10,-2 19,-2 8,12 24,25 24,10 0,-5 -22,-35 -41,-19 -5,4 -4,5 -2,12zm-150 155c7,-2 7,-3 14,-5 0,0 2,3 3,4 5,5 9,13 16,13 21,0 -12,-42 -33,-26 -6,5 -3,8 0,14zm74 29l12 11c10,9 30,28 30,41 0,19 -21,34 -41,20 -6,-5 -31,-30 -36,-37l34 -35zm-45 24c-6,-4 -33,-30 -37,-37 -5,-8 -6,-16 -1,-26 6,-11 21,-20 38,-6 4,3 8,6 12,10 7,7 12,17 22,21 -1,11 -24,32 -33,38zm-55 -50c0,20 11,27 22,37 10,10 18,18 29,29 24,24 60,74 95,39 18,-17 10,-47 -13,-66 -17,-14 -11,-12 -27,-27 -20,-20 -52,-63 -85,-46 -13,7 -20,20 -20,35zm178 -50c8,12 40,34 40,50 0,22 -15,26 -31,26 -9,0 -40,-33 -46,-41l36 -35zm-88 -29c0,-14 13,-24 26,-24 10,0 22,14 28,20 8,8 16,14 22,23 -7,5 -12,11 -18,17 -12,12 -7,11 -17,16 -9,-6 -15,-14 -23,-22 -12,-12 -17,-13 -17,-30zm-14 2c0,19 12,28 22,37l58 58c10,10 18,21 36,21 29,0 48,-28 36,-55 -5,-10 -86,-94 -99,-98 -27,-10 -53,8 -53,36zm178 -50c10,14 40,32 40,52 0,19 -26,40 -54,6 -11,-13 -15,-12 -23,-24l36 -35zm-88 -29c0,-13 10,-24 24,-24 20,0 38,31 52,40 -6,8 -30,34 -38,36 -3,-7 -15,-16 -22,-23 -8,-8 -16,-16 -16,-29zm-14 2c0,23 38,53 52,67 10,10 19,19 30,30 46,47 88,-1 70,-37 -4,-8 -86,-92 -98,-97 -27,-10 -53,8 -53,36zm-207 155c0,-14 17,-28 26,-36 11,-11 20,-20 31,-31l121 -121c11,-11 51,-56 65,-56 26,0 34,16 54,36l82 82c10,10 35,29 35,46 0,23 -12,27 -24,40l-193 194c-34,32 -45,10 -78,-22l-83 -83c-11,-11 -35,-28 -35,-48zm-12 -2c0,24 4,27 20,42 10,10 18,18 27,27 16,16 100,102 110,108 40,24 69,-22 108,-60 2,-2 2,-2 4,-4l9 -10c0,0 1,-1 1,-1l99 -99c3,-4 4,-4 7,-7 16,-14 55,-50 55,-71 0,-28 -20,-41 -35,-55l-90 -90c-31,-31 -55,-60 -96,-14 -4,4 -4,4 -8,7l-121 122c-6,6 -10,10 -15,15 -6,6 -12,11 -17,16l-31 33c-11,11 -26,20 -26,41zm-63 -177l-71 0 0 -115c0,-8 22,-5 40,-5l0 70c0,7 10,7 10,0l0 -70 139 0c8,0 5,3 12,5 -4,8 -2,74 -2,92 0,30 6,23 -71,23l-57 0zm143 -138c5,23 3,19 3,47 0,21 2,83 0,99 -2,16 -14,19 -33,19l-148 0c-13,0 -33,1 -35,-17l160 0c62,0 46,-2 46,-61 0,-18 0,-36 1,-54 0,-6 1,-17 -6,-22 -6,-4 -44,-2 -53,-2l-98 0c0,-12 2,-9 35,-9l30 0c4,0 4,0 10,0 28,1 59,0 87,0zm-212 9c3,-12 5,-9 40,-9 0,12 -3,9 -16,9 -8,0 -16,0 -24,0zm17 -19c3,-5 12,-10 17,-14 19,-15 16,-17 30,-17 6,0 10,-1 13,0 10,0 19,0 29,0 66,0 44,-6 75,17 6,4 12,8 16,14l-138 0c-1,-2 0,0 0,-3 0,0 0,-1 0,-1l-1 -6c-8,1 -9,3 -10,10l-30 0zm134 -49c5,0 5,2 5,7l-98 0 0 -7 92 0zm-113 -21l139 0 0 12 -139 0 0 -12zm12 -17l113 0c7,0 9,3 12,7l-136 0c1,-5 3,-7 10,-7zm-23 17c0,25 -4,21 21,21 0,13 2,9 -15,22 -6,5 -11,9 -16,13 -3,3 -4,4 -7,6 -4,3 -5,3 -9,7 -5,5 -12,11 -12,20l0 138c0,7 1,9 4,14 13,19 33,14 69,14l106 0c50,0 57,-3 57,-49 0,-24 1,-111 -1,-119 -6,-19 -21,-24 -42,-42 -3,-2 -30,-24 -13,-24l16 0c0,-19 6,-49 -24,-49l-110 0c-17,0 -24,12 -24,28z"/>
 </g>
</svg>
