<?xml version="1.0" encoding="UTF-8"?>
<!DOCTYPE svg PUBLIC "-//W3C//DTD SVG 1.1//EN" "http://www.w3.org/Graphics/SVG/1.1/DTD/svg11.dtd">
<!-- Creator: CorelDRAW X6 -->
<svg xmlns="http://www.w3.org/2000/svg" xml:space="preserve" width="810px" height="810px" version="1.1" style="shape-rendering:geometricPrecision; text-rendering:geometricPrecision; image-rendering:optimizeQuality; fill-rule:evenodd; clip-rule:evenodd"
viewBox="0 0 810 810"
 xmlns:xlink="http://www.w3.org/1999/xlink">
 <defs>
  <style type="text/css">
   <![CDATA[
    .str1 {stroke:#5F3773;stroke-width:0.899997}
    .str0 {stroke:#5F3773;stroke-width:10.0004}
    .fil0 {fill:none}
    .fil1 {fill:#5F3773}
   ]]>
  </style>
 </defs>
 <g id="Capa_x0020_1">
  <metadata id="CorelCorpID_0Corel-Layer"/>
  <g id="_601170376">
   <rect class="fil0 str0" x="5" y="5" width="800" height="800" rx="118" ry="118"/>
   <path class="fil1" d="M159 241c0,-14 6,-26 13,-33 5,-6 17,-15 28,-15l346 0c13,0 25,12 31,20 10,13 7,23 7,44 0,33 0,67 0,100 0,33 7,71 -6,91 -15,25 -37,24 -76,24l-198 0c-66,0 -146,18 -146,-54l0 -177zm426 226c-38,25 -41,18 -97,18l-226 0c-62,0 -62,7 -100,-18 1,18 13,30 26,36 15,6 164,3 187,3l42 1c28,-2 126,3 140,-3 12,-5 27,-21 28,-36zm-254 -323l85 0 0 33 -85 0 0 -33zm-23 33c0,-22 -7,-56 31,-56 92,0 100,-10 100,56l-8 0c0,-24 4,-49 -21,-49 -101,0 -95,-9 -95,49l-8 0zm-15 -23l0 23 -87 0c-30,0 -59,27 -59,56l0 233c0,17 13,36 26,44 20,12 31,10 62,10l280 0c30,0 42,2 61,-11 12,-8 26,-26 26,-46l0 -226c0,-36 -28,-62 -64,-62l-85 0c0,-78 -4,-69 -123,-69 -19,0 -36,19 -36,46z"/>
   <path class="fil1" d="M575 616c-25,0 -43,-32 -18,-56l29 -30c2,-2 2,-2 4,-4l4 -4c3,-3 5,-6 8,-8 5,3 25,25 32,31l10 11c-6,9 -14,14 -21,22 -4,5 -7,6 -11,10 -3,3 -4,5 -7,8 -6,5 -13,13 -17,15 -3,1 -9,3 -13,3zm77 -61l-46 -46c3,-5 39,-40 47,-47 22,-22 56,-2 56,20 0,23 -9,26 -25,43l-31 31zm-113 30c0,13 6,24 15,30 16,11 31,10 47,-2 5,-4 9,-11 16,-17l33 -33c3,-2 5,-2 8,-3l44 -44c34,-33 4,-77 -34,-69 -13,3 -19,11 -26,18l-39 39c-5,7 3,0 -9,13l-21 22c-6,6 -24,23 -27,29 -2,4 -5,11 -5,17z"/>
   <path class="fil1" d="M635 493c5,1 4,1 8,-3 15,-16 28,-33 44,-22 12,8 7,-10 -7,-10 -20,0 -20,5 -39,24 -4,4 -7,5 -7,11z"/>
   <path class="fil1" d="M292 339c0,-19 16,-43 28,-52 84,-66 181,49 110,120 -10,10 -36,24 -56,24 -18,0 -48,-11 -57,-20 -3,-3 -13,-18 -16,-23 -11,-20 -9,-27 -9,-50zm-15 8c0,13 0,15 4,27 9,24 16,47 52,64 36,17 79,6 107,-18 58,-52 24,-165 -60,-165 -30,0 -53,4 -76,29 -13,14 -26,38 -26,64z"/>
   <path class="fil1" d="M346 293l0 31c-47,0 -38,-9 -38,44 0,14 19,10 38,10 0,44 -9,36 46,36 11,0 8,-11 8,-36 28,0 18,-1 36,-3 4,-17 4,-34 0,-51l-36 0c0,-47 9,-38 -46,-38 -6,0 -8,2 -8,8zm13 44l-36 0 0 26c42,0 35,-3 36,20 0,3 1,12 1,12 2,7 -8,6 24,6 0,-21 -2,-21 3,-38l36 0 0 -26c-46,0 -38,8 -38,-38 -35,0 -22,0 -24,4 0,1 -1,4 -1,5 -2,15 1,19 -1,29z"/>
   <path class="fil1" d="M174 241c0,33 -5,51 8,51 18,0 -1,-51 12,-65 11,-12 49,-7 70,-7l134 0c12,-1 10,2 13,-8 -3,-4 0,-5 -8,-5l-200 0c-16,0 -28,16 -28,33z"/>
   <path class="fil1" d="M614 571c-5,0 -5,-1 -11,6l-21 21c-1,1 -4,2 -1,5 3,3 8,-2 10,-5l8 -9c9,-9 15,-11 15,-19z"/>
   <path class="fil1 str1" d="M454 213l0 5c7,4 11,3 23,3l0 -13c-9,0 -23,-2 -23,5z"/>
   <path class="fil1" d="M618 512c2,0 4,-2 5,-3 1,-2 0,-2 0,-5 -9,0 -10,8 -4,8z"/>
   <path class="fil1" d="M559 597c5,9 8,3 8,2 0,-3 -3,-4 -4,-6l-3 3z"/>
   <path class="fil1" d="M539 699c0,25 -31,44 -55,19l-30 -29c-2,-2 -2,-2 -4,-4l-4 -4c-3,-3 -6,-4 -8,-8 3,-5 24,-26 31,-33l11 -10c9,6 15,14 23,21 5,4 6,7 10,11 3,3 5,3 8,7 5,6 13,13 15,17 1,3 3,9 4,13zm-63 -76l-46 47c-5,-3 -41,-39 -48,-46 -23,-22 -3,-56 19,-56 23,0 26,8 43,24l31 31zm32 113c13,0 24,-7 30,-15 11,-16 9,-31 -3,-46 -4,-5 -11,-9 -17,-16l-33 -32c-2,-3 -2,-5 -4,-8l-45 -43c-34,-33 -77,-3 -69,35 3,13 11,19 19,26l40 38c7,5 0,-3 13,9l22 21c6,6 24,23 30,27 5,2 11,5 18,4z"/>
   <path class="fil1" d="M415 641c1,-5 1,-4 -3,-8 -16,-15 -34,-27 -22,-44 8,-12 -10,-7 -10,7 0,20 6,20 24,38 4,4 5,7 11,7z"/>
   <path class="fil1" d="M493 661c0,5 0,5 6,11l21 21c1,1 3,4 6,1 3,-3 -2,-8 -5,-10l-9 -8c-10,-9 -12,-15 -19,-15z"/>
   <path class="fil1" d="M434 657c0,-2 -2,-4 -3,-5 -2,-1 -2,0 -5,0 0,9 8,10 8,4z"/>
   <path class="fil1" d="M521 714c9,-5 3,-8 2,-8 -3,0 -4,3 -5,5l3 3z"/>
  </g>
 </g>
</svg>
