<?xml version="1.0" encoding="UTF-8"?>
<!DOCTYPE svg PUBLIC "-//W3C//DTD SVG 1.1//EN" "http://www.w3.org/Graphics/SVG/1.1/DTD/svg11.dtd">
<!-- Creator: CorelDRAW X6 -->
<svg xmlns="http://www.w3.org/2000/svg" xml:space="preserve" width="800px" height="800px" version="1.1" style="shape-rendering:geometricPrecision; text-rendering:geometricPrecision; image-rendering:optimizeQuality; fill-rule:evenodd; clip-rule:evenodd"
viewBox="0 0 800 800"
 xmlns:xlink="http://www.w3.org/1999/xlink">
 <defs>
  <style type="text/css">
   <![CDATA[
    .fil0 {fill:#5F3773}
   ]]>
  </style>
 </defs>
 <g id="Capa_x0020_1">
  <metadata id="CorelCorpID_0Corel-Layer"/>
  <g id="_601168768">
   <path class="fil0" d="M118 0l565 0c65,0 118,53 118,118l0 565c0,65 -53,118 -118,118l-565 0c-65,0 -118,-53 -118,-118l0 -565c0,-65 53,-118 118,-118zm382 711c13,0 24,-7 30,-15 11,-16 9,-31 -3,-46 -4,-5 -11,-9 -17,-16l-33 -32c-2,-3 -2,-5 -4,-8l-45 -43c-34,-33 -77,-3 -69,35 3,13 11,19 19,26l40 38c7,5 0,-3 13,9l22 21c6,6 24,23 30,27 5,2 11,5 18,4zm29 -151c0,13 6,24 15,30 16,11 31,10 47,-2 5,-4 9,-11 16,-17l33 -33c3,-2 5,-2 8,-3l44 -44c34,-33 4,-77 -34,-69 -13,3 -19,11 -26,18l-39 39c-5,7 3,0 -9,13l-21 22c-6,6 -24,23 -27,29 -2,4 -5,11 -5,17zm-246 -431l0 23 -87 0c-30,0 -59,27 -59,56l0 233c0,17 13,36 26,44 20,12 31,10 62,10l280 0c30,0 42,2 61,-11 12,-8 26,-26 26,-46l0 -226c0,-36 -28,-62 -64,-62l-85 0c0,-78 -4,-69 -123,-69 -19,0 -36,19 -36,46z"/>
   <path class="fil0" d="M267 322c0,-26 13,-50 26,-64 23,-25 46,-29 76,-29 83,0 118,113 60,165 -27,24 -70,35 -107,18 -35,-16 -43,-39 -52,-64 -4,-12 -4,-14 -4,-27zm200 -126c-12,0 -16,1 -23,-3l0 -5c0,-7 14,-5 23,-5l0 13zm-303 21c0,-18 12,-33 28,-33l200 0c7,0 5,1 8,5 -3,10 -1,7 -13,8l-134 0c-21,0 -59,-6 -70,7 -13,14 7,65 -12,65 -12,0 -8,-19 -8,-51zm-15 0l0 177c0,71 81,54 146,54l198 0c39,0 61,1 76,-24 13,-21 6,-59 6,-91 0,-33 0,-67 0,-100 0,-21 3,-31 -7,-44 -6,-8 -18,-20 -31,-20l-346 0c-11,0 -23,9 -28,15 -6,8 -13,19 -13,33z"/>
   <path class="fil0" d="M565 591c-25,0 -43,-32 -18,-56l29 -30c2,-2 2,-2 4,-4l4 -4c3,-3 5,-6 8,-8 5,3 25,25 32,31l10 11c-6,9 -14,14 -21,22 -4,5 -7,6 -11,10 -3,3 -4,5 -7,8 -6,5 -13,13 -17,15 -3,1 -9,3 -13,3zm77 -61l-46 -46c3,-5 39,-40 47,-47 22,-22 56,-2 56,20 0,23 -9,26 -25,43l-31 31zm-113 30c0,13 6,24 15,30 16,11 31,10 47,-2 5,-4 9,-11 16,-17l33 -33c3,-2 5,-2 8,-3l44 -44c34,-33 4,-77 -34,-69 -13,3 -19,11 -26,18l-39 39c-5,7 3,0 -9,13l-21 22c-6,6 -24,23 -27,29 -2,4 -5,11 -5,17z"/>
   <path class="fil0" d="M625 468c5,1 4,1 8,-3 15,-16 28,-33 44,-22 12,8 7,-10 -7,-10 -20,0 -20,5 -39,24 -4,4 -7,5 -7,11z"/>
   <path class="fil0" d="M337 268c0,-6 2,-8 8,-8 55,0 46,-9 46,38l36 0c4,17 4,34 0,51 -18,1 -8,3 -36,3 0,25 3,36 -8,36 -55,0 -46,8 -46,-36 -20,0 -38,4 -38,-10 0,-52 -8,-44 38,-44l0 -31zm-54 46c0,22 -2,29 9,50 3,5 12,20 16,23 10,9 39,20 57,20 19,0 46,-14 56,-24 71,-71 -26,-187 -110,-120 -11,9 -28,32 -28,52z"/>
   <path class="fil0" d="M575 442c-38,25 -41,18 -97,18l-226 0c-62,0 -62,7 -100,-18 1,18 13,30 26,36 15,6 164,3 187,3l42 1c28,-2 126,3 140,-3 12,-5 27,-21 28,-36z"/>
   <path class="fil0" d="M349 311l-36 0 0 26c42,0 35,-3 36,20 0,3 1,12 1,12 2,7 -8,6 24,6 0,-21 -2,-21 3,-38l36 0 0 -26c-46,0 -38,8 -38,-38 -35,0 -22,0 -24,4 0,1 -1,4 -1,5 -2,15 1,19 -1,29z"/>
   <polygon class="fil0" points="321,152 406,152 406,119 321,119 "/>
   <path class="fil0" d="M298 152l8 0c0,-58 -6,-49 95,-49 24,0 21,25 21,49l8 0c0,-66 -8,-56 -100,-56 -38,0 -31,34 -31,56z"/>
   <path class="fil0" d="M604 546c-5,0 -5,-1 -11,6l-21 21c-1,1 -4,2 -1,5 3,3 8,-2 10,-5l8 -9c9,-9 15,-11 15,-19z"/>
   <path class="fil0" d="M609 487c2,0 4,-2 5,-3 1,-2 0,-2 0,-5 -9,0 -10,8 -4,8z"/>
   <path class="fil0" d="M550 572c5,9 8,3 8,2 0,-3 -3,-4 -4,-6l-3 3z"/>
   <path class="fil0" d="M530 674c0,25 -31,44 -55,19l-30 -29c-2,-2 -2,-2 -4,-4l-4 -4c-3,-3 -6,-4 -8,-8 3,-5 24,-26 31,-33l11 -10c9,6 15,14 23,21 5,4 6,7 10,11 3,3 5,3 8,7 5,6 13,13 15,17 1,3 3,9 4,13zm-63 -76l-46 47c-5,-3 -41,-39 -48,-46 -23,-22 -3,-56 19,-56 23,0 26,8 43,24l31 31zm32 113c13,0 24,-7 30,-15 11,-16 9,-31 -3,-46 -4,-5 -11,-9 -17,-16l-33 -32c-2,-3 -2,-5 -4,-8l-45 -43c-34,-33 -77,-3 -69,35 3,13 11,19 19,26l40 38c7,5 0,-3 13,9l22 21c6,6 24,23 30,27 5,2 11,5 18,4z"/>
   <path class="fil0" d="M405 616c1,-5 1,-4 -3,-8 -16,-15 -34,-27 -22,-44 8,-12 -10,-7 -10,7 0,20 6,20 24,38 4,4 5,7 11,7z"/>
   <path class="fil0" d="M483 636c0,5 0,5 6,11l21 21c1,1 3,4 6,1 3,-3 -2,-8 -5,-10l-9 -8c-10,-9 -12,-15 -19,-15z"/>
   <path class="fil0" d="M424 632c0,-2 -2,-4 -3,-5 -2,-1 -2,0 -5,0 0,9 8,10 8,4z"/>
   <path class="fil0" d="M511 690c9,-5 3,-8 2,-8 -3,0 -4,3 -5,5l3 3z"/>
  </g>
 </g>
</svg>
