<?xml version="1.0" encoding="UTF-8"?>
<!DOCTYPE svg PUBLIC "-//W3C//DTD SVG 1.1//EN" "http://www.w3.org/Graphics/SVG/1.1/DTD/svg11.dtd">
<!-- Creator: CorelDRAW X6 -->
<svg xmlns="http://www.w3.org/2000/svg" xml:space="preserve" width="800px" height="800px" version="1.1" style="shape-rendering:geometricPrecision; text-rendering:geometricPrecision; image-rendering:optimizeQuality; fill-rule:evenodd; clip-rule:evenodd"
viewBox="0 0 800 800"
 xmlns:xlink="http://www.w3.org/1999/xlink">
 <defs>
  <style type="text/css">
   <![CDATA[
    .fil0 {fill:#5F3773}
   ]]>
  </style>
 </defs>
 <g id="Capa_x0020_1">
  <metadata id="CorelCorpID_0Corel-Layer"/>
  <g id="_601165936">
   <path class="fil0" d="M118 0l565 0c65,0 118,53 118,118l0 565c0,65 -53,118 -118,118l-565 0c-65,0 -118,-53 -118,-118l0 -565c0,-65 53,-118 118,-118zm260 371c0,15 -1,22 12,36 4,4 6,5 10,8l95 95c12,13 19,19 39,19 16,0 45,-34 60,-49l135 -135c36,-36 18,-51 -11,-80l-75 -75c-18,-18 -24,-32 -51,-32 -16,0 -24,11 -33,20l-160 160c-7,7 -22,19 -22,33zm-198 36c-20,30 -1,41 13,41 16,0 18,-9 28,-16 30,20 214,217 238,227 27,12 30,2 54,-4 17,25 25,28 38,25 0,-15 -10,-24 -25,-34 4,-19 9,-13 9,-41 0,-24 -51,-69 -74,-89 0,0 -1,-1 -2,-1l-84 -83c-3,-3 -6,-5 -8,-7l-70 -68c6,-9 19,-17 19,-28 0,-8 -8,-22 -22,-22 -11,0 -11,4 -22,7 -3,-2 -5,-4 -8,-8 0,0 -1,-1 -2,-2l-37 -36c0,0 -1,-1 -2,-1l-36 -37c-31,-33 -74,-47 -107,-14 -53,55 8,103 33,127 17,16 51,54 67,65z"/>
   <path class="fil0" d="M504 446c0,-19 15,-36 35,-37 22,-1 38,13 38,39 0,18 -20,34 -36,34 -17,0 -36,-19 -36,-36zm-32 -6c-19,0 8,-22 8,-8 0,5 -3,8 -8,8zm90 -52c0,-17 14,-36 30,-36 13,0 23,0 33,9 9,9 9,17 9,29 0,18 -21,34 -34,34 -19,0 -38,-17 -38,-36zm-136 -20c0,-51 72,-51 72,0 0,46 -72,44 -72,0zm195 -38c0,-49 72,-45 72,-6l0 10c0,16 -20,32 -36,32 -19,0 -36,-17 -36,-36zm-136 -22c0,-48 72,-47 72,0 0,48 -72,49 -72,0zm4 112c-3,-11 -3,-6 16,-25 8,-8 14,-14 22,-22 15,-15 29,-29 44,-44l66 -66c2,-2 23,-27 23,-10 0,6 -15,18 -20,23l-126 126c-13,13 -13,17 -25,18zm54 -172c0,-46 72,-44 72,2 0,47 -72,51 -72,-2zm-12 271c14,0 16,-5 24,-13l157 -157c8,-8 33,-26 24,-47 0,0 0,-1 0,-1l-47 -48c-93,-93 -84,-101 -132,-53l-139 139c-12,12 -40,31 -24,53 11,16 78,80 95,97 14,14 23,30 43,30z"/>
   <path class="fil0" d="M474 637c-9,0 -24,-19 -31,-26l-83 -83c6,-9 27,-32 37,-35 15,10 44,42 60,57 31,30 68,53 42,80 -8,8 -13,7 -24,7zm6 9c35,0 44,-44 25,-61 -9,-8 -6,-3 -15,-13l-17 -17c0,0 -3,-4 -4,-5l-37 -36c0,0 -1,-1 -2,-1 0,0 -1,-1 -2,-1l-27 -27c-9,-9 -21,-19 -29,-28l-73 -72c-10,-8 -11,-4 -15,-17 -18,5 -37,37 -53,48l120 119c21,20 39,39 60,59 14,14 45,52 67,52z"/>
   <path class="fil0" d="M192 364c-11,0 -20,-18 6,-19 1,5 9,19 -6,19zm-32 -31c-12,-3 -17,-12 -25,-19 -7,-7 -14,-13 -21,-20 -42,-46 9,-65 5,-40 -2,9 -18,3 17,37 29,28 40,31 23,43zm32 63l69 -69 -14 -10c0,0 -1,-1 -2,-2l-18 -17c-6,-5 -9,-8 -14,-14 0,0 -1,-1 -1,-2l-15 -14c-42,-39 -39,-52 -80,-52 -28,0 -64,45 -20,87 21,20 80,82 94,91z"/>
   <path class="fil0" d="M480 619c24,0 -2,-22 -6,-26 -19,-18 -67,-68 -80,-77l-10 12c10,14 33,34 46,46 9,8 39,44 50,44z"/>
   <path class="fil0" d="M554 245l48 0c-7,-30 -46,-24 -48,0z"/>
   <path class="fil0" d="M518 440l46 0c-2,-25 -44,-28 -46,0z"/>
   <path class="fil0" d="M574 381l48 0c-1,-11 -12,-20 -24,-20 -14,0 -19,11 -24,20z"/>
   <path class="fil0" d="M632 323l48 0c-1,-15 -21,-27 -39,-14 -8,5 -6,7 -10,14z"/>
   <path class="fil0" d="M520 333c8,0 21,-7 24,-20l-48 0c3,13 16,20 24,20z"/>
   <path class="fil0" d="M462 391c8,0 21,-7 24,-20l-48 0c3,13 16,20 24,20z"/>
   <path class="fil0" d="M576 393c2,22 40,26 46,0l-37 -1c0,0 -6,-1 -9,1z"/>
   <path class="fil0" d="M438 359l48 0c-5,-9 -9,-18 -22,-18l-4 0c-11,0 -20,9 -22,18z"/>
   <path class="fil0" d="M632 335c17,32 47,16 48,-2 -10,6 -45,-1 -48,2z"/>
   <path class="fil0" d="M542 470c11,0 20,-8 22,-18l-48 0c5,10 11,18 26,18z"/>
   <path class="fil0" d="M496 303c11,-5 34,-2 48,-2 -7,-14 -10,-18 -26,-18 -13,0 -20,9 -22,20z"/>
   <path class="fil0" d="M295 325c-18,2 -45,38 -57,50 -10,11 -53,49 -47,55 5,5 15,-10 26,-22 12,-12 73,-69 77,-83z"/>
   <path class="fil0" d="M602 255l-48 0c7,30 46,24 48,0z"/>
  </g>
 </g>
</svg>
