<?xml version="1.0" encoding="UTF-8"?>
<!DOCTYPE svg PUBLIC "-//W3C//DTD SVG 1.1//EN" "http://www.w3.org/Graphics/SVG/1.1/DTD/svg11.dtd">
<!-- Creator: CorelDRAW X6 -->
<svg xmlns="http://www.w3.org/2000/svg" xml:space="preserve" width="806px" height="810px" version="1.1" style="shape-rendering:geometricPrecision; text-rendering:geometricPrecision; image-rendering:optimizeQuality; fill-rule:evenodd; clip-rule:evenodd"
viewBox="0 0 806 810"
 xmlns:xlink="http://www.w3.org/1999/xlink">
 <defs>
  <style type="text/css">
   <![CDATA[
    .str1 {stroke:#5F3773;stroke-width:0.899643}
    .str0 {stroke:#5F3773;stroke-width:9.99643}
    .fil0 {fill:none}
    .fil1 {fill:#5F3773}
    .fil2 {fill:white}
   ]]>
  </style>
 </defs>
 <g id="Capa_x0020_1">
  <metadata id="CorelCorpID_0Corel-Layer"/>
  <g id="_601167064">
   <g>
    <g>
     <rect class="fil0 str0" x="5" y="5" width="383" height="383" rx="56" ry="56"/>
     <path class="fil1" d="M79 118c0,-7 3,-12 6,-16 3,-3 8,-7 14,-7l166 0c6,0 12,6 15,10 5,6 3,11 3,21 0,16 0,32 0,48 0,16 3,34 -3,44 -7,12 -18,12 -36,12l-95 0c-31,0 -70,8 -70,-26l0 -85zm204 108c-18,12 -20,9 -47,9l-108 0c-30,0 -30,4 -48,-9 1,8 6,14 12,17 7,3 79,1 90,1l20 0c13,-1 60,1 67,-1 6,-2 13,-10 13,-17zm-122 -155l41 0 0 16 -41 0 0 -16zm-11 16c0,-11 -3,-27 15,-27 44,0 48,-5 48,27l-4 0c0,-11 2,-23 -10,-23 -48,0 -45,-4 -45,23l-4 0zm-7 -11l0 11 -42 0c-14,0 -28,13 -28,27l0 112c0,8 6,17 12,21 10,6 15,5 29,5l134 0c14,0 20,1 29,-5 6,-4 12,-13 12,-22l0 -108c0,-17 -13,-29 -31,-29l-41 0c0,-37 -2,-33 -59,-33 -9,0 -17,9 -17,22z"/>
     <path class="fil1" d="M278 298c-12,0 -21,-15 -9,-27l14 -14c1,-1 1,-1 2,-2l2 -2c2,-2 2,-3 4,-4 2,1 12,12 15,15l5 5c-3,4 -7,7 -10,11 -2,2 -3,3 -5,5 -1,2 -2,3 -3,4 -3,2 -6,6 -8,7 -1,1 -4,2 -6,2zm37 -29l-22 -22c2,-2 19,-19 22,-23 11,-11 27,-1 27,10 0,11 -4,12 -12,20l-15 15zm-54 14c0,6 3,12 7,14 8,5 15,5 22,-1 2,-2 5,-5 8,-8l16 -16c1,-1 2,-1 4,-2l21 -21c16,-16 2,-37 -16,-33 -6,1 -9,5 -13,9l-19 19c-3,3 2,0 -5,6l-10 10c-3,3 -11,11 -13,14 -1,2 -2,5 -2,8z"/>
     <path class="fil1" d="M307 239c3,1 2,1 4,-1 7,-8 13,-16 21,-10 6,4 3,-5 -3,-5 -10,0 -10,3 -19,11 -2,2 -3,2 -3,5z"/>
     <path class="fil1" d="M143 165c0,-9 8,-20 13,-25 40,-32 87,24 53,58 -5,5 -17,11 -27,11 -9,0 -23,-5 -27,-9 -2,-2 -6,-9 -7,-11 -5,-10 -5,-13 -5,-24zm-7 4c0,6 0,7 2,13 4,12 8,23 25,31 17,8 38,3 51,-9 28,-25 11,-79 -29,-79 -14,0 -26,2 -37,14 -6,7 -13,18 -13,30z"/>
     <path class="fil1" d="M168 143l0 15c-22,0 -18,-4 -18,21 0,7 9,5 18,5 0,21 -4,17 22,17 5,0 4,-5 4,-17 13,0 9,-1 17,-1 2,-8 2,-16 0,-25l-17 0c0,-23 4,-18 -22,-18 -3,0 -4,1 -4,4zm6 21l-17 0 0 12c20,0 17,-1 17,10 0,1 0,6 0,6 1,3 -4,3 12,3 0,-10 -1,-10 1,-18l17 0 0 -12c-22,0 -18,4 -18,-18 -17,0 -11,0 -12,2 0,0 0,2 0,2 -1,7 1,9 0,14z"/>
     <path class="fil1" d="M86 118c0,16 -2,25 4,25 9,0 0,-24 6,-31 5,-6 24,-3 34,-3l64 0c6,0 5,1 6,-4 -1,-2 0,-2 -4,-2l-96 0c-8,0 -14,8 -14,16z"/>
     <path class="fil1" d="M297 276c-3,0 -2,0 -5,3l-10 10c-1,1 -2,1 -1,3 1,1 4,-1 5,-2l4 -4c4,-5 7,-5 7,-9z"/>
     <path class="fil1 str1" d="M220 105l0 2c3,2 5,1 11,1l0 -6c-4,0 -11,-1 -11,2z"/>
     <path class="fil1" d="M299 248c1,0 2,-1 2,-1 1,-1 0,-1 0,-2 -4,0 -5,4 -2,4z"/>
     <path class="fil1" d="M271 289c2,4 4,1 4,1 0,-2 -1,-2 -2,-3l-2 2z"/>
     <path class="fil1" d="M261 337c0,12 -15,21 -27,9l-14 -14c-1,-1 -1,-1 -2,-2l-2 -2c-2,-1 -3,-2 -4,-4 1,-2 12,-12 15,-16l5 -5c4,3 7,7 11,10 2,2 3,3 5,5 2,1 3,2 4,3 3,3 6,6 7,8 1,1 2,4 2,6zm-30 -36l-22 22c-2,-2 -19,-18 -23,-22 -11,-10 -1,-27 9,-27 11,0 13,4 21,12l15 15zm15 54c6,0 12,-3 14,-7 5,-8 4,-15 -1,-22 -2,-2 -5,-4 -8,-8l-16 -15c-1,-1 -1,-2 -2,-4l-21 -21c-16,-16 -37,-1 -33,17 1,6 5,9 9,12l19 18c3,2 0,-2 6,4l11 10c3,3 11,11 14,13 2,1 5,2 8,2z"/>
     <path class="fil1" d="M201 310c1,-3 1,-2 -2,-4 -8,-7 -16,-13 -11,-21 4,-6 -5,-3 -5,3 0,10 3,10 12,18 2,2 2,3 5,3z"/>
     <path class="fil1" d="M239 319c0,3 0,2 3,5l10 10c1,1 1,2 3,1 1,-2 -1,-4 -2,-5l-4 -4c-5,-4 -6,-7 -9,-7z"/>
     <path class="fil1" d="M210 317c0,-1 -1,-2 -2,-2 -1,-1 -1,0 -2,0 0,4 4,5 4,2z"/>
     <path class="fil1" d="M252 345c4,-2 1,-4 1,-4 -2,0 -2,1 -3,2l2 2z"/>
    </g>
    <g>
     <rect class="fil0 str0" x="5" y="421" width="383" height="383" rx="56" ry="56"/>
     <path class="fil1" d="M232 737c-11,0 -25,-18 -32,-25 -10,-10 -19,-19 -29,-28l-57 -57c8,-5 17,-20 25,-23 2,6 2,4 7,8l35 34c4,4 9,9 14,13l13 13c0,0 1,1 1,1 0,0 1,1 1,1l18 17c0,0 2,2 2,2l8 8c4,5 3,2 7,6 9,8 4,29 -12,29zm-116 -130c6,-6 19,-23 27,-24 -2,7 -31,34 -37,40 -5,6 -10,13 -13,10 -3,-3 17,-21 22,-26zm-22 10c-7,-4 -35,-34 -45,-44 -21,-20 -3,-42 10,-42 20,0 18,6 38,25l7 7c0,0 0,1 1,1 3,3 4,4 7,7l8 8c0,0 1,1 1,1l7 5 -33 33zm-6 6c-10,15 0,20 6,20 8,0 9,-4 13,-8 15,10 102,104 114,109 13,6 15,1 26,-2 8,12 12,13 18,12 0,-7 -5,-12 -12,-16 2,-9 4,-6 4,-20 0,-12 -25,-33 -36,-43 0,0 -1,0 -1,-1l-40 -40c-2,-1 -3,-2 -4,-4l-34 -33c3,-4 9,-8 9,-14 0,-4 -4,-11 -11,-10 -5,0 -5,2 -11,3 -1,-1 -2,-2 -4,-4 0,0 -1,-1 -1,-1l-17 -17c0,0 -1,-1 -1,-1l-17 -18c-15,-16 -36,-23 -51,-7 -25,26 4,49 16,61 8,8 24,26 32,31z"/>
     <path class="fil1" d="M256 676c-9,0 -14,-8 -20,-14 -8,-8 -40,-39 -46,-47 -8,-10 6,-20 12,-25l67 -67c23,-23 19,-19 63,25l22 23c0,0 0,0 0,0 4,10 -8,19 -12,23l-75 75c-3,3 -5,6 -11,6zm-73 -70c0,7 0,11 6,17 2,2 3,3 5,4l46 46c6,6 9,9 19,9 8,0 22,-16 29,-23l65 -65c17,-17 9,-24 -5,-38l-36 -36c-9,-9 -11,-15 -24,-15 -8,0 -12,5 -16,9l-77 77c-4,4 -10,9 -10,16z"/>
     <path class="fil1" d="M251 587c-4,0 -10,-3 -12,-10l23 0c-1,6 -8,10 -12,10zm-12 -14c1,-5 4,-10 11,-10 8,0 9,2 12,9 -7,0 -18,-1 -23,1zm-6 2c0,24 35,23 35,0 0,-23 -35,-23 -35,0z"/>
     <path class="fil1" d="M328 587c-1,9 -15,16 -23,1 1,-2 18,2 23,-1zm-23 -5c2,-4 1,-4 5,-7 8,-6 18,0 18,7l-23 0zm-6 3c0,9 8,17 17,17 8,0 17,-8 17,-15l0 -5c0,-19 -35,-21 -35,3z"/>
     <path class="fil1" d="M223 615c-4,0 -10,-3 -12,-10l23 0c-1,6 -8,10 -12,10zm-12 -15c1,-4 5,-9 11,-9l2 0c6,0 8,4 11,9l-23 0zm-6 4c0,21 35,22 35,0 0,-24 -35,-24 -35,0z"/>
     <path class="fil1" d="M261 653c-7,0 -10,-4 -12,-9l23 0c-1,5 -5,9 -11,9zm-12 -14c1,-13 21,-12 22,0l-22 0zm-7 3c0,8 9,17 17,17 8,0 17,-8 17,-16 0,-12 -7,-19 -18,-19 -9,0 -17,8 -17,18z"/>
     <path class="fil1" d="M278 616c2,-1 4,-1 4,-1l18 1c-3,13 -21,10 -22,0zm-1 -6c2,-4 5,-10 12,-10 6,0 11,4 12,10l-23 0zm-6 3c0,9 9,17 18,17 6,0 16,-8 16,-16 0,-6 0,-10 -5,-14 -5,-5 -10,-5 -16,-5 -8,0 -14,9 -14,17z"/>
     <path class="fil1" d="M279 559c-6,0 -10,-4 -12,-10l23 0c-1,5 -6,10 -12,10zm-12 -14c1,-12 20,-14 23,0l-23 0zm-6 1c0,25 35,24 35,1 0,-22 -35,-23 -35,-1z"/>
     <path class="fil1" d="M236 629c5,0 6,-2 12,-8l61 -61c2,-2 9,-8 9,-11 0,-8 -10,3 -11,5l-32 32c-7,7 -14,14 -21,21 -4,4 -7,7 -11,11 -9,9 -9,7 -7,12z"/>
     <path class="fil1" d="M232 724c-5,0 -20,-17 -24,-21 -6,-6 -17,-16 -22,-22l5 -6c6,4 29,28 38,37 2,2 14,12 3,12zm-3 9c5,0 8,0 12,-4 13,-13 -5,-24 -20,-38 -7,-7 -21,-22 -29,-27 -5,1 -15,12 -18,17l40 40c3,3 10,12 15,12z"/>
     <path class="fil1" d="M78 587c8,-6 3,-7 -11,-21 -17,-16 -9,-13 -8,-18 2,-12 -22,-3 -2,19 3,4 6,6 10,10 4,4 6,8 12,9z"/>
     <path class="fil1" d="M228 638c2,0 4,-2 4,-4 0,-7 -13,4 -4,4z"/>
     <path class="fil1" d="M93 602c7,0 4,-6 3,-9 -12,0 -8,9 -3,9z"/>
    </g>
   </g>
   <g>
    <rect class="fil0 str0" x="418" y="213" width="383" height="383" rx="56" ry="56"/>
    <path class="fil1" d="M500 380l-38 0 0 -62c0,-5 12,-3 22,-3l0 37c0,4 6,4 6,0l0 -37 75 0c5,0 3,1 7,3 -2,4 -1,40 -1,50 0,16 3,12 -38,12l-31 0zm77 -74c3,13 2,10 2,25 0,11 1,45 0,53 -1,8 -8,10 -18,10l-80 0c-7,0 -18,0 -19,-9l86 0c33,0 25,-1 25,-33 0,-9 0,-19 0,-29 0,-3 1,-9 -3,-12 -3,-2 -23,-1 -29,-1l-52 0c0,-7 1,-5 19,-5l16 0c2,0 2,0 5,0 15,1 32,0 47,0zm-114 5c2,-7 3,-5 22,-5 0,6 -2,5 -8,5 -4,0 -9,0 -13,0zm9 -10c2,-2 6,-6 9,-8 10,-8 8,-9 16,-9 3,0 5,0 7,0 5,0 10,0 15,0 35,0 24,-3 40,9 3,2 6,4 8,7l-74 0c-1,-1 0,0 0,-2 0,0 0,0 0,-1l-1 -3c-4,0 -5,2 -6,6l-16 0zm72 -26c3,0 3,1 3,4l-52 0 0 -4 50 0zm-61 -11l75 0 0 7 -75 0 0 -7zm7 -9l61 0c4,0 5,1 7,4l-73 0c1,-3 2,-4 6,-4zm-12 9c0,13 -2,11 11,11 0,7 1,5 -8,12 -3,3 -6,5 -9,7 -2,1 -2,2 -4,3 -2,2 -3,2 -5,4 -3,2 -6,6 -6,11l0 74c0,4 1,5 2,7 7,10 18,8 37,8l57 0c27,0 31,-2 31,-26 0,-13 1,-60 -1,-64 -3,-10 -11,-13 -22,-22 -1,-1 -16,-13 -7,-13l8 0c0,-10 3,-26 -13,-26l-59 0c-9,0 -13,6 -13,15z"/>
    <path class="fil1" d="M543 469c0,-7 9,-14 13,-19 6,-6 10,-10 16,-16l62 -62c6,-6 26,-29 33,-29 13,0 17,8 28,19l42 42c5,5 18,15 18,23 0,12 -6,14 -12,20l-99 99c-17,16 -23,5 -40,-11l-43 -43c-6,-6 -18,-15 -18,-25zm-6 -1c0,12 2,14 10,22 5,5 9,9 14,14 8,8 51,52 56,55 20,12 35,-11 55,-31 1,-1 1,-1 2,-2l5 -5c0,0 0,0 1,-1l50 -50c2,-2 2,-2 4,-4 8,-7 28,-26 28,-36 0,-14 -10,-21 -18,-28l-46 -46c-16,-16 -28,-31 -49,-7 -2,2 -2,2 -4,3l-62 62c-3,3 -5,5 -8,8 -3,3 -6,5 -9,8l-16 17c-6,6 -13,10 -13,21z"/>
    <path class="fil1" d="M701 403c5,7 21,17 21,27 0,10 -13,20 -28,3 -6,-7 -8,-6 -12,-12l19 -18zm-45 -15c0,-7 5,-12 12,-12 10,0 19,16 27,21 -3,4 -15,17 -19,18 -1,-4 -8,-8 -11,-12 -4,-4 -8,-8 -8,-15zm-7 1c0,12 19,27 26,34 5,5 10,10 15,15 24,24 45,-1 36,-19 -2,-4 -44,-47 -50,-49 -14,-5 -27,4 -27,19z"/>
    <path class="fil1" d="M662 442c4,6 21,18 21,26 0,11 -8,13 -16,13 -5,0 -21,-17 -23,-21l19 -18zm-45 -15c0,-7 6,-12 13,-12 5,0 11,7 14,10 4,4 8,7 11,12 -4,2 -6,6 -9,9 -6,6 -3,5 -9,8 -5,-3 -8,-7 -12,-11 -6,-6 -9,-6 -9,-15zm-7 1c0,10 6,14 11,19l30 30c5,5 9,11 19,11 15,0 25,-15 18,-28 -2,-5 -44,-48 -51,-50 -14,-5 -27,4 -27,19z"/>
    <path class="fil1" d="M622 481l6 6c5,5 16,14 16,21 0,10 -11,17 -21,10 -3,-2 -16,-15 -18,-19l17 -18zm-23 12c-3,-2 -17,-15 -19,-19 -3,-4 -3,-8 -1,-13 3,-6 11,-10 19,-3 2,2 4,3 6,5 4,4 6,9 11,11 0,6 -12,16 -17,19zm-28 -26c0,10 6,14 11,19 5,5 9,9 15,15 12,12 30,38 48,20 9,-9 5,-24 -7,-34 -9,-7 -6,-6 -14,-14 -10,-10 -26,-32 -44,-23 -7,3 -10,10 -10,18z"/>
    <path class="fil1" d="M584 466c4,-1 4,-2 7,-2 0,0 1,1 2,2 2,3 5,7 8,7 11,0 -6,-22 -17,-13 -3,3 -2,4 0,7z"/>
    <path class="fil1" d="M661 387c6,0 5,-1 10,-1 4,6 12,13 12,5 0,-3 -11,-18 -21,-10 -3,2 -2,3 -1,6z"/>
    <path class="fil1" d="M621 424c5,6 5,1 10,1 1,0 13,16 13,5 0,-2 -13,-21 -23,-6z"/>
    <path class="fil2" d="M463 311c4,0 9,0 13,0 7,0 8,2 8,-5 -19,0 -20,-2 -22,5z"/>
    <path class="fil1" d="M483 366l0 3c3,2 2,2 6,1 0,-14 -6,-6 -6,-4z"/>
    <path class="fil1" d="M682 397c0,3 2,4 4,5 6,-4 4,-4 1,-9 -2,1 -5,2 -5,4z"/>
    <path class="fil1" d="M644 436c0,3 2,4 4,5 10,-7 -4,-10 -4,-5z"/>
    <path class="fil1" d="M605 475c0,3 2,4 4,5 3,-2 3,-1 4,-6 0,0 -7,-3 -7,1z"/>
   </g>
  </g>
 </g>
</svg>
