<?xml version="1.0" encoding="UTF-8"?>
<!DOCTYPE svg PUBLIC "-//W3C//DTD SVG 1.1//EN" "http://www.w3.org/Graphics/SVG/1.1/DTD/svg11.dtd">
<!-- Creator: CorelDRAW X6 -->
<svg xmlns="http://www.w3.org/2000/svg" xml:space="preserve" width="810px" height="810px" version="1.1" style="shape-rendering:geometricPrecision; text-rendering:geometricPrecision; image-rendering:optimizeQuality; fill-rule:evenodd; clip-rule:evenodd"
viewBox="0 0 810 810"
 xmlns:xlink="http://www.w3.org/1999/xlink">
 <defs>
  <style type="text/css">
   <![CDATA[
    .str0 {stroke:#5F3773;stroke-width:10.0004}
    .fil0 {fill:none}
    .fil1 {fill:#5F3773}
    .fil2 {fill:white}
   ]]>
  </style>
 </defs>
 <g id="Capa_x0020_1">
  <metadata id="CorelCorpID_0Corel-Layer"/>
  <g id="_601164832">
   <rect class="fil0 str0" x="5" y="5" width="800" height="800" rx="118" ry="118"/>
   <path class="fil1" d="M177 353l-80 0 0 -129c0,-10 25,-5 45,-6l0 78c0,8 12,8 12,0l0 -78 156 0c9,0 6,3 14,6 -4,9 -2,83 -2,104 0,34 7,25 -80,25l-64 0zm160 -154c6,26 4,21 4,53 0,23 2,93 0,111 -2,18 -16,22 -37,22l-166 0c-14,0 -37,1 -39,-20l180 0c70,0 51,-2 52,-68 0,-20 0,-41 1,-61 0,-7 1,-19 -7,-25 -7,-5 -49,-3 -60,-3l-109 0c0,-14 2,-10 39,-10l34 -1c4,0 4,0 11,0 32,1 66,0 98,0zm-238 10c3,-14 5,-10 45,-10 0,13 -3,10 -18,10 -9,0 -18,0 -27,0zm20 -21c3,-5 13,-12 19,-16 21,-17 18,-19 34,-19 7,0 11,-1 15,0 11,0 21,1 32,1 74,0 50,-6 84,20 6,5 13,9 18,16l-154 0c-1,-2 0,0 0,-3 0,0 0,-1 0,-1l-2 -7c-9,1 -10,4 -12,12l-33 0zm150 -55c6,0 5,2 6,8l-109 0 0 -8 104 0zm-127 -23l156 0 0 14 -156 0 0 -14zm14 -20l127 0c8,0 11,3 14,8l-152 0c2,-6 4,-8 12,-8zm-25 20c0,28 -4,23 23,23 0,15 2,10 -17,24 -7,5 -12,10 -18,15 -4,3 -5,4 -8,7 -4,4 -5,4 -10,8 -5,5 -13,12 -13,22l0 154c0,7 1,10 4,15 14,22 37,16 78,16l119 0c57,0 64,-3 64,-55 0,-26 1,-125 -2,-133 -6,-21 -24,-27 -47,-47 -3,-3 -34,-27 -14,-27l18 0c0,-22 7,-55 -27,-55l-123 0c-19,0 -27,13 -27,31z"/>
   <path class="fil1" d="M266 538c0,-15 18,-30 27,-39 12,-12 21,-21 33,-33l129 -129c12,-12 54,-60 69,-60 28,0 36,17 58,39l88 88c11,11 37,31 37,49 0,25 -13,28 -26,42l-206 207c-36,34 -49,11 -83,-23l-89 -89c-12,-12 -37,-30 -37,-51zm-13 -3c0,25 4,29 21,45 10,10 19,19 29,29 17,17 106,109 118,116 42,25 73,-24 115,-64 2,-2 2,-2 4,-4l10 -10c0,0 1,-1 1,-1l105 -105c4,-4 4,-4 8,-7 17,-15 59,-53 59,-76 0,-30 -22,-43 -37,-59l-96 -96c-33,-33 -58,-64 -103,-15 -4,4 -5,4 -8,7l-129 130c-6,6 -10,10 -16,16 -6,7 -13,11 -19,17l-33 35c-12,12 -27,21 -27,44z"/>
   <path class="fil1" d="M596 401c10,15 43,35 43,56 0,20 -28,42 -58,7 -12,-14 -16,-13 -24,-25l39 -37zm-94 -30c0,-14 11,-25 25,-25 21,0 41,33 56,43 -6,9 -32,36 -41,38 -3,-8 -16,-17 -24,-25 -9,-9 -17,-17 -17,-31zm-15 3c0,24 40,57 55,72 11,11 21,20 32,32 49,50 94,-1 75,-39 -4,-9 -92,-98 -105,-103 -28,-10 -57,9 -57,39z"/>
   <path class="fil1" d="M515 482c9,13 43,37 43,53 0,24 -16,28 -33,28 -9,0 -43,-35 -49,-44l39 -37zm-94 -30c0,-14 13,-25 28,-25 11,0 23,14 30,21 8,8 17,15 23,25 -8,5 -13,12 -20,18 -13,13 -7,11 -18,17 -10,-6 -16,-15 -25,-23 -13,-13 -18,-13 -18,-32zm-15 3c0,20 13,29 23,40l62 62c10,10 19,22 39,22 31,0 51,-30 38,-58 -5,-11 -92,-100 -106,-105 -29,-10 -57,9 -57,39z"/>
   <path class="fil1" d="M431 564l13 12c11,10 32,30 32,44 0,20 -23,36 -44,21 -7,-5 -33,-32 -38,-39l36 -37zm-48 25c-6,-4 -35,-32 -40,-39 -6,-9 -7,-17 -2,-27 6,-12 22,-22 41,-7 5,4 8,6 13,10 8,7 13,18 23,22 -1,12 -26,34 -36,41zm-58 -53c0,21 12,29 23,40 11,11 20,20 30,30 26,26 64,79 101,42 19,-19 11,-50 -14,-71 -18,-15 -12,-12 -29,-29 -22,-22 -55,-68 -91,-49 -14,7 -21,21 -21,37z"/>
   <path class="fil1" d="M352 533c8,-2 7,-3 15,-5 0,0 3,3 4,4 5,6 10,14 17,14 23,0 -13,-45 -36,-28 -7,5 -4,8 0,15z"/>
   <path class="fil1" d="M512 368c12,0 11,-2 20,-3 9,13 25,27 25,10 0,-5 -23,-37 -43,-20 -6,5 -4,5 -2,13z"/>
   <path class="fil1" d="M428 444c10,14 10,3 20,3 3,0 28,33 28,10 0,-5 -28,-43 -48,-13z"/>
   <path class="fil2" d="M99 209c9,0 18,0 27,0 14,0 17,3 18,-10 -40,0 -42,-4 -45,10z"/>
   <path class="fil1" d="M142 324l0 6c7,4 4,4 12,2 0,-29 -12,-12 -12,-8z"/>
   <path class="fil1" d="M558 388c0,7 4,8 8,10 12,-8 9,-9 3,-18 -3,2 -10,3 -10,8z"/>
   <path class="fil1" d="M476 470c0,7 4,8 8,10 22,-15 -8,-20 -8,-10z"/>
   <path class="fil1" d="M395 551c0,7 4,8 8,10 7,-4 7,-3 8,-13 -1,0 -15,-7 -15,3z"/>
  </g>
 </g>
</svg>
