<?xml version="1.0" encoding="UTF-8"?>
<!DOCTYPE svg PUBLIC "-//W3C//DTD SVG 1.1//EN" "http://www.w3.org/Graphics/SVG/1.1/DTD/svg11.dtd">
<!-- Creator: CorelDRAW X6 -->
<svg xmlns="http://www.w3.org/2000/svg" xml:space="preserve" width="787px" height="800px" version="1.1" style="shape-rendering:geometricPrecision; text-rendering:geometricPrecision; image-rendering:optimizeQuality; fill-rule:evenodd; clip-rule:evenodd"
viewBox="0 0 787 800"
 xmlns:xlink="http://www.w3.org/1999/xlink">
 <defs>
  <style type="text/css">
   <![CDATA[
    .fil0 {fill:#5F3773}
   ]]>
  </style>
 </defs>
 <g id="Capa_x0020_1">
  <metadata id="CorelCorpID_0Corel-Layer"/>
  <g id="_601164304">
   <g>
    <g>
     <path class="fil0" d="M56 420l268 0c31,0 56,25 56,56l0 268c0,31 -25,56 -56,56l-268 0c-31,0 -56,-25 -56,-56l0 -268c0,-31 25,-56 56,-56zm123 176c0,7 0,11 6,17 2,2 3,3 5,4l45 45c6,6 9,9 19,9 8,0 21,-16 28,-23l64 -64c17,-17 9,-24 -5,-38l-36 -36c-8,-8 -11,-15 -24,-15 -8,0 -11,5 -15,9l-76 76c-3,3 -10,9 -10,15zm-94 17c-9,14 0,19 6,19 7,0 9,-4 13,-8 14,9 101,103 113,108 13,6 14,1 25,-2 8,12 12,13 18,12 0,-7 -5,-11 -12,-16 2,-9 4,-6 4,-19 0,-11 -24,-33 -35,-42 0,0 -1,0 -1,-1l-40 -39c-2,-1 -3,-2 -4,-3l-33 -32c3,-4 9,-8 9,-14 0,-4 -4,-10 -11,-10 -5,0 -5,2 -10,3 -1,-1 -2,-2 -4,-4 0,0 -1,-1 -1,-1l-17 -17c0,0 -1,-1 -1,-1l-17 -17c-15,-15 -35,-22 -51,-6 -25,26 4,49 16,60 8,8 24,26 32,31z"/>
     <path class="fil0" d="M239 632c0,-9 7,-17 16,-18 10,-1 18,6 18,19 0,9 -10,16 -17,16 -8,0 -17,-9 -17,-17zm-15 -3c-9,0 4,-10 4,-4 0,2 -2,4 -4,4zm43 -25c0,-8 7,-17 14,-17 6,0 11,0 15,4 4,4 4,8 4,14 0,9 -10,16 -16,16 -9,0 -18,-8 -18,-17zm-65 -10c0,-24 34,-24 34,0 0,22 -34,21 -34,0zm92 -18c0,-23 34,-21 34,-3l0 5c0,7 -9,15 -17,15 -9,0 -17,-8 -17,-17zm-65 -10c0,-23 34,-22 34,0 0,23 -34,23 -34,0zm2 53c-1,-5 -1,-3 7,-12 4,-4 7,-7 10,-10 7,-7 14,-14 21,-21l31 -31c1,-1 11,-13 11,-5 0,3 -7,9 -9,11l-60 60c-6,6 -6,8 -12,8zm26 -82c0,-22 34,-21 34,1 0,22 -34,24 -34,-1zm-6 128c7,0 8,-3 11,-6l75 -75c4,-4 16,-12 12,-22 0,0 0,0 0,0l-22 -23c-44,-44 -40,-48 -63,-25l-66 66c-5,5 -19,15 -11,25 5,7 37,38 45,46 7,7 11,14 20,14z"/>
     <path class="fil0" d="M225 723c-4,0 -12,-9 -15,-12l-40 -39c3,-4 13,-15 18,-17 7,5 21,20 28,27 15,14 32,25 20,38 -4,4 -6,3 -12,3zm3 4c16,0 21,-21 12,-29 -4,-4 -3,-1 -7,-6l-8 -8c0,0 -2,-2 -2,-2l-17 -17c0,0 -1,-1 -1,-1 0,0 -1,-1 -1,-1l-13 -13c-4,-4 -10,-9 -14,-13l-34 -34c-5,-4 -5,-2 -7,-8 -8,2 -17,17 -25,23l57 56c10,10 19,18 29,28 7,7 21,25 32,25z"/>
     <path class="fil0" d="M91 593c-5,0 -9,-9 3,-9 1,3 4,9 -3,9zm-15 -15c-6,-1 -8,-5 -12,-9 -3,-3 -7,-6 -10,-10 -20,-22 4,-31 2,-19 -1,4 -9,1 8,18 14,13 19,15 11,20zm15 30l33 -33 -7 -5c0,0 -1,-1 -1,-1l-8 -8c-3,-2 -4,-4 -7,-7 0,0 0,-1 -1,-1l-7 -7c-20,-18 -18,-25 -38,-25 -13,0 -31,21 -10,41 10,10 38,39 45,43z"/>
     <path class="fil0" d="M228 714c11,0 -1,-10 -3,-12 -9,-8 -32,-32 -38,-37l-5 6c5,7 15,16 22,22 4,4 19,21 24,21z"/>
     <path class="fil0" d="M263 537l23 0c-3,-14 -22,-11 -23,0z"/>
     <path class="fil0" d="M246 629l22 0c-1,-12 -21,-13 -22,0z"/>
     <path class="fil0" d="M272 601l23 0c0,-5 -6,-10 -11,-10 -7,0 -9,5 -11,10z"/>
     <path class="fil0" d="M300 574l23 0c-1,-7 -10,-13 -18,-7 -4,3 -3,3 -5,7z"/>
     <path class="fil0" d="M247 578c4,0 10,-3 11,-10l-23 0c1,6 8,10 11,10z"/>
     <path class="fil0" d="M219 606c4,0 10,-3 11,-10l-23 0c1,6 8,10 11,10z"/>
     <path class="fil0" d="M273 607c1,10 19,12 22,0l-17 -1c0,0 -3,0 -4,1z"/>
     <path class="fil0" d="M208 591l23 0c-2,-4 -4,-9 -10,-9l-2 0c-5,0 -9,4 -10,9z"/>
     <path class="fil0" d="M300 579c8,15 22,8 23,-1 -5,3 -22,-1 -23,1z"/>
     <path class="fil0" d="M257 643c5,0 9,-4 10,-9l-23 0c2,5 5,9 12,9z"/>
     <path class="fil0" d="M235 564c5,-2 16,-1 23,-1 -3,-7 -5,-9 -12,-9 -6,0 -9,4 -10,10z"/>
     <path class="fil0" d="M140 574c-8,1 -21,18 -27,24 -5,5 -25,23 -22,26 2,2 7,-5 13,-10 6,-6 35,-33 37,-39z"/>
     <path class="fil0" d="M286 541l-23 0c3,14 22,11 23,0z"/>
    </g>
    <g>
     <path class="fil0" d="M56 0l268 0c31,0 56,25 56,56l0 268c0,31 -25,56 -56,56l-268 0c-31,0 -56,-25 -56,-56l0 -268c0,-31 25,-56 56,-56zm181 337c6,0 11,-3 14,-7 5,-8 4,-15 -1,-22 -2,-2 -5,-4 -8,-8l-16 -15c-1,-1 -1,-2 -2,-4l-21 -20c-16,-16 -36,-1 -33,17 1,6 5,9 9,12l19 18c3,2 0,-2 6,4l11 10c3,3 11,11 14,13 2,1 5,2 8,2zm14 -72c0,6 3,11 7,14 8,5 15,5 22,-1 2,-2 4,-5 8,-8l16 -16c1,-1 2,-1 4,-2l21 -21c16,-16 2,-36 -16,-33 -6,1 -9,5 -12,9l-18 18c-3,3 2,0 -4,6l-10 10c-3,3 -11,11 -13,14 -1,2 -2,5 -2,8zm-117 -204l0 11 -41 0c-14,0 -28,13 -28,27l0 111c0,8 6,17 12,21 9,6 15,5 29,5l133 0c14,0 20,1 29,-5 6,-4 12,-13 12,-22l0 -107c0,-17 -13,-29 -30,-29l-40 0c0,-37 -2,-33 -58,-33 -9,0 -17,9 -17,22z"/>
     <path class="fil0" d="M127 152c0,-12 6,-24 12,-30 11,-12 22,-14 36,-14 40,0 56,54 28,78 -13,11 -33,16 -50,9 -17,-8 -20,-19 -25,-30 -2,-6 -2,-7 -2,-13zm95 -60c-6,0 -8,1 -11,-1l0 -2c0,-3 7,-2 11,-2l0 6zm-144 10c0,-8 6,-16 13,-16l95 0c3,0 2,0 4,2 -1,5 0,3 -6,4l-63 0c-10,0 -28,-3 -33,3 -6,7 3,31 -6,31 -6,0 -4,-9 -4,-24zm-7 0l0 84c0,34 38,26 69,26l94 0c18,0 29,1 36,-11 6,-10 3,-28 3,-43 0,-16 0,-32 0,-47 0,-10 1,-15 -3,-21 -3,-4 -9,-9 -15,-9l-164 0c-5,0 -11,4 -13,7 -3,4 -6,9 -6,16z"/>
     <path class="fil0" d="M268 280c-12,0 -21,-15 -8,-26l14 -14c1,-1 1,-1 2,-2l2 -2c1,-2 2,-3 4,-4 2,1 12,12 15,15l5 5c-3,4 -7,7 -10,11 -2,2 -3,3 -5,5 -1,2 -2,3 -3,4 -3,2 -6,6 -8,7 -1,1 -4,2 -6,2zm36 -29l-22 -22c2,-2 19,-19 22,-22 10,-11 26,-1 26,10 0,11 -4,12 -12,20l-15 15zm-54 14c0,6 3,11 7,14 8,5 15,5 22,-1 2,-2 4,-5 8,-8l16 -16c1,-1 2,-1 4,-2l21 -21c16,-16 2,-36 -16,-33 -6,1 -9,5 -12,9l-18 18c-3,3 2,0 -4,6l-10 10c-3,3 -11,11 -13,14 -1,2 -2,5 -2,8z"/>
     <path class="fil0" d="M296 222c3,1 2,1 4,-1 7,-8 13,-16 21,-10 6,4 3,-5 -3,-5 -10,0 -10,3 -18,11 -2,2 -3,2 -3,5z"/>
     <path class="fil0" d="M160 127c0,-3 1,-4 4,-4 26,0 22,-4 22,18l17 0c2,8 2,16 0,24 -8,1 -4,1 -17,1 0,12 2,17 -4,17 -26,0 -22,4 -22,-17 -9,0 -18,2 -18,-5 0,-25 -4,-21 18,-21l0 -15zm-26 22c0,11 -1,14 4,24 1,2 6,9 7,11 5,4 18,9 27,9 9,0 22,-6 26,-11 34,-34 -12,-89 -52,-57 -5,4 -13,15 -13,25z"/>
     <path class="fil0" d="M273 210c-18,12 -19,9 -46,9l-107 0c-30,0 -29,4 -47,-9 1,8 6,14 12,17 7,3 78,1 89,1l20 0c13,-1 60,1 67,-1 6,-2 13,-10 13,-17z"/>
     <path class="fil0" d="M166 148l-17 0 0 12c20,0 17,-1 17,10 0,1 0,6 0,6 1,3 -4,3 12,3 0,-10 -1,-10 1,-18l17 0 0 -12c-22,0 -18,4 -18,-18 -17,0 -11,0 -11,2 0,0 0,2 0,2 -1,7 1,9 0,14z"/>
     <polygon class="fil0" points="152,72 192,72 192,56 152,56 "/>
     <path class="fil0" d="M141 72l4 0c0,-27 -3,-23 45,-23 12,0 10,12 10,23l4 0c0,-31 -4,-27 -47,-27 -18,0 -15,16 -15,27z"/>
     <path class="fil0" d="M286 259c-3,0 -2,0 -5,3l-10 10c-1,1 -2,1 -1,3 1,1 4,-1 5,-2l4 -4c4,-4 7,-5 7,-9z"/>
     <path class="fil0" d="M289 231c1,0 2,-1 2,-1 1,-1 0,-1 0,-2 -4,0 -5,4 -2,4z"/>
     <path class="fil0" d="M261 271c2,4 4,1 4,1 0,-1 -1,-2 -2,-3l-2 2z"/>
     <path class="fil0" d="M251 319c0,12 -15,21 -26,9l-14 -14c-1,-1 -1,-1 -2,-2l-2 -2c-2,-1 -3,-2 -4,-4 1,-2 11,-12 15,-15l5 -5c4,3 7,7 11,10 2,2 3,3 5,5 2,1 3,2 4,3 3,3 6,6 7,8 1,1 2,4 2,6zm-30 -36l-22 22c-2,-1 -19,-18 -23,-22 -11,-10 -1,-26 9,-27 11,0 12,4 20,12l15 15zm15 53c6,0 11,-3 14,-7 5,-8 4,-15 -1,-22 -2,-2 -5,-4 -8,-8l-16 -15c-1,-1 -1,-2 -2,-4l-21 -20c-16,-16 -36,-1 -33,17 1,6 5,9 9,12l19 18c3,2 0,-2 6,4l11 10c3,3 11,11 14,13 2,1 5,2 8,2z"/>
     <path class="fil0" d="M192 292c1,-3 1,-2 -1,-4 -8,-7 -16,-13 -11,-21 4,-6 -5,-3 -5,3 0,10 3,10 12,18 2,2 2,3 5,3z"/>
     <path class="fil0" d="M229 301c0,3 0,2 3,5l10 10c1,1 1,2 3,1 1,-1 -1,-4 -2,-5l-4 -4c-5,-4 -6,-7 -9,-7z"/>
     <path class="fil0" d="M201 300c0,-1 -1,-2 -1,-2 -1,0 -1,0 -2,0 0,4 4,5 4,2z"/>
     <path class="fil0" d="M242 327c4,-2 1,-4 1,-4 -1,0 -2,1 -3,2l2 2z"/>
    </g>
   </g>
   <path class="fil0" d="M464 210l268 0c31,0 56,25 56,56l0 268c0,31 -25,56 -56,56l-268 0c-31,0 -56,-25 -56,-56l0 -268c0,-31 25,-56 56,-56zm127 253c0,3 2,3 3,5 3,-2 3,-1 3,-6 0,0 -7,-3 -7,1zm36 -36c0,3 2,3 3,5 10,-6 -3,-9 -3,-5zm36 -36c0,3 2,3 3,5 5,-3 4,-4 1,-8 -1,1 -5,2 -5,3zm-57 25c4,6 4,1 9,1 1,0 12,14 12,5 0,-2 -12,-19 -21,-6zm37 -34c5,0 5,-1 9,-1 4,6 11,12 11,5 0,-2 -10,-17 -19,-9 -2,2 -2,2 -1,6zm-71 73c3,-1 3,-1 7,-2 0,0 1,1 2,2 2,3 4,6 7,6 10,0 -6,-20 -16,-12 -3,2 -2,4 0,7zm35 14l6 5c5,4 14,13 14,19 0,9 -10,16 -19,9 -3,-2 -15,-14 -17,-17l16 -17zm-21 11c-3,-2 -16,-14 -18,-17 -3,-4 -3,-8 -1,-12 3,-5 10,-10 18,-3 2,2 4,3 6,5 3,3 6,8 10,10 0,5 -11,15 -16,18zm-26 -24c0,9 5,13 10,18 5,5 9,9 14,14 11,11 28,35 45,18 8,-8 5,-22 -6,-31 -8,-7 -5,-5 -13,-13 -10,-10 -25,-30 -40,-22 -6,3 -10,9 -10,16zm85 -24c4,6 19,16 19,24 0,11 -7,12 -15,12 -4,0 -19,-16 -22,-19l17 -17zm-42 -14c0,-6 6,-11 12,-11 5,0 10,6 13,9 4,4 8,7 10,11 -3,2 -6,5 -9,8 -6,6 -3,5 -8,8 -4,-3 -7,-7 -11,-10 -6,-6 -8,-6 -8,-14zm-7 1c0,9 6,13 10,18l28 28c5,5 9,10 17,10 14,0 23,-14 17,-26 -2,-5 -41,-44 -47,-47 -13,-5 -25,4 -25,17zm85 -24c5,7 19,15 19,25 0,9 -12,19 -26,3 -5,-6 -7,-6 -11,-11l17 -17zm-42 -14c0,-6 5,-11 11,-11 9,0 18,15 25,19 -3,4 -14,16 -18,17 -1,-4 -7,-8 -10,-11 -4,-4 -8,-8 -8,-14zm-7 1c0,11 18,25 25,32 5,5 9,9 14,14 22,22 42,-1 33,-17 -2,-4 -41,-44 -47,-46 -13,-5 -25,4 -25,17zm-98 73c0,-7 8,-13 12,-17 5,-5 9,-9 15,-15l57 -57c5,-5 24,-27 31,-27 12,0 16,8 26,17l39 39c5,5 17,14 17,22 0,11 -6,13 -12,19l-92 92c-16,15 -22,5 -37,-10l-39 -39c-5,-5 -17,-13 -17,-23zm-6 -1c0,11 2,13 9,20 5,5 8,8 13,13 8,8 47,48 52,51 19,11 33,-11 51,-29 1,-1 1,-1 2,-2l4 -5c0,0 0,0 1,-1l47 -47c2,-2 2,-2 3,-3 8,-7 26,-24 26,-34 0,-13 -10,-19 -17,-26l-43 -43c-15,-15 -26,-28 -46,-7 -2,2 -2,2 -4,3l-57 58c-3,3 -5,5 -7,7 -3,3 -6,5 -8,8l-15 16c-5,5 -12,9 -12,19zm-30 -84l-34 0 0 -54c0,-4 10,-2 19,-2l0 33c0,3 5,3 5,0l0 -33 66 0c4,0 3,1 6,2 -2,4 -1,35 -1,44 0,14 3,11 -34,11l-27 0zm68 -65c3,11 2,9 2,22 0,10 1,39 0,47 -1,7 -7,9 -16,9l-70 0c-6,0 -16,0 -17,-8l76 0c29,0 22,-1 22,-29 0,-8 0,-17 0,-26 0,-3 1,-8 -3,-10 -3,-2 -21,-1 -25,-1l-46 0c0,-6 1,-4 17,-4l14 0c2,0 2,0 5,0 13,1 28,0 41,0zm-101 4c1,-6 2,-4 19,-4 0,6 -1,4 -7,4 -4,0 -8,0 -12,0zm8 -9c1,-2 6,-5 8,-7 9,-7 7,-8 14,-8 3,0 5,0 6,0 5,0 9,0 14,0 31,0 21,-3 35,8 3,2 6,4 7,7l-65 0c0,-1 0,0 0,-1 0,0 0,0 0,-1l-1 -3c-4,0 -4,2 -5,5l-14 0zm64 -23c2,0 2,1 2,3l-46 0 0 -3 44 0zm-54 -10l66 0 0 6 -66 0 0 -6zm6 -8l54 0c3,0 4,1 6,3l-64 0c1,-3 2,-3 5,-3zm-11 8c0,12 -2,10 10,10 0,6 1,4 -7,10 -3,2 -5,4 -8,6 -2,1 -2,2 -4,3 -2,2 -2,2 -4,3 -2,2 -6,5 -6,9l0 65c0,3 1,4 2,6 6,9 16,7 33,7l50 0c24,0 27,-1 27,-23 0,-11 0,-53 -1,-56 -3,-9 -10,-12 -20,-20 -1,-1 -14,-11 -6,-11l7 0c0,-9 3,-23 -12,-23l-52 0c-8,0 -12,6 -12,13z"/>
  </g>
 </g>
</svg>
