<?xml version="1.0" encoding="UTF-8"?>
<!DOCTYPE svg PUBLIC "-//W3C//DTD SVG 1.1//EN" "http://www.w3.org/Graphics/SVG/1.1/DTD/svg11.dtd">
<!-- Creator: CorelDRAW X6 -->
<svg xmlns="http://www.w3.org/2000/svg" xml:space="preserve" width="810px" height="810px" version="1.1" style="shape-rendering:geometricPrecision; text-rendering:geometricPrecision; image-rendering:optimizeQuality; fill-rule:evenodd; clip-rule:evenodd"
viewBox="0 0 810 810"
 xmlns:xlink="http://www.w3.org/1999/xlink">
 <defs>
  <style type="text/css">
   <![CDATA[
    .str0 {stroke:#5F3773;stroke-width:10.0004}
    .fil0 {fill:none}
    .fil1 {fill:#5F3773}
   ]]>
  </style>
 </defs>
 <g id="Capa_x0020_1">
  <metadata id="CorelCorpID_0Corel-Layer"/>
  <g id="_601166488">
   <rect class="fil0 str0" x="5" y="5" width="800" height="800" rx="118" ry="118"/>
   <path class="fil1" d="M479 665c-22,0 -53,-38 -67,-52 -21,-20 -39,-39 -60,-59l-120 -119c16,-11 35,-43 53,-48 4,13 5,9 15,17l73 72c7,9 19,19 29,28l27 27c0,0 1,1 2,1 0,0 1,1 2,1l37 36c1,1 4,5 4,5l17 17c9,11 6,5 15,13 18,17 9,60 -25,61zm-242 -272c12,-12 39,-48 57,-50 -4,14 -65,71 -77,83 -11,12 -21,27 -26,22 -6,-6 36,-44 47,-55zm-46 20c-14,-9 -74,-71 -94,-91 -44,-42 -7,-87 20,-87 41,0 37,13 80,52l15 14c0,0 1,1 1,2 6,6 9,9 14,14l18 17c0,0 1,1 2,2l14 10 -69 69zm-12 13c-20,30 -1,41 13,41 16,0 18,-9 28,-16 30,20 214,217 238,227 27,12 30,2 54,-4 17,25 25,28 38,25 0,-15 -10,-24 -25,-34 4,-19 9,-13 9,-41 0,-24 -51,-69 -74,-89 0,0 -1,-1 -2,-1l-84 -83c-3,-3 -6,-5 -8,-7l-70 -68c6,-9 19,-17 19,-28 0,-8 -8,-22 -22,-22 -11,0 -11,4 -22,7 -3,-2 -5,-4 -8,-8 0,0 -1,-1 -2,-2l-37 -36c0,0 -1,-1 -2,-1l-36 -37c-31,-33 -74,-47 -107,-14 -53,55 8,103 33,127 17,16 51,54 67,65z"/>
   <path class="fil1" d="M528 536c-19,0 -29,-16 -43,-30 -17,-17 -84,-82 -95,-97 -16,-22 12,-41 24,-53l139 -139c48,-48 39,-40 132,53l47 48c0,0 0,1 0,1 9,22 -17,40 -24,47l-157 157c-7,7 -10,13 -24,13zm-152 -146c0,15 -1,22 12,36 4,4 6,5 10,8l95 95c12,13 19,19 39,19 16,0 45,-34 60,-49l135 -135c36,-36 18,-51 -11,-80l-75 -75c-18,-18 -24,-32 -51,-32 -16,0 -24,11 -33,20l-160 160c-7,7 -22,19 -22,33z"/>
   <path class="fil1" d="M518 351c-8,0 -21,-7 -24,-20l48 0c-3,13 -16,20 -24,20zm-24 -30c2,-11 9,-20 22,-20 16,0 19,4 26,18 -14,0 -38,-3 -48,2zm-12 4c0,49 72,48 72,0 0,-47 -72,-48 -72,0z"/>
   <path class="fil1" d="M679 351c-2,18 -31,34 -48,2 3,-3 38,4 48,-2zm-48 -10c4,-7 2,-9 10,-14 17,-12 37,0 39,14l-48 0zm-12 6c0,19 17,36 36,36 16,0 36,-17 36,-32l0 -10c0,-39 -72,-43 -72,6z"/>
   <path class="fil1" d="M460 409c-8,0 -21,-7 -24,-20l48 0c-3,13 -16,20 -24,20zm-24 -32c2,-9 11,-18 22,-18l4 0c13,0 17,9 22,18l-48 0zm-12 8c0,44 72,46 72,0 0,-51 -72,-51 -72,0z"/>
   <path class="fil1" d="M540 487c-15,0 -21,-8 -26,-18l48 0c-2,10 -11,18 -22,18zm-24 -30c2,-28 44,-25 46,0l-46 0zm-14 6c0,17 19,36 36,36 16,0 36,-16 36,-34 0,-26 -15,-40 -38,-39 -19,1 -35,18 -35,37z"/>
   <path class="fil1" d="M574 411c4,-2 9,-1 9,-1l37 1c-6,26 -44,22 -46,0zm-2 -12c5,-9 10,-20 24,-20 12,0 23,9 24,20l-48 0zm-12 6c0,19 19,36 38,36 13,0 34,-16 34,-34 0,-12 -1,-20 -9,-29 -10,-10 -20,-9 -33,-9 -16,0 -30,20 -30,36z"/>
   <path class="fil1" d="M576 293c-13,0 -22,-9 -24,-20l48 0c-2,10 -12,20 -24,20zm-24 -30c2,-24 41,-30 48,0l-48 0zm-12 2c0,53 72,49 72,2 0,-46 -72,-48 -72,-2z"/>
   <path class="fil1" d="M486 437c11,0 12,-5 25,-18l126 -126c4,-4 20,-16 20,-23 0,-18 -20,7 -23,10l-66 66c-15,15 -29,29 -44,44 -8,8 -14,14 -22,22 -18,18 -18,14 -16,25z"/>
   <path class="fil1" d="M478 636c-11,0 -41,-36 -50,-44 -13,-13 -36,-32 -46,-46l10 -12c13,9 61,59 80,77 4,4 29,26 6,26zm-6 19c11,0 16,0 24,-7 27,-26 -11,-50 -42,-80 -15,-15 -44,-47 -60,-57 -11,3 -31,26 -37,35l83 83c7,6 22,26 31,26z"/>
   <path class="fil1" d="M158 350c16,-12 6,-15 -23,-43 -35,-34 -19,-28 -17,-37 4,-25 -47,-5 -5,40 7,8 13,13 21,20 8,8 13,16 25,19z"/>
   <path class="fil1" d="M470 457c5,0 8,-3 8,-8 0,-14 -27,8 -8,8z"/>
   <path class="fil1" d="M190 381c16,0 7,-14 6,-19 -26,1 -17,19 -6,19z"/>
  </g>
 </g>
</svg>
