<?xml version="1.0" encoding="UTF-8"?>
<!DOCTYPE svg PUBLIC "-//W3C//DTD SVG 1.1//EN" "http://www.w3.org/Graphics/SVG/1.1/DTD/svg11.dtd">
<!-- Creator: CorelDRAW X6 -->
<svg xmlns="http://www.w3.org/2000/svg" xml:space="preserve" width="799px" height="810px" version="1.1" style="shape-rendering:geometricPrecision; text-rendering:geometricPrecision; image-rendering:optimizeQuality; fill-rule:evenodd; clip-rule:evenodd"
viewBox="0 0 799 810"
 xmlns:xlink="http://www.w3.org/1999/xlink">
 <defs>
  <style type="text/css">
   <![CDATA[
    .str0 {stroke:#5F3773;stroke-width:9.99863}
    .fil0 {fill:none}
    .fil1 {fill:#5F3773}
    .fil4 {fill:#CCCCCC}
    .fil3 {fill:whitesmoke}
    .fil2 {fill:white}
   ]]>
  </style>
 </defs>
 <g id="Capa_x0020_1">
  <metadata id="CorelCorpID_0Corel-Layer"/>
  <g id="_600207432">
   <g>
    <g>
     <rect class="fil0 str0" x="5" y="424" width="381" height="381" rx="56" ry="56"/>
     <path class="fil1" d="M69 689l0 26c-12,-4 -11,-22 0,-26zm-9 -46c0,-7 3,-11 9,-12l0 4 0 17 0 4c-6,-2 -9,-6 -9,-13zm0 -59c0,-6 3,-11 9,-12l0 26c-5,-3 -9,-6 -9,-13zm36 -44l-17 0 0 -74 223 0 0 296 1 0c-72,0 -149,1 -220,0l-4 0 0 -35 19 0c0,5 -2,4 11,4l0 -19c-19,0 -7,2 -12,4l-17 0 0 -48c2,0 17,-1 17,0 0,0 0,1 0,1 0,0 0,1 0,1 2,3 0,2 3,3 1,0 7,0 9,0l0 -19c-10,0 -9,-1 -11,2 -1,2 1,2 -4,2l-15 0 0 -48 18 0c1,2 0,2 1,4l10 0 0 -19c-28,0 10,5 -30,4l0 -48c24,-1 18,0 19,4l10 0 0 -20 -13 5zm-36 -14c0,-7 3,-11 9,-13l0 4 0 17 0 4c-5,-1 -9,-6 -9,-12zm9 -25c-10,4 -20,10 -20,24 0,9 5,17 12,22 3,2 5,2 8,4l0 9c-5,4 -9,4 -13,9 -3,4 -6,10 -6,16 0,7 3,12 6,16 4,5 7,6 14,9l0 9c-8,4 -19,8 -20,25 0,6 3,12 6,16 4,5 7,6 14,9l0 10c-25,6 -28,41 0,49l0 41c1,5 3,5 9,5l225 0c13,0 11,-4 11,-17l0 -282c0,-4 0,-10 0,-13 -1,-5 -2,-6 -8,-6 -75,-1 -151,1 -226,0 -13,0 -11,4 -11,17 0,9 0,19 0,29z"/>
     <polygon class="fil1" points="150,592 277,592 277,580 150,580 "/>
     <polygon class="fil1" points="150,647 277,647 277,635 150,635 "/>
     <path class="fil1" d="M150 698c0,5 1,3 3,3 36,-1 79,0 116,0 9,0 7,3 7,-11l-126 0 0 8z"/>
     <path class="fil1" d="M150 534c0,5 -1,3 15,3 32,0 77,-1 108,0 4,0 3,3 3,-11l-126 0 0 8z"/>
    </g>
    <g>
     <rect class="fil0 str0" x="5" y="5" width="381" height="381" rx="56" ry="56"/>
     <path class="fil1" d="M273 315c-19,-5 -69,-22 -93,-29 -12,-4 -18,-11 -12,-26 10,-2 86,26 103,30 11,3 14,-5 20,-11 5,-6 10,-13 15,-18 6,-6 10,-12 15,-18 5,-6 10,-14 16,-19 1,1 0,-1 2,3 0,0 1,4 1,4 1,8 -2,8 -11,18l-56 67zm-47 -165c1,-6 7,-13 14,-13 4,0 55,12 60,16 -2,6 -4,8 -10,12 -9,1 -56,-12 -65,-15zm133 18c-19,-13 -16,9 -19,20l-66 82 -96 -29c-14,-4 -14,-20 -5,-26 8,-1 52,13 63,17 46,14 36,15 54,-5l65 -76c19,-21 -4,-21 -33,-28 -15,-3 -29,-7 -44,-10 -47,-11 -32,-11 -55,12l-38 43c-5,5 -8,8 -13,14 -4,5 -8,8 -13,14 -8,12 -11,29 -6,44 6,17 -10,19 1,43 6,14 15,16 32,21l81 26c17,6 15,3 31,-16l60 -74c7,-13 -8,-7 1,-46 1,-3 1,-23 0,-27z"/>
     <path class="fil2" d="M329 248c9,-10 12,-11 11,-18 0,0 -1,-4 -1,-4 -2,-4 -1,-2 -2,-3 -5,5 -11,13 -16,19 -5,6 -9,12 -15,18 -5,6 -10,12 -15,18 -5,7 -9,14 -20,11 -17,-4 -93,-32 -103,-30 -6,15 -1,22 12,26 24,8 73,25 93,29l56 -67z"/>
     <path class="fil1" d="M85 162l4 0c4,5 9,19 12,26 2,5 12,22 10,26 -3,4 -10,3 -15,3 -13,0 -44,1 -53,0l24 -54 18 0zm-7 -10c4,-1 3,-1 4,2l-3 1 0 -3zm-9 -78c4,-1 11,-1 16,-1 7,1 6,6 5,12l-6 1 0 4 0 60 -3 -1c-8,-1 -9,10 1,8 2,-2 1,-2 2,-4l3 6 -5 0 -14 0c2,-8 4,-6 4,-16 0,-15 1,-46 0,-58l-6 -1c-1,-4 -1,-10 3,-11zm-5 1l0 12 6 1 0 61c0,3 -4,11 -6,14 -4,8 -24,51 -24,56 3,2 50,1 58,1 27,0 19,-7 8,-31 -3,-6 -18,-36 -18,-41 -1,-19 0,-41 0,-60l6 0c2,-9 2,-17 -9,-17 -8,0 -17,-1 -21,4z"/>
     <path class="fil1" d="M139 182c-4,6 -15,1 -10,-6 4,-6 13,0 10,6zm-4 -30c7,-5 11,6 5,9 -3,1 -6,1 -7,-2 -2,-4 0,-6 2,-7zm10 1c-2,-2 -2,-3 -4,-4l5 0 -1 5zm0 7c1,7 0,20 0,27 0,8 2,20 -3,26 -6,6 -15,3 -17,-4 -1,-4 -1,-23 0,-28 5,10 17,7 17,-2 0,-4 -3,-8 -7,-9 -6,-1 -8,3 -10,5l0 -27 9 0c-2,2 -4,2 -5,5 -2,6 2,12 9,11 3,0 4,-2 6,-4zm-25 -72c4,-5 9,-3 16,-3 3,0 7,0 9,1 2,1 3,5 1,6 -3,7 1,42 -1,54l-20 0 0 -53 -5 -1 0 -3zm-3 6c3,2 2,0 5,2l0 109c0,19 26,19 26,0l0 -109c0,-2 2,-4 1,-7 -1,-5 -5,-6 -10,-6 -13,0 -22,-3 -22,12z"/>
     <path class="fil3" d="M111 214c3,-4 -7,-21 -10,-26 -3,-7 -8,-20 -12,-26l-4 0c1,5 10,22 13,27 2,5 11,23 14,25z"/>
     <path class="fil1" d="M81 207c-4,-13 15,-17 18,-7 5,14 -15,18 -18,7zm-3 0c4,15 28,11 24,-6 -4,-16 -28,-10 -24,6z"/>
     <path class="fil1" d="M71 187c-2,-2 -5,-4 -4,-9 1,-3 5,-6 9,-4 8,2 8,15 -5,14zm13 -4c5,-13 -14,-18 -19,-7 -5,13 14,20 19,7z"/>
     <path class="fil3" d="M120 88l24 0c1,1 0,0 1,2 0,0 0,1 1,2 2,-1 0,-4 -1,-6 -2,-1 -6,-1 -9,-1 -7,0 -12,-2 -16,3z"/>
     <path class="fil1" d="M130 122c-2,-6 3,-7 5,-4 2,3 0,6 -5,4zm-1 3c11,2 11,-8 6,-11 -7,-3 -11,5 -6,11z"/>
     <path class="fil3" d="M90 85c0,-6 1,-11 -5,-12 -5,0 -13,-1 -16,1l17 0 1 10 4 1z"/>
     <path class="fil3" d="M82 157l0 2 5 0 -3 -6c-1,2 0,2 -2,4z"/>
     <path class="fil4" d="M145 153l1 -5 -5 0c2,2 2,3 4,4z"/>
     <path class="fil2" d="M81 154c0,-3 0,-3 -4,-2l0 3 3 -1z"/>
    </g>
   </g>
   <g>
    <rect class="fil0 str0" x="413" y="214" width="381" height="381" rx="56" ry="56"/>
    <path class="fil1" d="M603 363c3,-1 11,-6 15,-7l30 -16c3,-2 13,-8 16,-6 -2,3 -24,17 -30,20 -5,3 -10,6 -15,9 -3,2 -5,3 -8,5 -2,1 -7,4 -7,5 0,10 0,21 0,31 0,10 6,15 16,15l94 0c8,0 17,0 19,-13 1,-6 0,-81 0,-94 0,-11 -2,-18 -12,-20 -5,-1 -82,-1 -94,-1 -11,0 -20,0 -23,9 -2,7 -1,51 -1,62z"/>
    <path class="fil1" d="M635 519l0 47 59 0 0 -48c3,3 8,23 18,24 6,1 10,-5 10,-10 0,-9 -8,-22 -11,-31 -3,-6 -5,-9 -9,-12 -9,-7 -25,-5 -38,-5 -31,0 -37,-2 -53,32 -1,3 -6,12 -6,15 -1,10 12,19 21,3 2,-4 6,-13 7,-14z"/>
    <path class="fil1" d="M661 433c-11,3 -21,13 -18,28 3,11 14,21 28,18 11,-3 20,-14 17,-27 -2,-11 -14,-21 -28,-18z"/>
    <polygon class="fil1" points="702,558 733,558 733,550 702,550 "/>
    <path class="fil1" d="M702 558l0 -8 31 0c-2,-1 -31,0 -32,0l0 8z"/>
    <path class="fil1" d="M497 519l0 47 59 0 0 -48c2,2 5,10 7,13 2,4 6,9 12,9 6,0 11,-4 11,-11 0,-3 -5,-12 -6,-14 -16,-32 -21,-31 -53,-31 -12,0 -28,-2 -37,4 -4,3 -6,6 -9,12 -2,5 -4,9 -6,14 -1,3 -5,12 -6,15 0,6 5,11 10,11 8,1 13,-10 15,-16 1,-2 2,-6 3,-7z"/>
    <path class="fil1" d="M459 520l9 0c1,-4 4,-11 6,-15 7,-18 13,-26 35,-27 -2,-3 -5,-4 -8,-9 -5,-9 -4,-20 1,-28 3,-4 5,-6 8,-9l0 -24 39 0c6,0 5,0 10,-3 5,-3 11,-6 16,-10 10,-6 20,-9 20,-19 0,-4 -3,-6 -5,-8 -7,-3 -28,11 -34,15 -4,3 -4,3 -9,3 -12,0 -57,0 -64,0 -17,2 -23,11 -23,29 -1,34 0,69 0,103z"/>
    <path class="fil1" d="M525 433c-12,1 -22,11 -21,25 1,12 12,22 25,21 12,-1 22,-12 21,-25 -1,-12 -12,-23 -25,-21z"/>
    <path class="fil1" d="M484 338c-28,3 -24,46 5,43 11,-1 20,-11 19,-24 -1,-11 -11,-20 -24,-19z"/>
    <polygon class="fil1" points="563,558 629,558 629,557 629,550 563,550 "/>
    <polygon class="fil1" points="459,558 490,558 490,557 490,550 459,550 "/>
    <path class="fil1" d="M563 558c2,1 31,1 33,1 7,0 28,1 33,0l0 -8c-4,-1 -47,0 -58,0 -2,0 -6,0 -8,1l66 0 0 7 0 0 -66 0z"/>
    <path class="fil1" d="M459 558c2,1 30,0 31,0l0 -8c-2,0 -29,-1 -31,0l30 0 0 7 0 0 -30 0z"/>
   </g>
  </g>
 </g>
</svg>
