<?xml version="1.0" encoding="UTF-8"?>
<!DOCTYPE svg PUBLIC "-//W3C//DTD SVG 1.1//EN" "http://www.w3.org/Graphics/SVG/1.1/DTD/svg11.dtd">
<!-- Creator: CorelDRAW X6 -->
<svg xmlns="http://www.w3.org/2000/svg" xml:space="preserve" width="800px" height="800px" version="1.1" style="shape-rendering:geometricPrecision; text-rendering:geometricPrecision; image-rendering:optimizeQuality; fill-rule:evenodd; clip-rule:evenodd"
viewBox="0 0 800 800"
 xmlns:xlink="http://www.w3.org/1999/xlink">
 <defs>
  <style type="text/css">
   <![CDATA[
    .fil0 {fill:#5F3773}
   ]]>
  </style>
 </defs>
 <g id="Capa_x0020_1">
  <metadata id="CorelCorpID_0Corel-Layer"/>
  <g id="_600202752">
   <path class="fil0" d="M118 0l565 0c65,0 118,53 118,118l0 565c0,65 -53,118 -118,118l-565 0c-65,0 -118,-53 -118,-118l0 -565c0,-65 53,-118 118,-118zm47 537l0 54c-26,-8 -24,-47 0,-54zm-18 -97c0,-14 7,-24 18,-26l0 8 0 36 0 9c-12,-3 -18,-13 -18,-27zm0 -123c0,-13 5,-23 18,-26l0 54c-11,-6 -18,-12 -18,-28zm0 -123c0,-14 7,-24 18,-27l0 9 0 36 0 8c-11,-2 -18,-12 -18,-26zm18 -52c-21,9 -41,20 -42,51 -1,18 10,36 24,46 6,4 10,4 17,8l1 19c-10,7 -19,8 -28,18 -7,8 -13,21 -13,35 0,14 6,26 12,34 8,10 15,13 30,19l-1 19c-16,8 -41,17 -41,52 0,14 6,26 12,34 8,10 15,13 30,19l0 20c-52,12 -59,87 0,103l0 86c2,11 7,11 18,11l472 0c28,0 22,-8 22,-35l0 -591c0,-8 1,-20 0,-28 -1,-11 -5,-13 -16,-13 -157,-1 -317,2 -474,0 -28,0 -22,8 -22,35 0,20 -1,41 0,60z"/>
   <path class="fil0" d="M334 539l265 0c0,30 3,23 -15,23 -77,0 -168,-2 -243,0 -6,0 -7,3 -7,-7l0 -16zm0 -115l265 0 0 24 -266 0 0 -24zm-1 -115l266 0 0 24 -265 0 0 -24zm1 -113l265 0c0,29 1,23 -7,23 -63,-2 -159,0 -226,0 -34,0 -32,3 -32,-7l1 -16zm-86 18l0 42 -22 -1c-3,-9 11,-11 -40,-9l0 101c82,2 3,-8 62,-8l0 39 -21 0c-2,-4 -1,-3 -3,-8l-38 0 0 100 32 0c11,0 6,-1 8,-5 3,-6 2,-4 22,-4l0 40c-3,0 -16,1 -18,0 -7,-1 -2,1 -6,-5 0,0 -1,-1 -1,-1 0,0 -1,-1 -1,-1 0,-2 -32,-1 -36,-1l0 100 36 0c12,-3 -15,-8 26,-8l0 40c-27,0 -23,2 -23,-8l-39 0 0 73 8 0c149,2 311,0 462,0l-2 0 0 -621 -468 0 0 154 35 1 27 -10z"/>
  </g>
 </g>
</svg>
