<?xml version="1.0" encoding="UTF-8"?>
<!DOCTYPE svg PUBLIC "-//W3C//DTD SVG 1.1//EN" "http://www.w3.org/Graphics/SVG/1.1/DTD/svg11.dtd">
<!-- Creator: CorelDRAW X6 -->
<svg xmlns="http://www.w3.org/2000/svg" xml:space="preserve" width="800px" height="800px" version="1.1" style="shape-rendering:geometricPrecision; text-rendering:geometricPrecision; image-rendering:optimizeQuality; fill-rule:evenodd; clip-rule:evenodd"
viewBox="0 0 800 800"
 xmlns:xlink="http://www.w3.org/1999/xlink">
 <defs>
  <style type="text/css">
   <![CDATA[
    .fil0 {fill:#5F3773}
    .fil2 {fill:#CCCCCC}
    .fil1 {fill:whitesmoke}
    .fil3 {fill:white}
   ]]>
  </style>
 </defs>
 <g id="Capa_x0020_1">
  <metadata id="CorelCorpID_0Corel-Layer"/>
  <g id="_600541528">
   <path class="fil0" d="M118 0l565 0c65,0 118,53 118,118l0 565c0,65 -53,118 -118,118l-565 0c-65,0 -118,-53 -118,-118l0 -565c0,-65 53,-118 118,-118zm127 225c-4,-12 6,-14 10,-9 5,5 0,13 -10,9zm-2 7c23,4 24,-18 12,-22 -14,-6 -24,10 -12,22zm-122 131c-5,-5 -11,-9 -8,-20 2,-6 9,-12 19,-9 16,4 17,32 -11,29zm26 -7c10,-27 -30,-38 -39,-15 -11,27 29,41 39,15zm-6 48c-8,-28 30,-37 38,-14 10,29 -32,37 -38,14zm-6 0c8,32 60,23 51,-14 -8,-33 -59,-21 -51,14zm128 -52c-8,13 -31,3 -21,-13 8,-12 28,0 21,13zm-9 -62c14,-10 23,13 11,19 -6,3 -13,1 -15,-4 -4,-8 1,-12 4,-14zm21 16c3,14 1,41 1,57 0,16 4,43 -6,54 -12,13 -32,7 -36,-9 -2,-8 -1,-48 0,-58 10,21 36,16 36,-4 0,-9 -7,-17 -15,-18 -12,-2 -16,7 -21,11l0 -57 20 0c-4,4 -8,5 -10,11 -4,13 5,25 19,23 7,-1 9,-5 13,-9zm2 -143c-6,16 3,88 -2,113l-42 0 -1 -110 -10 -3 0 -6 50 1c2,2 1,1 2,4 0,0 1,2 1,3zm-61 5c6,4 5,1 10,3l0 229c0,41 54,40 54,0l1 -228c1,-4 4,-8 3,-15 -2,-11 -10,-13 -22,-13 -27,0 -47,-6 -46,25zm-12 252c-6,8 -21,5 -32,5 -27,0 -92,1 -112,0l50 -114 39 0c2,11 21,45 27,56 5,10 23,48 28,53zm-45 -272l-13 1 0 9 0 126 -6 -2c-18,-2 -18,22 3,18l1 5 -30 0c5,-16 8,-13 8,-34 0,-32 2,-96 0,-121l-13 -2c-1,-9 -3,-20 6,-23l35 1 1 21 9 1zm-56 -21l-1 26 13 2 0 127c-1,7 -9,22 -12,30 -8,18 -50,107 -51,118 7,4 104,2 122,2 57,0 40,-15 17,-65 -6,-13 -38,-75 -39,-86 -3,-39 0,-85 0,-126l13 -1c4,-19 3,-35 -18,-36 -18,-1 -36,-3 -43,9zm342 159c2,-13 14,-27 29,-27 8,0 115,25 127,34 -4,12 -9,18 -20,24 -19,1 -117,-24 -136,-31zm278 39c-39,-27 -33,19 -40,43l-139 172 -202 -61c-29,-9 -29,-41 -11,-56 17,-3 110,28 132,35 97,30 75,31 112,-10l135 -159c40,-45 -9,-44 -70,-58 -31,-7 -62,-14 -92,-21 -99,-23 -67,-22 -116,26l-79 90c-10,11 -17,18 -27,30 -9,12 -17,17 -27,30 -18,24 -24,60 -12,92 13,36 -21,39 2,91 13,30 32,33 68,45l171 54c36,12 32,6 66,-34l127 -155c15,-28 -16,-16 2,-97 2,-7 2,-48 1,-56z"/>
   <path class="fil0" d="M662 490c18,-21 25,-23 22,-39 0,0 -2,-8 -2,-8 -3,-9 -2,-4 -4,-7 -11,10 -23,28 -33,40 -11,13 -19,25 -31,39 -10,12 -20,25 -31,38 -11,14 -18,30 -41,24 -37,-9 -196,-67 -216,-63 -13,31 -1,46 25,55 50,16 154,52 195,62l117 -141z"/>
   <path class="fil1" d="M206 419c6,-8 -15,-44 -21,-55 -7,-14 -17,-42 -26,-54l-8 -1c2,11 21,45 27,56 5,10 23,48 28,53z"/>
   <path class="fil1" d="M225 155l50 1c2,2 1,1 2,4 0,0 1,2 1,3 4,-2 1,-9 -2,-12 -4,-3 -12,-2 -18,-2 -15,0 -26,-3 -34,6z"/>
   <path class="fil1" d="M161 147c1,-12 3,-23 -11,-25 -10,-1 -27,-2 -34,1l35 1 1 21 9 1z"/>
   <path class="fil1" d="M145 299l1 5 11 0 -7 -13c-3,5 -1,4 -5,8z"/>
   <path class="fil2" d="M277 291l1 -10 -10 1c4,4 5,5 9,9z"/>
   <path class="fil3" d="M143 292c-1,-7 0,-6 -7,-5l0 7 7 -2z"/>
  </g>
 </g>
</svg>
