<?xml version="1.0" encoding="UTF-8"?>
<!DOCTYPE svg PUBLIC "-//W3C//DTD SVG 1.1//EN" "http://www.w3.org/Graphics/SVG/1.1/DTD/svg11.dtd">
<!-- Creator: CorelDRAW X6 -->
<svg xmlns="http://www.w3.org/2000/svg" xml:space="preserve" width="810px" height="810px" version="1.1" style="shape-rendering:geometricPrecision; text-rendering:geometricPrecision; image-rendering:optimizeQuality; fill-rule:evenodd; clip-rule:evenodd"
viewBox="0 0 810 810"
 xmlns:xlink="http://www.w3.org/1999/xlink">
 <defs>
  <style type="text/css">
   <![CDATA[
    .str0 {stroke:#5F3773;stroke-width:10.0004}
    .fil0 {fill:none}
    .fil1 {fill:#5F3773}
   ]]>
  </style>
 </defs>
 <g id="Capa_x0020_1">
  <metadata id="CorelCorpID_0Corel-Layer"/>
  <g id="_594446608">
   <rect class="fil0 str0" x="5" y="5" width="800" height="800" rx="118" ry="118"/>
   <path class="fil1" d="M405 317c6,-1 24,-12 31,-16l62 -33c7,-4 26,-16 33,-13 -4,7 -50,35 -62,42 -10,7 -22,13 -32,20 -6,4 -10,6 -16,10 -4,3 -15,8 -15,11 0,22 0,44 0,66 0,21 13,31 34,32l198 0c17,0 36,1 40,-27 2,-13 1,-170 1,-197 0,-23 -5,-37 -25,-42 -11,-3 -171,-1 -197,-1 -23,0 -41,-1 -48,19 -5,14 -3,107 -3,129z"/>
   <path class="fil1" d="M472 644l0 100 125 0 0 -101c6,7 17,48 39,50 13,1 21,-10 21,-22 1,-19 -16,-47 -24,-65 -5,-13 -10,-19 -19,-26 -18,-14 -53,-10 -79,-10 -65,0 -79,-4 -110,67 -3,7 -12,25 -12,31 -2,21 25,40 45,6 5,-9 12,-28 14,-30z"/>
   <path class="fil1" d="M525 465c-23,5 -45,28 -38,58 5,23 29,45 59,37 23,-5 42,-28 37,-57 -4,-23 -28,-45 -58,-38z"/>
   <polygon class="fil1" points="612,726 677,726 678,710 612,710 "/>
   <path class="fil1" d="M612 726l0 -16 66 0c-5,-3 -65,-1 -66,-1l1 17z"/>
   <path class="fil1" d="M182 644l0 100 124 0 0 -100c5,4 11,21 16,27 5,7 13,18 25,19 13,1 23,-9 22,-22 0,-6 -11,-25 -14,-30 -33,-67 -43,-65 -110,-65 -25,0 -60,-4 -77,9 -8,6 -13,14 -18,26 -4,10 -9,20 -13,30 -3,6 -11,26 -12,32 -1,12 9,23 20,24 17,1 26,-21 31,-34 1,-4 4,-12 6,-16z"/>
   <path class="fil1" d="M102 647l18 0c2,-8 9,-23 12,-31 15,-38 28,-54 74,-56 -5,-6 -10,-9 -16,-20 -10,-19 -8,-41 2,-59 5,-9 11,-13 18,-19l0 -50 81 0c14,0 11,1 21,-6 11,-7 22,-13 34,-20 21,-13 42,-20 42,-39 0,-7 -5,-14 -11,-16 -16,-6 -58,24 -72,33 -9,5 -8,7 -20,7 -24,0 -120,-1 -135,0 -36,3 -48,23 -49,60 -1,72 0,145 0,217z"/>
   <path class="fil1" d="M240 465c-26,2 -47,23 -45,53 2,25 25,47 53,44 25,-2 46,-24 44,-52 -2,-26 -25,-47 -52,-45z"/>
   <path class="fil1" d="M154 264c-59,7 -50,97 11,90 24,-3 43,-24 40,-51 -3,-23 -24,-42 -50,-39z"/>
   <polygon class="fil1" points="320,726 458,726 458,725 458,710 320,710 "/>
   <polygon class="fil1" points="103,726 166,726 166,725 166,710 103,710 "/>
   <path class="fil1" d="M320 726c4,2 64,1 69,1 14,0 58,2 69,-1l0 -17c-9,-2 -99,-1 -122,-1 -4,0 -14,-1 -17,1l138 0 0 15 0 1 -138 0z"/>
   <path class="fil1" d="M103 726c5,3 63,1 64,1l0 -17c-3,-1 -60,-2 -65,1l64 0 0 15 0 1 -64 0z"/>
  </g>
 </g>
</svg>
