<?xml version="1.0" encoding="UTF-8"?>
<!DOCTYPE svg PUBLIC "-//W3C//DTD SVG 1.1//EN" "http://www.w3.org/Graphics/SVG/1.1/DTD/svg11.dtd">
<!-- Creator: CorelDRAW X6 -->
<svg xmlns="http://www.w3.org/2000/svg" xml:space="preserve" width="800px" height="791px" version="1.1" style="shape-rendering:geometricPrecision; text-rendering:geometricPrecision; image-rendering:optimizeQuality; fill-rule:evenodd; clip-rule:evenodd"
viewBox="0 0 800 791"
 xmlns:xlink="http://www.w3.org/1999/xlink">
 <defs>
  <style type="text/css">
   <![CDATA[
    .fil0 {fill:#5F3773}
    .fil2 {fill:#CCCCCC}
    .fil1 {fill:whitesmoke}
    .fil3 {fill:white}
   ]]>
  </style>
 </defs>
 <g id="Capa_x0020_1">
  <metadata id="CorelCorpID_0Corel-Layer"/>
  <g id="_600539368">
   <g>
    <g>
     <path class="fil0" d="M56 411l268 0c31,0 56,25 56,56l0 268c0,31 -25,56 -56,56l-268 0c-31,0 -56,-25 -56,-56l0 -268c0,-31 25,-56 56,-56zm22 255l0 26c-12,-4 -11,-22 0,-26zm-9 -46c0,-7 3,-11 9,-12l0 4 0 17 0 4c-5,-2 -9,-6 -9,-13zm0 -58c0,-6 3,-11 9,-12l0 26c-5,-3 -9,-6 -9,-13zm0 -58c0,-7 3,-11 9,-13l0 4 0 17 0 4c-5,-1 -9,-6 -9,-12zm9 -25c-10,4 -19,9 -20,24 0,9 5,17 11,22 3,2 5,2 8,4l0 9c-5,4 -9,4 -13,9 -3,4 -6,10 -6,16 0,7 3,12 6,16 4,5 7,6 14,9l0 9c-8,4 -19,8 -20,25 0,6 3,12 6,16 4,5 7,6 14,9l0 10c-25,6 -28,41 0,49l0 41c1,5 3,5 9,5l224 0c13,0 11,-4 11,-17l0 -280c0,-4 0,-10 0,-13 -1,-5 -2,-6 -8,-6 -74,-1 -150,1 -225,0 -13,0 -11,4 -11,17 0,9 0,19 0,29z"/>
     <path class="fil0" d="M158 667l126 0c0,14 1,11 -7,11 -37,0 -80,-1 -115,0 -3,0 -3,1 -3,-3l0 -8zm0 -54l126 0 0 11 -126 0 0 -11zm0 -54l126 0 0 11 -126 0 0 -11zm0 -54l126 0c0,14 0,11 -3,11 -30,-1 -75,0 -107,0 -16,0 -15,2 -15,-3l0 -8zm-41 9l0 20 -10 0c-1,-4 5,-5 -19,-4l0 48c39,1 2,-4 30,-4l0 19 -10 0c-1,-2 0,-2 -1,-4l-18 0 0 47 15 0c5,0 3,-1 4,-2 2,-3 1,-2 11,-2l0 19c-1,0 -8,0 -9,0 -3,-1 -1,0 -3,-3 0,0 0,-1 0,-1 0,0 0,0 0,-1 0,-1 -15,0 -17,0l0 47 17 0c6,-1 -7,-4 12,-4l0 19c-13,0 -11,1 -11,-4l-19 0 0 34 4 0c71,1 147,0 219,0l-1 0 0 -294 -222 0 0 73 17 0 13 -5z"/>
    </g>
    <g>
     <path class="fil0" d="M56 0l268 0c31,0 56,25 56,56l0 268c0,31 -25,56 -56,56l-268 0c-31,0 -56,-25 -56,-56l0 -268c0,-31 25,-56 56,-56zm60 107c-2,-6 3,-6 5,-4 2,3 0,6 -5,4zm-1 3c11,2 11,-8 6,-11 -7,-3 -11,5 -6,11zm-58 62c-2,-2 -5,-4 -4,-9 1,-3 4,-6 9,-4 8,2 8,15 -5,14zm13 -3c5,-13 -14,-18 -19,-7 -5,13 14,20 19,7zm-3 23c-4,-13 14,-17 18,-7 5,14 -15,18 -18,7zm-3 0c4,15 28,11 24,-6 -4,-15 -28,-10 -24,6zm61 -24c-4,6 -15,1 -10,-6 4,-6 13,0 10,6zm-4 -30c7,-5 11,6 5,9 -3,1 -6,1 -7,-2 -2,-4 0,-6 2,-7zm10 8c1,7 0,20 0,27 0,8 2,20 -3,25 -6,6 -15,3 -17,-4 -1,-4 -1,-23 0,-27 5,10 17,7 17,-2 0,-4 -3,-8 -7,-9 -6,-1 -7,3 -10,5l0 -27 9 0c-2,2 -4,2 -5,5 -2,6 2,12 9,11 3,0 4,-2 6,-4zm1 -68c-3,7 1,42 -1,53l-20 0 0 -52 -5 -1 0 -3 24 0c1,1 0,0 1,2 0,0 0,1 1,2zm-29 2c3,2 2,0 5,2l0 108c0,19 26,19 26,0l0 -108c0,-2 2,-4 1,-7 -1,-5 -5,-6 -10,-6 -13,0 -22,-3 -22,12zm-6 119c-3,4 -10,2 -15,2 -13,0 -44,1 -53,0l24 -54 18 0c1,5 10,21 13,27 2,5 11,23 13,25zm-21 -129l-6 1 0 4 0 60 -3 -1c-8,-1 -9,10 1,8l0 2 -14 0c2,-8 4,-6 4,-16 0,-15 1,-45 0,-57l-6 -1c-1,-4 -1,-10 3,-11l17 0 1 10 4 1zm-27 -10l0 12 6 1 0 60c0,3 -4,10 -6,14 -4,8 -24,51 -24,56 3,2 49,1 58,1 27,0 19,-7 8,-31 -3,-6 -18,-36 -18,-41 -1,-19 0,-40 0,-60l6 0c2,-9 2,-17 -8,-17 -8,0 -17,-1 -20,4zm162 75c1,-6 6,-13 14,-13 4,0 55,12 60,16 -2,6 -4,8 -10,11 -9,1 -56,-11 -64,-15zm132 18c-19,-13 -16,9 -19,20l-66 82 -96 -29c-14,-4 -14,-20 -5,-26 8,-1 52,13 62,16 46,14 36,15 53,-5l64 -75c19,-21 -4,-21 -33,-27 -15,-3 -29,-7 -44,-10 -47,-11 -32,-11 -55,12l-37 43c-5,5 -8,8 -13,14 -4,5 -8,8 -13,14 -8,12 -11,28 -6,44 6,17 -10,19 1,43 6,14 15,16 32,21l81 26c17,6 15,3 31,-16l60 -73c7,-13 -8,-7 1,-46 1,-3 1,-23 0,-27z"/>
     <path class="fil0" d="M314 232c9,-10 12,-11 11,-18 0,0 -1,-4 -1,-4 -2,-4 -1,-2 -2,-3 -5,5 -11,13 -16,19 -5,6 -9,12 -15,18 -5,6 -10,12 -15,18 -5,7 -9,14 -20,11 -17,-4 -93,-32 -102,-30 -6,15 -1,22 12,26 24,8 73,25 92,29l55 -67z"/>
     <path class="fil1" d="M97 199c3,-4 -7,-21 -10,-26 -3,-7 -8,-20 -12,-25l-4 0c1,5 10,21 13,27 2,5 11,23 13,25z"/>
     <path class="fil1" d="M107 73l24 0c1,1 0,0 1,2 0,0 0,1 1,2 2,-1 0,-4 -1,-6 -2,-1 -6,-1 -9,-1 -7,0 -12,-2 -16,3z"/>
     <path class="fil1" d="M76 70c0,-6 1,-11 -5,-12 -5,0 -13,-1 -16,1l17 0 1 10 4 1z"/>
     <path class="fil1" d="M69 142l0 2 5 0 -3 -6c-1,2 0,2 -2,4z"/>
     <path class="fil2" d="M131 138l1 -5 -5 0c2,2 2,3 4,4z"/>
     <path class="fil3" d="M68 139c0,-3 0,-3 -3,-2l0 3 3 -1z"/>
    </g>
   </g>
   <path class="fil0" d="M477 206l268 0c31,0 56,25 56,56l0 268c0,31 -25,56 -56,56l-268 0c-31,0 -56,-25 -56,-56l0 -268c0,-31 25,-56 56,-56zm-14 325l0 7c2,1 30,0 30,0l0 -8c-2,0 -29,-1 -31,0zm103 0l0 7c2,1 30,1 33,1 7,0 28,1 33,0l0 -8c-4,-1 -47,0 -58,0 -2,0 -6,0 -8,0zm-79 -211c-28,3 -24,46 5,43 11,-1 20,-11 19,-24 -1,-11 -11,-20 -24,-18zm41 95c-12,1 -22,11 -21,25 1,12 12,22 25,21 12,-1 22,-12 21,-25 -1,-12 -12,-22 -25,-21zm-66 86l9 0c1,-4 4,-11 6,-15 7,-18 13,-26 35,-27 -2,-3 -5,-4 -8,-9 -5,-9 -4,-20 1,-28 3,-4 5,-6 8,-9l0 -24 39 0c6,0 5,0 10,-3 5,-3 11,-6 16,-10 10,-6 20,-9 20,-19 0,-4 -3,-6 -5,-7 -7,-3 -27,11 -34,15 -4,3 -4,3 -9,3 -12,0 -57,0 -64,0 -17,2 -23,11 -23,28 -1,34 0,69 0,103zm38 -2l0 47 59 0 0 -48c2,2 5,10 7,13 2,4 6,9 12,9 6,0 11,-4 10,-11 0,-3 -5,-12 -6,-14 -16,-32 -20,-31 -52,-31 -12,0 -28,-2 -37,4 -4,3 -6,6 -9,12 -2,5 -4,9 -6,14 -1,3 -5,12 -6,15 0,6 4,11 9,11 8,1 12,-10 15,-16 1,-2 2,-6 3,-7zm204 39l31 0 0 -8c-2,-1 -31,0 -31,0l0 8zm-41 -124c-11,2 -21,13 -18,28 2,11 14,21 28,18 11,-3 20,-13 17,-27 -2,-11 -13,-21 -28,-18zm-25 85l0 47 59 0 0 -48c3,3 8,23 18,24 6,1 10,-5 10,-10 0,-9 -8,-22 -11,-31 -3,-6 -5,-9 -9,-12 -8,-7 -25,-5 -38,-5 -31,0 -37,-2 -52,32 -1,3 -6,12 -6,15 -1,10 12,19 21,3 2,-4 6,-13 7,-14zm-32 -155c3,-1 11,-6 15,-7l29 -16c3,-2 12,-8 16,-6 -2,3 -24,16 -29,20 -5,3 -10,6 -15,9 -3,2 -5,3 -8,5 -2,1 -7,4 -7,5 0,10 0,21 0,31 0,10 6,15 16,15l94 0c8,0 17,0 19,-13 1,-6 0,-80 0,-94 0,-11 -2,-18 -12,-20 -5,-1 -81,-1 -93,-1 -11,0 -20,0 -23,9 -2,7 -1,51 -1,61z"/>
  </g>
 </g>
</svg>
